<?xml version="1.0" encoding="utf-8"?>
<!-- Generator: Adobe Illustrator 26.5.0, SVG Export Plug-In . SVG Version: 6.00 Build 0)  -->
<svg version="1.1" id="Layer_1" xmlns="http://www.w3.org/2000/svg" xmlns:xlink="http://www.w3.org/1999/xlink" x="0px" y="0px"
	 viewBox="0 0 864.1 546.4" style="enable-background:new 0 0 864.1 546.4;" xml:space="preserve">
<style type="text/css">
	.st0{fill:#3F497F;}
</style>
<g id="Layer_1_00000067933254344991100350000013885622692883177633_" transform="translate(-100.537 -60.01)">
	<g id="Group_1" transform="translate(100.537 60.01)">
		<path id="Path_1" class="st0" d="M697.6,546.4H154.5c-0.2-10.1-0.7-20.1-3.6-29.9c-2.3-7.7-4.1-15.6-6.1-23.4
			c-2.4-9.6-2.3-19.4-2.8-29.2c-0.2-3.6-0.7-6.8-3.8-9.1c-1-0.9-1.7-2.1-2.2-3.3c-1.2-3.1-1.8-6.5-3.2-9.4c-2-4-4.2-7.9-6.8-11.6
			c-3.2-4.8-7-9.2-10-14c-5.5-8.8-10.7-17.8-15.9-26.8c-4.4-7.7-8.8-15.5-12.9-23.4c-4.7-9-9-18.2-13.5-27.3
			c-5.3-10.7-10.8-21.3-15.7-32.2c-6.2-13.8-12.1-27.7-17.7-41.7c-6.7-16.6-13-33.4-19.6-50.1c-2.5-6.3-21.5-79.3-20.6-93.3
			c0.3-5.1,1.9-10.1,4.7-14.5c3.6-5.7,9-13.7,11.8-18c1.3-1.9,3.2-3.3,5.5-3.8c5.5-1.3,16.3-3.9,22.7-4.7c9.5-1.1,19.1-1.2,28.6-0.3
			c2.6,0.2,3.9-0.8,5.3-3c2.4-3.9,5.2-7.6,10-8.9c1.7-0.5,3.6-0.2,5.3-0.6c2.2-0.6,4.3-1.4,6.3-2.3c4.9-1.9,9.8-3.6,14.6-5.7
			c2.4-1.1,4.5-2.9,6.8-4.3c1-0.7,2-1.2,3.2-1.5c3.5-0.9,7.3-0.2,10.3,1.8c5.3,3.7,10.1,8.1,15.2,12.1c1.3,1,2.4,2.4,3.8,3
			c7.2,2.9,14.1,6.5,20.6,10.9c4.9,3.4,10.1,6.4,15.2,9.5c1,0.6,2,1,3.1,1.2c3.2,0.5,6.5,0.8,9.8,1.1c3.5,0.3,6.9,0.7,10.4,0.8
			c1-0.1,2-0.4,2.9-0.9c-0.6-3.1,1.3-2.2,2.9-1.9c0.3,0.1,0.6,0,0.8-0.1c3.7-2.1,8.3-2.3,12.2-0.5c1,0.2,2.1,0,2.9-0.6
			c2.6-1.5,4.9-3.6,7.6-4.8c3-1.2,6.1-2.2,9.3-2.8c0.9-0.2,2.1,0.5,3.1,1c1.7,0.8,3.3,1.7,4.9,2.7c1.1,0.5,2.1,1.2,3,2.1
			c1.5,2.1,3.8,1.6,5.7,2.1c0.7,0.2,1.7-1.2,2.7-1.8c0.5-0.2,1-0.4,1.6-0.4c0.1,0.4,0.2,0.9,0.3,1.3c0,0.4,0,0.9,0,1.3
			c0.4-0.3,1-0.5,1.2-0.8c0.3-0.5,0.5-1.1,0.4-1.7c-0.6-3.2,0.5-6.8-2.3-9.5c-0.1-0.1,0.5-1.4,0.8-1.4c3.6,0.1,7.1,0.4,10.7,0.6
			c0.9,0,2.2,0.1,2.7-0.4c1.1-1.2,2.2-0.7,3.5-0.7c0.9,0,1.7-0.3,2.3-0.9c1.6-2.4,2.2-5.8,6.2-6c0.3,0,0.7-0.9,1-1.4
			c-0.5-0.2-0.9-0.3-1.3-0.6c-0.7-0.4-1.3-0.9-1.9-1.4c0.7-0.5,1.3-1.1,2.1-1.6c1.1-0.8,2.5-1.2,3.4-2.2c1.1-1.2,1.9-2.4,3.9-2
			c0.7,0,1.3-0.3,1.7-0.9c0.8-2.9,2.2-5,5.4-5.3c0.1,0,0.2-0.2,0.3-0.3c3.1-4.7,8.7-7.3,10.9-12.9c0.1-0.2,0.5-0.4,0.7-0.5
			c1.9-0.9,2.1-2.4,1.1-4.1c-0.8-1.3-0.6-2.3,0.6-3.1c2-1.4,4.1-2.6,6.2-3.7c2.6-1.1,5.4-1.8,8-2.7c0.4-0.2,0.8-0.5,1.2-0.8
			c-0.5-0.2-0.9-0.6-1.3-0.6c-2.9,0-5.8,0.1-8.7,0.1c-0.3,0-0.6-0.1-0.9-0.2c0.3-0.1,0.5-0.2,0.8-0.3c4.7-0.4,9.4-1,14.1-1
			c4.5,0,8-2.9,12.2-3.8c0.1,0,0.2-0.2,0.4-0.2c3.9-1.4,7.7-3.2,11.7-4.1c2.3-0.5,4.4-0.7,6.1-2.6c1.5-1.7,3.3-3.3,5.2-4.6
			c3.5-2.4,6.5-5.5,10-8c1.2-0.7,2.4-1.3,3.7-1.7c-1,1-2,2.1-3.1,3c-3.1,2.6-6.2,5.1-9.3,7.6c-0.3,0.3-0.5,0.7-0.6,1.1
			c0.4,0.1,0.8,0,1.2-0.1c2-1.1,4.2-1.8,5.7-3.3c3.6-3.4,8-4.2,12.5-4.6c3.4-0.3,6.9,0.6,10.4,0.8c4.4,0.2,8.9,0.1,13.4,0.2
			c0.4,0,0.8,0.1,1.2,0.2c2.1,0.8,3.6-0.4,5-1.7c0.4-0.4,0.9-0.8,1.4-1.1c0.3-0.1,0.6-0.2,1-0.2c-0.1,0.3-0.3,0.5-0.4,0.7
			c-1.3,1.8-1.1,2.4,1,3c0.8,0.1,1.6,0.2,2.4,0.2c6.6,0,13.3,0.1,19.9,0.1c1.6,0,3.5,0.2,4.8-0.5c2.4-1.3,4.6-2.5,7.5-2.4
			c5.3,0.2,10.4-2.8,15.8,0.5c3.5,2.1,7.5,3.7,9.5,7.4c1.8,3.3,5.2,4.4,8.1,6c2.6,1.5,5.7,2,8.7,2.5c2.7,0.5,5,2.3,6.1,4.8
			c0.5,1.1,0.4,2.3,2.2,2.2c0.2,0,0.8,1,0.8,1.5c-0.1,2.8,0.4,3.5,3.1,4.2c0.7,0.2,1.4,0.5,2.1,0.8c3.6,1.3,5.6,4.2,7.9,7
			c1.6,1.9,3.3,3.6,5.1,5.2c0.5,0.5,1.4,0.4,2.1,0.6c-0.4,0.4-0.9,0.9-1.3,1.3c-0.1,0.2-0.2,0.4-0.1,0.6c0.6,1.6,0.6,3.7,3,4
			c1.6,0.2,3.2,0.6,4.7,0.8c0.4,0,0.9,0,1.3-0.1c-0.3-0.3-0.7-0.7-1-1c-1.1-1.3-3.4-0.8-4.1-2.8c-0.2-0.4-0.3-0.8-0.5-1.1
			c0.4,0,0.8,0.1,1.2,0.2c1.4,0.8,2.8,1.7,4.2,2.6c1.4,1.1,2.6,2.6,4.1,3.4c1.9,1,4.1,1.6,6.3,1.7c3,0,4.5,2.2,6.6,3.5
			c0.5,0.3,1,0.6,1.5,0.9c-0.4-0.4-0.7-0.8-0.9-1.3s-0.3-1-0.3-1.5c0.5,0.2,1.1,0.2,1.4,0.5c0.6,0.7,0.8,1.7,1.5,2.2
			c2,1.5,3.4,3.6,4,6c0.7,2.5,2.5,3.6,5.1,3.4c1.6-0.1,3.1,0.1,4.1,1.6c0.9,1.3,1.5,0.5,2-0.6c1.4-2.7,3.5-4.6,6.6-4.6
			c3.3-0.1,6.2,1.8,7.6,4.7c1.4,2.9,2.4,6,3.5,9c0.1,0.3,0.2,0.7,0.1,1c-0.3,1.6-0.8,3.2-1,4.9c0,0.7,0.1,1.4,0.3,2.1
			c0.7-0.1,1.4-0.3,2.1-0.4c2.5-0.4,4.9-0.8,7.4-1c0.3,0,0.7,0.6,1,0.9c-0.3,0.2-0.7,0.4-1.1,0.5c-0.3,0.1-0.8-0.3-1.1-0.2
			c-0.5,0.2-0.9,0.5-1.3,0.8c0.3,0.3,0.7,0.6,1.2,0.8c0.4,0.1,0.9-0.1,1.3-0.1c3.3,0.2,7.2-0.5,9.2,3.1c1.6,2.9,4.2,4.1,7.1,4.8
			c1,0.3,2.1,0.2,3.1-0.1c2-1.1,3.7-2.7,5.8-3.7c4.3-2.1,8.8-3.8,13.2-5.8c2-0.9,3.7-2.2,5.6-3.2c5.1-2.4,10.3-4.8,15.4-7.1
			c2.3-1,4.7-2.2,7.1-2.5c2.1-0.1,3.9-1.3,5-3.1c0.9-1.3,2.4-2.8,3.8-3c6.5-1,13-1.9,19.6-2.3c4.9-0.3,9.8,0.2,12.9,5
			c0.4,0.5,0.8,0.9,1.4,1.1c4.9,2.6,9.8,5.3,14.8,7.8c1.4,0.7,2.9,1,4.4,1c8.6-0.4,17.2-1.3,25.7-1.4c14.1-0.2,28.2,0.4,42.2,3
			c13.4,2.5,26.8,4.7,39.4,10.1c8.6,3.7,14.3,9.5,15.8,19c0.4,2.4,0.7,4.8,1.2,7.2c2.5,11.7,2.8,23.2-1.3,34.8
			c-3.7,10.6-6.1,21.6-9.9,32.1c-7.4,20-15.1,39.8-23.2,59.5c-5.9,14.3-12.3,28.4-19,42.3c-6.5,13.5-13.6,26.8-20.5,40.1
			c-5.4,10.3-10.7,20.7-16.5,30.8c-7.2,12.6-14.8,25.1-22.4,37.5c-3.8,6.2-7.9,12.1-12.1,18c-2.8,4-5.4,8.1-8.1,12.1
			c-2,2.9-4.1,5.7-6.1,8.5c-2.3,3.2-4.5,6.7-7.1,9.7c-2.1,2.1-3.4,4.9-3.8,7.9c-0.2,3.4-1.4,6.6-3.5,9.3c-1.5,1.8-2.3,4-2.2,6.4
			c-0.1,2.1-0.3,4.2-0.6,6.2c-0.3,2.7-0.8,5.5-1.1,8.2c-0.4,3.9-0.1,8.1-1.3,11.7c-2.1,5.9-2.7,12-3.2,18
			C699.3,523.5,698.5,534.9,697.6,546.4L697.6,546.4z M334.2,146.4c0.1,0.8,0.2,1.5,0.3,2.3c0.2,0,0.4-0.1,0.5-0.1
			c-0.3-0.6-0.6-1.3-0.8-1.9C334.2,146.6,334.2,146.5,334.2,146.4c0-0.6,0-1.2-0.1-1.8c-0.4-1.1-0.9-2.2-1.4-3.3
			c-0.3,0.2-1,0.4-0.9,0.6c0.1,1.3,0.4,2.7,0.7,4C332.6,146.2,333.6,146.2,334.2,146.4L334.2,146.4z M362.1,128.3
			c-0.5-1.2-1-2.4-1.5-3.6c-0.1-0.2-0.7-0.2-1-0.2c0.2,1.3,0.5,2.6,0.8,3.9c0.6,0,1.3,0,1.9-0.1c0,0.7-0.1,1.5-0.2,2.2
			c-0.9,2.7-1.7,5.3,0.7,7.7c0.2,0.3,0.3,0.7,0.2,1.1c-0.5,3.5,1.3,5.7,4,7.5c0.4,0.2,0.5,0.8,0.8,1.2c-0.4,0.3-0.9,0.6-1.4,0.7
			c-0.4,0.1-0.9-0.2-1.3-0.3c-4.6-1.1-5.9,0.5-6,4.7c0,1.5,0.1,3,0.1,4.5c-0.1,0.4-0.2,0.7-0.3,1c-0.3-0.3-0.8-0.5-0.9-0.8
			c-0.6-2.1-1.2-4.2-1.5-6.4c-0.4-2.3-0.4-4.8-3.5-5.4c-1.1-0.3-2.1-0.7-3-1.3c-1.8-1-2.8-0.7-3.1,1.3c-0.4,3.7-0.8,7.5-0.9,11.3
			c-0.1,1.7-0.4,2.6-2.2,2.5c-1.4-0.1-1.6,0.1-0.8,1.4c1.1,1.7,2.1,3.4,3.1,5.1c0,0.1,0.5,0,0.6-0.1c0.6-1.4,0.8-0.6,1,0.2
			c0.2,1.2,0.4,2.4,0.5,3.5c0.3,4.9-1.2,9.4-2.8,14c-0.6,1.6-1.1,3.2-1.5,4.9c-0.1,0.4,0.3,1,0.5,1.5c0.3-0.4,0.6-0.8,0.8-1.2
			c0.7-2,1.4-4.1,2.1-6.2c0.2-0.3,0.4-0.6,0.6-0.9c0.2,0.3,0.3,0.6,0.5,0.9c0.4,1.9-0.6,4,0.9,5.8c0.1,0.1,0,0.3,0,0.4
			c1.2,7.2,2.2,14.5,3.7,21.6c0.4,2,2.6,3.5,4,5.3c0.2,0.3,0.7,0.5,0.7,0.7c0.6,3.5,1.2,6.9,1.7,10.4c0.2,0.9,0.4,1.9,0.6,2.8
			c-0.7-0.7-1.3-1.4-1.9-2.2c-0.8-1.2-1.2-2.5-2.6-0.4c-0.3,0.5-1.8,0.3-2.8,0.3c-0.3,0-0.6-0.8-0.9-1.2c-0.4-0.4-0.8-0.8-1.2-1.2
			c-0.3,0.5-0.5,1.1-0.7,1.7c-0.1,0.4,0.1,0.9-0.1,1.3c-0.3,0.7-0.6,1.4-1,2.1c-0.3,0.6-1.1,1.3-0.9,1.6c0.4,0.6,1,1.1,1.8,1.2
			c1.6,0.2,3.3-0.2,4.9,0.2c1,0.2,2.6,1.6,2.5,2.2c-0.3,1.2-1.3,2.9-2.3,3.2c-3.6,1.1-7.1,2-10.2,4.4c-1.9,1.4-3.6,1.9-1.4,4.3
			c0.2,0.2,0,0.8,0,1.2c-0.4-0.1-0.9-0.2-1.1-0.4c-0.5-0.6-1-1.3-1.5-2c-1.1-1.4-1.9-3.4-3.4-4.1c-1.9-0.9-4.3-0.7-6.6-0.9
			c-1.1-0.1-2.2,0-3.3,0.1c-0.4,0.1-0.6,0.7-0.9,1.1c0.4,0.1,0.8,0.2,1.3,0.4c1,0.4,2,0.8,3,1.3c0.2,0.1,0.5,0.8,0.3,0.9
			c-0.3,0.3-0.7,0.5-1.1,0.5c-0.5,0-1-0.2-1.5-0.4c-2.3-0.8-3.8-0.1-4.5,2.1c-0.1,0.4-0.3,0.8-0.4,1.2c-0.2-0.4-0.4-0.9-0.5-1.4
			c-0.2-1.3,0-2.6-0.4-3.8c-0.6-1.5-2.1-1.4-3.4-0.9c-0.1,0-0.2,0-0.2-0.1c-1.7-2-4-2.8-6.4-3.6c-0.9-0.4-1.7-1.1-2-2.1
			c-0.5-2.2-0.7-4.4-0.8-6.6c0.1-0.7,0.5-1.2,1.1-1.6c2.4-1,2.2-2.7,1.7-4.8c-0.8-2.9-1.1-5.9-1.6-8.9c-0.1-0.7-0.4-1.7-0.7-1.8
			c-2.1-0.4-1.7-1.5-0.9-2.7c1-1.4,0.5-2.3-0.9-3.1c-1.8-1-4.4-0.5-6.5,1.1c-0.7,0.3-1.4,0.6-2.1,0.7c0.1-0.7,0.3-1.4,0.6-2
			c1-1.5,2-2.9,3.1-4.3c0.9-1.1,0.4-1.8-0.5-2.6c-1.4-1.2-1,0.2-1.3,0.7c-0.2,0.4-1,0.5-1.6,0.7c-0.5,0.1-0.9,0.1-1.4,0.1
			c0.2-0.4,0.4-0.7,0.7-1.1c1-1,1-2.6,0.1-3.6l0,0c-0.1-0.2-0.7-0.1-1,0.1c-0.5,0.3-1,0.6-1.4,0.9c-0.3-0.4-0.5-0.8-0.8-1.1
			c-0.3-0.4-0.5-0.8-0.8-1.2c-0.2,0.5-0.8,1.2-0.6,1.5c1.4,2.4-1.3,3.6-1.6,5.4c0,0.1-0.6,0.1-0.9,0.1c-0.1-1.3-0.2-2.6-0.2-3.9
			c0.1-0.5,0.2-0.9,0.4-1.3c-0.5,0.1-0.9,0.3-1.3,0.6c-2.2,2.4-4.4,4.8-6.6,7.2c-2.1,2.3-4,4.8-6.1,7.1c-0.4,0.4-0.9,0.7-1.5,0.9
			c0.2-0.5,0.4-1,0.7-1.4c1.7-2.2,3.6-4.2,5.1-6.5c2.7-4.1,5.1-8.3,7.6-12.6c0.2-0.7,0.4-1.4,0.4-2.1c-0.6,0.3-1.1,0.6-1.7,0.9
			c-0.3,0.1-0.6,0.1-0.9,0.1l0,0c0.5-0.6,1-1.3,1.4-2c0.1-0.4-0.3-1.1-0.5-1.7c-0.5,0.2-1.2,0.3-1.4,0.7c-0.9,1.5-1.7,3.1-2.5,4.7
			c-0.4,0.6-0.9,1.2-1.3,1.8c-0.5-0.7-1.1-1.4-1.6-2l-0.1,0.1c1.4-0.7,4.4-6,4.3-7.4c-0.1-0.3-0.2-0.6-0.3-0.8
			c-0.4-1.9-0.8-3.7-1.1-5.6c-0.1-1.2-0.1-2.4,0-3.6c-1,0.7-1.9,1.4-2.9,2l-0.9-0.7c-0.1,0.3-0.2,0.7-0.2,1c0.4-0.1,0.8-0.3,1.2-0.4
			c-0.9,1.5-1.8,3-2.8,4.4c0,0.1-0.2,0-0.3,0c0-0.2,0-0.4,0-0.7c0-2-1-2.6-2.8-1.6c-1.5,0.8-2.7,0.2-2.9-1.6
			c-0.1-0.8,0.1-1.8-0.2-2.4c-0.6-0.8-1.4-1.4-2.2-2c-0.5,0.6-1,1.2-1.4,1.9c-1,2.7-1.6,5.6-2.9,8.1c-1.3,2.3-0.7,5.8-4.2,6.6
			c-0.1,0-0.2,0.2-0.2,0.4c-0.8,1.3-1.4,2.7-1.8,4.1c-0.3,1.6-0.7,3.9,0.1,5c1,1.3,0.3,2.4-0.1,2.6c-1.2,0.7-1,1.5-1,2.5
			c0,0.6-0.2,1.2-0.6,1.7c-2.7,4.4-5.3,9-8.3,13.2c-1.4,1.9-0.9,5.4-4.4,5.8c-0.6,0.1-1.2,0.2-1.7,0.4c0.1-0.7,0.2-1.4,0.4-2
			c0.2-0.4,0.5-0.8,0.8-1.1c2.1-2.4,4-4.9,5.9-7.5c3.6-5.8,5.6-12.4,6.8-19.1c0-0.7-0.2-1.3-0.6-1.9c-0.2-0.3-0.6-0.4-1-0.6
			c0.4-0.3,0.8-0.8,1.2-0.8c1.9-0.3,2.5-1.4,2.3-3.2c0-0.7,0.1-1.3,0.3-2c0.4-1.4,1.7-2,1.1-4.2c-0.8-2.9,0.3-6.3,0.4-9.4
			c0.2-2.8-1.2-3.7-3.9-2.9c-1.5,0.4-3,0.5-4.5,1c-0.7,0.4-1.2,1-1.5,1.7c-0.2,0.7-0.2,1.5-0.2,2.2c-0.1,0.3-0.2,0.5-0.3,0.8
			c-0.2-0.2-0.4-0.5-0.5-0.8c-0.8-2.3-2.3-2.9-4.3-1.8c-1.6,0.9-3.2,1.9-4.8,2.8c-1.1,0.6-2.3,1-3.5,1.4c-0.3,0.1-0.8-0.1-1.2-0.2
			c0.3-0.3,0.5-0.8,0.9-0.9c1-0.2,2-0.6,2.9-1c2.2-1.2,4.3-2.6,6.4-4.1c0.5-0.4,0.5-1.4,0.7-2.2c-0.6-0.1-1.4-0.4-1.9-0.2
			c-1.8,0.8-3.6,1.8-5.2,3c-1.1,0.7-1.6,0.9-2.1-0.4c-0.1-0.3-0.6-0.5-0.9-0.8c-0.1,0.4-0.3,0.7-0.5,1.1c-0.3,0.6-0.8,1.1-1.3,1.4
			c-1.4,0.7-2.9,1.1-4.3,1.9c-3.2,1.8-3.7,5.3-4.7,8.4c-1.3,4-1.1,4,3.1,4.3c0.5,0,1,0.1,1.6,0.1c4.5,0.7,9,0,13.1-2
			c0.3-0.1,0.7-0.1,1-0.1c-0.2,0.3-0.3,0.8-0.5,0.8c-4.5,1.5-8.8,3.8-13.9,2.5c-1.4-0.4-2.8-0.5-4.2-0.3c-1.1,0.2-2,0.9-2.6,1.9
			c-0.8,1.9-1.5,3.8-2.1,5.8c-0.1,0.2-0.7,0.5-0.9,0.4c-1.3-1-1.3-0.9-2.1,0.5c-0.4,0.4-0.8,0.8-1.4,1.1c0-0.5,0.2-1.1,0.4-1.6
			c1.2-2,2.5-3.9,3.6-5.9c0.3-0.5,0.2-1.9-0.1-2c-2.1-0.7-0.9-1.5-0.2-2.3c0.1-0.2,0.2-0.4,0.3-0.6c0.9-2.8,1.9-5.5,2.8-8.3
			c0.1-0.5-0.2-1.1-0.6-1.4c-1.8-0.7-3.6-1.2-5.4-1.7c-0.7-0.2-1.4-0.4-2.1-0.6c-2.3-1.1-4.6-2.4-7-3.4c-3.1-1.3-6.6-1.6-8.8-4.6
			c-0.5-0.4-1-0.5-1.6-0.4c-2.8,0.3-4.3,2.1-4,4.9c0.1,1.3,0.5,2.5,0.6,3.8c0.2,0.9,0.2,1.8,0,2.6c-0.4,0.9-1.5,2.3-2.1,2.3
			c-1-0.1-2-1.2-2.7-2.1c-0.4-0.6-0.1-1.7-0.5-2.3c-0.9-1-1.8-2-2.9-2.8c-0.7,0.9-1.3,1.8-1.9,2.7l0,0c-0.5-0.4-1-1-1.6-1.1
			c-3.6-0.9-7.2-1.8-10.8-2.5c-0.7-0.1-1.4,0.2-1.8,0.7c-3.1,5.8-8.1,9.1-14.3,10.6c-0.5,0.2-1,0.5-1.5,0.8c0.3,0.5,0.7,1.1,1.1,1.5
			c2.9,2.9,6.1,5.6,8.6,8.8c5.3,6.8,10.4,13.9,15.5,20.9c0.7,1.2,2.2,1.9,3.6,1.6c4.5-0.8,9.1,0,13,2.3c2.2,1.3,3.4,0.9,4.5-1.3
			c0.4-0.9,1.9-2,1.7-2.4c-1.1-2.1,1-3.6,0.7-5.5c0-0.3,0.9-1,1.4-1c0.6,0.1,1.1,0.6,1.3,1.1c0.1,1,0.1,1.9-0.2,2.9
			c-0.6,2.3-0.3,2.7,2,2.6c0.5,0.1,1.1,0.2,1.5,0.4c-0.2,0.5-0.5,0.9-0.8,1.3c-1.1,0.9-3.2,1.6-3.2,2.4c0,2.6-1.4,2-2.9,2
			c-0.5,0.1-1,0.2-1.4,0.4l0.5,1.4c0.6,1.6,1.6,3.2,1.6,4.9c-0.1,1.4,0.6,2.7,1.9,3.4c6,3.9,11.3,8.7,14.2,15.4
			c1.3,3,2.7,4.5,6.4,4.1c4.3-0.5,8.7,0.1,13-0.3c6.3-0.6,8.7,0.9,10.1,6.9c0.8,3.6,4.9,5.1,8.3,3.5c2.2-1,4.5-1.7,6.9-2.2
			c2.3-0.5,4.7-0.4,7-0.8c2.6-0.6,5.1-1.3,7.6-2.1c4.3-1.4,8.9-0.9,12.8,1.2c3.1,1.6,6.1,3.9,6.6,7.2c0.9,5.4,0.7,11,0.9,16.5
			c0.1,1.3-0.1,2.7,0,4c0.1,0.7,0.5,1.4,1.1,1.8c2,0.9,4.2,1.5,6.4,1.8c7.1,0.7,12.4,3.4,14.8,10.6c1.1,3.3,1.2,3.3,4.7,2.9
			c1.3-0.2,2.5-0.2,3.8,0c5.4,0.6,10.8,0.2,16-1.2c1.9-0.5,3.5-1.7,4.5-3.4c1.9-2.9,4-5.5,6-8.3c1.9-2.6,3.8-5.1,5.5-7.8
			c2.3-3.5,4.4-7.1,6.8-10.5c0.9-1.3,2.4-2.3,1.4-4.3c-0.1-0.2,0.3-0.6,0.4-0.9c0.2,0.2,0.5,0.3,0.6,0.6c0.1,0.4,0.2,0.9,0.1,1.3
			c-0.1,3.7-0.2,7.3-0.2,11c0,3.6-0.2,7.3,0.6,10.8c1.6,7.8,6.4,14.3,11.4,20.1c7,8.2,15.1,15.4,22.9,22.8c3.2,3,7.1,5.3,10.7,7.9
			c0.2,0.2,0.5,0.4,0.7,0.5c2.3,1.3,4.8,2.1,7.4,2.4c1.5,0.1,3.7,0.6,4.3,1.7c1.2,1.9,2,0.6,2.8,0.2c0.9-0.5,2-1.4,0.7-2.7
			c-1.3-1.2-0.9-2.3,0.2-3.2c1.8-1.4,3.7-2.5,5.4-3.9c2.6-2.1,5.1-4.3,7.6-6.6c0.2-0.6,0.1-1.2-0.2-1.6c-1.8-1.1-1.8-1.6,0-2.9
			c3.2-2.3,6.5-4.6,9.7-6.9c0.7-0.6,1.4-1.3,2.1-2c1.5-1.5,3.1-2.9,4.6-4.4c1.3-1.3,2.6-2.6,3.9-3.9c0.6-0.8,1.4-1.5,2.2-2.1
			c2.3-1.2,2.7-2.9,1.8-5.1c-1.2-2.6-0.3-5.8,2.1-7.4c2.7-2.1,5.8-3.7,8.6-5.5c0.9-0.6,1.6-1.2,2.3-2c0.3-0.5,0.5-1.1,0.7-1.8
			c-0.6-0.1-1.2-0.2-1.8-0.3c-0.4-0.1-0.8-0.2-1.2-0.2c0.1-0.4,0.3-0.8,0.5-1.2c0.6-1,1.2-1.9,1.7-3c0.2-0.3-0.1-0.8-0.2-1.2
			c-0.4,0.1-0.8,0.2-1.2,0.4c-0.9,0.5-1.7,1-2.5,1.5c0.8-0.8,1.6-1.6,2.4-2.4c0.3-0.3,0.8-0.5,1-0.9c0.2-0.3,0.3-1.1,0.2-1.1
			c-1.9-1.1-1.4-3-1.7-4.6c-0.4-2.3-1.4-3.3-3.7-2.5c-0.9,0.4-1.6,1-2.1,1.9c-0.7,1.4-2.1,2.2-3.6,2.1c-1.2,0.1-2.3,0.6-3.1,1.4
			c-1.1,0.9-2,1.5-3.3,0.5c-0.6-0.2-1.2-0.1-1.7,0.3c-0.6,0.6-1.2,1.3-1.6,2.1c-0.6,0.9-0.9,1.6-1.8,0.2c-0.4-0.6-1.1-0.9-1.8-0.9
			c-0.5,0.1-1,1-1.3,1.6c-0.4,0.9-0.5,1.9-0.9,2.8c-0.3,0.5-0.6,1-1,1.5c-0.2-0.5-0.4-1.1-0.4-1.6c0.3-2.9-0.8-3.1-3.2-2.4
			c-1.3,0.4-2.1,0.7-2.1-1.1c0-0.4-1.2-0.9-1.9-1c-2.9-0.4-5.7-2.1-8.8-0.6c-0.1,0-0.1,0-0.2,0c-3.8-0.3-7.5-0.6-11.3-0.7
			c-8.5-0.3-17-1.1-25.1-3.8c-5.6-1.9-11.3-3.6-16.9-5.6c-2.3-0.8-4.5-2-5.5-4.6c-0.4-1.6-1.1-3.1-2-4.4c-2.8-3.6-4.5-8.2-9.3-10
			c-0.3-0.1-0.5-0.7-0.6-1.1c0-0.1,0.3-0.4,0.4-0.4c1.7,0.3,3.8,0.1,5.1,0.9c2.7,1.7,4.9,4.1,7.5,6.1c2.6,2.1,5.3,4,8.2,5.7
			c4.1,2.1,8.3,4,12.6,5.6c2.5,1,5.4,1.2,7.9,2.2c4.2,1.8,8.7,2.5,13.2,3.1c2.1,0.3,4.2,0.2,5.6-1.8c0.4-0.5,1-0.9,1.7-1
			c3,0,5.7-2.6,8.8-1.1c0.3,0.1,0.9-0.2,1.2-0.4c3.1-2.3,6.2-4.6,9.1-7.1c2.7-2.4,5.3-5,7.6-7.8c1.6-1.9,3-4,4.1-6.3
			c1.8-3.8,3-7.9,5-11.6c3-5.5,6.4-10.8,9.6-16.1c0.4-0.7,0.6-1.5,0.6-2.3c-0.4-2.3,0.6-3.7,2.5-4.7c3-1.5,3.2-2.5,1.6-5.4
			c-0.8-1.4-0.7-2.2,1-3.1c3.6-1.7,5.8-6.2,5.6-10.3c-0.2-3.3,0.5-6.6,0.7-9.9c0.2-0.9,0.1-1.8-0.2-2.7c-0.7-1.6-0.1-4.7,1.3-5.6
			c1.2-0.7,2.3-1.5,3.3-2.4c0.3-0.5,0.4-1.1,0.2-1.6c-0.6-1.2-4.2-3.4-5.6-3.7c-0.2-0.1-0.3-0.2-0.3-0.4c1-1.4,1.9-2.8,2.9-4.2
			c0.3-0.5,0.7-1,1-1.5l-0.1,0.1c0.7,0.1,1.4,0.2,2.1,0.1c0.5-0.1,1.3-0.4,1.4-0.7c1.3-6.1,3.1-12.2,2.1-18.5
			c-0.5-2.8-0.7-5.6-1.1-8.4c-0.1-0.6-0.3-1.1-0.5-1.6c0,0.6,0,1.2-0.1,1.8c-0.1,0.8-0.4,1.6-0.6,2.4c-0.2,0.5-0.3,1-0.4,1.5
			c-0.3,5.4-0.5,10.8-0.8,16.2c0,0.6-0.7,1.1-1,1.6c-0.1-0.7-0.5-1.6-0.2-2c1.4-1.9,1.1-3.9,1.1-6c0-2.2-2.1-5.8-4.1-6.6
			c-0.6-0.1-1.2-0.1-1.8,0c-0.3,0.1-0.6,0.2-0.9,0.3c0-0.4,0-0.7,0.1-1c0.5-1.7,0.9-3.4,1.4-5.2c0.2-0.6,0.2-1.2,0-1.7v1.7
			c-0.5,0.6-0.9,1.2-1.3,1.9c-0.3,0.5-0.5,1.2-0.9,1.5c-3.4,2.4-7.3,3.8-11.4,4.2c-4.1,0.3-8.2-0.3-12.3-0.5c-0.5,0-1-0.5-1.5-0.8
			c0.5-0.2,1.1-0.3,1.6-0.4c1,0,2.1,0.2,3.1,0.1c2.3-0.1,4.5-0.4,6.8-0.8c1.6-0.4,3.7-1.3,2.8-3.4c-0.4-0.9-2.6-1.1-4-1.5
			c-3.2-0.9-6.5,0.7-9.7-0.5c-1.5-0.6-3.2-0.8-3.7-2.8c-0.4-0.5-1-0.8-1.7-0.7c-1,0.5-1.9,1-2.7,1.7c0.2,0.3,0.3,0.7,0.6,0.8
			c0.5,0.3,1.1,0.5,1.7,0.7c-0.6,0.3-1.2,0.5-1.9,0.6c-1.2,0.2-2.5,0.3-3.7,0.2c-1-0.4-2-0.9-2.9-1.5c0.8-1.1,1.5-2.8,2.5-3.1
			c4.7-1.1,9.5-1.9,14.2-2.6c2.9-0.4,2.6-0.2,2.5-2.7c-0.2-2.8-1.3-4.4-3.9-5.3c-0.3-0.1-0.5-0.5-0.7-0.8c0.4-0.2,0.8-0.2,1.2-0.2
			c1.5,0.3,2.9,0.7,4.3,1.2c4.9,2.1,7.5,0.5,7.3-4.7c0-0.4,0-0.7,0-1.1c-0.2-3.5-1.7-4.5-5.1-3.7c-1.2,0.3-2.5,0.4-3.7,0.2
			c-2.3-0.4-4.6-1-6.9-1.6c-0.6-0.3-1.2-0.8-1.6-1.3c-0.4-0.4-0.5-1.2-0.9-1.5c-1.8-0.9-2.1-1.9-1.5-4c1.1-3.9,2.8-5,6.4-3.3
			c0.7,0.4,1.5,0.6,2.4,0.6c1.2,0,2.9,0,3.3-0.6c0.6-1,0.2-2.4-1-3.5c-1.7-1.9-3.3-3.8-4.7-5.9c-2.1-2.6-4.2-5.2-6.4-7.7
			c-0.7-0.8-1.5-0.9-1.6,0.5c0,0.2-0.6,0.4-0.9,0.4c-1-0.3-1.9-0.6-2.7-1.1c-0.8-0.5-1.5-1.1-2.1-1.8c-0.5-0.6-0.7-1.5-1.2-2.1
			c-0.7-0.8-1.5-1.5-2.3-2.2c0.5,0.8,1.1,1.7,1.6,2.5c0.1,0.2,0.2,0.5,0.3,0.7c-0.3-0.1-0.6-0.1-0.8-0.3c-0.8-0.9-2-1.8-2.3-2.9
			c-1.4-4.6-2.5-9.3-3.8-14c-0.4-1.5-0.8-3.6-1.9-4.4c-2.5-1.6-5.1-2.9-8-3.8c-1.8-0.4-3.7-0.5-5.6-0.1c-1.1,0.1-2.1,1-3.1,1.4
			c-0.9,0.4-1.8,0.6-2.8,0.8c-0.8,0.1-1.6-0.1-2.4,0.2c-4.8,1.5-9.5,3.2-14.7,3.4c-2.4,0.1-5.6,1.1-6.3,4.5c-0.1,0.4-0.8,1-1.1,0.9
			c-1.9-0.6-2.7,0.5-3.4,2c-0.2,0.4-1.1,0.3-1.7,0.5c-0.1-2.2-0.8-0.7-1.5-0.3s-1.6,0.6-2.4,1c-0.8,0.3-1.5,0.7-2.1,1.3
			c-1.6,2.2-2,5.4-5.1,6.4c-0.2,0.1-0.2,0.4-0.3,0.6c-0.8,1.2-1.7,2.4-2.4,3.6c-0.5,0.6-0.8,1.4-0.8,2.2c0.1,1.6-0.7,2.2-2,2.7
			c-0.6,0.2-1.4,1.6-1.2,1.9c0.9,1.7-0.1,1.3-1.1,1.2c-0.7,0-1.8,0-2.1,0.4c-1,1.7-1.9,3.5-2.7,5.4c-0.2,0.5,0,1.5,0.3,1.7
			c0.4,0.2,1.3,0,1.8-0.2c0.4-0.1,0.6-0.7,1-0.9c0.9-0.5,1.8-0.8,2.7-1.2c0,0.9-0.2,1.9-0.4,2.8c-0.9,2.8-1.9,5.5-2.8,8.2
			c-0.1,0.4,0.1,0.9,0.2,1.4c0.5-0.1,0.9-0.3,1.3-0.6c2-1.6,4-3.3,6.1-4.9c3.4-2.8,7.5-3.8,11.8-4.2c1.2-0.1,2.5-0.4,3.6-0.9
			c4-1.9,8.7,0.2,11,2.9c0.2,0.2,0,0.8-0.1,1.3c-2-0.3-2.1,1.4-2.8,2.5c-0.5,0.8-1.1,2-2.5,1.1c-0.2-0.1-0.8,0.4-1.3,0.5
			c-0.6,0.2-1.3,0.4-2,0.5c-1,0.2-2.4-2-3,0.6c0,0-0.7-0.1-1-0.1c-3.6-0.1-7.1-0.3-10.7-0.3c-0.5,0.1-0.9,0.3-1.3,0.6
			c0.6,2.5-1.7,2.7-3,3.5c-2.1,1.3-4.8,1.9-5.7,4.8c-0.1,0.4-0.7,0.6-1,1c-1,1.2-2.8,2.5-2.8,3.6c0.1,1.7-0.8,2.2-1.7,3
			c-0.4,0.3-1,0.9-0.9,1.2c0.4,2.6-0.5,5.4,1.7,7.6C362.3,125.6,362,127.1,362.1,128.3L362.1,128.3z M621.4,212.8h0.2
			c0,0.7,0,1.3,0,2c-0.1,0.4-0.4,0.7-0.7,1c-0.2-0.2-0.7-0.5-0.7-0.8c-0.3-2.1-1.2-1-2.1-0.4c-1,0.8-2,2.2-2.9,2.2
			c-2.7,0-4.2,1.6-6,3.1c-2.7,2.2-4.9,5-8.7,5.6c-0.9,0.1-1.8,1.1-2.6,1.7c-0.2,0.1-0.4,0.6-0.4,0.7c0.2,0.2,0.6,0.6,0.9,0.5
			c3-0.2,6.1-0.5,9.1-0.7c0.3,0,0.6-0.1,0.8-0.1c-0.2,0.2-0.4,0.4-0.6,0.6c-0.6,0.5-1.4,1-1.8,1.6c-1.1,2-3,2.3-4.9,2.6
			c-0.7,0.1-1.5,0-2.2,0.1c-1.8,0.5-2.8,2.4-2.3,4.3v0.1c0.8,2,1.3,4.2,1.9,6.3c0.4,1.3,0.6,3.2,1.5,3.8c3.4,1.9,7,3.2,10.5,4.8
			c2,1,4,2.1,5.9,3.3c1,0.7,0.7,1.5-0.6,1.8c-2,0.5-2.1,1.6-1,3.1c0.2,0.2,0.4,0.5,0.5,0.7c1.3,2.8,2,3,4.3,1c2.7-2.3,5.4-4.7,8.1-7
			c0.4-0.2,0.9-0.4,1.3-0.5c-0.3,0.3-0.6,0.7-0.8,1c-0.3,0.6-0.5,1.2-0.7,1.9c0.6-0.3,1.2-0.7,1.8-1c0.2-0.1,0.2-0.4,0.4-0.6
			c3.3-4.8,7.7-8.7,12.7-11.6c0.8-0.7,1.4-1.6,1.5-2.7c0.4-3,1.1-5.9,3.3-8.2c3.5-3.7,7-7.6,10.7-11.1c4.7-4.4,9.7-8.6,14.6-12.9
			c1.3-1.2,2.9-2.1-0.1-3.7c-1.4-0.7-2.3-1.9-4.1-1.1c-0.4,0.1-0.8,0.1-1.1-0.1c-2.2-0.9-4.5-1.7-6.7-2.8c-1.7-1-3.9-0.6-4.9,1.1
			c-1.6,2-3.4,3.9-5.2,5.8c-0.2,0.2-0.6,0.1-0.9,0.2c0.1-0.3,0.1-0.5,0.3-0.8c1.7-2.9,3.5-5.8,5.2-8.7c0.1-0.5-0.1-1.1-0.5-1.5
			c-2.1-1.3-4.3-2.4-6.6-3.5c-2-0.9-3.9-3.1-6.5-1.3c-0.1,0.1-0.6-0.1-0.8-0.3c-2.1-1.1-3.3-0.2-4.3,1.7c-0.2,0.4-1,0.9-1.4,0.8
			c-2.1-1-4.6-0.3-5.9,1.7c-0.8,0.7-1.6,1.4-2.4,2.1c-1.3,1.3-3.3,2.6-3.8,4.2C621.9,205.9,621.8,209.4,621.4,212.8L621.4,212.8z
			 M663.1,105.7c-1.3,0.5-2.5,1.1-3.7,1.9c-1.7,1.5-3,3.5-4.6,5.1c-1.9,1.9-3.2,3.8-1.4,6.4c0.2,0.3,0.1,1,0.1,1.4
			c-0.5-0.1-0.9-0.2-1.4-0.3c-1.1-0.4-2.2-1.2-3.3-1.2c-1.3,0-4.1,4.7-3.4,5.9c1.4,2.6-0.6,6.1,2.2,8.2c0.1,0.1,0.2,0.4,0.2,0.6
			c0.1,3.8,2.6,5.6,6.2,4.5c0.8-0.2,1.6-0.3,2.4-0.4c2.4,0.1,4.5-1.5,5.2-3.8c0.3-0.3,0.8-0.4,1.3-0.3c3.1,3.2,6.4,2,9.8,0.8
			c13.2-4.8,26.4-9.7,39.6-14.4c4.7-1.7,9.6-2.8,14.4-4.4c1-0.3,2.5-1.8,2.4-2.6c-0.2-1.4-1.6-1.8-3.3-1.7c-2.6,0.2-5.2-0.2-7.6-1
			c-4.2-1.6-8.2-3.7-12.3-5.7c-2.8-1.3-5.3-3.2-8.8-2.9c-4.1,0.4-8.3,0.4-12.4,0.7c-2,0.1-4.2-0.8-5.7,1.5c-0.2,0.3-1,0.3-1.5,0.3
			c-2,0.1-4.3-0.4-5.9,0.4C668.9,106.4,665.8,106.7,663.1,105.7L663.1,105.7z M190,129.2c0,0.5,0.1,1,0.1,1.6c0,0.2,0.2,0.4,0.4,0.4
			s0.4-0.2,0.5-0.4c0.5-1.7,0.9-3.5,1.1-5.3c0.1-1.3,0.1-2.7-0.2-4c-0.8-4.3,0.2-8.8,2.7-12.4c0.9-1.6,1.6-3.3,2-5
			c0.3-1-0.2-1.4-1.5-1c-1.2,0.4-3.5,0.9-3.8,0.5c-1.5-2.9-4.9-2.6-7-4.4c-0.4-0.4-0.9-0.7-1.5-0.9c-5.6-1-11.1-2.1-16.7-2.9
			c-2.9-0.4-5.9-0.1-8.9-0.4s-5.9-0.9-8.8-1.4s-5.8-1.1-8.8-1.4c-0.6-0.1-1.5,0.7-1.9,1.3c-0.2,0.4,0.4,1.3,0.7,1.8
			c0.5,0.8,1.1,1.6,1.7,2.3c1.2,1.5,2.3,3.5,3.9,4.2c4.6,2.1,9,5.1,14.5,4.2c0.9-0.1,1.8,0.1,2.6,0.5c2.8,1.5,5.7,3,8.3,4.7
			c6.2,4,12.2,8.3,18.5,12.2c1.8,1.1,2.4,2.2,2,4.2C190.1,128.2,190,128.7,190,129.2L190,129.2z M321.9,197.5h-0.1
			c0.1,1,0.2,2.1,0.3,3.1c0,0.3-0.1,0.7-0.2,1c-0.3-0.1-0.6-0.3-0.9-0.4c-0.3-0.2-0.7-0.4-1-0.7c-0.2,0.4-0.4,0.9-0.5,1.4
			c-0.5,2.1-0.8,4.1-1,6.2c0.1,1.3,0.3,2.6,0.6,3.9c0.2,1.1,0.7,2.4,0.4,3.4c-1,3.4,1.5,8,5,8.8c0.3,0.1,0.9,0.2,1,0.5
			c1.2,2.5,2.8,2.3,4.9,1.1c0.7-0.4,1.9,0.2,2.9,0.4c-0.3,0.7-0.5,1.4-0.8,2c-0.4,0.7-0.7,1.3-1.2,1.9c-1,1.4-0.6,2.3,1,2.9
			c0.8,0.4,1.5,0.9,2.1,1.4c1.1,0.7,2.3,1.3,3.5,1.9c0.1-1.2-0.1-2.4-0.4-3.6c-0.6-1.5-0.8-2.7,0.4-3.8c0.7-0.4,1.4-0.7,2.2-0.9
			c1.2-0.6,1.1-1.2,0.6-2.3c-0.6-1.4-2.1-2.2-3.6-1.9c-1.5,0.1-1.4-1.1-0.8-2c0.3-0.5,1-0.6,1.5-1s0.9-0.8,1.3-1.3
			c-0.6-0.3-1.3-1-1.9-0.9c-2.1,0.2-2.4-0.9-2.2-2.6c-0.1-0.7-0.3-1.3-0.6-1.9c-0.3,0.6-0.7,1.2-0.9,1.8c-1.1,2.6-2.2,5.1-3.4,7.6
			c-0.2,0.5-1.3,0.5-2,0.7c0.2-0.5,0.4-1,0.7-1.5c0.2-0.4,0.6-0.8,0.6-1.2c-0.2-2.5,3.2-3.9,2.1-6.7c0-0.1,0.3-0.5,0.5-0.6
			c2.3-1,2.3-3,1.9-4.9c-0.4-2.6-1-5.1-1.7-7.6c-0.3-0.8-0.7-1.4-1.3-2c-0.3-0.3-0.7-0.5-1.1-0.7c-0.2,0.4-0.3,0.8-0.3,1.2
			c0.5,3.7,1.1,7.4,1.6,11.1c0,0.6-0.1,1.2-0.3,1.7c-0.5-0.4-1-0.9-1.5-1.4c-0.2-0.2-0.1-0.7-0.1-1.1c-0.7-3.3-1.2-6.7-2.1-10
			c-0.7-2.4-1.5-4.7-2.5-7c-0.4-0.6-1-1-1.7-1.2c-0.2-0.1-0.9,0.8-1,1.3C321.8,194.8,321.8,196.2,321.9,197.5L321.9,197.5z
			 M210.9,120.9c0.1-0.3,0.3-0.8,0.5-1.3c0.3,0.3,0.7,0.7,1,1c0.4,0.4,0.7,1.2,1.1,1.3c1.7,0.1,1.9,1.2,2.2,2.6
			c0.3,0.8,0.8,1.6,1.5,2.1c0.1,0.1,1.1-0.2,1.1-0.5c1.3-4.8-0.4-9.5-0.8-14.3c-0.3-1.2-0.7-2.4-1.2-3.5c-0.1-0.5-0.2-0.9-0.2-1.4
			c-0.5,0.2-1,0.4-1.5,0.7c-0.3,0.3-0.5,0.8-0.9,1c-1.6,1.3-2.4,4.4-5.5,2.3c-0.4-0.3-1.4,0-1.9,0.3c-2.3,1.1-4.6,2.4-6.7,3.9
			c-2.5,1.8-4.3,4.3-4.1,7.7c0,0.6,0.8,1.1,1.3,1.7c1.6-2.1,1.2,0.2,1.5,0.7c0.3,0.7,0.3,1.5,0.7,2.1c0.8,2,1.7,3.9,2.8,5.7
			c0.7,1.1,3.5,0.5,3.2-0.4c-0.9-2.7,1.3-1.5,2-1.6c3.2-0.6,3.8-1.4,2.7-4.4c-0.2-0.5-0.2-1.6,0.1-1.7
			C211.2,123.9,211.5,122.6,210.9,120.9L210.9,120.9z M523.3,286.2c-0.1,0.1-0.3,0.1-0.4,0.2c-2.2,2.5-6.4,3.5-5.6,8.4
			c0.4,2.5-0.5,4.4,2.5,6.4c2.3,1.6,2.9,0.6,4.1-0.4c3-2.9,6-5.8,8.8-8.9c0.7-0.7,1.2-2.4,0.8-3.1c-1.1-1.6-2.4-3.1-3.8-4.4
			c-0.1-0.1-0.8,0.2-1.2,0.4C526.7,285.5,525.5,287.6,523.3,286.2L523.3,286.2z M217.6,155c0.3-1.9-0.5-2.7-1.9-1.8
			c-1.3,0.7-2.5,1.6-3.6,2.7c-3.1,3-6,6.1-9.6,8.4c-0.6,0.5-1.1,1.2-1.5,1.9c0.8,0.5,1.6,0.9,2.5,1.2c1.1,0.1,2.3-0.4,3.5-0.4
			c3.3,0,6.6,0.1,10,0.1c0.4-0.1,0.8-0.3,1-0.7c0.6-1.2,1.2-2.4,1.6-3.7c0.4-1.3,0-2-1.6-1.7c-0.2,0.1-0.8-0.4-0.8-0.6
			C217.3,158.5,217.5,156.8,217.6,155L217.6,155z M597.5,221c1.3,0.3,2.6,1.2,3.7,0.9c2.5-0.6,4.9-1.5,7.2-2.8
			c1-0.7,1.5-1.9,1.5-3.1c-0.6-1.8,0.4-2.2,1.5-2.9c1.1-0.5,2.2-1.2,3.1-2c0.3-0.7,0.3-1.4,0-2.1c-0.5-0.5-1.1-0.8-1.8-0.6
			c-2.5,1.2-4.8,2.7-7.3,3.8c-2.7,1.2-5.7,2-8.4,3.2c-1,0.5-2.4,1.7-2.3,2.6c-0.1,1.5,1.1,2.8,2.7,2.9
			C597.4,221,597.5,221,597.5,221L597.5,221z M428.8,362.7c0-2.7,0-6,0-9.3c-0.1-0.6-0.3-1.1-0.6-1.7c-0.3,0.6-0.8,1.3-0.8,1.9
			c0.3,3.4,0.5,6.8-0.6,10.1c-0.1,0.3-0.2,0.5-0.3,0.8c-0.2-0.2-0.3-0.4-0.5-0.6c-0.7-0.7-1.6-2-2.1-1.8c-2.4,0.6-1.3-1-1.4-1.9
			c0-2.5,0-5-0.1-7.5c0-0.5-0.7-0.9-1.1-1.4c-0.3,0.5-0.5,1-0.6,1.6c0,5.4,0,10.7,0.1,16.1c0,1.7,1.1,3.7,0.4,4.9
			c-1.3,2.2,0.7,1.9,1.3,2.3c3.1,1.7,5.6,0.3,5.8-3.2C428.4,369.8,428.6,366.5,428.8,362.7L428.8,362.7z M579.4,71.3
			c0.1,0.6,0.2,1.6,0.4,2.6c0.4,1.6,1.1,2.1,2.7,1.1c1.5-0.9,3-1.6,4.7-2.2c0.4-0.2,1.2,0.3,1.7,0.7c0.9,0.8,1.6,1.8,2.4,2.7
			c0.3,0.2,0.7,0.4,1.1,0.5c0.1-0.3,0.3-0.8,0.2-1c-0.9-2.6-1.5-5.3-2.9-7.6c-1.2-2.2-3.9-3.2-6.2-2.3
			C581.1,66.5,579.4,68.7,579.4,71.3L579.4,71.3z M482.5,293.6c-0.8-1.5-1.2-3.1-1.9-3.2c-3.8-0.5-9.6,4.7-9.6,8.5
			c0,0.8,0.4,1.5,1.1,1.9c2.1,1,4.1,0.8,5.7-1.1C479.5,297.7,480.9,295.7,482.5,293.6z M635.4,123.2c0.1,1.5,0.1,2.7,0.3,3.9
			c0.1,0.3,0.2,0.7,0.4,1c1.5-0.6,1.3,0.9,1.9,1.4c1.7,1.4,2.2,4.5,5.6,3.7c1.1-0.2,1.5-0.2,1.1-1.3c-0.3-0.6-0.6-1.2-0.9-1.8
			c-1.8-4-3.6-7.9-5.5-11.9c-0.3-0.5-1-0.8-1.6-1.2c-0.3,0.4-0.5,0.8-0.7,1.3C635.7,119.9,635.5,121.7,635.4,123.2L635.4,123.2z
			 M323.7,168.9c-0.2,0.5-0.4,1-0.7,1.4c0,0.1-0.6-0.1-0.9-0.3c-0.4-0.3-0.7-0.5-1.1-0.8c-0.2,0.5-0.4,1.1-0.5,1.6
			c-0.1,2-0.1,4.1-0.1,6.2c0,0.3,0.1,0.7,0.2,0.7c2.1,0.7,1.6,2.3,1.3,3.8c0,0.4,0,0.8,0.1,1.2c0.3-0.2,0.9-0.4,1-0.7
			c0.3-1.5,2.2-2.4,1.7-4.3c-0.1-0.9-0.2-1.8-0.1-2.7c0-0.5,0.1-1,0.2-1.5c2.2,0.6,1.2-1.3,1.3-2c0.2-1.3,0.3-2.7,0.2-4
			c0-0.1-0.6-0.4-0.8-0.3c-0.4,0.1-0.9,0.7-1.1,0.6C322.6,166.6,323,167.6,323.7,168.9L323.7,168.9z M596.7,208.6
			c1.3-0.1,2.6-0.4,3.9-0.7c0.8-0.3,1.3-1.1,2-1.7c-0.7-0.8-1.3-2-2.1-2.2c-2.7-0.6-5.6-0.7-8.4-1.1c-1.4-0.2-1.8,0.3-1.3,1.6
			C591.4,206.5,594.4,208.6,596.7,208.6L596.7,208.6z M552.9,269.4c1.3-0.8,2.9-1.3,3.1-2.1c0.5-1.6-0.7-2.7-2.3-3.2
			c-0.8-0.2-1.4-0.7-1.9-1.3c-1-2-2.1-1.7-3.5-0.4c-0.7,0.4-1.4,0.7-2.2,0.9c-0.4,0-0.8,0-1.1-0.1c0.2,0.5,0.2,1.1,0.5,1.5
			c0.8,0.8,1.7,1.4,2.6,2C549.6,267.5,551.1,268.4,552.9,269.4L552.9,269.4z M353.9,79.2c2.1-1.8,4.6-3.4,6.4-5.7
			c2.2-3,4.2-6.2,6-9.5c0.9-1.6,1.7-3.3,2.4-5c0.1-0.3-0.3-0.9-0.4-1.4c-0.3,0.1-0.7,0.2-0.8,0.4c-1.2,2.2-2.3,4.4-3.5,6.6
			c-0.3,0.7-0.7,1.3-1.2,1.9c-3,4-6.1,8-9.2,12c-0.1,0.2-0.2,0.4-0.3,0.6C353.4,79.1,353.5,79.1,353.9,79.2L353.9,79.2z
			 M595.5,255.9c0.5,0.8,1.1,2.9,2.5,3.6c0.9,0.5,3-0.5,4.3-1.3c0.8-0.4,1.1-1.6,1.5-2.5c0-0.1-0.7-0.7-1.1-0.9
			c-1.3-0.6-2.6-1-3.9-1.7C596.2,251.8,595.6,252.1,595.5,255.9L595.5,255.9z M475.8,3.5c0,0.2,0.1,0.4,0.1,0.5
			c0.4-0.2,0.8-0.5,1.2-0.7c-0.4-0.6-0.7-1.6-1.1-1.7c-2.2-0.4-4.5-0.6-6.8-0.4c-2.4,0.4-4.7,1.5-7,2.3c-0.5,0.2-1,0.4-1.5,0.6
			c0.5,0.3,1.1,0.6,1.7,0.8c0.7,0.1,1.5,0,2.2-0.1C468.4,4.3,472.1,3.9,475.8,3.5L475.8,3.5z M419.6,516.2c-0.4,0.1-0.8,0.3-1.2,0.5
			c0.3,0.2,0.7,0.4,1,0.7s0.7,0.6,1,0.9c-0.4,0.2-0.9,0.4-1.3,0.6c-0.4,0.2-0.7,0.4-1.1,0.6c0.3,0.2,0.7,0.5,1.1,0.7
			s0.8,0.5,1.3,0.7c-0.4,0.2-0.8,0.5-1.2,0.7s-0.8,0.5-1.1,0.8c0.3,0.2,0.7,0.5,1,0.7c0.5,0.3,0.9,0.5,1.4,0.8
			c-0.5,0.2-1,0.4-1.5,0.7c-0.3,0.2-0.6,0.4-0.8,0.6c0.2,0.2,0.3,0.6,0.5,0.6c1.5,0.3,3,0.6,4.6,0.8c0.3,0,0.7-0.1,1-0.3
			c-0.3-0.2-0.7-0.3-1-0.5c-0.5-0.3-1-0.6-1.5-0.9c0.5-0.2,0.9-0.4,1.4-0.6c0.4-0.2,0.7-0.3,1.1-0.5c-0.3-0.2-0.7-0.4-1-0.6
			c-0.4-0.3-0.9-0.6-1.3-0.8c0.4-0.3,0.7-0.5,1.1-0.8c0.3-0.2,0.7-0.5,1-0.7c-0.3-0.1-0.7-0.2-1-0.4c-0.5-0.2-0.9-0.5-1.3-0.8
			c0.3-0.3,0.7-0.6,1-0.9c0.2-0.2,0.4-0.3,0.6-0.5C422,517.4,420.9,516.8,419.6,516.2L419.6,516.2z M541,279.8
			c-0.2-0.1-0.5-0.4-0.6-0.3c-1.3,0.6-2.9,0.9-3.7,1.9c-1,1.2-1.5,2.1-3.1,1c-0.4-0.2-1.1,0-1.7,0.1c0,0.5,0.1,1,0.2,1.4
			c0.8,1.3,1.7,2.6,2.6,3.8c0.1,0.2,0.9,0.1,0.9,0.1c0.2-0.7,0.2-1.5,0.3-2.2c0.5,0.1,1.4,0.5,1.5,0.3
			C538.7,284,539.8,282,541,279.8L541,279.8z M422.9,440.5c-1.4,0.5-2.7,0.8-3.9,1.3c-0.4,0.2-0.7,0.4-1,0.7
			c0.4,0.3,0.8,0.5,1.2,0.7c0.5,0.2,1.1,0.4,1.6,0.6c-0.5,0.2-1.1,0.4-1.6,0.6c-0.4,0.2-0.8,0.3-1.1,0.5c0.3,0.4,0.7,0.7,1,0.9
			c0.4,0.2,0.9,0,1.3,0.1c0.3,0.2,0.5,0.5,0.5,0.8c0,0.2-0.2,0.5-0.5,0.6c-0.7,0.2-1.4,0.4-2.1,0.5c0.8,0.2,1.5,0.4,2.3,0.7
			c0.1,0,0.3,0.2,0.3,0.2c-0.1,2.7,1.8,0.6,2.7,1c0.1,0,0.3-0.2,0.5-0.3c-0.2-0.2-0.4-0.3-0.6-0.5c-0.5-0.3-1-0.7-1.5-1
			c0.5-0.3,1-0.5,1.5-0.8c0.4-0.2,0.8-0.5,1.2-0.7c-0.4-0.2-0.8-0.3-1.1-0.5c-0.5-0.3-1-0.5-1.5-0.8c0.5-0.2,1-0.5,1.5-0.7
			c0.4-0.2,0.8-0.5,1.3-0.7c-0.4-0.3-0.8-0.5-1.2-0.7c-0.3-0.1-0.7,0.1-0.9-0.1c-0.4-0.3-0.6-0.7-0.8-1.1c0-0.1,0.5-0.5,0.9-0.7
			c0.4-0.1,0.8-0.3,1.3-0.3C423.7,440.9,423.2,440.7,422.9,440.5L422.9,440.5z M583.9,235.1c0.2-0.1,0.8-0.3,1-0.7
			c0.1-0.5,0-1-0.3-1.4c-1.3-0.9-2.6-1.8-4-2.5c-0.8-0.4-1.6-0.7-2.5-0.9c-0.5-0.1-1.1-0.2-1.6-0.2c0,0.6,0,1.1,0.1,1.7
			C577.6,233.5,580.6,235.2,583.9,235.1z M310.8,184.7c-0.2,0.1-0.4,0.1-0.6,0.2c0.3,0.4,0.6,0.8,1,1.2c0.2-0.4,0.4-0.8,0.5-1.3
			c0.4-1.8,0.9-3.6,1.1-5.5c0.4-2.4,0.6-4.9,0.9-7.3c0-0.3-0.1-0.6-0.3-0.8c-0.2,0.3-0.5,0.5-0.6,0.8c-0.2,1.3,0,2.7-1.7,3.3
			c-0.2,0.1-0.4,0.8-0.4,1.2C310.8,179.3,310.8,182,310.8,184.7L310.8,184.7z M632.9,119.2c-0.2-0.9-0.5-1.7-0.8-2.5
			c-0.2-0.4-0.6-0.7-1.1-0.8c-0.3,0-0.7,0.5-0.9,0.9c-1.1,2.5-0.8,5.4,0.8,7.6c0.2,0.3,0.7,0.4,1.1,0.7c0.2-0.3,0.4-0.7,0.5-1.1
			C632.6,122.5,632.7,121.2,632.9,119.2L632.9,119.2z M304.8,144.1h-0.1c-0.2,1.7-0.3,3.4-0.5,5.1c0,0.3,0.1,0.5,0.2,0.8
			c0.2-0.2,0.3-0.5,0.4-0.7c1.2-4.9,1.5-9.9,0.8-14.9c-0.2-0.5-0.5-0.9-0.8-1.3c-0.2,0.4-0.3,0.9-0.4,1.4
			C304.5,137.7,304.6,140.9,304.8,144.1z M219.7,115.7h0.2c0,0.4,0,0.9,0,1.3c0.3,1,0.7,2,1,2.9c0.3-1,0.6-2.1,0.7-3.2
			c0-2.9-0.1-5.7-0.2-8.6c0-0.2-0.1-0.4-0.1-0.5c-0.2,0.2-0.3,0.5-0.4,0.7C220.5,110.8,220.1,113.3,219.7,115.7L219.7,115.7z
			 M422,388.7c1-0.5,2.1-1,3.1-1.5c0.3-0.1,0.6-0.2,0.8-0.4c-0.3-0.1-0.5-0.2-0.8-0.3c-0.5-0.3-1-0.7-1.5-1.1c0.5-0.3,1-0.5,1.5-0.8
			c0.3-0.1,0.5-0.1,0.8-0.2c-0.3-0.2-0.6-0.6-0.8-0.5c-1.1,0.3-2.3,0.7-3.4,1c-0.5,0.1-0.9,0.3-1.4,0.4c0.9,0.3,1.7,0.7,2.4,1.3
			c-0.3,0.3-0.7,0.6-1.1,0.9c-0.5,0.2-0.9,0.4-1.4,0.5C420.8,388.3,421.3,388.4,422,388.7L422,388.7z M586.1,83.5
			c-0.6-0.5-1.3-1.3-1.6-1.2c-0.8,0.4-1.6,1-2.3,1.7c0.7,0.8,1.5,1.6,2.2,2.4C584.9,85.5,585.4,84.6,586.1,83.5L586.1,83.5z
			 M587.3,212.8c1.9,0.2,2.6-0.7,2.4-2.2c-0.1-0.7-0.8-1.3-1.3-2c-0.6,1.1-1.3,2.2-1.9,3.3C586.5,212.1,587,212.5,587.3,212.8
			L587.3,212.8z M240.7,170.7c0.8-0.3,1.8-0.6,2.8-1.1c0.3-0.1,0.5-0.6,0.8-0.9c-0.4-0.1-0.8-0.4-1.1-0.4c-1.5,0.2-3.1,0.5-4.6,0.9
			c-0.6,0.3-1.2,0.6-1.7,1c0.6,0,1.2,0,1.8,0S239.8,170.6,240.7,170.7L240.7,170.7z M494.8,92.6c0.1,0.5,0.2,0.9,0.3,1.3
			c0.3-0.3,0.8-0.6,0.9-0.9c0.4-1.8,0.8-3.6,1.1-5.4c0.1-0.3-0.3-0.7-0.5-1.1c-0.2,0.3-0.4,0.6-0.5,0.9
			C495.6,89.2,495.2,90.9,494.8,92.6L494.8,92.6z M306.7,201.6c1.1,2.1,2.3,4.5,3.5,6.9c0.1,0.1,0.2,0.2,0.3,0.3
			c0-0.2,0.2-0.4,0.1-0.5c-0.9-2.5-1.8-5-2.8-7.5c-0.1-0.3-0.5-0.4-0.8-0.6C306.9,200.5,306.9,200.8,306.7,201.6L306.7,201.6z
			 M301.4,138.5c-0.6-2.2-1.2-4.5-1.9-6.8c-0.1-0.3-0.4-0.5-0.6-0.8c0,0.4,0,0.7,0,1.1c0.5,2.2,1,4.5,1.5,6.7
			c0.1,0.4,0.3,0.9,0.4,1.3C301,139.5,301.2,139.1,301.4,138.5L301.4,138.5z M536.5,276.6l1.1-0.5c0.7-0.5,1.3-1.1,1.8-1.8
			c0.1-0.2-1.1-1.5-1.2-1.4c-0.8,0.5-1.6,1.1-2.2,1.9C535.8,275.2,536.3,276,536.5,276.6L536.5,276.6z M361,66.5
			c0.4-0.3,0.6-0.4,0.7-0.6c1.4-2.4,2.9-4.9,4.3-7.3c0.1-0.1-0.1-0.4-0.1-0.5c-0.1,0.1-0.3,0.1-0.3,0.2c-1.5,2.4-3.1,4.7-4.5,7.1
			C360.8,65.6,361,66,361,66.5L361,66.5z M610.2,200.7c-0.7-0.9-1-1.5-1.4-2l-2,3c0.4,0.2,0.9,0.7,1.1,0.6
			C608.7,201.8,609.5,201.3,610.2,200.7L610.2,200.7z M354.7,144.7l-3.8-3.1c-0.2,0.3-0.6,0.9-0.6,1c1.2,0.9,2.5,1.7,3.8,2.5
			C354.2,145.2,354.4,144.9,354.7,144.7z M265.2,182.8c0.7-0.7,1.3-1.6,1.8-2.4c0.1-0.8,0.2-1.5,0-2.3c-0.4,0.1-1.1,0.1-1.2,0.3
			c-0.4,1.3-0.7,2.6-1,3.9C264.8,182.3,265,182.4,265.2,182.8L265.2,182.8z M569.7,194.7c0,0.7-0.2,1-0.1,1.1c0.3,0.5,0.7,1,1.1,1.4
			c0.2-0.5,0.3-1,0.3-1.5c0-0.8-0.1-1.6-0.2-2.4c-0.1-0.4-0.5-0.8-0.8-1.2c-0.2,0.4-0.3,0.8-0.4,1.3
			C569.6,193.8,569.6,194.3,569.7,194.7L569.7,194.7z M490.9,102c-0.6-3.1-1.1-5.8-1.7-8.6c0-0.2-0.3-0.4-0.4-0.6
			c-0.1,0.3-0.2,0.5-0.2,0.8c0.5,2.8,1.1,5.5,1.6,8.3c0.1,0.3,0.3,0.6,0.5,0.9C490.9,102.4,490.9,102,490.9,102L490.9,102z
			 M405.6,27.5c-0.6-1-0.9-1.6-1.3-2.2l-2.4,2.8c0.2,0.2,0.5,0.5,0.7,0.5C403.7,28.2,404.7,27.8,405.6,27.5z M343.6,234.5
			c-0.7-0.2-1.3-0.6-1.9-1c-0.3-0.2-0.2-0.8-0.3-1.3c-0.4,0.5-0.8,1.1-1.1,1.7c-0.1,0.6,0.1,1.2,0.5,1.6c0.6,0.3,1.2,0.4,1.9,0.2
			C343,235.7,343.2,235.1,343.6,234.5L343.6,234.5z M363,74.3c0.2-0.1,0.4-0.2,0.6-0.3c1.2-1.5,2.4-3,3.6-4.6
			c0.1-0.1,0.1-0.3,0.1-0.4c-0.2,0-0.5,0-0.6,0.1c-1.2,1.4-2.4,2.8-3.6,4.2C362.9,73.4,363,73.8,363,74.3L363,74.3z M261.7,187.2
			c0.4,0.6,0.7,1,0.9,1.3c0.5-0.9,0.9-1.8,1.2-2.8c0.1-0.3-0.3-0.8-0.5-1.3C262.8,185.3,262.2,186.2,261.7,187.2L261.7,187.2z
			 M421.8,383.7c1.3-0.6,2.4-1.1,3.5-1.6c0.3-0.1,0.5-0.2,0.8-0.2c-0.3-0.2-0.5-0.5-0.8-0.5c-1.2,0.3-2.4,0.6-3.6,1
			c-0.5,0.1-0.9,0.3-1.3,0.5C420.8,383.2,421.2,383.4,421.8,383.7L421.8,383.7z M265.7,166.5c-0.2,0.3-0.4,0.7-0.6,1.1
			c1,0.9,2,1.7,3.1,2.4c0.2,0.1,0.4,0,0.6-0.1c0.1-0.2,0.1-0.4,0-0.6C267.8,168.4,266.8,167.5,265.7,166.5L265.7,166.5z
			 M327.9,143.6c0.5,0.6,0.9,1.1,1.3,1.7c0.3-0.5,0.9-1.1,0.9-1.6c-0.1-0.6-0.7-1.1-1.1-1.6C328.6,142.5,328.3,142.9,327.9,143.6z
			 M419.7,526.9c-0.5,0.2-1.1,0.4-1.6,0.6c0,0,0.1,0.5,0.2,0.5c1.6,0.2,3.3,0.5,4.9,0.6c0.1,0,0.2-0.2,0.3-0.4
			C422.3,527.8,421,527.3,419.7,526.9L419.7,526.9z M605.7,203.9c-0.8,0.5-1.5,1-2.2,1.5c0.5,0.3,1,0.9,1.3,0.8
			c0.7-0.4,1.3-0.8,1.9-1.4C606.4,204.6,606.1,204.3,605.7,203.9L605.7,203.9z M498.9,129.7c0,0.4,0,0.7,0,1.1
			c0.2,0.8,0.5,1.5,0.9,2.3c0.4,0.7,0.8,1.3,1.3,2c-0.1-0.7-0.3-1.4-0.5-2.1c-0.3-0.8-0.6-1.5-0.9-2.3
			C499.5,130.3,499.2,130,498.9,129.7L498.9,129.7z M523,202.3c0.1,0,0.1-0.1,0.2-0.1c1-0.9,2.1-1.9,3.1-2.8
			c-0.1-0.2-0.2-0.3-0.3-0.5c-1.1,0.8-2.2,1.7-3.3,2.6c-0.2,0.1-0.1,0.5-0.1,0.8C522.8,202.3,522.9,202.3,523,202.3L523,202.3z
			 M299.2,184c-1-1.2-1.2-1.5-1.4-1.7c-0.6,0.9-1.2,1.8-1.7,2.7c-0.1,0.1,0.3,0.6,0.3,0.5C297.4,185,298.3,184.5,299.2,184z
			 M424.3,379.5c0.4,0,0.8,0,1.3,0c0.2,0,0.3-0.2,0.5-0.3c-0.1-0.1-0.2-0.3-0.3-0.3c-1.5-0.5-2.9-1-4.4-1.5
			c-0.2-0.1-0.5,0.1-0.8,0.2c0,0.2,0,0.5,0.1,0.5C421.8,378.6,423,379,424.3,379.5L424.3,379.5z M420.4,346c-0.9-1-2-2.2-3-3.3
			c-0.1-0.1-0.5,0.1-0.8,0.2c0.1,0.3,0.2,0.5,0.3,0.7c0.8,1,1.5,1.9,2.3,2.9c0.2,0.2,0.4,0.3,0.6,0.4
			C419.9,346.8,420,346.6,420.4,346L420.4,346z M314.1,229.6c-0.4,0.6-0.7,0.8-0.7,1c0.2,0.9,0.5,1.8,0.8,2.7c0,0.1,0.6,0,0.9,0
			C314.8,232.2,314.5,231.1,314.1,229.6z M191.9,174.1c-0.6-0.7-1.1-1.2-1.6-1.8c-0.3,0.3-1,0.9-0.9,1c0.4,0.6,0.9,1.2,1.4,1.7
			C190.9,175,191.4,174.6,191.9,174.1L191.9,174.1z M315.2,202.3c0.3,0.5,0.6,0.9,0.8,1.4c0.3-0.6,0.5-1.2,0.6-1.8
			c0-0.5-0.2-1.1-0.4-1.5C315.9,201,315.6,201.6,315.2,202.3L315.2,202.3z M318.7,226.4c-0.4,0.7-0.7,1.1-0.6,1.2
			c0.3,0.6,0.7,1.2,1.1,1.7c0.2-0.2,0.6-0.6,0.6-0.7C319.5,227.9,319.1,227.1,318.7,226.4L318.7,226.4z M289,182.1l-0.8-0.9l-0.6-1
			c-0.4,0.6-0.7,1.2-1.1,1.8c-0.1,0.1,0.4,0.7,0.5,0.7C287.8,182.5,288.4,182.3,289,182.1L289,182.1z M568.6,264.2
			c0.3-0.4,0.5-0.6,0.7-0.8c-0.8-0.6-1.6-1.2-2.4-1.8c-0.1,0-0.3,0.2-0.5,0.3L568.6,264.2L568.6,264.2z M503.6,152
			c-0.1-0.5-0.2-0.8-0.3-1.2c-0.2,0.3-0.4,0.7-0.5,1c-0.2,0.9-0.3,1.9-0.4,2.8c0.1,0,0.3,0,0.3,0C503,153.7,503.3,152.8,503.6,152
			L503.6,152z M586.9,217.4c-0.3,0.7-0.6,1.1-0.5,1.2c0.3,0.6,0.7,1.2,1.2,1.7c0.2-0.3,0.7-0.7,0.6-0.9
			C587.8,218.7,587.4,218,586.9,217.4L586.9,217.4z M296.8,131.3c-0.2-0.5-0.5-1.3-0.8-2.1c0,0-0.2,0-0.4,0c0.1,0.8,0.2,1.6,0.2,2.3
			c0,0.1,0,0.1,0,0.2c0.2,0.4,0.4,0.8,0.6,1.2C296.6,132.5,296.7,132.1,296.8,131.3L296.8,131.3z M500.2,162.3
			c-0.2-0.6-0.3-0.9-0.5-1.3c-0.2,0.4-0.4,0.9-0.6,1.3c-0.2,0.3-0.3,0.7-0.3,1.1c0,0.5,0,0.9,0.1,1.4
			C499.3,163.9,499.8,163,500.2,162.3L500.2,162.3z M347.6,222.5c-0.9-0.8-1.2-1.1-1.5-1.4c-0.3,0.4-0.6,0.8-0.9,1.3
			c-0.1,0.2,0.5,0.8,0.8,0.7C346.6,223,347.2,222.8,347.6,222.5z M214.8,171.7l1.3,0.1c0.2-0.5,0.3-1,0.3-1.5c0-0.3-0.6-0.6-0.9-0.6
			c-0.4,0-1.1,0.3-1.2,0.6C214.2,170.7,214.6,171.2,214.8,171.7L214.8,171.7z M202.2,107.5c0.5-0.6,0.9-1.2,1.2-1.8
			c0.1-0.1-0.3-0.5-0.4-0.7c-0.4,0.5-0.8,1-1.2,1.5C201.6,106.6,201.9,106.9,202.2,107.5L202.2,107.5z M424.1,351v-2.8
			c-0.1,0.8-0.3,1.5-0.4,2.3s-0.1,1.6-0.2,2.5C423.8,352.2,424,351.4,424.1,351L424.1,351z M324.7,110.3c-0.8,0.1-1.5,0.2-2.1,0.3
			c0.9,0.2,1.9,0.5,2.8,0.6c0.3,0,0.7-0.3,1-0.5C325.8,110.5,325.2,110.4,324.7,110.3L324.7,110.3z M342.7,211.2
			c-0.3,0.7-0.6,1.1-0.5,1.2c0.4,0.5,0.8,1,1.2,1.4c0.2-0.3,0.6-0.6,0.6-0.8C343.6,212.3,343.2,211.7,342.7,211.2L342.7,211.2z
			 M338.4,206.8c-0.3,0.6-0.8,1-0.7,1.2c0.1,0.4,0.5,0.7,0.8,1c0.2-0.3,0.6-0.7,0.6-1C339.1,207.7,338.8,207.4,338.4,206.8
			L338.4,206.8z M534.6,108.1c0.5-0.9,0.9-1.7,1.3-2.5c0-0.1-0.2-0.3-0.3-0.4c-0.6,0.8-1.2,1.6-1.7,2.4
			C533.9,107.6,534.2,107.8,534.6,108.1L534.6,108.1z M501.4,155.7c-0.3-0.5-0.5-0.8-0.7-1.1c-0.2,0.3-0.5,0.7-0.5,1
			c0.1,0.5,0.3,1,0.5,1.4C500.9,156.6,501.2,156.2,501.4,155.7L501.4,155.7z M421.5,381c0.7-0.2,1.2-0.4,1.7-0.5
			c-0.5-0.3-1-0.5-1.5-0.6c-0.5,0.1-0.9,0.2-1.3,0.4C420.8,380.6,421.2,380.8,421.5,381L421.5,381z M421.5,391.1
			c0.7-0.1,1.2-0.2,1.6-0.2c-0.6-0.3-1.3-0.6-1.9-0.8c-0.3-0.1-0.8,0.2-1.1,0.4C420.7,390.7,421.2,391,421.5,391.1L421.5,391.1z
			 M339.3,217.6c0.4-0.5,0.8-0.9,0.8-1.2s-0.5-0.6-0.8-0.8c-0.2,0.2-0.7,0.5-0.7,0.7C338.7,216.7,339,217,339.3,217.6L339.3,217.6z
			 M419.1,530.7c0.6-0.3,1.1-0.5,1.6-0.7c-0.4-0.1-0.8-0.2-1.2-0.3c-0.4,0.1-0.8,0.2-1.1,0.4C418.6,530.3,418.8,530.5,419.1,530.7
			L419.1,530.7z M547.7,258c-0.3,0.4-0.6,0.8-0.8,1.2c-0.1,0.2,0.2,0.4,0.4,0.7c0.3-0.2,0.7-0.5,0.9-0.8
			C548.2,258.9,547.9,258.6,547.7,258L547.7,258z M490.2,161.5c0.3-0.5,0.6-1,0.9-1.6c0.1-0.1-0.2-0.4-0.3-0.6
			c-0.4,0.4-0.7,0.7-1,1.2C489.7,160.7,489.9,161,490.2,161.5z M424.4,389.8c0.6-0.1,1-0.2,1.5-0.2c-0.5-0.2-1-0.4-1.5-0.4
			c-0.5,0.1-0.9,0.2-1.3,0.4C423.5,389.6,424,389.7,424.4,389.8L424.4,389.8z M634,127.9c0.3-1.3,0.5-1.9,0.6-2.5
			c0-0.2-0.1-0.4-0.2-0.6c-0.3,0.6-0.6,1.1-0.9,1.7C633.5,126.7,633.7,127,634,127.9L634,127.9z M418.7,427.3c0.1,0.4,0.1,0.7,0.2,1
			c0.2-0.6,0.5-1.2,0.6-1.8c0.1-0.3-0.2-0.6-0.3-0.9C419.1,426.2,418.9,426.7,418.7,427.3L418.7,427.3z M421.4,396.2
			c0.4-0.1,0.8-0.3,1.1-0.4c-0.4-0.2-0.9-0.4-1.3-0.5c-0.3,0-0.7,0.3-1,0.4C420.6,395.9,421,396.1,421.4,396.2L421.4,396.2z
			 M290.6,186.5c0.2-0.8,0.4-1.3,0.5-1.9c0-0.1-0.3-0.2-0.5-0.4c-0.2,0.5-0.3,1.1-0.5,1.6C290.1,186,290.3,186.2,290.6,186.5
			L290.6,186.5z M301,145.6c0.2-0.5,0.5-0.8,0.4-1c0-0.2-0.3-0.4-0.4-0.7c-0.2,0.2-0.4,0.4-0.4,0.6S300.7,145.1,301,145.6L301,145.6
			z M373,61l-0.3-0.2c-0.3,0.6-0.6,1.1-0.9,1.7c0,0.1,0.3,0.4,0.4,0.6C372.5,62.4,372.7,61.8,373,61L373,61z M484.4,8.6
			c-0.5-0.5-0.8-0.7-1.1-1c-0.2,0.2-0.5,0.4-0.5,0.5c0.2,0.3,0.4,0.6,0.7,0.8C483.6,8.9,483.9,8.7,484.4,8.6z M424.8,346.1
			c-0.3,0.1-0.6,0.2-1,0.3c0.4,0.2,0.9,0.7,1.3,0.7c0.5,0,0.9-0.5,1.4-0.8C426,346.3,425.5,346.2,424.8,346.1L424.8,346.1z
			 M512.3,296.7l0.7,1.1c0.1-0.2,0.2-0.5,0.2-0.8c-0.1-0.5-0.3-1-0.5-1.5C512.6,295.8,512.5,296.1,512.3,296.7L512.3,296.7z
			 M515.6,292.3c-0.7-0.7-0.9-0.9-1.1-1.1c-0.2,0.3-0.5,0.7-0.6,1.1c0,0.1,0.3,0.6,0.4,0.6C514.8,292.6,515.2,292.5,515.6,292.3
			L515.6,292.3z M421.6,393.6c0.5-0.2,0.8-0.3,1.2-0.5c-0.4-0.2-0.9-0.4-1.4-0.5c-0.3,0-0.7,0.3-1.1,0.4
			C420.7,393.3,421.2,393.5,421.6,393.6L421.6,393.6z M319,172.7c0.3,0.6,0.5,1.1,0.8,1.7c0.1-0.2,0.1-0.4,0.1-0.5
			c-0.1-0.6-0.3-1.2-0.4-1.9C319.3,172.2,319.2,172.4,319,172.7z M219.3,171.3c0.1-0.3,0.2-0.6,0.2-1c0-0.2-0.4-0.6-0.5-0.5
			c-0.3,0.1-0.5,0.3-0.8,0.5C218.4,170.5,218.6,170.6,219.3,171.3L219.3,171.3z M424,392.4c0.8-0.2,1.3-0.3,1.8-0.4
			c-0.5-0.2-1-0.3-1.6-0.3c-0.5,0.1-0.9,0.2-1.3,0.5C423.4,392.3,423.8,392.4,424,392.4L424,392.4z M315.2,167.6
			c-0.2-0.3-0.5-0.5-0.8-0.6c-0.1,0-0.5,0.4-0.5,0.6c0.1,0.3,0.3,0.5,0.6,0.7C314.6,168.2,314.8,167.9,315.2,167.6L315.2,167.6z
			 M340.2,214.3c-0.3-0.3-0.5-0.7-0.6-0.7c-0.3,0.1-0.6,0.3-0.7,0.5c-0.1,0.1,0.2,0.6,0.4,0.6C339.5,214.6,339.9,214.5,340.2,214.3
			L340.2,214.3z M429.6,17.9c-0.2-0.3-0.3-0.5-0.4-0.8c-0.2,0.1-0.6,0.3-0.6,0.4c0.1,0.3,0.2,0.5,0.4,0.7
			C429.2,18.1,429.4,18,429.6,17.9L429.6,17.9z M583.6,217.4c0.3-0.3,0.5-0.6,0.7-0.9c-0.2-0.3-0.5-0.5-0.8-0.7c0,0-0.4,0.3-0.4,0.4
			C583.2,216.6,583.4,217,583.6,217.4L583.6,217.4z M420.5,439.6c-0.5-0.1-1-0.1-1.5-0.1c-0.2,0-0.4,0.3-0.6,0.5
			c0.3,0.1,0.6,0.2,1,0.2C419.6,440.2,419.8,440,420.5,439.6L420.5,439.6z M346.7,228.2c0.1-0.7,0.2-1,0.2-1.2s-0.3-0.4-0.5-0.6
			c-0.1,0.2-0.2,0.5-0.2,0.8C346.1,227.4,346.4,227.6,346.7,228.2L346.7,228.2z M626.7,191.7c-0.3-0.2-0.5-0.4-0.5-0.4
			c-0.3,0.3-0.7,0.5-1,0.8c0.1,0.1,0.3,0.4,0.4,0.4C625.9,192.3,626.2,192.1,626.7,191.7L626.7,191.7z M317.2,208.2v-0.7
			c-0.3-0.1-0.6-0.3-0.8-0.2s-0.3,0.4-0.4,0.7c0,0.1,0.2,0.4,0.3,0.4C316.7,208.4,317,208.3,317.2,208.2L317.2,208.2z M330.3,227.7
			c-0.2-0.2-0.5-0.3-0.8-0.4c-0.1,0-0.3,0.3-0.4,0.4c0.2,0.2,0.4,0.3,0.6,0.5C329.8,228.2,330,228,330.3,227.7L330.3,227.7z
			 M273.2,77.7c-0.5-0.3-0.7-0.5-1-0.5c-0.2,0-0.4,0.3-0.6,0.4c0.2,0.2,0.4,0.5,0.6,0.5C272.5,78.2,272.7,77.9,273.2,77.7
			L273.2,77.7z M252.7,169.8c-0.4-0.3-0.6-0.6-0.8-0.5c-0.3,0.1-0.6,0.3-0.8,0.6c0.2,0.2,0.4,0.5,0.5,0.5
			C252,170.3,252.4,170.1,252.7,169.8L252.7,169.8z M307.2,203.9c-1-0.5-1.3-0.7-1.4-0.7c-0.2,0.1-0.4,0.3-0.4,0.6
			c0,0.2,0.4,0.4,0.6,0.4C306.4,204.2,306.8,204.1,307.2,203.9L307.2,203.9z M345.8,173.6c0.1-0.3,0.1-0.7,0.1-1
			c0-0.2-0.3-0.3-0.4-0.4c-0.1,0.2-0.2,0.5-0.2,0.8C345.3,173,345.6,173.2,345.8,173.6L345.8,173.6z M478,134.8
			c-0.2-0.2-0.3-0.4-0.4-0.5c-0.1,0.1-0.2,0.3-0.3,0.5c0,0.1,0.1,0.2,0.2,0.4C477.6,135.1,477.8,135,478,134.8L478,134.8z
			 M220.1,155.3c-0.2,0.2-0.3,0.5-0.3,0.8c0,0.1,0.3,0.3,0.4,0.4c0.2-0.3,0.3-0.5,0.5-0.8C220.5,155.6,220.3,155.5,220.1,155.3z
			 M391.2,28c-0.2,0.3-0.4,0.5-0.6,0.8l0.3,0.3c0.2-0.1,0.3-0.2,0.4-0.4S391.3,28.3,391.2,28z M242.4,126.3
			c-0.2-0.1-0.3-0.3-0.5-0.4c-0.1,0.2-0.3,0.3-0.3,0.5c0,0.1,0.2,0.3,0.4,0.4C242.1,126.6,242.2,126.5,242.4,126.3z M258.5,144.6
			c0.1-0.3,0.2-0.5,0.1-0.6c-0.1-0.2-0.3-0.2-0.5-0.3c-0.1,0.2-0.2,0.4-0.2,0.5C258,144.3,258.2,144.4,258.5,144.6L258.5,144.6z
			 M354.7,141c-0.2-0.2-0.3-0.4-0.4-0.6c-0.2,0.1-0.3,0.2-0.4,0.4c0,0.1,0,0.3,0.1,0.4C354.3,141.2,354.5,141.1,354.7,141L354.7,141
			z M303.6,127.7c0.1,0.1,0.3,0.2,0.5,0.3c0.1-0.1,0.2-0.3,0.2-0.4c-0.1-0.2-0.2-0.3-0.3-0.5C303.8,127.2,303.7,127.3,303.6,127.7
			L303.6,127.7z M242.8,123.7c-0.1-0.3-0.1-0.4-0.1-0.7c-0.1,0.1-0.3,0.3-0.3,0.4c0,0.2,0,0.4,0.1,0.6
			C242.5,123.9,242.7,123.8,242.8,123.7L242.8,123.7z M233.5,134.9c-0.1,0.2-0.2,0.3-0.3,0.5l0.3,0.2c0.1-0.1,0.3-0.3,0.4-0.5
			L233.5,134.9L233.5,134.9z M206.5,107.4c0.3-0.3,0.5-0.4,0.5-0.6c0-0.1-0.2-0.3-0.3-0.4c-0.1,0.1-0.3,0.2-0.3,0.3
			C206.4,106.9,206.5,107.1,206.5,107.4L206.5,107.4z M475.3,77.9c-0.1-0.4-0.1-0.7-0.1-1c-0.1,0.2-0.2,0.4-0.3,0.6
			c0,0.3,0,0.6,0.1,0.8C475.1,78.2,475.2,78,475.3,77.9L475.3,77.9z M422.4,398.1c-0.5-0.1-1.1-0.2-1.6-0.2c-0.2,0-0.3,0.1-0.5,0.2
			c0.3,0.1,0.7,0.1,1,0.1C421.7,398.3,422.1,398.2,422.4,398.1L422.4,398.1z M591.8,198.8c-0.2-0.1-0.4-0.1-0.7-0.2
			c-0.1,0-0.3,0.3-0.2,0.3c0.1,0.1,0.3,0.4,0.4,0.3C591.5,199.3,591.6,199,591.8,198.8L591.8,198.8z M419.4,451.3
			c0.2-0.1,0.4-0.2,0.6-0.3c-0.2-0.2-0.4-0.3-0.7-0.4c-0.2,0-0.4,0-0.6,0.1C418.9,451,419.2,451.1,419.4,451.3L419.4,451.3z
			 M421.4,456.7c0.1-0.5,0.2-0.9,0.2-1.4c0-0.2-0.2-0.4-0.3-0.6c-0.2,0.5-0.3,0.9-0.5,1.4C420.8,456.1,421.1,456.3,421.4,456.7
			L421.4,456.7z M421.9,464.1l-0.7-0.6c-0.2,0.2-0.4,0.4-0.5,0.7c0,0.1,0.3,0.4,0.5,0.4S421.6,464.3,421.9,464.1L421.9,464.1z
			 M305.5,197.6c0.1-0.2,0.3-0.3,0.4-0.5c0-0.1-0.2-0.3-0.2-0.3c-0.2,0-0.3,0.1-0.5,0.2C305.2,197.2,305.3,197.4,305.5,197.6
			L305.5,197.6z M570,199.3c0,0.4-0.1,0.6-0.1,0.7c0.1,0.2,0.3,0.3,0.5,0.5c0-0.2,0.1-0.4,0-0.6C570.3,199.7,570.1,199.5,570,199.3
			L570,199.3z M449.8,327c-0.1-0.1-0.2-0.3-0.3-0.3s-0.2,0.2-0.3,0.3c0.1,0.1,0.2,0.3,0.3,0.3S449.7,327.1,449.8,327z M474.7,113.1
			c0.1-0.1,0.1-0.2,0.2-0.3c-0.1-0.1-0.2-0.2-0.3-0.2c-0.1,0-0.1,0.2-0.2,0.3C474.5,113,474.6,113,474.7,113.1L474.7,113.1z
			 M344.9,215.1c-0.1,0.1-0.3,0.1-0.3,0.2s0,0.3,0,0.4c0.2-0.1,0.3-0.1,0.5-0.2C345.1,215.4,345,215.2,344.9,215.1z M262,182.8
			c-0.1-0.1-0.2-0.2-0.3-0.2c-0.1,0.1-0.2,0.3-0.2,0.4c0.1,0.1,0.2,0.2,0.4,0.3C262,183,262,182.9,262,182.8L262,182.8z
			 M335.2,146.1c0.1-0.1,0.3-0.1,0.3-0.2c0-0.1-0.1-0.2-0.2-0.3c-0.1,0.1-0.3,0.1-0.3,0.2S335.1,146,335.2,146.1L335.2,146.1z
			 M508,469.3c0.3-0.2,0.5-0.4,0.8-0.6c-0.2,0-0.4-0.1-0.5-0.1c-0.3,0.1-0.5,0.2-0.7,0.4C507.7,469.1,507.8,469.2,508,469.3z
			 M460.3,126.8c0.2-0.4,0.4-0.7,0.4-0.9s-0.3-0.3-0.5-0.5c-0.2,0.2-0.4,0.4-0.4,0.6C459.7,126.2,460,126.4,460.3,126.8L460.3,126.8
			z M492.9,130c-0.1-0.1-0.2-0.2-0.2-0.3c0,0.1-0.1,0.3-0.1,0.4s0.1,0.2,0.2,0.3C492.8,130.2,492.9,130.1,492.9,130L492.9,130z
			 M327.1,134.2l-0.2-0.3l-0.3,0.3c0.1,0.1,0.2,0.2,0.3,0.2C326.9,134.4,327,134.3,327.1,134.2L327.1,134.2z M543.7,271.2
			c0.1-0.1,0.2-0.3,0.3-0.5c0-0.1-0.2-0.2-0.2-0.3c-0.1,0.1-0.2,0.3-0.3,0.4C543.4,270.9,543.6,271.1,543.7,271.2L543.7,271.2z
			 M612.4,201.8c-0.2-0.1-0.3-0.2-0.4-0.1c-0.1,0.2-0.3,0.3-0.4,0.5c0.1,0,0.3,0.2,0.3,0.1C612.1,202.1,612.3,201.9,612.4,201.8
			L612.4,201.8z M279.9,118.3c-0.1,0.2-0.2,0.3-0.2,0.4c0,0.2,0.1,0.4,0.1,0.6c0.1-0.1,0.2-0.2,0.2-0.3
			C280,118.8,280,118.5,279.9,118.3L279.9,118.3z M466.2,126c-0.2,0.3-0.4,0.4-0.4,0.6s0.2,0.3,0.4,0.4c0.1-0.1,0.4-0.3,0.4-0.4
			C466.6,126.4,466.4,126.3,466.2,126z M294.3,127.6c0-0.1-0.1-0.3-0.2-0.4c0,0-0.2,0-0.3,0.1c0,0.1,0.1,0.3,0.2,0.4
			C294,127.7,294.2,127.6,294.3,127.6z M317.8,166.5c0-0.1,0-0.2,0-0.2c-0.1,0-0.2,0-0.3,0c0,0.1,0,0.2,0,0.2
			S317.7,166.5,317.8,166.5L317.8,166.5z M421.4,453.9c0.1-0.4,0.2-0.9,0.2-1.3c0-0.2-0.1-0.4-0.2-0.5c-0.1,0.2-0.2,0.5-0.2,0.7
			C421.2,453.2,421.3,453.5,421.4,453.9L421.4,453.9z M421,458.3c-0.2,0.2-0.4,0.4-0.4,0.5s0.3,0.4,0.4,0.4c0.2-0.1,0.3-0.3,0.5-0.5
			C421.4,458.6,421.3,458.4,421,458.3L421,458.3z M370.1,64.2c-0.1,0.1-0.3,0.3-0.4,0.5c0,0,0.1,0.2,0.2,0.2
			c0.1-0.1,0.3-0.3,0.4-0.4C370.4,64.5,370.3,64.3,370.1,64.2z M421.6,515.2c-0.2,0-0.4,0-0.5,0.1c0.1,0.1,0.3,0.2,0.5,0.3
			c0.1,0,0.3,0,0.4-0.1C421.8,515.4,421.7,515.3,421.6,515.2L421.6,515.2z M643.3,126.3c0-0.1,0-0.3,0.1-0.4c-0.1,0-0.2,0-0.4,0v0.2
			C643.1,126.2,643.2,126.3,643.3,126.3z M422.6,427.7c-0.1,0.1-0.3,0.2-0.3,0.3s0.1,0.2,0.2,0.4l0.4-0.3
			C422.7,427.9,422.7,427.8,422.6,427.7z"/>
		<path id="Path_2" class="st0" d="M636.4,83.9c-0.4,1.1-0.8,2-1.2,3c0,0.1-0.6,0-0.6,0c-0.1-1-0.1-2,0-3c0.1-0.5,0.6-1,1-1.5
			C635.9,82.8,636.2,83.4,636.4,83.9L636.4,83.9z"/>
		<path id="Path_3" class="st0" d="M306.6,42.7c0.7,1,1,1.6,1.4,2.2c-0.6,0.4-1.3,0.8-1.9,1.1c-0.3,0.1-1.1-0.6-1-0.7
			C305.5,44.3,306,43.5,306.6,42.7L306.6,42.7z"/>
		<path id="Path_4" class="st0" d="M641.6,80.5c0.3,0.5,0.6,0.8,0.5,0.9c-0.3,0.6-0.6,1.1-0.9,1.7c-0.2-0.1-0.4-0.2-0.6-0.3
			C640.9,82.1,641.2,81.5,641.6,80.5L641.6,80.5z"/>
		<path id="Path_5" class="st0" d="M316.9,35.7c-0.2-0.2-0.4-0.3-0.6-0.5c0.4-0.3,0.8-0.5,1.3-0.7c0.2-0.1,0.5,0.3,0.8,0.4
			C317.9,35.2,317.4,35.5,316.9,35.7L316.9,35.7z"/>
		<path id="Path_6" class="st0" d="M263.5,85.3l-0.7,0.6c-0.2-0.2-0.4-0.4-0.5-0.6s0.3-0.4,0.4-0.6C263,84.9,263.2,85.1,263.5,85.3z
			"/>
		<path id="Path_7" class="st0" d="M634.6,77.6c0,0.1-0.1,0.2-0.1,0.4c-0.1-0.1-0.3-0.2-0.3-0.3c0-0.2,0.1-0.3,0.2-0.5
			C634.5,77.4,634.6,77.5,634.6,77.6L634.6,77.6z"/>
		<path id="Path_8" class="st0" d="M632.5,73.2c-0.1,0.1-0.3,0.2-0.3,0.2c-0.1-0.1-0.2-0.2-0.3-0.3c0-0.1,0.1-0.2,0.1-0.3
			C632.2,72.9,632.4,73,632.5,73.2L632.5,73.2z"/>
		<path id="Path_9" class="st0" d="M442.7,123.3c-2.8,3.4,1.3,4.5,2.1,6.7c0.9,2.4,3.2,3.8,5.8,4.4c2,0.5,4,1.1,5.9,1.7
			c0.2,0.1,0.4,0.2,0.6,0.3c-0.1,0.2-0.2,0.6-0.4,0.6c-1.6,0.5-1.3,1-0.1,1.6c0.2,0.1,0.3,0.5,0.5,0.8c-0.3,0-0.6,0-0.8-0.1
			c-2.5-1.1-5.1-2.1-7.5-3.4c-2.7-1.4-3-1.2-4.7,1.3c-1.2,1.8-1.9,3.3-0.1,5c0.3,0.4,0.4,0.8,0.2,1.2c-1.9,2.9,0.6,4.2,2.1,5.7
			c3.2,3.1,6.6,6,9.8,9.1c5,4.8,2.4,9-3.1,10.8c-1.9,0.6-4.1,0.2-6.1,0.4c-1.4,0-2.8,0.3-4.1,0.7c-1.7,0.8-3.7,0.6-5.3-0.4
			c-2.5-1.6-5.6-1.8-8.3-0.5c-3.2,1.5-6.5,0.2-9.7-0.2c-0.4,0-0.7-0.6-1.1-1c0.4-0.2,0.8-0.4,1.2-0.7c0.6-0.4,1.1-0.8,1.6-1.2
			c-0.7-0.7-1.4-1.4-2.2-2.1c-0.1-0.1-0.7,0.6-1.2,0.9c-0.5,0.4-1.1,0.6-1.6,0.9c-1.4,0.5-3,0.6-3,2.7c0,0.1-1,0.6-1.2,0.4
			c-1.6-1-3.1-2-4.6-3.2c-0.2-0.5-0.2-1.1,0.1-1.5c2.6-2.1,5.7-3.6,9-4.1c0.2-0.1,0.4-0.1,0.7,0c3.5,2.2,6.8,0.2,10.1-0.6
			c1.6-0.4,2.9-1.4,3.8-2.8c0.6-1.4,2.1-2.3,3.7-2.2c2.4-0.1,2.7-0.7,1.3-2.7c-1.6-2.1-3.3-4.2-5.2-6.1c-1-1.1-1.5-2-0.3-3.3
			c0.3-0.3,0.6-0.9,0.5-1.2c-0.8-2.7-0.9-5.5-0.3-8.2c0.5-2.3,0.3-4.8,0.7-7.1c0.2-1.2,0.7-2.3,1.5-3.2c0.6-0.8,1.4-1.3,2.4-1.4
			c0.7,0.1,1.4,1.2,2,2c0.3,0.5,0.6,1,0.8,1.6c0.4-0.5,0.8-1.1,1.2-1.6c0.1-0.2,0.1-0.4,0.2-0.6c0.4-0.7,0.9-1.4,1.3-2.1
			C441.4,121.6,442,122.4,442.7,123.3L442.7,123.3z M438.1,159.1c0.1,0.2,0.1,0.8,0.4,1c0.9,0.7,2.1,2,2.8,1.8
			c1.6-0.4,2.9-1.6,4.4-2.4c-0.3-0.5-0.5-1.1-0.9-1.4c-1.1-0.6-2.3-1.1-3.5-1.6C439.6,155.8,438.1,156.9,438.1,159.1L438.1,159.1z"
			/>
		<path id="Path_10" class="st0" d="M448.7,200.9c-0.4-1.8-0.7-3.7-1.2-5.4c-0.2-1.4-1.6-2.3-3-2.1c-0.6,0.1-1.1,0.4-1.5,0.9
			c-0.8,0.8-1.2,1-2.2,0.4c-0.8-0.2-1.7,0-2.4,0.5c-1.8,1.4-2.9,1.3-4.3-0.6c-1.1-1-2.4-1.5-3.9-1.6c-3.5-0.3-6.9-0.3-10.4-0.2
			c-1.1,0.1-2.1,0.4-3.1,0.8c-0.3,0.1-0.7,0.5-1,0.4c-1.8-0.3-3.5-0.7-5.3-1.2c-3.1-1-5.1-0.3-7.4,2c-1.7,1.7-3.8,3-5.5,4.6
			c-0.5,0.6-0.7,1.3-0.6,2.1s0.8,1.5,0.8,2.2c0.1,3.6,2.6,4.7,5.5,5.5c0.7,0.2,1.3,1,1.9,1.7c0.9,1,1.9,2,2.7,3.1
			c0.3,0.5,0.6,1.1,0.8,1.7c-0.5,0.2-1.1,0.6-1.6,0.5c-2.1-0.7-4.6-1-6.1-2.3c-4.8-4.2-9.2-8.9-13.7-13.4c-2.2-2.2-1.8-3.6,0.5-5.6
			c2.3-1.9,5.1-3.1,8-3.5c3.2-0.5,6.2-2,9.4-2.9c4.5-1.3,8.8-0.1,13.2,0.9c1,0.3,2,0.4,3,0.3c2.4-0.6,5.2,0.3,7.4-1.6
			c0.2-0.2,0.8,0.2,1.2,0.3c0.6,0.2,1.3,0.3,2,0.2c6.7-2.6,13.4-1.3,20.1,0.1c3.7,0.8,7.4,1.7,11,2.8c4.3,1.3,4.9,5.4,1.6,8.4
			c-1.8,1.7-3.2,3.9-5,5.7c-2.8,2.6-5.8,5.1-8.7,7.5c-1,1-2.2,1.9-3.5,2.6c-2.3,0.8-4.8,1.4-7.2,1.6c-0.6,0.1-1.6-0.9-2.1-1.7
			c-1.5-2.4-3.8-2.7-6.2-2.7c-0.6,0-1.2,0.1-1.8,0.2c-4.2,1-8.7,0.8-12.8-0.6c-2.8-0.9-5.8-1-8.7-1.5c-0.6-0.2-1.2-0.5-1.7-0.9
			c0.8-0.5,1.5-1.3,2.3-1.4c1.6,0,3.2,0.1,4.8,0.3c0.4,0,0.9-0.1,1.1,0.1c1.7,1.9,3.9,1.2,5.9,1.2c3.9,0.1,7.9,0,11.8-0.2
			c3.3-0.2,6.5-0.8,9.8-1.2c0.6,0,1.1,0.1,1.6,0.4c2.2,1.1,2.7,1,3.6-1.4c0.5-1.2,0.8-2.1,2.3-1.3c0.3,0.1,1.4-0.7,1.5-1.1
			c0.1-1.2,0-2.3-0.1-3.5c-0.6,0.2-1.3,0.4-1.9,0.6c-0.3,0.2-0.6,0.3-0.9,0.6l-0.4-2.3C448.5,201,448.6,201,448.7,200.9L448.7,200.9
			z M453.9,205.7c0.3-0.6,0.5-1.2,0.6-1.9c0-0.3-0.4-0.6-0.6-0.9c-0.4,0.4-0.6,0.9-0.9,1.4C452.9,204.5,453.4,204.9,453.9,205.7
			L453.9,205.7z M439.2,213.7c-0.1-0.2-0.2-0.5-0.3-0.5c-0.2,0-0.4,0.1-0.5,0.3c0,0.1,0.1,0.3,0.2,0.5
			C438.8,213.9,439,213.8,439.2,213.7L439.2,213.7z"/>
		<path id="Path_11" class="st0" d="M401.6,130c-2.7-0.3-5.4-0.5-8.1-0.8c-2.9-0.3-5.8-1.2-8.7-1.1c-4.3,0.3-8.5,1.4-12.7,2
			c-2.1,0.3-4.3,0.5-6.4,0.7c-0.2,0-0.5-0.2-0.8-0.3c0.2-0.2,0.3-0.4,0.5-0.6c3.7-3.3,8.4-5,12.7-7.3c0.4-0.2,0.8-0.3,1.2-0.4
			c-0.2,0.3-0.4,0.7-0.5,1c-0.1,0.4-0.1,0.8,0.1,1.1c0.6,0.1,1.2,0.1,1.8,0c2.5-0.9,5-1.7,7.6-2.4c2.2-0.4,4.4-0.4,6.6,0.1
			c3.9,1.1,7.6,2.4,11.3,3.9c0.7,0.3,1.1,1.3,1.6,1.9c-0.6,0.5-1.2,1-1.9,1.3C404.5,129.5,403,129.8,401.6,130L401.6,130L401.6,130z
			 M398.2,126.8c0.7,0.4,1.5,0.7,2.2,0.9c0.2,0,0.6-0.4,0.9-0.7c-0.6-0.4-1.2-0.8-1.8-1.2C399.3,125.8,398.9,126.3,398.2,126.8
			L398.2,126.8z M395.2,124.5c-0.2,0.3-0.5,0.6-0.5,0.8s0.3,0.4,0.5,0.6c0.2-0.2,0.5-0.4,0.6-0.7C395.8,125,395.4,124.8,395.2,124.5
			L395.2,124.5z M390,124.9c-0.3-0.2-0.5-0.4-0.7-0.5c-0.1,0-0.4,0.3-0.4,0.4c0.1,0.2,0.3,0.4,0.5,0.5
			C389.4,125.3,389.7,125.1,390,124.9L390,124.9z"/>
		<path id="Path_12" class="st0" d="M281.5,193.3c-0.6-0.2-1.3-0.5-1.8-0.9c-0.3-0.2-0.3-0.9-0.5-1.3c-0.3,0.6-0.8,1.2-0.7,1.7
			c0.2,1.4,0.4,2.6-0.9,3.6c-0.2,0.2-0.5,0.4-0.7,0.6c-0.1-0.3-0.1-0.6-0.1-0.9c0.2-0.9,0.4-1.7,0.6-2.6c0-0.2-0.1-0.5-0.2-0.8
			c-0.2,0.2-0.3,0.4-0.5,0.6c-0.2,0.4-0.3,0.8-0.5,1.2c-0.1,0.2-0.3,0.4-0.5,0.6c-0.1-0.2-0.3-0.4-0.3-0.6c0-1.8,0-3.7,0-5.5
			c0-0.3,0.4-0.9,0.5-0.9c1.7,0,1.5-1.3,1.6-2.4c0.1-0.4,0.2-0.7,0.4-1c0.2,0.3,0.3,0.5,0.5,0.8s0.5,0.6,0.8,0.9
			c0.2-0.3,0.4-0.6,0.5-0.9c0.4-1.2,0.8-2.3,1.2-3.5c0.1,1.2,0.2,2.4,0.3,3.5c0.1,0.5,0.2,1.1,0.3,1.6c0.3-0.4,0.5-0.9,0.8-1.3
			c0.3-0.4,0.7-0.9,1-1.3c0.1,0.6,0.2,1.1,0.1,1.7c0,0.7-0.2,1.5-0.7,2.1C281.3,189.9,281.3,191.6,281.5,193.3L281.5,193.3
			L281.5,193.3z"/>
		<path id="Path_13" class="st0" d="M445,111c0.3,0.3,0.6,0.7,0.9,1.1c1.5,1.8,3,3.6,4.5,5.4c0.3,0.5,0.5,1.1,0.6,1.7
			c-1.1,0.6-2.3,1.5-3.3,1.3c-1.5-0.3-2.8-1.5-4.2-2.3c-0.3-0.2-0.9-0.5-0.8-0.6c0.5-2.2,1.2-4.3,1.8-6.4
			C444.4,111.1,444.6,111.1,445,111L445,111z"/>
		<path id="Path_14" class="st0" d="M490.1,157.1c-0.5-0.6-0.9-1.3-1.3-2c-0.8-2.9-2.2-4-5.2-4.4c-0.7-0.2-1.4-0.5-2-0.9
			c0.7-0.3,1.4-0.5,2.1-0.8c1.1-0.5,2.2-1,3.3-1.5c0.5-0.3,1-0.7,1.4-1.1c0.4,0.6,1,1.2,1,1.9C489.8,151.2,489.9,154.2,490.1,157.1
			L490.1,157.1L490.1,157.1z"/>
		<path id="Path_15" class="st0" d="M392.5,167.3c-0.3-0.6-0.8-1.1-0.7-1.4c1.1-2.6,2.3-5.1,3.6-7.5c0.3-0.6,1.9-0.4,3-0.6
			c0,0.9-0.2,1.8-0.5,2.6c-1.1,1.8-2.2,3.5-3.5,5.2C393.8,166.3,393.2,166.9,392.5,167.3L392.5,167.3z"/>
		<path id="Path_16" class="st0" d="M428.1,221.8c-1.3-0.1-2.6-0.3-3.9-0.5c-0.1,0,0-1.7,0.2-1.7c1.4-0.4,2.8-0.7,4.3-0.7
			c0.3,0,1,1.3,0.8,1.7C429.2,221.2,428.4,221.6,428.1,221.8L428.1,221.8z"/>
		<path id="Path_17" class="st0" d="M357.7,161.5c1.7,0.3,3.3,0.4,2.3,2.7c-0.2,0.8-0.3,1.7-0.3,2.6c-0.6-0.7-1.1-1.4-1.7-2.1
			c-0.3-0.3-0.7-0.6-0.9-1c-0.4-0.5-0.7-1.1-1-1.6C356.7,161.9,357.3,161.7,357.7,161.5L357.7,161.5z"/>
		<path id="Path_18" class="st0" d="M308.4,219.9c-0.1,0.2-0.2,0.6-0.4,1c-0.4-0.2-0.9-0.4-1-0.7c-0.8-1.8-1.6-3.6-2.4-5.5
			c-0.1-0.2,0.2-0.6,0.4-0.9c0.3,0.3,0.5,0.5,0.8,0.8c0.4,0.4,0.9,0.7,1.3,1.1c0.3,0.2,0.7,0.5,0.8,0.7
			C308.1,217.5,308.2,218.6,308.4,219.9L308.4,219.9z"/>
		<path id="Path_19" class="st0" d="M214.2,205.6c-1,1.8-2,3.6-3,5.4c-0.2-0.1-0.7-0.4-0.7-0.4c0.9-1.7,1.8-3.5,2.7-5.2
			c0.1-0.2,0.5-0.2,0.8-0.2C214.1,205.4,214.1,205.5,214.2,205.6L214.2,205.6z"/>
		<path id="Path_20" class="st0" d="M207.9,201.7c0,1.2,0,2.4,0,3.6c-0.1,0.5-0.2,1-0.3,1.5c-0.2-0.1-0.4-0.1-0.5-0.2
			c-0.4-0.6-1.1-1.3-1-1.8c0.4-1.2,0.9-2.3,1.6-3.4c0.1-0.2,0.3-0.2,0.5-0.3l0.2,0.6L207.9,201.7L207.9,201.7z"/>
		<path id="Path_21" class="st0" d="M309.7,223.4c0.4,0.5,1.2,1.2,1.1,1.6c-0.3,0.8-0.8,1.6-1.4,2.3c-0.3-0.4-0.7-0.8-0.7-1.3
			c0-0.8,0.1-1.6,0.3-2.5C309.2,223.5,309.4,223.4,309.7,223.4L309.7,223.4z"/>
		<path id="Path_22" class="st0" d="M474.2,142.1c-1,0.6-1.5,1.2-2,1.1c-0.6-0.1-1.2-0.7-1.8-1.1c0.5-0.4,1-1.1,1.6-1.2
			C472.5,140.9,473.1,141.5,474.2,142.1z"/>
		<path id="Path_23" class="st0" d="M399.4,134.8c-0.5-0.1-0.6-0.1-0.8-0.2c0.1-0.2,0.2-0.4,0.4-0.5c1.7-0.7,3.4-1.4,5.1-2.1
			l0.2,0.5C402.6,133.4,400.9,134.1,399.4,134.8L399.4,134.8z"/>
		<path id="Path_24" class="st0" d="M266.8,205.6c-1.3,1.1-2.2,1.9-3.2,2.7c-0.2-0.3-0.4-0.5-0.5-0.8c0-1.7,1.3-1.9,2.5-2.2
			C265.9,205.3,266,205.4,266.8,205.6z"/>
		<path id="Path_25" class="st0" d="M273.8,207.9c0-0.7-0.2-1-0.1-1.2c0.4-0.8,0.9-1.5,1.4-2.3c0.2-0.4,0.5-0.7,0.8-1
			c0.1,0.5,0.6,1.1,0.4,1.3C275.6,205.9,274.7,206.9,273.8,207.9z"/>
		<path id="Path_26" class="st0" d="M273.4,195c-0.5,1.1-1,2.2-1.5,3.3c0.1-1.1,0.2-2.3,0.3-3.4c0.1-0.4,0.3-0.7,0.6-1.1
			C273,194.2,273.1,194.6,273.4,195L273.4,195z"/>
		<path id="Path_27" class="st0" d="M214,198.8c-1,1.3-1.6,2.1-2.2,2.8c-0.2-0.3-0.6-0.7-0.5-0.8c0.5-0.8,1-1.6,1.6-2.4
			C212.9,198.4,213.4,198.6,214,198.8L214,198.8z"/>
		<path id="Path_28" class="st0" d="M250.1,183.2c-0.9,0.9-1.9,1.9-3,2.8c-0.1,0.1-0.2,0-0.4,0c0-0.2,0.1-0.4,0.2-0.6
			c0.7-1,1.4-1.9,2.1-2.8c0.2-0.2,0.5-0.2,0.7-0.2C249.8,182.4,249.9,182.7,250.1,183.2L250.1,183.2z"/>
		<path id="Path_29" class="st0" d="M269.4,200.8c-0.1,0.5-0.3,1.3-0.4,2.1c-0.2-0.8-0.3-1.7-0.4-2.6c0.1-0.8,0.2-1.5,0.4-2.3
			C269.1,198.9,269.2,199.7,269.4,200.8z"/>
		<path id="Path_30" class="st0" d="M442.8,197.9c0.2,0.8,0.4,1.7,0.5,2.5c0,0.2-0.3,0.5-0.5,0.8c-0.4-0.6-0.7-1.2-0.9-1.9
			C441.8,199.1,442.3,198.7,442.8,197.9L442.8,197.9z"/>
		<path id="Path_31" class="st0" d="M209.8,191c-0.4-0.3-0.6-0.5-0.8-0.6c0.8-0.6,1.7-1.2,2.6-1.7c0.1,0,0.4,0.4,0.7,0.6
			C211.5,189.9,210.7,190.4,209.8,191L209.8,191z"/>
		<path id="Path_32" class="st0" d="M185.1,176.3c0.2-0.2,0.3-0.4,0.5-0.4c0.6-0.2,1.3-0.3,1.9-0.4c0.1,0.4,0.1,0.8,0.2,1.2
			c-0.7-0.1-1.3-0.2-2-0.3C185.5,176.4,185.3,176.3,185.1,176.3L185.1,176.3L185.1,176.3z"/>
		<path id="Path_33" class="st0" d="M262.6,211.2c-0.6,0.8-1,1.6-1.5,2.3c-0.2-0.2-0.5-0.5-0.4-0.5c0.4-0.8,0.9-1.5,1.3-2.2
			C262.2,210.9,262.3,211,262.6,211.2L262.6,211.2z"/>
		<path id="Path_34" class="st0" d="M212.2,220.9c-1,0.3-2,0.6-3,0.9c-0.4,0.1-0.8,0.1-1.2,0.1c0.4-0.2,0.8-0.4,1.2-0.6
			c0.7-0.3,1.5-0.6,2.2-0.8c0.3-0.1,0.5-0.1,0.8-0.1C212.1,220.5,212.1,220.7,212.2,220.9L212.2,220.9z"/>
		<path id="Path_35" class="st0" d="M454.2,86.8c-0.6-1-1.1-1.8-1.5-2.6l0.2-0.2c0.6,0.7,1.2,1.5,1.7,2.2
			C454.7,86.2,454.5,86.4,454.2,86.8z"/>
		<path id="Path_36" class="st0" d="M305.9,230.2c0.3,0.5,0.5,1.1,0.6,1.7c0,0.3-0.3,0.5-0.5,0.8c-0.2-0.3-0.3-0.6-0.5-1
			C305.6,231.2,305.7,230.7,305.9,230.2z"/>
		<path id="Path_37" class="st0" d="M287.5,191.8c0.1,0.3,0.2,0.7,0.1,1.1c-0.2,0.4-0.4,0.8-0.7,1.2c0,0-0.3-0.1-0.3-0.2
			c0.1-0.5,0.3-0.9,0.4-1.3C287.2,192.3,287.4,192,287.5,191.8C287.6,191.8,287.6,191.8,287.5,191.8L287.5,191.8z"/>
		<path id="Path_38" class="st0" d="M494.6,147.3c-0.2,0.4-0.4,0.9-0.6,1.4c-0.1-0.2-0.1-0.4-0.1-0.6c0.1-0.5,0.3-1,0.5-1.6
			C494.5,146.7,494.5,146.9,494.6,147.3L494.6,147.3z"/>
		<path id="Path_39" class="st0" d="M473.4,144.7c0.3,0.4,0.5,0.6,0.5,0.8c0,0.1-0.3,0.4-0.5,0.4c-0.1,0-0.4-0.3-0.4-0.4
			C473,145.3,473.2,145.1,473.4,144.7z"/>
		<path id="Path_40" class="st0" d="M396.4,89.6c-0.4,0.3-0.7,0.6-0.8,0.5c-0.2-0.1-0.4-0.4-0.5-0.6c0-0.1,0.4-0.4,0.6-0.4
			C395.9,89.1,396.1,89.3,396.4,89.6L396.4,89.6z"/>
		<path id="Path_41" class="st0" d="M305.7,224.7c0.1,0.4,0.3,0.7,0.3,0.9s-0.4,0.2-0.6,0.4c-0.1-0.2-0.2-0.5-0.2-0.8
			C305.2,225.1,305.4,225,305.7,224.7L305.7,224.7z"/>
		<path id="Path_42" class="st0" d="M278.2,200.9c-0.3,0.3-0.5,0.5-0.7,0.7c-0.1-0.1-0.3-0.3-0.3-0.4c0-0.2,0.2-0.4,0.3-0.5
			C277.7,200.7,277.9,200.8,278.2,200.9L278.2,200.9z"/>
		<path id="Path_43" class="st0" d="M345.7,251.5c-0.3,0.2-0.5,0.5-0.5,0.4c-0.3-0.2-0.6-0.4-0.8-0.6c0.1-0.1,0.3-0.4,0.3-0.4
			C345,251.1,345.3,251.3,345.7,251.5z"/>
		<path id="Path_44" class="st0" d="M400.6,91.2c-0.2-0.3-0.3-0.6-0.4-1c0-0.1,0.2-0.3,0.3-0.5c0.2,0.2,0.3,0.5,0.4,0.7
			C400.9,90.6,400.8,90.8,400.6,91.2L400.6,91.2z"/>
		<path id="Path_45" class="st0" d="M400.2,202.7c-0.2,0.1-0.4,0.3-0.4,0.3c-0.2-0.1-0.3-0.2-0.4-0.4c0,0,0.2-0.3,0.3-0.3
			C399.8,202.4,400,202.5,400.2,202.7z"/>
		<path id="Path_46" class="st0" d="M289.1,211.9c-0.2-0.3-0.5-0.4-0.4-0.6c0-0.2,0.1-0.4,0.3-0.5c0.1-0.1,0.5,0.1,0.5,0.2
			C289.3,211.2,289.2,211.6,289.1,211.9L289.1,211.9z"/>
		<path id="Path_47" class="st0" d="M216,196.9c-0.6,0.3-0.8,0.4-0.9,0.5c-0.1-0.2-0.2-0.4-0.2-0.6c0-0.1,0.2-0.3,0.3-0.2
			C215.5,196.7,215.8,196.8,216,196.9L216,196.9z"/>
		<path id="Path_48" class="st0" d="M306.7,208.4c-0.1,0.1-0.1,0.3-0.2,0.3s-0.2-0.1-0.3-0.2c0.1-0.1,0.1-0.3,0.2-0.3
			C306.4,208.2,306.6,208.3,306.7,208.4z"/>
		<path id="Path_49" class="st0" d="M454.9,81.3c-0.1,0.1-0.1,0.2-0.2,0.3c-0.2-0.1-0.3-0.3-0.4-0.4l0.1-0.2
			C454.6,81.1,454.7,81.2,454.9,81.3L454.9,81.3z"/>
		<path id="Path_50" class="st0" d="M462.7,119.4c-0.1,0.1-0.2,0.2-0.3,0.2s-0.2-0.1-0.3-0.2c0.1-0.1,0.2-0.2,0.3-0.2
			S462.6,119.3,462.7,119.4L462.7,119.4z"/>
		<path id="Path_51" class="st0" d="M453.6,121.3c-0.2,0-0.4,0.1-0.6,0.1c0-0.1,0-0.3,0-0.3c0.1-0.1,0.3-0.1,0.4-0.1
			C453.4,120.9,453.5,121.1,453.6,121.3L453.6,121.3z"/>
		<path id="Path_52" class="st0" d="M348.3,253.8c-0.1,0.1-0.2,0.2-0.3,0.1c-0.1,0-0.1-0.2-0.2-0.3c0.1-0.1,0.2-0.2,0.3-0.1
			C348.2,253.5,348.3,253.7,348.3,253.8z"/>
		<path id="Path_53" class="st0" d="M216.6,188.8c0.1,0.1,0.1,0.2,0.2,0.3c-0.1,0.1-0.2,0.2-0.3,0.2s-0.1-0.2-0.2-0.3
			C216.4,188.9,216.5,188.8,216.6,188.8L216.6,188.8z"/>
		<path id="Path_54" class="st0" d="M261.5,198.9c-0.1,0.1-0.2,0.1-0.3,0.2c0-0.1-0.2-0.3-0.1-0.4c0-0.1,0.2-0.2,0.3-0.2
			C261.4,198.6,261.5,198.7,261.5,198.9z"/>
		<path id="Path_55" class="st0" d="M485.7,138.9c-0.1,0.1-0.2,0.2-0.3,0.3l-0.2-0.1c0-0.1,0.1-0.2,0.1-0.4
			C485.5,138.7,485.6,138.8,485.7,138.9L485.7,138.9z"/>
		<path id="Path_56" class="st0" d="M279.7,206.1c-0.1,0.1-0.2,0.1-0.3,0.2c-0.1-0.1-0.2-0.2-0.1-0.3c0-0.1,0.2-0.1,0.3-0.2
			C279.6,205.9,279.7,206,279.7,206.1L279.7,206.1z"/>
		<path id="Path_57" class="st0" d="M217.2,206.1c0.1,0.1,0.3,0.1,0.3,0.2c0,0.1-0.1,0.2-0.2,0.3c-0.1-0.1-0.3-0.1-0.3-0.2
			C217,206.3,217.2,206.2,217.2,206.1L217.2,206.1z"/>
		<path id="Path_58" class="st0" d="M451.2,80.4c0.1,0.1,0.3,0.2,0.3,0.3c0,0.1,0,0.2,0,0.3c-0.1-0.1-0.3-0.1-0.3-0.2
			C451.1,80.7,451.2,80.5,451.2,80.4L451.2,80.4z"/>
		<path id="Path_59" class="st0" d="M442.2,330.9c-0.1,0-0.2-0.1-0.3-0.1c0.1-0.1,0.2-0.2,0.3-0.2c0,0,0.1,0,0.2,0.1
			C442.3,330.7,442.2,330.8,442.2,330.9z"/>
		<path id="Path_60" class="st0" d="M259.7,215.3l-0.3,0.3c-0.1-0.1-0.2-0.2-0.2-0.3s0.2-0.2,0.3-0.3
			C259.6,215.2,259.7,215.3,259.7,215.3z"/>
		<path id="Path_61" class="st0" d="M457.7,88.6l-0.2,0.3c-0.1-0.1-0.2-0.2-0.3-0.3c0-0.1,0.1-0.2,0.2-0.2
			C457.5,88.3,457.6,88.4,457.7,88.6L457.7,88.6z"/>
		<path id="Path_62" class="st0" d="M423.1,264.9c0.1,0.1,0.2,0.1,0.3,0.2c-0.1,0.1-0.1,0.3-0.2,0.3s-0.2-0.1-0.3-0.2
			C422.9,265.1,423,265,423.1,264.9L423.1,264.9z"/>
		<path id="Path_63" class="st0" d="M611.8,227.3c-0.1,0-0.3-0.1-0.6-0.1c0.1-0.2,0.1-0.6,0.2-0.7c2.2-1.9,3.3-4.4,4.2-7.1
			c0.1-0.3,0.4-0.5,0.7-0.7c0.2,0.2,0.4,0.4,0.5,0.7c0.4,1.5-3.1,7.4-4.6,7.9C612.2,227.3,612,227.3,611.8,227.3L611.8,227.3z"/>
		<path id="Path_64" class="st0" d="M323.7,207.8c-0.4-0.6-0.8-0.9-0.7-1.1c0.2-0.5,0.5-0.9,0.9-1.3c0.2,0.3,0.5,0.6,0.5,0.9
			C324.2,206.8,324,207.3,323.7,207.8L323.7,207.8z"/>
		<path id="Path_65" class="st0" d="M216.6,163.9c-0.2,0.2-0.3,0.4-0.4,0.5c-0.1-0.1-0.3-0.2-0.4-0.4c0-0.1,0.1-0.3,0.2-0.3
			C216.2,163.8,216.4,163.9,216.6,163.9z"/>
		<path id="Path_66" class="st0" d="M607.8,212.9c0.3,0.3,0.4,0.5,0.6,0.7c-0.4,0.3-0.8,0.5-1.3,0.7c-0.1,0-0.4-0.3-0.6-0.4
			C606.9,213.5,607.3,213.2,607.8,212.9L607.8,212.9z"/>
		<path id="Path_67" class="st0" d="M599.6,219.6c-0.3,0.1-0.6,0.2-0.9,0.3c-0.2,0-0.5-0.3-0.7-0.4c0.2-0.2,0.3-0.6,0.5-0.6
			c0.2-0.1,0.5,0.1,0.7,0.2C599.4,219.2,599.5,219.4,599.6,219.6L599.6,219.6z"/>
		<path id="Path_68" class="st0" d="M426.9,372.2c0,0.9,0,1.8-0.2,2.7c-0.2,0.5-0.9,1.2-1.3,1.1c-0.8-0.2-1.5-0.6-2.1-1.2
			c-0.3-0.2,0-1,0-1.5c0.1-0.4,0.1-0.7,0.1-1.1c-0.1-0.6-0.3-1.3-0.4-1.9c0.9-0.2,1.8-0.3,2.7-0.4c0.5,0.1,0.9,0.5,1.1,0.9
			C426.9,371.3,426.9,371.7,426.9,372.2L426.9,372.2z M425,373.4c-0.1,0.2-0.1,0.3-0.2,0.5c0.1,0.1,0.2,0.2,0.4,0.2
			c0.2-0.1,0.3-0.2,0.4-0.3L425,373.4z"/>
		<path id="Path_69" class="st0" d="M422.9,364.7c-0.2-0.1-0.3-0.2-0.3-0.2c0.1-0.2,0.1-0.3,0.2-0.5c0.1,0.1,0.3,0.1,0.3,0.2
			C423,364.3,423,364.5,422.9,364.7L422.9,364.7z"/>
	</g>
</g>
<rect x="159.9" y="561.1" class="st0" width="532" height="16.8"/>
<rect x="210.4" y="594.2" class="st0" width="427.1" height="13.5"/>
<rect x="281.8" y="626.3" class="st0" width="285.4" height="9"/>
<rect x="352.7" y="656.1" class="st0" width="143.6" height="4.5"/>
</svg>
