<?xml version="1.0" encoding="UTF-8"?>
<svg id="Layer_1" data-name="Layer 1" xmlns="http://www.w3.org/2000/svg" viewBox="0 0 864.67 660.74">
  <defs>
    <style>
      .cls-1 {
        fill: #3f497f;
      }
    </style>
  </defs>
  <g id="Layer_1-2" data-name="Layer 1">
    <g id="Group_1" data-name="Group 1">
      <path id="Path_1" data-name="Path 1" class="cls-1" d="M697.53,546.5H154.43c-.2-10.1-.7-20.1-3.6-29.9-2.3-7.7-4.1-15.6-6.1-23.4-2.4-9.6-2.3-19.4-2.8-29.2-.2-3.6-.7-6.8-3.8-9.1-1-.9-1.7-2.1-2.2-3.3-1.2-3.1-1.8-6.5-3.2-9.4-2-4-4.2-7.9-6.8-11.6-3.2-4.8-7-9.2-10-14-5.5-8.8-10.7-17.8-15.9-26.8-4.4-7.7-8.8-15.5-12.9-23.4-4.7-9-9-18.2-13.5-27.3-5.3-10.7-10.8-21.3-15.7-32.2-6.2-13.8-12.1-27.7-17.7-41.7-6.7-16.6-13-33.4-19.6-50.1C18.13,208.8-.87,135.8,.03,121.8c.3-5.1,1.9-10.1,4.7-14.5,3.6-5.7,9-13.7,11.8-18,1.3-1.9,3.2-3.3,5.5-3.8,5.5-1.3,16.3-3.9,22.7-4.7,9.5-1.1,19.1-1.2,28.6-.3,2.6,.2,3.9-.8,5.3-3,2.4-3.9,5.2-7.6,10-8.9,1.7-.5,3.6-.2,5.3-.6,2.2-.6,4.3-1.4,6.3-2.3,4.9-1.9,9.8-3.6,14.6-5.7,2.4-1.1,4.5-2.9,6.8-4.3,1-.7,2-1.2,3.2-1.5,3.5-.9,7.3-.2,10.3,1.8,5.3,3.7,10.1,8.1,15.2,12.1,1.3,1,2.4,2.4,3.8,3,7.2,2.9,14.1,6.5,20.6,10.9,4.9,3.4,10.1,6.4,15.2,9.5,1,.6,2,1,3.1,1.2,3.2,.5,6.5,.8,9.8,1.1,3.5,.3,6.9,.7,10.4,.8,1-.1,2-.4,2.9-.9-.6-3.1,1.3-2.2,2.9-1.9,.3,.1,.6,0,.8-.1,3.7-2.1,8.3-2.3,12.2-.5,1,.2,2.1,0,2.9-.6,2.6-1.5,4.9-3.6,7.6-4.8,3-1.2,6.1-2.2,9.3-2.8,.9-.2,2.1,.5,3.1,1,1.7,.8,3.3,1.7,4.9,2.7,1.1,.5,2.1,1.2,3,2.1,1.5,2.1,3.8,1.6,5.7,2.1,.7,.2,1.7-1.2,2.7-1.8,.5-.2,1-.4,1.6-.4,.1,.4,.2,.9,.3,1.3v1.3c.4-.3,1-.5,1.2-.8,.3-.5,.5-1.1,.4-1.7-.6-3.2,.5-6.8-2.3-9.5-.1-.1,.5-1.4,.8-1.4,3.6,.1,7.1,.4,10.7,.6,.9,0,2.2,.1,2.7-.4,1.1-1.2,2.2-.7,3.5-.7,.9,0,1.7-.3,2.3-.9,1.6-2.4,2.2-5.8,6.2-6,.3,0,.7-.9,1-1.4-.5-.2-.9-.3-1.3-.6-.7-.4-1.3-.9-1.9-1.4,.7-.5,1.3-1.1,2.1-1.6,1.1-.8,2.5-1.2,3.4-2.2,1.1-1.2,1.9-2.4,3.9-2,.7,0,1.3-.3,1.7-.9,.8-2.9,2.2-5,5.4-5.3,.1,0,.2-.2,.3-.3,3.1-4.7,8.7-7.3,10.9-12.9,.1-.2,.5-.4,.7-.5,1.9-.9,2.1-2.4,1.1-4.1-.8-1.3-.6-2.3,.6-3.1,2-1.4,4.1-2.6,6.2-3.7,2.6-1.1,5.4-1.8,8-2.7,.4-.2,.8-.5,1.2-.8-.5-.2-.9-.6-1.3-.6-2.9,0-5.8,.1-8.7,.1-.3,0-.6-.1-.9-.2,.3-.1,.5-.2,.8-.3,4.7-.4,9.4-1,14.1-1s8-2.9,12.2-3.8c.1,0,.2-.2,.4-.2,3.9-1.4,7.7-3.2,11.7-4.1,2.3-.5,4.4-.7,6.1-2.6,1.5-1.7,3.3-3.3,5.2-4.6,3.5-2.4,6.5-5.5,10-8,1.2-.7,2.4-1.3,3.7-1.7-1,1-2,2.1-3.1,3-3.1,2.6-6.2,5.1-9.3,7.6-.3,.3-.5,.7-.6,1.1,.4,.1,.8,0,1.2-.1,2-1.1,4.2-1.8,5.7-3.3,3.6-3.4,8-4.2,12.5-4.6,3.4-.3,6.9,.6,10.4,.8,4.4,.2,8.9,.1,13.4,.2,.4,0,.8,.1,1.2,.2,2.1,.8,3.6-.4,5-1.7,.4-.4,.9-.8,1.4-1.1,.3-.1,.6-.2,1-.2-.1,.3-.3,.5-.4,.7-1.3,1.8-1.1,2.4,1,3,.8,.1,1.6,.2,2.4,.2,6.6,0,13.3,.1,19.9,.1,1.6,0,3.5,.2,4.8-.5,2.4-1.3,4.6-2.5,7.5-2.4,5.3,.2,10.4-2.8,15.8,.5,3.5,2.1,7.5,3.7,9.5,7.4,1.8,3.3,5.2,4.4,8.1,6,2.6,1.5,5.7,2,8.7,2.5,2.7,.5,5,2.3,6.1,4.8,.5,1.1,.4,2.3,2.2,2.2,.2,0,.8,1,.8,1.5-.1,2.8,.4,3.5,3.1,4.2,.7,.2,1.4,.5,2.1,.8,3.6,1.3,5.6,4.2,7.9,7,1.6,1.9,3.3,3.6,5.1,5.2,.5,.5,1.4,.4,2.1,.6-.4,.4-.9,.9-1.3,1.3-.1,.2-.2,.4-.1,.6,.6,1.6,.6,3.7,3,4,1.6,.2,3.2,.6,4.7,.8,.4,0,.9,0,1.3-.1-.3-.3-.7-.7-1-1-1.1-1.3-3.4-.8-4.1-2.8-.2-.4-.3-.8-.5-1.1,.4,0,.8,.1,1.2,.2,1.4,.8,2.8,1.7,4.2,2.6,1.4,1.1,2.6,2.6,4.1,3.4,1.9,1,4.1,1.6,6.3,1.7,3,0,4.5,2.2,6.6,3.5,.5,.3,1,.6,1.5,.9-.4-.4-.7-.8-.9-1.3s-.3-1-.3-1.5c.5,.2,1.1,.2,1.4,.5,.6,.7,.8,1.7,1.5,2.2,2,1.5,3.4,3.6,4,6,.7,2.5,2.5,3.6,5.1,3.4,1.6-.1,3.1,.1,4.1,1.6,.9,1.3,1.5,.5,2-.6,1.4-2.7,3.5-4.6,6.6-4.6,3.3-.1,6.2,1.8,7.6,4.7,1.4,2.9,2.4,6,3.5,9,.1,.3,.2,.7,.1,1-.3,1.6-.8,3.2-1,4.9,0,.7,.1,1.4,.3,2.1,.7-.1,1.4-.3,2.1-.4,2.5-.4,4.9-.8,7.4-1,.3,0,.7,.6,1,.9-.3,.2-.7,.4-1.1,.5-.3,.1-.8-.3-1.1-.2-.5,.2-.9,.5-1.3,.8,.3,.3,.7,.6,1.2,.8,.4,.1,.9-.1,1.3-.1,3.3,.2,7.2-.5,9.2,3.1,1.6,2.9,4.2,4.1,7.1,4.8,1,.3,2.1,.2,3.1-.1,2-1.1,3.7-2.7,5.8-3.7,4.3-2.1,8.8-3.8,13.2-5.8,2-.9,3.7-2.2,5.6-3.2,5.1-2.4,10.3-4.8,15.4-7.1,2.3-1,4.7-2.2,7.1-2.5,2.1-.1,3.9-1.3,5-3.1,.9-1.3,2.4-2.8,3.8-3,6.5-1,13-1.9,19.6-2.3,4.9-.3,9.8,.2,12.9,5,.4,.5,.8,.9,1.4,1.1,4.9,2.6,9.8,5.3,14.8,7.8,1.4,.7,2.9,1,4.4,1,8.6-.4,17.2-1.3,25.7-1.4,14.1-.2,28.2,.4,42.2,3,13.4,2.5,26.8,4.7,39.4,10.1,8.6,3.7,14.3,9.5,15.8,19,.4,2.4,.7,4.8,1.2,7.2,2.5,11.7,2.8,23.2-1.3,34.8-3.7,10.6-6.1,21.6-9.9,32.1-7.4,20-15.1,39.8-23.2,59.5-5.9,14.3-12.3,28.4-19,42.3-6.5,13.5-13.6,26.8-20.5,40.1-5.4,10.3-10.7,20.7-16.5,30.8-7.2,12.6-14.8,25.1-22.4,37.5-3.8,6.2-7.9,12.1-12.1,18-2.8,4-5.4,8.1-8.1,12.1-2,2.9-4.1,5.7-6.1,8.5-2.3,3.2-4.5,6.7-7.1,9.7-2.1,2.1-3.4,4.9-3.8,7.9-.2,3.4-1.4,6.6-3.5,9.3-1.5,1.8-2.3,4-2.2,6.4-.1,2.1-.3,4.2-.6,6.2-.3,2.7-.8,5.5-1.1,8.2-.4,3.9-.1,8.1-1.3,11.7-2.1,5.9-2.7,12-3.2,18-1.7,12.2-2.5,23.6-3.4,35.1h0ZM334.13,146.5c.1,.8,.2,1.5,.3,2.3,.2,0,.4-.1,.5-.1-.3-.6-.6-1.3-.8-1.9v-.3c0-.6,0-1.2-.1-1.8-.4-1.1-.9-2.2-1.4-3.3-.3,.2-1,.4-.9,.6,.1,1.3,.4,2.7,.7,4,.1,.3,1.1,.3,1.7,.5h0Zm27.9-18.1c-.5-1.2-1-2.4-1.5-3.6-.1-.2-.7-.2-1-.2,.2,1.3,.5,2.6,.8,3.9,.6,0,1.3,0,1.9-.1,0,.7-.1,1.5-.2,2.2-.9,2.7-1.7,5.3,.7,7.7,.2,.3,.3,.7,.2,1.1-.5,3.5,1.3,5.7,4,7.5,.4,.2,.5,.8,.8,1.2-.4,.3-.9,.6-1.4,.7-.4,.1-.9-.2-1.3-.3-4.6-1.1-5.9,.5-6,4.7,0,1.5,.1,3,.1,4.5-.1,.4-.2,.7-.3,1-.3-.3-.8-.5-.9-.8-.6-2.1-1.2-4.2-1.5-6.4-.4-2.3-.4-4.8-3.5-5.4-1.1-.3-2.1-.7-3-1.3-1.8-1-2.8-.7-3.1,1.3-.4,3.7-.8,7.5-.9,11.3-.1,1.7-.4,2.6-2.2,2.5-1.4-.1-1.6,.1-.8,1.4,1.1,1.7,2.1,3.4,3.1,5.1,0,.1,.5,0,.6-.1,.6-1.4,.8-.6,1,.2,.2,1.2,.4,2.4,.5,3.5,.3,4.9-1.2,9.4-2.8,14-.6,1.6-1.1,3.2-1.5,4.9-.1,.4,.3,1,.5,1.5,.3-.4,.6-.8,.8-1.2,.7-2,1.4-4.1,2.1-6.2,.2-.3,.4-.6,.6-.9,.2,.3,.3,.6,.5,.9,.4,1.9-.6,4,.9,5.8,.1,.1,0,.3,0,.4,1.2,7.2,2.2,14.5,3.7,21.6,.4,2,2.6,3.5,4,5.3,.2,.3,.7,.5,.7,.7,.6,3.5,1.2,6.9,1.7,10.4,.2,.9,.4,1.9,.6,2.8-.7-.7-1.3-1.4-1.9-2.2-.8-1.2-1.2-2.5-2.6-.4-.3,.5-1.8,.3-2.8,.3-.3,0-.6-.8-.9-1.2-.4-.4-.8-.8-1.2-1.2-.3,.5-.5,1.1-.7,1.7-.1,.4,.1,.9-.1,1.3-.3,.7-.6,1.4-1,2.1-.3,.6-1.1,1.3-.9,1.6,.4,.6,1,1.1,1.8,1.2,1.6,.2,3.3-.2,4.9,.2,1,.2,2.6,1.6,2.5,2.2-.3,1.2-1.3,2.9-2.3,3.2-3.6,1.1-7.1,2-10.2,4.4-1.9,1.4-3.6,1.9-1.4,4.3,.2,.2,0,.8,0,1.2-.4-.1-.9-.2-1.1-.4-.5-.6-1-1.3-1.5-2-1.1-1.4-1.9-3.4-3.4-4.1-1.9-.9-4.3-.7-6.6-.9-1.1-.1-2.2,0-3.3,.1-.4,.1-.6,.7-.9,1.1,.4,.1,.8,.2,1.3,.4,1,.4,2,.8,3,1.3,.2,.1,.5,.8,.3,.9-.3,.3-.7,.5-1.1,.5-.5,0-1-.2-1.5-.4-2.3-.8-3.8-.1-4.5,2.1-.1,.4-.3,.8-.4,1.2-.2-.4-.4-.9-.5-1.4-.2-1.3,0-2.6-.4-3.8-.6-1.5-2.1-1.4-3.4-.9-.1,0-.2,0-.2-.1-1.7-2-4-2.8-6.4-3.6-.9-.4-1.7-1.1-2-2.1-.5-2.2-.7-4.4-.8-6.6,.1-.7,.5-1.2,1.1-1.6,2.4-1,2.2-2.7,1.7-4.8-.8-2.9-1.1-5.9-1.6-8.9-.1-.7-.4-1.7-.7-1.8-2.1-.4-1.7-1.5-.9-2.7,1-1.4,.5-2.3-.9-3.1-1.8-1-4.4-.5-6.5,1.1-.7,.3-1.4,.6-2.1,.7,.1-.7,.3-1.4,.6-2,1-1.5,2-2.9,3.1-4.3,.9-1.1,.4-1.8-.5-2.6-1.4-1.2-1,.2-1.3,.7-.2,.4-1,.5-1.6,.7-.5,.1-.9,.1-1.4,.1,.2-.4,.4-.7,.7-1.1,1-1,1-2.6,.1-3.6h0c-.1-.2-.7-.1-1,.1-.5,.3-1,.6-1.4,.9-.3-.4-.5-.8-.8-1.1-.3-.4-.5-.8-.8-1.2-.2,.5-.8,1.2-.6,1.5,1.4,2.4-1.3,3.6-1.6,5.4,0,.1-.6,.1-.9,.1-.1-1.3-.2-2.6-.2-3.9,.1-.5,.2-.9,.4-1.3-.5,.1-.9,.3-1.3,.6-2.2,2.4-4.4,4.8-6.6,7.2-2.1,2.3-4,4.8-6.1,7.1-.4,.4-.9,.7-1.5,.9,.2-.5,.4-1,.7-1.4,1.7-2.2,3.6-4.2,5.1-6.5,2.7-4.1,5.1-8.3,7.6-12.6,.2-.7,.4-1.4,.4-2.1-.6,.3-1.1,.6-1.7,.9-.3,.1-.6,.1-.9,.1h0c.5-.6,1-1.3,1.4-2,.1-.4-.3-1.1-.5-1.7-.5,.2-1.2,.3-1.4,.7-.9,1.5-1.7,3.1-2.5,4.7-.4,.6-.9,1.2-1.3,1.8-.5-.7-1.1-1.4-1.6-2l-.1,.1c1.4-.7,4.4-6,4.3-7.4-.1-.3-.2-.6-.3-.8-.4-1.9-.8-3.7-1.1-5.6-.1-1.2-.1-2.4,0-3.6-1,.7-1.9,1.4-2.9,2l-.9-.7c-.1,.3-.2,.7-.2,1,.4-.1,.8-.3,1.2-.4-.9,1.5-1.8,3-2.8,4.4,0,.1-.2,0-.3,0v-.7c0-2-1-2.6-2.8-1.6-1.5,.8-2.7,.2-2.9-1.6-.1-.8,.1-1.8-.2-2.4-.6-.8-1.4-1.4-2.2-2-.5,.6-1,1.2-1.4,1.9-1,2.7-1.6,5.6-2.9,8.1-1.3,2.3-.7,5.8-4.2,6.6-.1,0-.2,.2-.2,.4-.8,1.3-1.4,2.7-1.8,4.1-.3,1.6-.7,3.9,.1,5,1,1.3,.3,2.4-.1,2.6-1.2,.7-1,1.5-1,2.5,0,.6-.2,1.2-.6,1.7-2.7,4.4-5.3,9-8.3,13.2-1.4,1.9-.9,5.4-4.4,5.8-.6,.1-1.2,.2-1.7,.4,.1-.7,.2-1.4,.4-2,.2-.4,.5-.8,.8-1.1,2.1-2.4,4-4.9,5.9-7.5,3.6-5.8,5.6-12.4,6.8-19.1,0-.7-.2-1.3-.6-1.9-.2-.3-.6-.4-1-.6,.4-.3,.8-.8,1.2-.8,1.9-.3,2.5-1.4,2.3-3.2,0-.7,.1-1.3,.3-2,.4-1.4,1.7-2,1.1-4.2-.8-2.9,.3-6.3,.4-9.4,.2-2.8-1.2-3.7-3.9-2.9-1.5,.4-3,.5-4.5,1-.7,.4-1.2,1-1.5,1.7-.2,.7-.2,1.5-.2,2.2-.1,.3-.2,.5-.3,.8-.2-.2-.4-.5-.5-.8-.8-2.3-2.3-2.9-4.3-1.8-1.6,.9-3.2,1.9-4.8,2.8-1.1,.6-2.3,1-3.5,1.4-.3,.1-.8-.1-1.2-.2,.3-.3,.5-.8,.9-.9,1-.2,2-.6,2.9-1,2.2-1.2,4.3-2.6,6.4-4.1,.5-.4,.5-1.4,.7-2.2-.6-.1-1.4-.4-1.9-.2-1.8,.8-3.6,1.8-5.2,3-1.1,.7-1.6,.9-2.1-.4-.1-.3-.6-.5-.9-.8-.1,.4-.3,.7-.5,1.1-.3,.6-.8,1.1-1.3,1.4-1.4,.7-2.9,1.1-4.3,1.9-3.2,1.8-3.7,5.3-4.7,8.4-1.3,4-1.1,4,3.1,4.3,.5,0,1,.1,1.6,.1,4.5,.7,9,0,13.1-2,.3-.1,.7-.1,1-.1-.2,.3-.3,.8-.5,.8-4.5,1.5-8.8,3.8-13.9,2.5-1.4-.4-2.8-.5-4.2-.3-1.1,.2-2,.9-2.6,1.9-.8,1.9-1.5,3.8-2.1,5.8-.1,.2-.7,.5-.9,.4-1.3-1-1.3-.9-2.1,.5-.4,.4-.8,.8-1.4,1.1,0-.5,.2-1.1,.4-1.6,1.2-2,2.5-3.9,3.6-5.9,.3-.5,.2-1.9-.1-2-2.1-.7-.9-1.5-.2-2.3,.1-.2,.2-.4,.3-.6,.9-2.8,1.9-5.5,2.8-8.3,.1-.5-.2-1.1-.6-1.4-1.8-.7-3.6-1.2-5.4-1.7-.7-.2-1.4-.4-2.1-.6-2.3-1.1-4.6-2.4-7-3.4-3.1-1.3-6.6-1.6-8.8-4.6-.5-.4-1-.5-1.6-.4-2.8,.3-4.3,2.1-4,4.9,.1,1.3,.5,2.5,.6,3.8,.2,.9,.2,1.8,0,2.6-.4,.9-1.5,2.3-2.1,2.3-1-.1-2-1.2-2.7-2.1-.4-.6-.1-1.7-.5-2.3-.9-1-1.8-2-2.9-2.8-.7,.9-1.3,1.8-1.9,2.7h0c-.5-.4-1-1-1.6-1.1-3.6-.9-7.2-1.8-10.8-2.5-.7-.1-1.4,.2-1.8,.7-3.1,5.8-8.1,9.1-14.3,10.6-.5,.2-1,.5-1.5,.8,.3,.5,.7,1.1,1.1,1.5,2.9,2.9,6.1,5.6,8.6,8.8,5.3,6.8,10.4,13.9,15.5,20.9,.7,1.2,2.2,1.9,3.6,1.6,4.5-.8,9.1,0,13,2.3,2.2,1.3,3.4,.9,4.5-1.3,.4-.9,1.9-2,1.7-2.4-1.1-2.1,1-3.6,.7-5.5,0-.3,.9-1,1.4-1,.6,.1,1.1,.6,1.3,1.1,.1,1,.1,1.9-.2,2.9-.6,2.3-.3,2.7,2,2.6,.5,.1,1.1,.2,1.5,.4-.2,.5-.5,.9-.8,1.3-1.1,.9-3.2,1.6-3.2,2.4,0,2.6-1.4,2-2.9,2-.5,.1-1,.2-1.4,.4l.5,1.4c.6,1.6,1.6,3.2,1.6,4.9-.1,1.4,.6,2.7,1.9,3.4,6,3.9,11.3,8.7,14.2,15.4,1.3,3,2.7,4.5,6.4,4.1,4.3-.5,8.7,.1,13-.3,6.3-.6,8.7,.9,10.1,6.9,.8,3.6,4.9,5.1,8.3,3.5,2.2-1,4.5-1.7,6.9-2.2,2.3-.5,4.7-.4,7-.8,2.6-.6,5.1-1.3,7.6-2.1,4.3-1.4,8.9-.9,12.8,1.2,3.1,1.6,6.1,3.9,6.6,7.2,.9,5.4,.7,11,.9,16.5,.1,1.3-.1,2.7,0,4,.1,.7,.5,1.4,1.1,1.8,2,.9,4.2,1.5,6.4,1.8,7.1,.7,12.4,3.4,14.8,10.6,1.1,3.3,1.2,3.3,4.7,2.9,1.3-.2,2.5-.2,3.8,0,5.4,.6,10.8,.2,16-1.2,1.9-.5,3.5-1.7,4.5-3.4,1.9-2.9,4-5.5,6-8.3,1.9-2.6,3.8-5.1,5.5-7.8,2.3-3.5,4.4-7.1,6.8-10.5,.9-1.3,2.4-2.3,1.4-4.3-.1-.2,.3-.6,.4-.9,.2,.2,.5,.3,.6,.6,.1,.4,.2,.9,.1,1.3-.1,3.7-.2,7.3-.2,11s-.2,7.3,.6,10.8c1.6,7.8,6.4,14.3,11.4,20.1,7,8.2,15.1,15.4,22.9,22.8,3.2,3,7.1,5.3,10.7,7.9,.2,.2,.5,.4,.7,.5,2.3,1.3,4.8,2.1,7.4,2.4,1.5,.1,3.7,.6,4.3,1.7,1.2,1.9,2,.6,2.8,.2,.9-.5,2-1.4,.7-2.7-1.3-1.2-.9-2.3,.2-3.2,1.8-1.4,3.7-2.5,5.4-3.9,2.6-2.1,5.1-4.3,7.6-6.6,.2-.6,.1-1.2-.2-1.6-1.8-1.1-1.8-1.6,0-2.9,3.2-2.3,6.5-4.6,9.7-6.9,.7-.6,1.4-1.3,2.1-2,1.5-1.5,3.1-2.9,4.6-4.4l3.9-3.9c.6-.8,1.4-1.5,2.2-2.1,2.3-1.2,2.7-2.9,1.8-5.1-1.2-2.6-.3-5.8,2.1-7.4,2.7-2.1,5.8-3.7,8.6-5.5,.9-.6,1.6-1.2,2.3-2,.3-.5,.5-1.1,.7-1.8-.6-.1-1.2-.2-1.8-.3-.4-.1-.8-.2-1.2-.2,.1-.4,.3-.8,.5-1.2,.6-1,1.2-1.9,1.7-3,.2-.3-.1-.8-.2-1.2-.4,.1-.8,.2-1.2,.4-.9,.5-1.7,1-2.5,1.5l2.4-2.4c.3-.3,.8-.5,1-.9,.2-.3,.3-1.1,.2-1.1-1.9-1.1-1.4-3-1.7-4.6-.4-2.3-1.4-3.3-3.7-2.5-.9,.4-1.6,1-2.1,1.9-.7,1.4-2.1,2.2-3.6,2.1-1.2,.1-2.3,.6-3.1,1.4-1.1,.9-2,1.5-3.3,.5-.6-.2-1.2-.1-1.7,.3-.6,.6-1.2,1.3-1.6,2.1-.6,.9-.9,1.6-1.8,.2-.4-.6-1.1-.9-1.8-.9-.5,.1-1,1-1.3,1.6-.4,.9-.5,1.9-.9,2.8-.3,.5-.6,1-1,1.5-.2-.5-.4-1.1-.4-1.6,.3-2.9-.8-3.1-3.2-2.4-1.3,.4-2.1,.7-2.1-1.1,0-.4-1.2-.9-1.9-1-2.9-.4-5.7-2.1-8.8-.6h-.2c-3.8-.3-7.5-.6-11.3-.7-8.5-.3-17-1.1-25.1-3.8-5.6-1.9-11.3-3.6-16.9-5.6-2.3-.8-4.5-2-5.5-4.6-.4-1.6-1.1-3.1-2-4.4-2.8-3.6-4.5-8.2-9.3-10-.3-.1-.5-.7-.6-1.1,0-.1,.3-.4,.4-.4,1.7,.3,3.8,.1,5.1,.9,2.7,1.7,4.9,4.1,7.5,6.1,2.6,2.1,5.3,4,8.2,5.7,4.1,2.1,8.3,4,12.6,5.6,2.5,1,5.4,1.2,7.9,2.2,4.2,1.8,8.7,2.5,13.2,3.1,2.1,.3,4.2,.2,5.6-1.8,.4-.5,1-.9,1.7-1,3,0,5.7-2.6,8.8-1.1,.3,.1,.9-.2,1.2-.4,3.1-2.3,6.2-4.6,9.1-7.1,2.7-2.4,5.3-5,7.6-7.8,1.6-1.9,3-4,4.1-6.3,1.8-3.8,3-7.9,5-11.6,3-5.5,6.4-10.8,9.6-16.1,.4-.7,.6-1.5,.6-2.3-.4-2.3,.6-3.7,2.5-4.7,3-1.5,3.2-2.5,1.6-5.4-.8-1.4-.7-2.2,1-3.1,3.6-1.7,5.8-6.2,5.6-10.3-.2-3.3,.5-6.6,.7-9.9,.2-.9,.1-1.8-.2-2.7-.7-1.6-.1-4.7,1.3-5.6,1.2-.7,2.3-1.5,3.3-2.4,.3-.5,.4-1.1,.2-1.6-.6-1.2-4.2-3.4-5.6-3.7-.2-.1-.3-.2-.3-.4,1-1.4,1.9-2.8,2.9-4.2,.3-.5,.7-1,1-1.5l-.1,.1c.7,.1,1.4,.2,2.1,.1,.5-.1,1.3-.4,1.4-.7,1.3-6.1,3.1-12.2,2.1-18.5-.5-2.8-.7-5.6-1.1-8.4-.1-.6-.3-1.1-.5-1.6,0,.6,0,1.2-.1,1.8-.1,.8-.4,1.6-.6,2.4-.2,.5-.3,1-.4,1.5-.3,5.4-.5,10.8-.8,16.2,0,.6-.7,1.1-1,1.6-.1-.7-.5-1.6-.2-2,1.4-1.9,1.1-3.9,1.1-6s-2.1-5.8-4.1-6.6c-.6-.1-1.2-.1-1.8,0-.3,.1-.6,.2-.9,.3,0-.4,0-.7,.1-1,.5-1.7,.9-3.4,1.4-5.2,.2-.6,.2-1.2,0-1.7v1.7c-.5,.6-.9,1.2-1.3,1.9-.3,.5-.5,1.2-.9,1.5-3.4,2.4-7.3,3.8-11.4,4.2-4.1,.3-8.2-.3-12.3-.5-.5,0-1-.5-1.5-.8,.5-.2,1.1-.3,1.6-.4,1,0,2.1,.2,3.1,.1,2.3-.1,4.5-.4,6.8-.8,1.6-.4,3.7-1.3,2.8-3.4-.4-.9-2.6-1.1-4-1.5-3.2-.9-6.5,.7-9.7-.5-1.5-.6-3.2-.8-3.7-2.8-.4-.5-1-.8-1.7-.7-1,.5-1.9,1-2.7,1.7,.2,.3,.3,.7,.6,.8,.5,.3,1.1,.5,1.7,.7-.6,.3-1.2,.5-1.9,.6-1.2,.2-2.5,.3-3.7,.2-1-.4-2-.9-2.9-1.5,.8-1.1,1.5-2.8,2.5-3.1,4.7-1.1,9.5-1.9,14.2-2.6,2.9-.4,2.6-.2,2.5-2.7-.2-2.8-1.3-4.4-3.9-5.3-.3-.1-.5-.5-.7-.8,.4-.2,.8-.2,1.2-.2,1.5,.3,2.9,.7,4.3,1.2,4.9,2.1,7.5,.5,7.3-4.7v-1.1c-.2-3.5-1.7-4.5-5.1-3.7-1.2,.3-2.5,.4-3.7,.2-2.3-.4-4.6-1-6.9-1.6-.6-.3-1.2-.8-1.6-1.3-.4-.4-.5-1.2-.9-1.5-1.8-.9-2.1-1.9-1.5-4,1.1-3.9,2.8-5,6.4-3.3,.7,.4,1.5,.6,2.4,.6,1.2,0,2.9,0,3.3-.6,.6-1,.2-2.4-1-3.5-1.7-1.9-3.3-3.8-4.7-5.9-2.1-2.6-4.2-5.2-6.4-7.7-.7-.8-1.5-.9-1.6,.5,0,.2-.6,.4-.9,.4-1-.3-1.9-.6-2.7-1.1-.8-.5-1.5-1.1-2.1-1.8-.5-.6-.7-1.5-1.2-2.1-.7-.8-1.5-1.5-2.3-2.2,.5,.8,1.1,1.7,1.6,2.5,.1,.2,.2,.5,.3,.7-.3-.1-.6-.1-.8-.3-.8-.9-2-1.8-2.3-2.9-1.4-4.6-2.5-9.3-3.8-14-.4-1.5-.8-3.6-1.9-4.4-2.5-1.6-5.1-2.9-8-3.8-1.8-.4-3.7-.5-5.6-.1-1.1,.1-2.1,1-3.1,1.4-.9,.4-1.8,.6-2.8,.8-.8,.1-1.6-.1-2.4,.2-4.8,1.5-9.5,3.2-14.7,3.4-2.4,.1-5.6,1.1-6.3,4.5-.1,.4-.8,1-1.1,.9-1.9-.6-2.7,.5-3.4,2-.2,.4-1.1,.3-1.7,.5-.1-2.2-.8-.7-1.5-.3s-1.6,.6-2.4,1c-.8,.3-1.5,.7-2.1,1.3-1.6,2.2-2,5.4-5.1,6.4-.2,.1-.2,.4-.3,.6-.8,1.2-1.7,2.4-2.4,3.6-.5,.6-.8,1.4-.8,2.2,.1,1.6-.7,2.2-2,2.7-.6,.2-1.4,1.6-1.2,1.9,.9,1.7-.1,1.3-1.1,1.2-.7,0-1.8,0-2.1,.4-1,1.7-1.9,3.5-2.7,5.4-.2,.5,0,1.5,.3,1.7,.4,.2,1.3,0,1.8-.2,.4-.1,.6-.7,1-.9,.9-.5,1.8-.8,2.7-1.2,0,.9-.2,1.9-.4,2.8-.9,2.8-1.9,5.5-2.8,8.2-.1,.4,.1,.9,.2,1.4,.5-.1,.9-.3,1.3-.6,2-1.6,4-3.3,6.1-4.9,3.4-2.8,7.5-3.8,11.8-4.2,1.2-.1,2.5-.4,3.6-.9,4-1.9,8.7,.2,11,2.9,.2,.2,0,.8-.1,1.3-2-.3-2.1,1.4-2.8,2.5-.5,.8-1.1,2-2.5,1.1-.2-.1-.8,.4-1.3,.5-.6,.2-1.3,.4-2,.5-1,.2-2.4-2-3,.6,0,0-.7-.1-1-.1-3.6-.1-7.1-.3-10.7-.3-.5,.1-.9,.3-1.3,.6,.6,2.5-1.7,2.7-3,3.5-2.1,1.3-4.8,1.9-5.7,4.8-.1,.4-.7,.6-1,1-1,1.2-2.8,2.5-2.8,3.6,.1,1.7-.8,2.2-1.7,3-.4,.3-1,.9-.9,1.2,.4,2.6-.5,5.4,1.7,7.6-.3,.7-.6,2.2-.5,3.4h0Zm259.3,84.5h.2v2c-.1,.4-.4,.7-.7,1-.2-.2-.7-.5-.7-.8-.3-2.1-1.2-1-2.1-.4-1,.8-2,2.2-2.9,2.2-2.7,0-4.2,1.6-6,3.1-2.7,2.2-4.9,5-8.7,5.6-.9,.1-1.8,1.1-2.6,1.7-.2,.1-.4,.6-.4,.7,.2,.2,.6,.6,.9,.5,3-.2,6.1-.5,9.1-.7,.3,0,.6-.1,.8-.1-.2,.2-.4,.4-.6,.6-.6,.5-1.4,1-1.8,1.6-1.1,2-3,2.3-4.9,2.6-.7,.1-1.5,0-2.2,.1-1.8,.5-2.8,2.4-2.3,4.3v.1c.8,2,1.3,4.2,1.9,6.3,.4,1.3,.6,3.2,1.5,3.8,3.4,1.9,7,3.2,10.5,4.8,2,1,4,2.1,5.9,3.3,1,.7,.7,1.5-.6,1.8-2,.5-2.1,1.6-1,3.1,.2,.2,.4,.5,.5,.7,1.3,2.8,2,3,4.3,1,2.7-2.3,5.4-4.7,8.1-7,.4-.2,.9-.4,1.3-.5-.3,.3-.6,.7-.8,1-.3,.6-.5,1.2-.7,1.9,.6-.3,1.2-.7,1.8-1,.2-.1,.2-.4,.4-.6,3.3-4.8,7.7-8.7,12.7-11.6,.8-.7,1.4-1.6,1.5-2.7,.4-3,1.1-5.9,3.3-8.2,3.5-3.7,7-7.6,10.7-11.1,4.7-4.4,9.7-8.6,14.6-12.9,1.3-1.2,2.9-2.1-.1-3.7-1.4-.7-2.3-1.9-4.1-1.1-.4,.1-.8,.1-1.1-.1-2.2-.9-4.5-1.7-6.7-2.8-1.7-1-3.9-.6-4.9,1.1-1.6,2-3.4,3.9-5.2,5.8-.2,.2-.6,.1-.9,.2,.1-.3,.1-.5,.3-.8,1.7-2.9,3.5-5.8,5.2-8.7,.1-.5-.1-1.1-.5-1.5-2.1-1.3-4.3-2.4-6.6-3.5-2-.9-3.9-3.1-6.5-1.3-.1,.1-.6-.1-.8-.3-2.1-1.1-3.3-.2-4.3,1.7-.2,.4-1,.9-1.4,.8-2.1-1-4.6-.3-5.9,1.7-.8,.7-1.6,1.4-2.4,2.1-1.3,1.3-3.3,2.6-3.8,4.2-.8,3.1-.9,6.6-1.3,10h0Zm41.7-107.1c-1.3,.5-2.5,1.1-3.7,1.9-1.7,1.5-3,3.5-4.6,5.1-1.9,1.9-3.2,3.8-1.4,6.4,.2,.3,.1,1,.1,1.4-.5-.1-.9-.2-1.4-.3-1.1-.4-2.2-1.2-3.3-1.2-1.3,0-4.1,4.7-3.4,5.9,1.4,2.6-.6,6.1,2.2,8.2,.1,.1,.2,.4,.2,.6,.1,3.8,2.6,5.6,6.2,4.5,.8-.2,1.6-.3,2.4-.4,2.4,.1,4.5-1.5,5.2-3.8,.3-.3,.8-.4,1.3-.3,3.1,3.2,6.4,2,9.8,.8,13.2-4.8,26.4-9.7,39.6-14.4,4.7-1.7,9.6-2.8,14.4-4.4,1-.3,2.5-1.8,2.4-2.6-.2-1.4-1.6-1.8-3.3-1.7-2.6,.2-5.2-.2-7.6-1-4.2-1.6-8.2-3.7-12.3-5.7-2.8-1.3-5.3-3.2-8.8-2.9-4.1,.4-8.3,.4-12.4,.7-2,.1-4.2-.8-5.7,1.5-.2,.3-1,.3-1.5,.3-2,.1-4.3-.4-5.9,.4-2.7,1.7-5.8,2-8.5,1h0Zm-473.1,23.5c0,.5,.1,1,.1,1.6,0,.2,.2,.4,.4,.4s.4-.2,.5-.4c.5-1.7,.9-3.5,1.1-5.3,.1-1.3,.1-2.7-.2-4-.8-4.3,.2-8.8,2.7-12.4,.9-1.6,1.6-3.3,2-5,.3-1-.2-1.4-1.5-1-1.2,.4-3.5,.9-3.8,.5-1.5-2.9-4.9-2.6-7-4.4-.4-.4-.9-.7-1.5-.9-5.6-1-11.1-2.1-16.7-2.9-2.9-.4-5.9-.1-8.9-.4s-5.9-.9-8.8-1.4-5.8-1.1-8.8-1.4c-.6-.1-1.5,.7-1.9,1.3-.2,.4,.4,1.3,.7,1.8,.5,.8,1.1,1.6,1.7,2.3,1.2,1.5,2.3,3.5,3.9,4.2,4.6,2.1,9,5.1,14.5,4.2,.9-.1,1.8,.1,2.6,.5,2.8,1.5,5.7,3,8.3,4.7,6.2,4,12.2,8.3,18.5,12.2,1.8,1.1,2.4,2.2,2,4.2,.2,.6,.1,1.1,.1,1.6h0Zm131.9,68.3h-.1c.1,1,.2,2.1,.3,3.1,0,.3-.1,.7-.2,1-.3-.1-.6-.3-.9-.4-.3-.2-.7-.4-1-.7-.2,.4-.4,.9-.5,1.4-.5,2.1-.8,4.1-1,6.2,.1,1.3,.3,2.6,.6,3.9,.2,1.1,.7,2.4,.4,3.4-1,3.4,1.5,8,5,8.8,.3,.1,.9,.2,1,.5,1.2,2.5,2.8,2.3,4.9,1.1,.7-.4,1.9,.2,2.9,.4-.3,.7-.5,1.4-.8,2-.4,.7-.7,1.3-1.2,1.9-1,1.4-.6,2.3,1,2.9,.8,.4,1.5,.9,2.1,1.4,1.1,.7,2.3,1.3,3.5,1.9,.1-1.2-.1-2.4-.4-3.6-.6-1.5-.8-2.7,.4-3.8,.7-.4,1.4-.7,2.2-.9,1.2-.6,1.1-1.2,.6-2.3-.6-1.4-2.1-2.2-3.6-1.9-1.5,.1-1.4-1.1-.8-2,.3-.5,1-.6,1.5-1s.9-.8,1.3-1.3c-.6-.3-1.3-1-1.9-.9-2.1,.2-2.4-.9-2.2-2.6-.1-.7-.3-1.3-.6-1.9-.3,.6-.7,1.2-.9,1.8-1.1,2.6-2.2,5.1-3.4,7.6-.2,.5-1.3,.5-2,.7,.2-.5,.4-1,.7-1.5,.2-.4,.6-.8,.6-1.2-.2-2.5,3.2-3.9,2.1-6.7,0-.1,.3-.5,.5-.6,2.3-1,2.3-3,1.9-4.9-.4-2.6-1-5.1-1.7-7.6-.3-.8-.7-1.4-1.3-2-.3-.3-.7-.5-1.1-.7-.2,.4-.3,.8-.3,1.2,.5,3.7,1.1,7.4,1.6,11.1,0,.6-.1,1.2-.3,1.7-.5-.4-1-.9-1.5-1.4-.2-.2-.1-.7-.1-1.1-.7-3.3-1.2-6.7-2.1-10-.7-2.4-1.5-4.7-2.5-7-.4-.6-1-1-1.7-1.2-.2-.1-.9,.8-1,1.3-.1,1.2-.1,2.6,0,3.9h0Zm-111-76.6c.1-.3,.3-.8,.5-1.3l1,1c.4,.4,.7,1.2,1.1,1.3,1.7,.1,1.9,1.2,2.2,2.6,.3,.8,.8,1.6,1.5,2.1,.1,.1,1.1-.2,1.1-.5,1.3-4.8-.4-9.5-.8-14.3-.3-1.2-.7-2.4-1.2-3.5-.1-.5-.2-.9-.2-1.4-.5,.2-1,.4-1.5,.7-.3,.3-.5,.8-.9,1-1.6,1.3-2.4,4.4-5.5,2.3-.4-.3-1.4,0-1.9,.3-2.3,1.1-4.6,2.4-6.7,3.9-2.5,1.8-4.3,4.3-4.1,7.7,0,.6,.8,1.1,1.3,1.7,1.6-2.1,1.2,.2,1.5,.7,.3,.7,.3,1.5,.7,2.1,.8,2,1.7,3.9,2.8,5.7,.7,1.1,3.5,.5,3.2-.4-.9-2.7,1.3-1.5,2-1.6,3.2-.6,3.8-1.4,2.7-4.4-.2-.5-.2-1.6,.1-1.7,1.4-1,1.7-2.3,1.1-4h0Zm312.4,165.3c-.1,.1-.3,.1-.4,.2-2.2,2.5-6.4,3.5-5.6,8.4,.4,2.5-.5,4.4,2.5,6.4,2.3,1.6,2.9,.6,4.1-.4,3-2.9,6-5.8,8.8-8.9,.7-.7,1.2-2.4,.8-3.1-1.1-1.6-2.4-3.1-3.8-4.4-.1-.1-.8,.2-1.2,.4-1.8,.7-3,2.8-5.2,1.4h0ZM217.53,155.1c.3-1.9-.5-2.7-1.9-1.8-1.3,.7-2.5,1.6-3.6,2.7-3.1,3-6,6.1-9.6,8.4-.6,.5-1.1,1.2-1.5,1.9,.8,.5,1.6,.9,2.5,1.2,1.1,.1,2.3-.4,3.5-.4,3.3,0,6.6,.1,10,.1,.4-.1,.8-.3,1-.7,.6-1.2,1.2-2.4,1.6-3.7,.4-1.3,0-2-1.6-1.7-.2,.1-.8-.4-.8-.6,.1-1.9,.3-3.6,.4-5.4h0Zm379.9,66c1.3,.3,2.6,1.2,3.7,.9,2.5-.6,4.9-1.5,7.2-2.8,1-.7,1.5-1.9,1.5-3.1-.6-1.8,.4-2.2,1.5-2.9,1.1-.5,2.2-1.2,3.1-2,.3-.7,.3-1.4,0-2.1-.5-.5-1.1-.8-1.8-.6-2.5,1.2-4.8,2.7-7.3,3.8-2.7,1.2-5.7,2-8.4,3.2-1,.5-2.4,1.7-2.3,2.6-.1,1.5,1.1,2.8,2.7,2.9,0,.1,.1,.1,.1,.1h0Zm-168.7,141.7v-9.3c-.1-.6-.3-1.1-.6-1.7-.3,.6-.8,1.3-.8,1.9,.3,3.4,.5,6.8-.6,10.1-.1,.3-.2,.5-.3,.8-.2-.2-.3-.4-.5-.6-.7-.7-1.6-2-2.1-1.8-2.4,.6-1.3-1-1.4-1.9,0-2.5,0-5-.1-7.5,0-.5-.7-.9-1.1-1.4-.3,.5-.5,1-.6,1.6,0,5.4,0,10.7,.1,16.1,0,1.7,1.1,3.7,.4,4.9-1.3,2.2,.7,1.9,1.3,2.3,3.1,1.7,5.6,.3,5.8-3.2,.1-3.2,.3-6.5,.5-10.3h0ZM579.33,71.4c.1,.6,.2,1.6,.4,2.6,.4,1.6,1.1,2.1,2.7,1.1,1.5-.9,3-1.6,4.7-2.2,.4-.2,1.2,.3,1.7,.7,.9,.8,1.6,1.8,2.4,2.7,.3,.2,.7,.4,1.1,.5,.1-.3,.3-.8,.2-1-.9-2.6-1.5-5.3-2.9-7.6-1.2-2.2-3.9-3.2-6.2-2.3-2.4,.7-4.1,2.9-4.1,5.5h0Zm-96.9,222.3c-.8-1.5-1.2-3.1-1.9-3.2-3.8-.5-9.6,4.7-9.6,8.5,0,.8,.4,1.5,1.1,1.9,2.1,1,4.1,.8,5.7-1.1,1.7-2,3.1-4,4.7-6.1Zm152.9-170.4c.1,1.5,.1,2.7,.3,3.9,.1,.3,.2,.7,.4,1,1.5-.6,1.3,.9,1.9,1.4,1.7,1.4,2.2,4.5,5.6,3.7,1.1-.2,1.5-.2,1.1-1.3-.3-.6-.6-1.2-.9-1.8-1.8-4-3.6-7.9-5.5-11.9-.3-.5-1-.8-1.6-1.2-.3,.4-.5,.8-.7,1.3-.3,1.6-.5,3.4-.6,4.9h0Zm-311.7,45.7c-.2,.5-.4,1-.7,1.4,0,.1-.6-.1-.9-.3-.4-.3-.7-.5-1.1-.8-.2,.5-.4,1.1-.5,1.6-.1,2-.1,4.1-.1,6.2,0,.3,.1,.7,.2,.7,2.1,.7,1.6,2.3,1.3,3.8,0,.4,0,.8,.1,1.2,.3-.2,.9-.4,1-.7,.3-1.5,2.2-2.4,1.7-4.3-.1-.9-.2-1.8-.1-2.7,0-.5,.1-1,.2-1.5,2.2,.6,1.2-1.3,1.3-2,.2-1.3,.3-2.7,.2-4,0-.1-.6-.4-.8-.3-.4,.1-.9,.7-1.1,.6-1.8-1.2-1.4-.2-.7,1.1h0Zm273,39.7c1.3-.1,2.6-.4,3.9-.7,.8-.3,1.3-1.1,2-1.7-.7-.8-1.3-2-2.1-2.2-2.7-.6-5.6-.7-8.4-1.1-1.4-.2-1.8,.3-1.3,1.6,.6,2,3.6,4.1,5.9,4.1h0Zm-43.8,60.8c1.3-.8,2.9-1.3,3.1-2.1,.5-1.6-.7-2.7-2.3-3.2-.8-.2-1.4-.7-1.9-1.3-1-2-2.1-1.7-3.5-.4-.7,.4-1.4,.7-2.2,.9-.4,0-.8,0-1.1-.1,.2,.5,.2,1.1,.5,1.5,.8,.8,1.7,1.4,2.6,2,1.5,.8,3,1.7,4.8,2.7h0ZM353.83,79.3c2.1-1.8,4.6-3.4,6.4-5.7,2.2-3,4.2-6.2,6-9.5,.9-1.6,1.7-3.3,2.4-5,.1-.3-.3-.9-.4-1.4-.3,.1-.7,.2-.8,.4-1.2,2.2-2.3,4.4-3.5,6.6-.3,.7-.7,1.3-1.2,1.9-3,4-6.1,8-9.2,12-.1,.2-.2,.4-.3,.6,.1,0,.2,0,.6,.1h0Zm241.6,176.7c.5,.8,1.1,2.9,2.5,3.6,.9,.5,3-.5,4.3-1.3,.8-.4,1.1-1.6,1.5-2.5,0-.1-.7-.7-1.1-.9-1.3-.6-2.6-1-3.9-1.7-2.6-1.3-3.2-1-3.3,2.8h0ZM475.73,3.6c0,.2,.1,.4,.1,.5,.4-.2,.8-.5,1.2-.7-.4-.6-.7-1.6-1.1-1.7-2.2-.4-4.5-.6-6.8-.4-2.4,.4-4.7,1.5-7,2.3-.5,.2-1,.4-1.5,.6,.5,.3,1.1,.6,1.7,.8,.7,.1,1.5,0,2.2-.1,3.8-.5,7.5-.9,11.2-1.3h0Zm-56.2,512.7c-.4,.1-.8,.3-1.2,.5,.3,.2,.7,.4,1,.7s.7,.6,1,.9c-.4,.2-.9,.4-1.3,.6-.4,.2-.7,.4-1.1,.6,.3,.2,.7,.5,1.1,.7s.8,.5,1.3,.7c-.4,.2-.8,.5-1.2,.7s-.8,.5-1.1,.8c.3,.2,.7,.5,1,.7,.5,.3,.9,.5,1.4,.8-.5,.2-1,.4-1.5,.7-.3,.2-.6,.4-.8,.6,.2,.2,.3,.6,.5,.6,1.5,.3,3,.6,4.6,.8,.3,0,.7-.1,1-.3-.3-.2-.7-.3-1-.5-.5-.3-1-.6-1.5-.9,.5-.2,.9-.4,1.4-.6,.4-.2,.7-.3,1.1-.5-.3-.2-.7-.4-1-.6-.4-.3-.9-.6-1.3-.8,.4-.3,.7-.5,1.1-.8,.3-.2,.7-.5,1-.7-.3-.1-.7-.2-1-.4-.5-.2-.9-.5-1.3-.8,.3-.3,.7-.6,1-.9,.2-.2,.4-.3,.6-.5-1.4-.9-2.5-1.5-3.8-2.1h0Zm121.4-236.4c-.2-.1-.5-.4-.6-.3-1.3,.6-2.9,.9-3.7,1.9-1,1.2-1.5,2.1-3.1,1-.4-.2-1.1,0-1.7,.1,0,.5,.1,1,.2,1.4,.8,1.3,1.7,2.6,2.6,3.8,.1,.2,.9,.1,.9,.1,.2-.7,.2-1.5,.3-2.2,.5,.1,1.4,.5,1.5,.3,1.3-1.9,2.4-3.9,3.6-6.1h0Zm-118.1,160.7c-1.4,.5-2.7,.8-3.9,1.3-.4,.2-.7,.4-1,.7,.4,.3,.8,.5,1.2,.7,.5,.2,1.1,.4,1.6,.6-.5,.2-1.1,.4-1.6,.6-.4,.2-.8,.3-1.1,.5,.3,.4,.7,.7,1,.9,.4,.2,.9,0,1.3,.1,.3,.2,.5,.5,.5,.8,0,.2-.2,.5-.5,.6-.7,.2-1.4,.4-2.1,.5,.8,.2,1.5,.4,2.3,.7,.1,0,.3,.2,.3,.2-.1,2.7,1.8,.6,2.7,1,.1,0,.3-.2,.5-.3-.2-.2-.4-.3-.6-.5-.5-.3-1-.7-1.5-1,.5-.3,1-.5,1.5-.8,.4-.2,.8-.5,1.2-.7-.4-.2-.8-.3-1.1-.5-.5-.3-1-.5-1.5-.8,.5-.2,1-.5,1.5-.7,.4-.2,.8-.5,1.3-.7-.4-.3-.8-.5-1.2-.7-.3-.1-.7,.1-.9-.1-.4-.3-.6-.7-.8-1.1,0-.1,.5-.5,.9-.7,.4-.1,.8-.3,1.3-.3-.5,.1-1-.1-1.3-.3h0Zm161-205.4c.2-.1,.8-.3,1-.7,.1-.5,0-1-.3-1.4-1.3-.9-2.6-1.8-4-2.5-.8-.4-1.6-.7-2.5-.9-.5-.1-1.1-.2-1.6-.2,0,.6,0,1.1,.1,1.7,1,2.4,4,4.1,7.3,4Zm-273.1-50.4c-.2,.1-.4,.1-.6,.2,.3,.4,.6,.8,1,1.2,.2-.4,.4-.8,.5-1.3,.4-1.8,.9-3.6,1.1-5.5,.4-2.4,.6-4.9,.9-7.3,0-.3-.1-.6-.3-.8-.2,.3-.5,.5-.6,.8-.2,1.3,0,2.7-1.7,3.3-.2,.1-.4,.8-.4,1.2,.1,2.8,.1,5.5,.1,8.2h0Zm322.1-65.5c-.2-.9-.5-1.7-.8-2.5-.2-.4-.6-.7-1.1-.8-.3,0-.7,.5-.9,.9-1.1,2.5-.8,5.4,.8,7.6,.2,.3,.7,.4,1.1,.7,.2-.3,.4-.7,.5-1.1,.1-1.5,.2-2.8,.4-4.8h0Zm-328.1,24.9h-.1c-.2,1.7-.3,3.4-.5,5.1,0,.3,.1,.5,.2,.8,.2-.2,.3-.5,.4-.7,1.2-4.9,1.5-9.9,.8-14.9-.2-.5-.5-.9-.8-1.3-.2,.4-.3,.9-.4,1.4,.1,3.2,.2,6.4,.4,9.6Zm-85.1-28.4h.2v1.3c.3,1,.7,2,1,2.9,.3-1,.6-2.1,.7-3.2,0-2.9-.1-5.7-.2-8.6,0-.2-.1-.4-.1-.5-.2,.2-.3,.5-.4,.7-.4,2.5-.8,5-1.2,7.4h0Zm202.3,273c1-.5,2.1-1,3.1-1.5,.3-.1,.6-.2,.8-.4-.3-.1-.5-.2-.8-.3-.5-.3-1-.7-1.5-1.1,.5-.3,1-.5,1.5-.8,.3-.1,.5-.1,.8-.2-.3-.2-.6-.6-.8-.5-1.1,.3-2.3,.7-3.4,1-.5,.1-.9,.3-1.4,.4,.9,.3,1.7,.7,2.4,1.3-.3,.3-.7,.6-1.1,.9-.5,.2-.9,.4-1.4,.5,.6,.3,1.1,.4,1.8,.7h0ZM586.03,83.6c-.6-.5-1.3-1.3-1.6-1.2-.8,.4-1.6,1-2.3,1.7,.7,.8,1.5,1.6,2.2,2.4,.5-.9,1-1.8,1.7-2.9h0Zm1.2,129.3c1.9,.2,2.6-.7,2.4-2.2-.1-.7-.8-1.3-1.3-2-.6,1.1-1.3,2.2-1.9,3.3,0,.2,.5,.6,.8,.9h0Zm-346.6-42.1c.8-.3,1.8-.6,2.8-1.1,.3-.1,.5-.6,.8-.9-.4-.1-.8-.4-1.1-.4-1.5,.2-3.1,.5-4.6,.9-.6,.3-1.2,.6-1.7,1h1.8c.6,0,1.1,.4,2,.5h0Zm254.1-78.1c.1,.5,.2,.9,.3,1.3,.3-.3,.8-.6,.9-.9,.4-1.8,.8-3.6,1.1-5.4,.1-.3-.3-.7-.5-1.1-.2,.3-.4,.6-.5,.9-.5,1.8-.9,3.5-1.3,5.2h0Zm-188.1,109c1.1,2.1,2.3,4.5,3.5,6.9,.1,.1,.2,.2,.3,.3,0-.2,.2-.4,.1-.5-.9-2.5-1.8-5-2.8-7.5-.1-.3-.5-.4-.8-.6-.1,.3-.1,.6-.3,1.4h0Zm-5.3-63.1c-.6-2.2-1.2-4.5-1.9-6.8-.1-.3-.4-.5-.6-.8v1.1c.5,2.2,1,4.5,1.5,6.7,.1,.4,.3,.9,.4,1.3,.2-.5,.4-.9,.6-1.5h0Zm235.1,138.1l1.1-.5c.7-.5,1.3-1.1,1.8-1.8,.1-.2-1.1-1.5-1.2-1.4-.8,.5-1.6,1.1-2.2,1.9-.2,.4,.3,1.2,.5,1.8h0ZM360.93,66.6c.4-.3,.6-.4,.7-.6,1.4-2.4,2.9-4.9,4.3-7.3,.1-.1-.1-.4-.1-.5-.1,.1-.3,.1-.3,.2-1.5,2.4-3.1,4.7-4.5,7.1-.3,.2-.1,.6-.1,1.1h0Zm249.2,134.2c-.7-.9-1-1.5-1.4-2l-2,3c.4,.2,.9,.7,1.1,.6,.8-.5,1.6-1,2.3-1.6h0Zm-255.5-56l-3.8-3.1c-.2,.3-.6,.9-.6,1,1.2,.9,2.5,1.7,3.8,2.5,.1,.1,.3-.2,.6-.4Zm-89.5,38.1c.7-.7,1.3-1.6,1.8-2.4,.1-.8,.2-1.5,0-2.3-.4,.1-1.1,.1-1.2,.3-.4,1.3-.7,2.6-1,3.9,0,0,.2,.1,.4,.5h0Zm304.5,11.9c0,.7-.2,1-.1,1.1,.3,.5,.7,1,1.1,1.4,.2-.5,.3-1,.3-1.5,0-.8-.1-1.6-.2-2.4-.1-.4-.5-.8-.8-1.2-.2,.4-.3,.8-.4,1.3,0,.4,0,.9,.1,1.3h0Zm-78.8-92.7c-.6-3.1-1.1-5.8-1.7-8.6,0-.2-.3-.4-.4-.6-.1,.3-.2,.5-.2,.8,.5,2.8,1.1,5.5,1.6,8.3,.1,.3,.3,.6,.5,.9,.2-.4,.2-.8,.2-.8h0ZM405.53,27.6c-.6-1-.9-1.6-1.3-2.2l-2.4,2.8c.2,.2,.5,.5,.7,.5,1.1-.4,2.1-.8,3-1.1Zm-62,207c-.7-.2-1.3-.6-1.9-1-.3-.2-.2-.8-.3-1.3-.4,.5-.8,1.1-1.1,1.7-.1,.6,.1,1.2,.5,1.6,.6,.3,1.2,.4,1.9,.2,.3,0,.5-.6,.9-1.2h0Zm19.4-160.2c.2-.1,.4-.2,.6-.3,1.2-1.5,2.4-3,3.6-4.6,.1-.1,.1-.3,.1-.4-.2,0-.5,0-.6,.1-1.2,1.4-2.4,2.8-3.6,4.2-.2,.1-.1,.5-.1,1h0Zm-101.3,112.9c.4,.6,.7,1,.9,1.3,.5-.9,.9-1.8,1.2-2.8,.1-.3-.3-.8-.5-1.3-.5,.9-1.1,1.8-1.6,2.8h0Zm160.1,196.5c1.3-.6,2.4-1.1,3.5-1.6,.3-.1,.5-.2,.8-.2-.3-.2-.5-.5-.8-.5-1.2,.3-2.4,.6-3.6,1-.5,.1-.9,.3-1.3,.5,.4,.3,.8,.5,1.4,.8h0Zm-156.1-217.2c-.2,.3-.4,.7-.6,1.1,1,.9,2,1.7,3.1,2.4,.2,.1,.4,0,.6-.1,.1-.2,.1-.4,0-.6-1-.9-2-1.8-3.1-2.8h0Zm62.2-22.9c.5,.6,.9,1.1,1.3,1.7,.3-.5,.9-1.1,.9-1.6-.1-.6-.7-1.1-1.1-1.6-.4,.4-.7,.8-1.1,1.5Zm91.8,383.3c-.5,.2-1.1,.4-1.6,.6,0,0,.1,.5,.2,.5,1.6,.2,3.3,.5,4.9,.6,.1,0,.2-.2,.3-.4-1.2-.4-2.5-.9-3.8-1.3h0Zm186-323c-.8,.5-1.5,1-2.2,1.5,.5,.3,1,.9,1.3,.8,.7-.4,1.3-.8,1.9-1.4-.3-.2-.6-.5-1-.9h0Zm-106.8-74.2v1.1c.2,.8,.5,1.5,.9,2.3,.4,.7,.8,1.3,1.3,2-.1-.7-.3-1.4-.5-2.1-.3-.8-.6-1.5-.9-2.3-.2-.4-.5-.7-.8-1h0Zm24.1,72.6c.1,0,.1-.1,.2-.1,1-.9,2.1-1.9,3.1-2.8-.1-.2-.2-.3-.3-.5-1.1,.8-2.2,1.7-3.3,2.6-.2,.1-.1,.5-.1,.8h.4Zm-223.8-18.3c-1-1.2-1.2-1.5-1.4-1.7-.6,.9-1.2,1.8-1.7,2.7-.1,.1,.3,.6,.3,.5,1-.5,1.9-1,2.8-1.5Zm125.1,195.5h1.3c.2,0,.3-.2,.5-.3-.1-.1-.2-.3-.3-.3-1.5-.5-2.9-1-4.4-1.5-.2-.1-.5,.1-.8,.2,0,.2,0,.5,.1,.5,1.1,.5,2.3,.9,3.6,1.4h0Zm-3.9-33.5c-.9-1-2-2.2-3-3.3-.1-.1-.5,.1-.8,.2,.1,.3,.2,.5,.3,.7,.8,1,1.5,1.9,2.3,2.9,.2,.2,.4,.3,.6,.4,.1-.1,.2-.3,.6-.9h0Zm-106.3-116.4c-.4,.6-.7,.8-.7,1,.2,.9,.5,1.8,.8,2.7,0,.1,.6,0,.9,0-.3-1.1-.6-2.2-1-3.7Zm-122.2-55.5c-.6-.7-1.1-1.2-1.6-1.8-.3,.3-1,.9-.9,1,.4,.6,.9,1.2,1.4,1.7,.1,0,.6-.4,1.1-.9h0Zm123.3,28.2c.3,.5,.6,.9,.8,1.4,.3-.6,.5-1.2,.6-1.8,0-.5-.2-1.1-.4-1.5-.3,.6-.6,1.2-1,1.9h0Zm3.5,24.1c-.4,.7-.7,1.1-.6,1.2,.3,.6,.7,1.2,1.1,1.7,.2-.2,.6-.6,.6-.7-.3-.7-.7-1.5-1.1-2.2h0Zm-29.7-44.3l-.8-.9-.6-1c-.4,.6-.7,1.2-1.1,1.8-.1,.1,.4,.7,.5,.7,.8-.2,1.4-.4,2-.6h0Zm279.6,82.1c.3-.4,.5-.6,.7-.8-.8-.6-1.6-1.2-2.4-1.8-.1,0-.3,.2-.5,.3l2.2,2.3h0Zm-65-112.2c-.1-.5-.2-.8-.3-1.2-.2,.3-.4,.7-.5,1-.2,.9-.3,1.9-.4,2.8h.3c.3-.9,.6-1.8,.9-2.6h0Zm83.3,65.4c-.3,.7-.6,1.1-.5,1.2,.3,.6,.7,1.2,1.2,1.7,.2-.3,.7-.7,.6-.9-.4-.7-.8-1.4-1.3-2h0Zm-290.1-86.1c-.2-.5-.5-1.3-.8-2.1h-.4c.1,.8,.2,1.6,.2,2.3v.2c.2,.4,.4,.8,.6,1.2,.2-.4,.3-.8,.4-1.6h0Zm203.4,31c-.2-.6-.3-.9-.5-1.3-.2,.4-.4,.9-.6,1.3-.2,.3-.3,.7-.3,1.1,0,.5,0,.9,.1,1.4,.4-.9,.9-1.8,1.3-2.5h0Zm-152.6,60.2c-.9-.8-1.2-1.1-1.5-1.4-.3,.4-.6,.8-.9,1.3-.1,.2,.5,.8,.8,.7,.6-.1,1.2-.3,1.6-.6Zm-132.8-50.8l1.3,.1c.2-.5,.3-1,.3-1.5,0-.3-.6-.6-.9-.6-.4,0-1.1,.3-1.2,.6-.1,.4,.3,.9,.5,1.4h0Zm-12.6-64.2c.5-.6,.9-1.2,1.2-1.8,.1-.1-.3-.5-.4-.7-.4,.5-.8,1-1.2,1.5-.2,.1,.1,.4,.4,1h0Zm221.9,243.5v-2.8c-.1,.8-.3,1.5-.4,2.3s-.1,1.6-.2,2.5c.3-.8,.5-1.6,.6-2h0Zm-99.4-240.7c-.8,.1-1.5,.2-2.1,.3,.9,.2,1.9,.5,2.8,.6,.3,0,.7-.3,1-.5-.6-.2-1.2-.3-1.7-.4h0Zm18,100.9c-.3,.7-.6,1.1-.5,1.2,.4,.5,.8,1,1.2,1.4,.2-.3,.6-.6,.6-.8-.4-.7-.8-1.3-1.3-1.8h0Zm-4.3-4.4c-.3,.6-.8,1-.7,1.2,.1,.4,.5,.7,.8,1,.2-.3,.6-.7,.6-1,0-.3-.3-.6-.7-1.2h0Zm196.2-98.7c.5-.9,.9-1.7,1.3-2.5,0-.1-.2-.3-.3-.4-.6,.8-1.2,1.6-1.7,2.4,0,0,.3,.2,.7,.5h0Zm-33.2,47.6c-.3-.5-.5-.8-.7-1.1-.2,.3-.5,.7-.5,1,.1,.5,.3,1,.5,1.4,.2-.4,.5-.8,.7-1.3h0Zm-79.9,225.3c.7-.2,1.2-.4,1.7-.5-.5-.3-1-.5-1.5-.6-.5,.1-.9,.2-1.3,.4,.4,.3,.8,.5,1.1,.7h0Zm0,10.1c.7-.1,1.2-.2,1.6-.2-.6-.3-1.3-.6-1.9-.8-.3-.1-.8,.2-1.1,.4,.6,.2,1.1,.5,1.4,.6h0Zm-82.2-173.5c.4-.5,.8-.9,.8-1.2s-.5-.6-.8-.8c-.2,.2-.7,.5-.7,.7,.1,.4,.4,.7,.7,1.3h0Zm79.8,313.1c.6-.3,1.1-.5,1.6-.7-.4-.1-.8-.2-1.2-.3-.4,.1-.8,.2-1.1,.4,.2,.2,.4,.4,.7,.6h0Zm128.6-272.7c-.3,.4-.6,.8-.8,1.2-.1,.2,.2,.4,.4,.7,.3-.2,.7-.5,.9-.8,0-.2-.3-.5-.5-1.1h0Zm-57.5-96.5c.3-.5,.6-1,.9-1.6,.1-.1-.2-.4-.3-.6-.4,.4-.7,.7-1,1.2-.1,.2,.1,.5,.4,1Zm-65.8,228.3c.6-.1,1-.2,1.5-.2-.5-.2-1-.4-1.5-.4-.5,.1-.9,.2-1.3,.4,.4,0,.9,.1,1.3,.2h0Zm209.6-261.9c.3-1.3,.5-1.9,.6-2.5,0-.2-.1-.4-.2-.6-.3,.6-.6,1.1-.9,1.7,0,.2,.2,.5,.5,1.4h0Zm-215.3,299.4c.1,.4,.1,.7,.2,1,.2-.6,.5-1.2,.6-1.8,.1-.3-.2-.6-.3-.9-.1,.6-.3,1.1-.5,1.7h0Zm2.7-31.1c.4-.1,.8-.3,1.1-.4-.4-.2-.9-.4-1.3-.5-.3,0-.7,.3-1,.4,.4,.2,.8,.4,1.2,.5h0Zm-130.8-209.7c.2-.8,.4-1.3,.5-1.9,0-.1-.3-.2-.5-.4-.2,.5-.3,1.1-.5,1.6,0,.2,.2,.4,.5,.7h0Zm10.4-40.9c.2-.5,.5-.8,.4-1,0-.2-.3-.4-.4-.7-.2,.2-.4,.4-.4,.6s.1,.6,.4,1.1h0Zm72-84.6l-.3-.2c-.3,.6-.6,1.1-.9,1.7,0,.1,.3,.4,.4,.6,.3-.7,.5-1.3,.8-2.1h0ZM484.33,8.7c-.5-.5-.8-.7-1.1-1-.2,.2-.5,.4-.5,.5,.2,.3,.4,.6,.7,.8,.1,0,.4-.2,.9-.3Zm-59.6,337.5c-.3,.1-.6,.2-1,.3,.4,.2,.9,.7,1.3,.7,.5,0,.9-.5,1.4-.8-.5,0-1-.1-1.7-.2h0Zm87.5-49.4l.7,1.1c.1-.2,.2-.5,.2-.8-.1-.5-.3-1-.5-1.5-.1,.3-.2,.6-.4,1.2h0Zm3.3-4.4c-.7-.7-.9-.9-1.1-1.1-.2,.3-.5,.7-.6,1.1,0,.1,.3,.6,.4,.6,.5-.3,.9-.4,1.3-.6h0Zm-94,101.3c.5-.2,.8-.3,1.2-.5-.4-.2-.9-.4-1.4-.5-.3,0-.7,.3-1.1,.4,.4,.3,.9,.5,1.3,.6h0Zm-102.6-220.9c.3,.6,.5,1.1,.8,1.7,.1-.2,.1-.4,.1-.5-.1-.6-.3-1.2-.4-1.9-.2,.2-.3,.4-.5,.7Zm-99.7-1.4c.1-.3,.2-.6,.2-1,0-.2-.4-.6-.5-.5-.3,.1-.5,.3-.8,.5,.2,.2,.4,.3,1.1,1h0Zm204.7,221.1c.8-.2,1.3-.3,1.8-.4-.5-.2-1-.3-1.6-.3-.5,.1-.9,.2-1.3,.5,.5,.1,.9,.2,1.1,.2h0Zm-108.8-224.8c-.2-.3-.5-.5-.8-.6-.1,0-.5,.4-.5,.6,.1,.3,.3,.5,.6,.7,.1-.1,.3-.4,.7-.7h0Zm25,46.7c-.3-.3-.5-.7-.6-.7-.3,.1-.6,.3-.7,.5-.1,.1,.2,.6,.4,.6,.2-.1,.6-.2,.9-.4h0ZM429.53,18c-.2-.3-.3-.5-.4-.8-.2,.1-.6,.3-.6,.4,.1,.3,.2,.5,.4,.7,.2-.1,.4-.2,.6-.3h0Zm154,199.5c.3-.3,.5-.6,.7-.9-.2-.3-.5-.5-.8-.7,0,0-.4,.3-.4,.4,.1,.4,.3,.8,.5,1.2h0Zm-163.1,222.2c-.5-.1-1-.1-1.5-.1-.2,0-.4,.3-.6,.5,.3,.1,.6,.2,1,.2,.2,0,.4-.2,1.1-.6h0Zm-73.8-211.4c.1-.7,.2-1,.2-1.2s-.3-.4-.5-.6c-.1,.2-.2,.5-.2,.8-.1,.2,.2,.4,.5,1h0Zm280-36.5c-.3-.2-.5-.4-.5-.4-.3,.3-.7,.5-1,.8,.1,.1,.3,.4,.4,.4,.3-.2,.6-.4,1.1-.8h0Zm-309.5,16.5v-.7c-.3-.1-.6-.3-.8-.2s-.3,.4-.4,.7c0,.1,.2,.4,.3,.4,.4,0,.7-.1,.9-.2h0Zm13.1,19.5c-.2-.2-.5-.3-.8-.4-.1,0-.3,.3-.4,.4,.2,.2,.4,.3,.6,.5,.1,0,.3-.2,.6-.5h0Zm-57.1-150c-.5-.3-.7-.5-1-.5-.2,0-.4,.3-.6,.4,.2,.2,.4,.5,.6,.5,.3,.1,.5-.2,1-.4h0Zm-20.5,92.1c-.4-.3-.6-.6-.8-.5-.3,.1-.6,.3-.8,.6,.2,.2,.4,.5,.5,.5,.4-.1,.8-.3,1.1-.6h0Zm54.5,34.1c-1-.5-1.3-.7-1.4-.7-.2,.1-.4,.3-.4,.6,0,.2,.4,.4,.6,.4,.4,0,.8-.1,1.2-.3h0Zm38.6-30.3c.1-.3,.1-.7,.1-1,0-.2-.3-.3-.4-.4-.1,.2-.2,.5-.2,.8,0,0,.3,.2,.5,.6h0Zm132.2-38.8c-.2-.2-.3-.4-.4-.5-.1,.1-.2,.3-.3,.5,0,.1,.1,.2,.2,.4,.1-.1,.3-.2,.5-.4h0Zm-257.9,20.5c-.2,.2-.3,.5-.3,.8,0,.1,.3,.3,.4,.4,.2-.3,.3-.5,.5-.8-.2-.1-.4-.2-.6-.4ZM391.13,28.1c-.2,.3-.4,.5-.6,.8l.3,.3c.2-.1,.3-.2,.4-.4s0-.4-.1-.7ZM242.33,126.4c-.2-.1-.3-.3-.5-.4-.1,.2-.3,.3-.3,.5,0,.1,.2,.3,.4,.4,.1-.2,.2-.3,.4-.5Zm16.1,18.3c.1-.3,.2-.5,.1-.6-.1-.2-.3-.2-.5-.3-.1,.2-.2,.4-.2,.5,.1,.1,.3,.2,.6,.4h0Zm96.2-3.6c-.2-.2-.3-.4-.4-.6-.2,.1-.3,.2-.4,.4,0,.1,0,.3,.1,.4,.3,0,.5-.1,.7-.2h0Zm-51.1-13.3c.1,.1,.3,.2,.5,.3,.1-.1,.2-.3,.2-.4-.1-.2-.2-.3-.3-.5-.2,.1-.3,.2-.4,.6h0Zm-60.8-4c-.1-.3-.1-.4-.1-.7-.1,.1-.3,.3-.3,.4,0,.2,0,.4,.1,.6,0-.1,.2-.2,.3-.3h0Zm-9.3,11.2c-.1,.2-.2,.3-.3,.5l.3,.2c.1-.1,.3-.3,.4-.5l-.4-.2h0Zm-27-27.5c.3-.3,.5-.4,.5-.6,0-.1-.2-.3-.3-.4-.1,.1-.3,.2-.3,.3,0,.2,.1,.4,.1,.7h0Zm268.8-29.5c-.1-.4-.1-.7-.1-1-.1,.2-.2,.4-.3,.6,0,.3,0,.6,.1,.8,.1-.1,.2-.3,.3-.4h0Zm-52.9,320.2c-.5-.1-1.1-.2-1.6-.2-.2,0-.3,.1-.5,.2,.3,.1,.7,.1,1,.1,.4,.1,.8,0,1.1-.1h0Zm169.4-199.3c-.2-.1-.4-.1-.7-.2-.1,0-.3,.3-.2,.3,.1,.1,.3,.4,.4,.3,.2,.1,.3-.2,.5-.4h0Zm-172.4,252.5c.2-.1,.4-.2,.6-.3-.2-.2-.4-.3-.7-.4-.2,0-.4,0-.6,.1,.2,.3,.5,.4,.7,.6h0Zm2,5.4c.1-.5,.2-.9,.2-1.4,0-.2-.2-.4-.3-.6-.2,.5-.3,.9-.5,1.4,0,0,.3,.2,.6,.6h0Zm.5,7.4l-.7-.6c-.2,.2-.4,.4-.5,.7,0,.1,.3,.4,.5,.4s.4-.3,.7-.5h0Zm-116.4-266.5c.1-.2,.3-.3,.4-.5,0-.1-.2-.3-.2-.3-.2,0-.3,.1-.5,.2,0,.2,.1,.4,.3,.6h0Zm264.5,1.7c0,.4-.1,.6-.1,.7,.1,.2,.3,.3,.5,.5,0-.2,.1-.4,0-.6-.1-.2-.3-.4-.4-.6h0Zm-120.2,127.7c-.1-.1-.2-.3-.3-.3s-.2,.2-.3,.3c.1,.1,.2,.3,.3,.3s.2-.2,.3-.3Zm24.9-213.9c.1-.1,.1-.2,.2-.3-.1-.1-.2-.2-.3-.2s-.1,.2-.2,.3c.1,.1,.2,.1,.3,.2h0Zm-129.8,102c-.1,.1-.3,.1-.3,.2v.4c.2-.1,.3-.1,.5-.2,0-.1-.1-.3-.2-.4Zm-82.9-32.3c-.1-.1-.2-.2-.3-.2-.1,.1-.2,.3-.2,.4,.1,.1,.2,.2,.4,.3,.1-.3,.1-.4,.1-.5h0Zm73.2-36.7c.1-.1,.3-.1,.3-.2s-.1-.2-.2-.3c-.1,.1-.3,.1-.3,.2s.1,.2,.2,.3h0Zm172.8,323.2c.3-.2,.5-.4,.8-.6-.2,0-.4-.1-.5-.1-.3,.1-.5,.2-.7,.4,.1,.1,.2,.2,.4,.3Zm-47.7-342.5c.2-.4,.4-.7,.4-.9s-.3-.3-.5-.5c-.2,.2-.4,.4-.4,.6-.1,.2,.2,.4,.5,.8h0Zm32.6,3.2c-.1-.1-.2-.2-.2-.3,0,.1-.1,.3-.1,.4s.1,.2,.2,.3c0-.2,.1-.3,.1-.4h0Zm-165.8,4.2l-.2-.3-.3,.3c.1,.1,.2,.2,.3,.2,0,0,.1-.1,.2-.2h0Zm216.6,137c.1-.1,.2-.3,.3-.5,0-.1-.2-.2-.2-.3-.1,.1-.2,.3-.3,.4-.1,.1,.1,.3,.2,.4h0Zm68.7-69.4c-.2-.1-.3-.2-.4-.1-.1,.2-.3,.3-.4,.5,.1,0,.3,.2,.3,.1,.2-.2,.4-.4,.5-.5h0ZM279.83,118.4c-.1,.2-.2,.3-.2,.4,0,.2,.1,.4,.1,.6,.1-.1,.2-.2,.2-.3,0-.2,0-.5-.1-.7h0Zm186.3,7.7c-.2,.3-.4,.4-.4,.6s.2,.3,.4,.4c.1-.1,.4-.3,.4-.4,0-.2-.2-.3-.4-.6Zm-171.9,1.6c0-.1-.1-.3-.2-.4,0,0-.2,0-.3,.1,0,.1,.1,.3,.2,.4,0,0,.2-.1,.3-.1Zm23.5,38.9v-.2h-.3v.2h.3Zm103.6,287.4c.1-.4,.2-.9,.2-1.3,0-.2-.1-.4-.2-.5-.1,.2-.2,.5-.2,.7,0,.4,.1,.7,.2,1.1h0Zm-.4,4.4c-.2,.2-.4,.4-.4,.5s.3,.4,.4,.4c.2-.1,.3-.3,.5-.5-.1-.1-.2-.3-.5-.4h0Zm-50.9-394.1c-.1,.1-.3,.3-.4,.5,0,0,.1,.2,.2,.2,.1-.1,.3-.3,.4-.4,.1,0,0-.2-.2-.3Zm51.5,451c-.2,0-.4,0-.5,.1,.1,.1,.3,.2,.5,.3,.1,0,.3,0,.4-.1-.2-.1-.3-.2-.4-.3h0ZM643.23,126.4c0-.1,0-.3,.1-.4h-.4v.2c.1,.1,.2,.2,.3,.2Zm-220.7,301.4c-.1,.1-.3,.2-.3,.3s.1,.2,.2,.4l.4-.3c-.2-.2-.2-.3-.3-.4Z"/>
      <path id="Path_2" data-name="Path 2" class="cls-1" d="M636.33,84c-.4,1.1-.8,2-1.2,3,0,.1-.6,0-.6,0-.1-1-.1-2,0-3,.1-.5,.6-1,1-1.5,.3,.4,.6,1,.8,1.5h0Z"/>
      <path id="Path_3" data-name="Path 3" class="cls-1" d="M306.53,42.8c.7,1,1,1.6,1.4,2.2-.6,.4-1.3,.8-1.9,1.1-.3,.1-1.1-.6-1-.7,.4-1,.9-1.8,1.5-2.6h0Z"/>
      <path id="Path_4" data-name="Path 4" class="cls-1" d="M641.53,80.6c.3,.5,.6,.8,.5,.9-.3,.6-.6,1.1-.9,1.7-.2-.1-.4-.2-.6-.3,.3-.7,.6-1.3,1-2.3h0Z"/>
      <path id="Path_5" data-name="Path 5" class="cls-1" d="M316.83,35.8c-.2-.2-.4-.3-.6-.5,.4-.3,.8-.5,1.3-.7,.2-.1,.5,.3,.8,.4-.5,.3-1,.6-1.5,.8h0Z"/>
      <path id="Path_6" data-name="Path 6" class="cls-1" d="M263.43,85.4l-.7,.6c-.2-.2-.4-.4-.5-.6s.3-.4,.4-.6c.3,.2,.5,.4,.8,.6Z"/>
      <path id="Path_7" data-name="Path 7" class="cls-1" d="M634.53,77.7c0,.1-.1,.2-.1,.4-.1-.1-.3-.2-.3-.3,0-.2,.1-.3,.2-.5,.1,.2,.2,.3,.2,.4h0Z"/>
      <path id="Path_8" data-name="Path 8" class="cls-1" d="M632.43,73.3c-.1,.1-.3,.2-.3,.2-.1-.1-.2-.2-.3-.3,0-.1,.1-.2,.1-.3,.2,.1,.4,.2,.5,.4h0Z"/>
      <path id="Path_9" data-name="Path 9" class="cls-1" d="M442.63,123.4c-2.8,3.4,1.3,4.5,2.1,6.7,.9,2.4,3.2,3.8,5.8,4.4,2,.5,4,1.1,5.9,1.7l.6,.3c-.1,.2-.2,.6-.4,.6-1.6,.5-1.3,1-.1,1.6,.2,.1,.3,.5,.5,.8-.3,0-.6,0-.8-.1-2.5-1.1-5.1-2.1-7.5-3.4-2.7-1.4-3-1.2-4.7,1.3-1.2,1.8-1.9,3.3-.1,5,.3,.4,.4,.8,.2,1.2-1.9,2.9,.6,4.2,2.1,5.7,3.2,3.1,6.6,6,9.8,9.1,5,4.8,2.4,9-3.1,10.8-1.9,.6-4.1,.2-6.1,.4-1.4,0-2.8,.3-4.1,.7-1.7,.8-3.7,.6-5.3-.4-2.5-1.6-5.6-1.8-8.3-.5-3.2,1.5-6.5,.2-9.7-.2-.4,0-.7-.6-1.1-1,.4-.2,.8-.4,1.2-.7,.6-.4,1.1-.8,1.6-1.2-.7-.7-1.4-1.4-2.2-2.1-.1-.1-.7,.6-1.2,.9-.5,.4-1.1,.6-1.6,.9-1.4,.5-3,.6-3,2.7,0,.1-1,.6-1.2,.4-1.6-1-3.1-2-4.6-3.2-.2-.5-.2-1.1,.1-1.5,2.6-2.1,5.7-3.6,9-4.1,.2-.1,.4-.1,.7,0,3.5,2.2,6.8,.2,10.1-.6,1.6-.4,2.9-1.4,3.8-2.8,.6-1.4,2.1-2.3,3.7-2.2,2.4-.1,2.7-.7,1.3-2.7-1.6-2.1-3.3-4.2-5.2-6.1-1-1.1-1.5-2-.3-3.3,.3-.3,.6-.9,.5-1.2-.8-2.7-.9-5.5-.3-8.2,.5-2.3,.3-4.8,.7-7.1,.2-1.2,.7-2.3,1.5-3.2,.6-.8,1.4-1.3,2.4-1.4,.7,.1,1.4,1.2,2,2,.3,.5,.6,1,.8,1.6,.4-.5,.8-1.1,1.2-1.6,.1-.2,.1-.4,.2-.6,.4-.7,.9-1.4,1.3-2.1,.5,1,1.1,1.8,1.8,2.7h0Zm-4.6,35.8c.1,.2,.1,.8,.4,1,.9,.7,2.1,2,2.8,1.8,1.6-.4,2.9-1.6,4.4-2.4-.3-.5-.5-1.1-.9-1.4-1.1-.6-2.3-1.1-3.5-1.6-1.7-.7-3.2,.4-3.2,2.6h0Z"/>
      <path id="Path_10" data-name="Path 10" class="cls-1" d="M448.63,201c-.4-1.8-.7-3.7-1.2-5.4-.2-1.4-1.6-2.3-3-2.1-.6,.1-1.1,.4-1.5,.9-.8,.8-1.2,1-2.2,.4-.8-.2-1.7,0-2.4,.5-1.8,1.4-2.9,1.3-4.3-.6-1.1-1-2.4-1.5-3.9-1.6-3.5-.3-6.9-.3-10.4-.2-1.1,.1-2.1,.4-3.1,.8-.3,.1-.7,.5-1,.4-1.8-.3-3.5-.7-5.3-1.2-3.1-1-5.1-.3-7.4,2-1.7,1.7-3.8,3-5.5,4.6-.5,.6-.7,1.3-.6,2.1s.8,1.5,.8,2.2c.1,3.6,2.6,4.7,5.5,5.5,.7,.2,1.3,1,1.9,1.7,.9,1,1.9,2,2.7,3.1,.3,.5,.6,1.1,.8,1.7-.5,.2-1.1,.6-1.6,.5-2.1-.7-4.6-1-6.1-2.3-4.8-4.2-9.2-8.9-13.7-13.4-2.2-2.2-1.8-3.6,.5-5.6,2.3-1.9,5.1-3.1,8-3.5,3.2-.5,6.2-2,9.4-2.9,4.5-1.3,8.8-.1,13.2,.9,1,.3,2,.4,3,.3,2.4-.6,5.2,.3,7.4-1.6,.2-.2,.8,.2,1.2,.3,.6,.2,1.3,.3,2,.2,6.7-2.6,13.4-1.3,20.1,.1,3.7,.8,7.4,1.7,11,2.8,4.3,1.3,4.9,5.4,1.6,8.4-1.8,1.7-3.2,3.9-5,5.7-2.8,2.6-5.8,5.1-8.7,7.5-1,1-2.2,1.9-3.5,2.6-2.3,.8-4.8,1.4-7.2,1.6-.6,.1-1.6-.9-2.1-1.7-1.5-2.4-3.8-2.7-6.2-2.7-.6,0-1.2,.1-1.8,.2-4.2,1-8.7,.8-12.8-.6-2.8-.9-5.8-1-8.7-1.5-.6-.2-1.2-.5-1.7-.9,.8-.5,1.5-1.3,2.3-1.4,1.6,0,3.2,.1,4.8,.3,.4,0,.9-.1,1.1,.1,1.7,1.9,3.9,1.2,5.9,1.2,3.9,.1,7.9,0,11.8-.2,3.3-.2,6.5-.8,9.8-1.2,.6,0,1.1,.1,1.6,.4,2.2,1.1,2.7,1,3.6-1.4,.5-1.2,.8-2.1,2.3-1.3,.3,.1,1.4-.7,1.5-1.1,.1-1.2,0-2.3-.1-3.5-.6,.2-1.3,.4-1.9,.6-.3,.2-.6,.3-.9,.6l-.4-2.3c.2,.1,.3,.1,.4,0h0Zm5.2,4.8c.3-.6,.5-1.2,.6-1.9,0-.3-.4-.6-.6-.9-.4,.4-.6,.9-.9,1.4-.1,.2,.4,.6,.9,1.4h0Zm-14.7,8c-.1-.2-.2-.5-.3-.5-.2,0-.4,.1-.5,.3,0,.1,.1,.3,.2,.5,.2-.1,.4-.2,.6-.3h0Z"/>
      <path id="Path_11" data-name="Path 11" class="cls-1" d="M401.53,130.1c-2.7-.3-5.4-.5-8.1-.8-2.9-.3-5.8-1.2-8.7-1.1-4.3,.3-8.5,1.4-12.7,2-2.1,.3-4.3,.5-6.4,.7-.2,0-.5-.2-.8-.3,.2-.2,.3-.4,.5-.6,3.7-3.3,8.4-5,12.7-7.3,.4-.2,.8-.3,1.2-.4-.2,.3-.4,.7-.5,1-.1,.4-.1,.8,.1,1.1,.6,.1,1.2,.1,1.8,0,2.5-.9,5-1.7,7.6-2.4,2.2-.4,4.4-.4,6.6,.1,3.9,1.1,7.6,2.4,11.3,3.9,.7,.3,1.1,1.3,1.6,1.9-.6,.5-1.2,1-1.9,1.3-1.4,.4-2.9,.7-4.3,1v-.1h0Zm-3.4-3.2c.7,.4,1.5,.7,2.2,.9,.2,0,.6-.4,.9-.7-.6-.4-1.2-.8-1.8-1.2-.2,0-.6,.5-1.3,1h0Zm-3-2.3c-.2,.3-.5,.6-.5,.8s.3,.4,.5,.6c.2-.2,.5-.4,.6-.7,0-.2-.4-.4-.6-.7h0Zm-5.2,.4c-.3-.2-.5-.4-.7-.5-.1,0-.4,.3-.4,.4,.1,.2,.3,.4,.5,.5,0,0,.3-.2,.6-.4h0Z"/>
      <path id="Path_12" data-name="Path 12" class="cls-1" d="M281.43,193.4c-.6-.2-1.3-.5-1.8-.9-.3-.2-.3-.9-.5-1.3-.3,.6-.8,1.2-.7,1.7,.2,1.4,.4,2.6-.9,3.6-.2,.2-.5,.4-.7,.6-.1-.3-.1-.6-.1-.9,.2-.9,.4-1.7,.6-2.6,0-.2-.1-.5-.2-.8-.2,.2-.3,.4-.5,.6-.2,.4-.3,.8-.5,1.2-.1,.2-.3,.4-.5,.6-.1-.2-.3-.4-.3-.6v-5.5c0-.3,.4-.9,.5-.9,1.7,0,1.5-1.3,1.6-2.4,.1-.4,.2-.7,.4-1,.2,.3,.3,.5,.5,.8s.5,.6,.8,.9c.2-.3,.4-.6,.5-.9,.4-1.2,.8-2.3,1.2-3.5,.1,1.2,.2,2.4,.3,3.5,.1,.5,.2,1.1,.3,1.6,.3-.4,.5-.9,.8-1.3,.3-.4,.7-.9,1-1.3,.1,.6,.2,1.1,.1,1.7,0,.7-.2,1.5-.7,2.1-1.4,1.6-1.4,3.3-1.2,5h0Z"/>
      <path id="Path_13" data-name="Path 13" class="cls-1" d="M444.93,111.1c.3,.3,.6,.7,.9,1.1,1.5,1.8,3,3.6,4.5,5.4,.3,.5,.5,1.1,.6,1.7-1.1,.6-2.3,1.5-3.3,1.3-1.5-.3-2.8-1.5-4.2-2.3-.3-.2-.9-.5-.8-.6,.5-2.2,1.2-4.3,1.8-6.4-.1-.1,.1-.1,.5-.2h0Z"/>
      <path id="Path_14" data-name="Path 14" class="cls-1" d="M490.03,157.2c-.5-.6-.9-1.3-1.3-2-.8-2.9-2.2-4-5.2-4.4-.7-.2-1.4-.5-2-.9,.7-.3,1.4-.5,2.1-.8,1.1-.5,2.2-1,3.3-1.5,.5-.3,1-.7,1.4-1.1,.4,.6,1,1.2,1,1.9,.4,2.9,.5,5.9,.7,8.8h0Z"/>
      <path id="Path_15" data-name="Path 15" class="cls-1" d="M392.43,167.4c-.3-.6-.8-1.1-.7-1.4,1.1-2.6,2.3-5.1,3.6-7.5,.3-.6,1.9-.4,3-.6,0,.9-.2,1.8-.5,2.6-1.1,1.8-2.2,3.5-3.5,5.2-.6,.7-1.2,1.3-1.9,1.7h0Z"/>
      <path id="Path_16" data-name="Path 16" class="cls-1" d="M428.03,221.9c-1.3-.1-2.6-.3-3.9-.5-.1,0,0-1.7,.2-1.7,1.4-.4,2.8-.7,4.3-.7,.3,0,1,1.3,.8,1.7-.3,.6-1.1,1-1.4,1.2h0Z"/>
      <path id="Path_17" data-name="Path 17" class="cls-1" d="M357.63,161.6c1.7,.3,3.3,.4,2.3,2.7-.2,.8-.3,1.7-.3,2.6-.6-.7-1.1-1.4-1.7-2.1-.3-.3-.7-.6-.9-1-.4-.5-.7-1.1-1-1.6,.6-.2,1.2-.4,1.6-.6h0Z"/>
      <path id="Path_18" data-name="Path 18" class="cls-1" d="M308.33,220c-.1,.2-.2,.6-.4,1-.4-.2-.9-.4-1-.7-.8-1.8-1.6-3.6-2.4-5.5-.1-.2,.2-.6,.4-.9,.3,.3,.5,.5,.8,.8,.4,.4,.9,.7,1.3,1.1,.3,.2,.7,.5,.8,.7,.2,1.1,.3,2.2,.5,3.5h0Z"/>
      <path id="Path_19" data-name="Path 19" class="cls-1" d="M214.13,205.7c-1,1.8-2,3.6-3,5.4-.2-.1-.7-.4-.7-.4,.9-1.7,1.8-3.5,2.7-5.2,.1-.2,.5-.2,.8-.2,.1,.2,.1,.3,.2,.4h0Z"/>
      <path id="Path_20" data-name="Path 20" class="cls-1" d="M207.83,201.8v3.6c-.1,.5-.2,1-.3,1.5-.2-.1-.4-.1-.5-.2-.4-.6-1.1-1.3-1-1.8,.4-1.2,.9-2.3,1.6-3.4,.1-.2,.3-.2,.5-.3l.2,.6h-.5Z"/>
      <path id="Path_21" data-name="Path 21" class="cls-1" d="M309.63,223.5c.4,.5,1.2,1.2,1.1,1.6-.3,.8-.8,1.6-1.4,2.3-.3-.4-.7-.8-.7-1.3,0-.8,.1-1.6,.3-2.5,.2,0,.4-.1,.7-.1h0Z"/>
      <path id="Path_22" data-name="Path 22" class="cls-1" d="M474.13,142.2c-1,.6-1.5,1.2-2,1.1-.6-.1-1.2-.7-1.8-1.1,.5-.4,1-1.1,1.6-1.2,.5,0,1.1,.6,2.2,1.2Z"/>
      <path id="Path_23" data-name="Path 23" class="cls-1" d="M399.33,134.9c-.5-.1-.6-.1-.8-.2,.1-.2,.2-.4,.4-.5,1.7-.7,3.4-1.4,5.1-2.1l.2,.5c-1.7,.9-3.4,1.6-4.9,2.3h0Z"/>
      <path id="Path_24" data-name="Path 24" class="cls-1" d="M266.73,205.7c-1.3,1.1-2.2,1.9-3.2,2.7-.2-.3-.4-.5-.5-.8,0-1.7,1.3-1.9,2.5-2.2,.3,0,.4,.1,1.2,.3Z"/>
      <path id="Path_25" data-name="Path 25" class="cls-1" d="M273.73,208c0-.7-.2-1-.1-1.2,.4-.8,.9-1.5,1.4-2.3,.2-.4,.5-.7,.8-1,.1,.5,.6,1.1,.4,1.3-.7,1.2-1.6,2.2-2.5,3.2Z"/>
      <path id="Path_26" data-name="Path 26" class="cls-1" d="M273.33,195.1c-.5,1.1-1,2.2-1.5,3.3,.1-1.1,.2-2.3,.3-3.4,.1-.4,.3-.7,.6-1.1,.2,.4,.3,.8,.6,1.2h0Z"/>
      <path id="Path_27" data-name="Path 27" class="cls-1" d="M213.93,198.9c-1,1.3-1.6,2.1-2.2,2.8-.2-.3-.6-.7-.5-.8,.5-.8,1-1.6,1.6-2.4,0,0,.5,.2,1.1,.4h0Z"/>
      <path id="Path_28" data-name="Path 28" class="cls-1" d="M250.03,183.3c-.9,.9-1.9,1.9-3,2.8-.1,.1-.2,0-.4,0,0-.2,.1-.4,.2-.6,.7-1,1.4-1.9,2.1-2.8,.2-.2,.5-.2,.7-.2,.1,0,.2,.3,.4,.8h0Z"/>
      <path id="Path_29" data-name="Path 29" class="cls-1" d="M269.33,200.9c-.1,.5-.3,1.3-.4,2.1-.2-.8-.3-1.7-.4-2.6,.1-.8,.2-1.5,.4-2.3,.1,.9,.2,1.7,.4,2.8Z"/>
      <path id="Path_30" data-name="Path 30" class="cls-1" d="M442.73,198c.2,.8,.4,1.7,.5,2.5,0,.2-.3,.5-.5,.8-.4-.6-.7-1.2-.9-1.9-.1-.2,.4-.6,.9-1.4h0Z"/>
      <path id="Path_31" data-name="Path 31" class="cls-1" d="M209.73,191.1c-.4-.3-.6-.5-.8-.6,.8-.6,1.7-1.2,2.6-1.7,.1,0,.4,.4,.7,.6-.8,.6-1.6,1.1-2.5,1.7h0Z"/>
      <path id="Path_32" data-name="Path 32" class="cls-1" d="M185.03,176.4c.2-.2,.3-.4,.5-.4,.6-.2,1.3-.3,1.9-.4,.1,.4,.1,.8,.2,1.2-.7-.1-1.3-.2-2-.3-.2,0-.4-.1-.6-.1h0Z"/>
      <path id="Path_33" data-name="Path 33" class="cls-1" d="M262.53,211.3c-.6,.8-1,1.6-1.5,2.3-.2-.2-.5-.5-.4-.5,.4-.8,.9-1.5,1.3-2.2,.2,.1,.3,.2,.6,.4h0Z"/>
      <path id="Path_34" data-name="Path 34" class="cls-1" d="M212.13,221c-1,.3-2,.6-3,.9-.4,.1-.8,.1-1.2,.1,.4-.2,.8-.4,1.2-.6,.7-.3,1.5-.6,2.2-.8,.3-.1,.5-.1,.8-.1-.1,.1-.1,.3,0,.5h0Z"/>
      <path id="Path_35" data-name="Path 35" class="cls-1" d="M454.13,86.9c-.6-1-1.1-1.8-1.5-2.6l.2-.2c.6,.7,1.2,1.5,1.7,2.2,.1,0-.1,.2-.4,.6Z"/>
      <path id="Path_36" data-name="Path 36" class="cls-1" d="M305.83,230.3c.3,.5,.5,1.1,.6,1.7,0,.3-.3,.5-.5,.8-.2-.3-.3-.6-.5-1,.1-.5,.2-1,.4-1.5Z"/>
      <path id="Path_37" data-name="Path 37" class="cls-1" d="M287.43,191.9c.1,.3,.2,.7,.1,1.1-.2,.4-.4,.8-.7,1.2,0,0-.3-.1-.3-.2,.1-.5,.3-.9,.4-1.3,.2-.3,.4-.6,.5-.8q.1,0,0,0h0Z"/>
      <path id="Path_38" data-name="Path 38" class="cls-1" d="M494.53,147.4c-.2,.4-.4,.9-.6,1.4-.1-.2-.1-.4-.1-.6,.1-.5,.3-1,.5-1.6,.1,.2,.1,.4,.2,.8h0Z"/>
      <path id="Path_39" data-name="Path 39" class="cls-1" d="M473.33,144.8c.3,.4,.5,.6,.5,.8,0,.1-.3,.4-.5,.4-.1,0-.4-.3-.4-.4,0-.2,.2-.4,.4-.8Z"/>
      <path id="Path_40" data-name="Path 40" class="cls-1" d="M396.33,89.7c-.4,.3-.7,.6-.8,.5-.2-.1-.4-.4-.5-.6,0-.1,.4-.4,.6-.4s.4,.2,.7,.5h0Z"/>
      <path id="Path_41" data-name="Path 41" class="cls-1" d="M305.63,224.8c.1,.4,.3,.7,.3,.9s-.4,.2-.6,.4c-.1-.2-.2-.5-.2-.8,0-.1,.2-.2,.5-.5h0Z"/>
      <path id="Path_42" data-name="Path 42" class="cls-1" d="M278.13,201c-.3,.3-.5,.5-.7,.7-.1-.1-.3-.3-.3-.4,0-.2,.2-.4,.3-.5,.2,0,.4,.1,.7,.2h0Z"/>
      <path id="Path_43" data-name="Path 43" class="cls-1" d="M345.63,251.6c-.3,.2-.5,.5-.5,.4-.3-.2-.6-.4-.8-.6,.1-.1,.3-.4,.3-.4,.3,.2,.6,.4,1,.6Z"/>
      <path id="Path_44" data-name="Path 44" class="cls-1" d="M400.53,91.3c-.2-.3-.3-.6-.4-1,0-.1,.2-.3,.3-.5,.2,.2,.3,.5,.4,.7,0,.2-.1,.4-.3,.8h0Z"/>
      <path id="Path_45" data-name="Path 45" class="cls-1" d="M400.13,202.8c-.2,.1-.4,.3-.4,.3-.2-.1-.3-.2-.4-.4,0,0,.2-.3,.3-.3,.1,.1,.3,.2,.5,.4Z"/>
      <path id="Path_46" data-name="Path 46" class="cls-1" d="M289.03,212c-.2-.3-.5-.4-.4-.6,0-.2,.1-.4,.3-.5,.1-.1,.5,.1,.5,.2-.2,.2-.3,.6-.4,.9h0Z"/>
      <path id="Path_47" data-name="Path 47" class="cls-1" d="M215.93,197c-.6,.3-.8,.4-.9,.5-.1-.2-.2-.4-.2-.6,0-.1,.2-.3,.3-.2,.3,.1,.6,.2,.8,.3h0Z"/>
      <path id="Path_48" data-name="Path 48" class="cls-1" d="M306.63,208.5c-.1,.1-.1,.3-.2,.3s-.2-.1-.3-.2c.1-.1,.1-.3,.2-.3,0,0,.2,.1,.3,.2Z"/>
      <path id="Path_49" data-name="Path 49" class="cls-1" d="M454.83,81.4c-.1,.1-.1,.2-.2,.3-.2-.1-.3-.3-.4-.4l.1-.2c.2,.1,.3,.2,.5,.3h0Z"/>
      <path id="Path_50" data-name="Path 50" class="cls-1" d="M462.63,119.5c-.1,.1-.2,.2-.3,.2s-.2-.1-.3-.2c.1-.1,.2-.2,.3-.2s.2,.1,.3,.2h0Z"/>
      <path id="Path_51" data-name="Path 51" class="cls-1" d="M453.53,121.4c-.2,0-.4,.1-.6,.1v-.3c.1-.1,.3-.1,.4-.1,0-.1,.1,.1,.2,.3h0Z"/>
      <path id="Path_52" data-name="Path 52" class="cls-1" d="M348.23,253.9c-.1,.1-.2,.2-.3,.1-.1,0-.1-.2-.2-.3,.1-.1,.2-.2,.3-.1,.1,0,.2,.2,.2,.3Z"/>
      <path id="Path_53" data-name="Path 53" class="cls-1" d="M216.53,188.9c.1,.1,.1,.2,.2,.3-.1,.1-.2,.2-.3,.2s-.1-.2-.2-.3c.1-.1,.2-.2,.3-.2h0Z"/>
      <path id="Path_54" data-name="Path 54" class="cls-1" d="M261.43,199c-.1,.1-.2,.1-.3,.2,0-.1-.2-.3-.1-.4,0-.1,.2-.2,.3-.2,0,.1,.1,.2,.1,.4Z"/>
      <path id="Path_55" data-name="Path 55" class="cls-1" d="M485.63,139c-.1,.1-.2,.2-.3,.3l-.2-.1c0-.1,.1-.2,.1-.4,.2,0,.3,.1,.4,.2h0Z"/>
      <path id="Path_56" data-name="Path 56" class="cls-1" d="M279.63,206.2c-.1,.1-.2,.1-.3,.2-.1-.1-.2-.2-.1-.3,0-.1,.2-.1,.3-.2,0,.1,.1,.2,.1,.3h0Z"/>
      <path id="Path_57" data-name="Path 57" class="cls-1" d="M217.13,206.2c.1,.1,.3,.1,.3,.2s-.1,.2-.2,.3c-.1-.1-.3-.1-.3-.2s.2-.2,.2-.3h0Z"/>
      <path id="Path_58" data-name="Path 58" class="cls-1" d="M451.13,80.5c.1,.1,.3,.2,.3,.3v.3c-.1-.1-.3-.1-.3-.2-.1-.1,0-.3,0-.4h0Z"/>
      <path id="Path_59" data-name="Path 59" class="cls-1" d="M442.13,331c-.1,0-.2-.1-.3-.1,.1-.1,.2-.2,.3-.2,0,0,.1,0,.2,.1-.1,0-.2,.1-.2,.2Z"/>
      <path id="Path_60" data-name="Path 60" class="cls-1" d="M259.63,215.4l-.3,.3c-.1-.1-.2-.2-.2-.3s.2-.2,.3-.3c.1,.2,.2,.3,.2,.3Z"/>
      <path id="Path_61" data-name="Path 61" class="cls-1" d="M457.63,88.7l-.2,.3c-.1-.1-.2-.2-.3-.3,0-.1,.1-.2,.2-.2,.1-.1,.2,0,.3,.2h0Z"/>
      <path id="Path_62" data-name="Path 62" class="cls-1" d="M423.03,265c.1,.1,.2,.1,.3,.2-.1,.1-.1,.3-.2,.3s-.2-.1-.3-.2c0-.1,.1-.2,.2-.3h0Z"/>
      <path id="Path_63" data-name="Path 63" class="cls-1" d="M611.73,227.4c-.1,0-.3-.1-.6-.1,.1-.2,.1-.6,.2-.7,2.2-1.9,3.3-4.4,4.2-7.1,.1-.3,.4-.5,.7-.7,.2,.2,.4,.4,.5,.7,.4,1.5-3.1,7.4-4.6,7.9,0,0-.2,0-.4,0h0Z"/>
      <path id="Path_64" data-name="Path 64" class="cls-1" d="M323.63,207.9c-.4-.6-.8-.9-.7-1.1,.2-.5,.5-.9,.9-1.3,.2,.3,.5,.6,.5,.9-.2,.5-.4,1-.7,1.5h0Z"/>
      <path id="Path_65" data-name="Path 65" class="cls-1" d="M216.53,164c-.2,.2-.3,.4-.4,.5-.1-.1-.3-.2-.4-.4,0-.1,.1-.3,.2-.3,.2,.1,.4,.2,.6,.2Z"/>
      <path id="Path_66" data-name="Path 66" class="cls-1" d="M607.73,213c.3,.3,.4,.5,.6,.7-.4,.3-.8,.5-1.3,.7-.1,0-.4-.3-.6-.4,.4-.4,.8-.7,1.3-1h0Z"/>
      <path id="Path_67" data-name="Path 67" class="cls-1" d="M599.53,219.7c-.3,.1-.6,.2-.9,.3-.2,0-.5-.3-.7-.4,.2-.2,.3-.6,.5-.6,.2-.1,.5,.1,.7,.2,.2,.1,.3,.3,.4,.5h0Z"/>
      <path id="Path_68" data-name="Path 68" class="cls-1" d="M426.83,372.3c0,.9,0,1.8-.2,2.7-.2,.5-.9,1.2-1.3,1.1-.8-.2-1.5-.6-2.1-1.2-.3-.2,0-1,0-1.5,.1-.4,.1-.7,.1-1.1-.1-.6-.3-1.3-.4-1.9,.9-.2,1.8-.3,2.7-.4,.5,.1,.9,.5,1.1,.9,.1,.5,.1,.9,.1,1.4h0Zm-1.9,1.2c-.1,.2-.1,.3-.2,.5,.1,.1,.2,.2,.4,.2,.2-.1,.3-.2,.4-.3l-.6-.4Z"/>
      <path id="Path_69" data-name="Path 69" class="cls-1" d="M422.83,364.8c-.2-.1-.3-.2-.3-.2,.1-.2,.1-.3,.2-.5,.1,.1,.3,.1,.3,.2-.1,.1-.1,.3-.2,.5h0Z"/>
    </g>
  </g>
  <rect class="cls-1" x="159.87" y="561.21" width="531.97" height="16.76"/>
  <rect class="cls-1" x="210.31" y="594.34" width="427.08" height="13.46"/>
  <rect class="cls-1" x="281.78" y="626.4" width="285.35" height="8.99"/>
  <rect class="cls-1" x="352.65" y="656.22" width="143.62" height="4.52"/>
</svg>