<?xml version="1.0" encoding="UTF-8"?>
<svg id="Layer_1" data-name="Layer 1" xmlns="http://www.w3.org/2000/svg" xmlns:xlink="http://www.w3.org/1999/xlink" viewBox="0 0 864.1 546.43">
  <defs>
    <style>
      .cls-1 {
        fill: url(#linear-gradient-2);
      }

      .cls-2 {
        fill: url(#linear-gradient-51);
      }

      .cls-3 {
        fill: url(#linear-gradient-17);
      }

      .cls-4 {
        fill: url(#linear-gradient-43);
      }

      .cls-5 {
        fill: url(#linear-gradient-15);
      }

      .cls-6 {
        fill: url(#linear-gradient-58);
      }

      .cls-7 {
        fill: url(#linear-gradient-69);
      }

      .cls-8 {
        fill: url(#linear-gradient-18);
      }

      .cls-9 {
        fill: url(#linear-gradient-56);
      }

      .cls-10 {
        fill: url(#linear-gradient-40);
      }

      .cls-11 {
        fill: url(#linear-gradient-52);
      }

      .cls-12 {
        fill: url(#linear-gradient-28);
      }

      .cls-13 {
        fill: url(#linear-gradient-14);
      }

      .cls-14 {
        fill: url(#linear-gradient-36);
      }

      .cls-15 {
        fill: url(#linear-gradient-20);
      }

      .cls-16 {
        fill: url(#linear-gradient-6);
      }

      .cls-17 {
        fill: url(#linear-gradient-53);
      }

      .cls-18 {
        fill: url(#linear-gradient-60);
      }

      .cls-19 {
        fill: url(#linear-gradient-35);
      }

      .cls-20 {
        fill: url(#linear-gradient-48);
      }

      .cls-21 {
        fill: url(#linear-gradient-32);
      }

      .cls-22 {
        fill: url(#linear-gradient-11);
      }

      .cls-23 {
        fill: url(#linear-gradient-50);
      }

      .cls-24 {
        fill: url(#linear-gradient-63);
      }

      .cls-25 {
        fill: url(#linear-gradient-67);
      }

      .cls-26 {
        fill: url(#linear-gradient-39);
      }

      .cls-27 {
        fill: url(#linear-gradient-10);
      }

      .cls-28 {
        fill: url(#linear-gradient-59);
      }

      .cls-29 {
        fill: url(#linear-gradient-49);
      }

      .cls-30 {
        fill: url(#linear-gradient-37);
      }

      .cls-31 {
        fill: url(#linear-gradient-16);
      }

      .cls-32 {
        fill: url(#linear-gradient-31);
      }

      .cls-33 {
        fill: url(#linear-gradient-61);
      }

      .cls-34 {
        fill: url(#linear-gradient-68);
      }

      .cls-35 {
        fill: url(#linear-gradient-62);
      }

      .cls-36 {
        fill: url(#linear-gradient-41);
      }

      .cls-37 {
        fill: url(#linear-gradient-21);
      }

      .cls-38 {
        fill: url(#linear-gradient-25);
      }

      .cls-39 {
        fill: url(#linear-gradient-5);
      }

      .cls-40 {
        fill: url(#linear-gradient-64);
      }

      .cls-41 {
        fill: url(#linear-gradient-54);
      }

      .cls-42 {
        fill: url(#linear-gradient-45);
      }

      .cls-43 {
        fill: url(#linear-gradient-55);
      }

      .cls-44 {
        fill: url(#linear-gradient-34);
      }

      .cls-45 {
        fill: url(#linear-gradient-65);
      }

      .cls-46 {
        fill: url(#linear-gradient-7);
      }

      .cls-47 {
        fill: url(#linear-gradient-66);
      }

      .cls-48 {
        fill: url(#linear-gradient-24);
      }

      .cls-49 {
        fill: url(#linear-gradient-9);
      }

      .cls-50 {
        fill: url(#linear-gradient-22);
      }

      .cls-51 {
        fill: url(#linear-gradient-42);
      }

      .cls-52 {
        fill: url(#linear-gradient-3);
      }

      .cls-53 {
        fill: url(#linear-gradient);
      }

      .cls-54 {
        fill: url(#linear-gradient-27);
      }

      .cls-55 {
        fill: url(#linear-gradient-33);
      }

      .cls-56 {
        fill: url(#linear-gradient-38);
      }

      .cls-57 {
        fill: url(#linear-gradient-29);
      }

      .cls-58 {
        fill: url(#linear-gradient-30);
      }

      .cls-59 {
        fill: url(#linear-gradient-23);
      }

      .cls-60 {
        fill: url(#linear-gradient-19);
      }

      .cls-61 {
        fill: url(#linear-gradient-4);
      }

      .cls-62 {
        fill: url(#linear-gradient-8);
      }

      .cls-63 {
        fill: url(#linear-gradient-44);
      }

      .cls-64 {
        fill: url(#linear-gradient-57);
      }

      .cls-65 {
        fill: url(#linear-gradient-47);
      }

      .cls-66 {
        fill: url(#linear-gradient-46);
      }

      .cls-67 {
        fill: url(#linear-gradient-12);
      }

      .cls-68 {
        fill: url(#linear-gradient-13);
      }

      .cls-69 {
        fill: url(#linear-gradient-26);
      }
    </style>
    <linearGradient id="linear-gradient" x1="432.05" y1="546.43" x2="432.05" y2="0" gradientUnits="userSpaceOnUse">
      <stop offset="0" stop-color="#fff"/>
      <stop offset=".07" stop-color="#f2f2f2"/>
      <stop offset=".16" stop-color="#c0bfbf"/>
      <stop offset=".47" stop-color="#000"/>
    </linearGradient>
    <linearGradient id="linear-gradient-2" x1="635.53" y1="86.88" x2="635.53" y2="82.34" xlink:href="#linear-gradient"/>
    <linearGradient id="linear-gradient-3" x1="306.52" y1="45.89" x2="306.52" y2="42.68" xlink:href="#linear-gradient"/>
    <linearGradient id="linear-gradient-4" x1="641.42" y1="83.13" x2="641.42" y2="80.52" xlink:href="#linear-gradient"/>
    <linearGradient id="linear-gradient-5" x1="317.3" y1="35.74" x2="317.3" y2="34.59" xlink:href="#linear-gradient"/>
    <linearGradient id="linear-gradient-6" x1="262.95" y1="85.96" x2="262.95" y2="84.69" xlink:href="#linear-gradient"/>
    <linearGradient id="linear-gradient-7" x1="634.43" y1="78" x2="634.43" y2="77.25" xlink:href="#linear-gradient"/>
    <linearGradient id="linear-gradient-8" x1="632.23" y1="73.38" x2="632.23" y2="72.76" xlink:href="#linear-gradient"/>
    <linearGradient id="linear-gradient-9" x1="432.93" y1="170.92" x2="432.93" y2="120.77" xlink:href="#linear-gradient"/>
    <linearGradient id="linear-gradient-10" x1="426.29" y1="217.48" x2="426.29" y2="187.22" xlink:href="#linear-gradient"/>
    <linearGradient id="linear-gradient-11" x1="386.42" y1="130.9" x2="386.42" y2="121.76" xlink:href="#linear-gradient"/>
    <linearGradient id="linear-gradient-12" x1="279.34" y1="197.04" x2="279.34" y2="182.13" xlink:href="#linear-gradient"/>
    <linearGradient id="linear-gradient-13" x1="446.72" y1="120.57" x2="446.72" y2="111.05" xlink:href="#linear-gradient"/>
    <linearGradient id="linear-gradient-14" x1="485.91" y1="157.13" x2="485.91" y2="146.39" xlink:href="#linear-gradient"/>
    <linearGradient id="linear-gradient-15" x1="395.08" y1="167.36" x2="395.08" y2="157.91" xlink:href="#linear-gradient"/>
    <linearGradient id="linear-gradient-16" x1="426.87" y1="221.85" x2="426.87" y2="218.83" xlink:href="#linear-gradient"/>
    <linearGradient id="linear-gradient-17" x1="358.2" y1="166.81" x2="358.2" y2="161.5" xlink:href="#linear-gradient"/>
    <linearGradient id="linear-gradient-18" x1="306.44" y1="220.91" x2="306.44" y2="213.79" xlink:href="#linear-gradient"/>
    <linearGradient id="linear-gradient-19" x1="212.37" y1="211.04" x2="212.37" y2="205.25" xlink:href="#linear-gradient"/>
    <linearGradient id="linear-gradient-20" x1="207.21" y1="206.78" x2="207.21" y2="201.11" xlink:href="#linear-gradient"/>
    <linearGradient id="linear-gradient-21" x1="309.7" y1="227.26" x2="309.7" y2="223.41" xlink:href="#linear-gradient"/>
    <linearGradient id="linear-gradient-22" x1="472.32" y1="143.22" x2="472.32" y2="140.95" xlink:href="#linear-gradient"/>
    <linearGradient id="linear-gradient-23" x1="401.39" y1="134.83" x2="401.39" y2="132.11" xlink:href="#linear-gradient"/>
    <linearGradient id="linear-gradient-24" x1="265.02" y1="208.29" x2="265.02" y2="205.3" xlink:href="#linear-gradient"/>
    <linearGradient id="linear-gradient-25" x1="275.06" y1="207.94" x2="275.06" y2="203.45" xlink:href="#linear-gradient"/>
    <linearGradient id="linear-gradient-26" x1="272.64" y1="198.33" x2="272.64" y2="193.85" xlink:href="#linear-gradient"/>
    <linearGradient id="linear-gradient-27" x1="212.66" y1="201.63" x2="212.66" y2="198.42" xlink:href="#linear-gradient"/>
    <linearGradient id="linear-gradient-28" x1="248.4" y1="186.02" x2="248.4" y2="182.35" xlink:href="#linear-gradient"/>
    <linearGradient id="linear-gradient-29" x1="268.98" y1="202.92" x2="268.98" y2="198.06" xlink:href="#linear-gradient"/>
    <linearGradient id="linear-gradient-30" x1="442.63" y1="201.19" x2="442.63" y2="197.9" xlink:href="#linear-gradient"/>
    <linearGradient id="linear-gradient-31" x1="210.66" y1="191.01" x2="210.66" y2="188.74" xlink:href="#linear-gradient"/>
    <linearGradient id="linear-gradient-32" x1="186.41" y1="176.68" x2="186.41" y2="175.43" xlink:href="#linear-gradient"/>
    <linearGradient id="linear-gradient-33" x1="261.63" y1="213.51" x2="261.63" y2="210.73" xlink:href="#linear-gradient"/>
    <linearGradient id="linear-gradient-34" x1="210.03" y1="221.81" x2="210.03" y2="220.32" xlink:href="#linear-gradient"/>
    <linearGradient id="linear-gradient-35" x1="453.67" y1="86.77" x2="453.67" y2="83.9" xlink:href="#linear-gradient"/>
    <linearGradient id="linear-gradient-36" x1="306" y1="232.68" x2="306" y2="230.19" xlink:href="#linear-gradient"/>
    <linearGradient id="linear-gradient-37" x1="287.15" y1="194.04" x2="287.15" y2="191.76" xlink:href="#linear-gradient"/>
    <linearGradient id="linear-gradient-38" x1="494.24" y1="148.69" x2="494.24" y2="146.48" xlink:href="#linear-gradient"/>
    <linearGradient id="linear-gradient-39" x1="473.48" y1="145.95" x2="473.48" y2="144.73" xlink:href="#linear-gradient"/>
    <linearGradient id="linear-gradient-40" x1="395.8" y1="90.13" x2="395.8" y2="89.06" xlink:href="#linear-gradient"/>
    <linearGradient id="linear-gradient-41" x1="305.56" y1="225.98" x2="305.56" y2="224.73" xlink:href="#linear-gradient"/>
    <linearGradient id="linear-gradient-42" x1="277.75" y1="201.65" x2="277.75" y2="200.7" xlink:href="#linear-gradient"/>
    <linearGradient id="linear-gradient-43" x1="344.99" y1="251.92" x2="344.99" y2="250.9" xlink:href="#linear-gradient"/>
    <linearGradient id="linear-gradient-44" x1="400.53" y1="91.19" x2="400.53" y2="89.73" xlink:href="#linear-gradient"/>
    <linearGradient id="linear-gradient-45" x1="399.74" y1="202.99" x2="399.74" y2="202.23" xlink:href="#linear-gradient"/>
    <linearGradient id="linear-gradient-46" x1="288.99" y1="211.87" x2="288.99" y2="210.74" xlink:href="#linear-gradient"/>
    <linearGradient id="linear-gradient-47" x1="215.48" y1="197.38" x2="215.48" y2="196.59" xlink:href="#linear-gradient"/>
    <linearGradient id="linear-gradient-48" x1="306.4" y1="208.7" x2="306.4" y2="208.21" xlink:href="#linear-gradient"/>
    <linearGradient id="linear-gradient-49" x1="454.61" y1="81.61" x2="454.61" y2="80.94" xlink:href="#linear-gradient"/>
    <linearGradient id="linear-gradient-50" x1="462.4" y1="119.6" x2="462.4" y2="119.13" xlink:href="#linear-gradient"/>
    <linearGradient id="linear-gradient-51" x1="453.24" y1="121.35" x2="453.24" y2="120.9" xlink:href="#linear-gradient"/>
    <linearGradient id="linear-gradient-52" x1="348.07" y1="253.95" x2="348.07" y2="253.5" xlink:href="#linear-gradient"/>
    <linearGradient id="linear-gradient-53" x1="216.58" y1="189.25" x2="216.58" y2="188.76" xlink:href="#linear-gradient"/>
    <linearGradient id="linear-gradient-54" x1="261.28" y1="199.07" x2="261.28" y2="198.48" xlink:href="#linear-gradient"/>
    <linearGradient id="linear-gradient-55" x1="485.52" y1="139.12" x2="485.52" y2="138.65" xlink:href="#linear-gradient"/>
    <linearGradient id="linear-gradient-56" x1="279.51" y1="206.32" x2="279.51" y2="205.84" xlink:href="#linear-gradient"/>
    <linearGradient id="linear-gradient-57" x1="217.26" y1="206.63" x2="217.26" y2="206.11" xlink:href="#linear-gradient"/>
    <linearGradient id="linear-gradient-58" x1="451.33" y1="81.01" x2="451.33" y2="80.4" xlink:href="#linear-gradient"/>
    <linearGradient id="linear-gradient-59" x1="442.1" y1="330.87" x2="442.1" y2="330.49" xlink:href="#linear-gradient"/>
    <linearGradient id="linear-gradient-60" x1="259.51" y1="215.62" x2="259.51" y2="215.07" xlink:href="#linear-gradient"/>
    <linearGradient id="linear-gradient-61" x1="457.46" y1="88.81" x2="457.46" y2="88.22" xlink:href="#linear-gradient"/>
    <linearGradient id="linear-gradient-62" x1="423.11" y1="265.41" x2="423.11" y2="264.91" xlink:href="#linear-gradient"/>
    <linearGradient id="linear-gradient-63" x1="614.12" y1="227.33" x2="614.12" y2="218.67" xlink:href="#linear-gradient"/>
    <linearGradient id="linear-gradient-64" x1="323.69" y1="207.77" x2="323.69" y2="205.35" xlink:href="#linear-gradient"/>
    <linearGradient id="linear-gradient-65" x1="216.18" y1="164.46" x2="216.18" y2="163.77" xlink:href="#linear-gradient"/>
    <linearGradient id="linear-gradient-66" x1="607.49" y1="214.24" x2="607.49" y2="212.88" xlink:href="#linear-gradient"/>
    <linearGradient id="linear-gradient-67" x1="598.82" y1="219.84" x2="598.82" y2="218.79" xlink:href="#linear-gradient"/>
    <linearGradient id="linear-gradient-68" x1="424.86" y1="375.95" x2="424.86" y2="369.91" xlink:href="#linear-gradient"/>
    <linearGradient id="linear-gradient-69" x1="422.8" y1="364.66" x2="422.8" y2="363.92" xlink:href="#linear-gradient"/>
  </defs>
  <g id="Layer_1-2" data-name="Layer 1">
    <g id="Group_1" data-name="Group 1">
      <path id="Path_1" data-name="Path 1" class="cls-53" d="M697.58,546.43H154.51c-.15-10.09-.68-20.11-3.64-29.91-2.33-7.71-4.12-15.6-6.11-23.42-2.43-9.58-2.27-19.42-2.77-29.19-.19-3.55-.67-6.78-3.78-9.15-1-.9-1.75-2.06-2.16-3.34-1.17-3.11-1.81-6.46-3.25-9.43-1.99-4.01-4.24-7.88-6.76-11.58-3.19-4.78-6.96-9.17-9.99-14.03-5.5-8.8-10.72-17.78-15.9-26.77-4.43-7.71-8.8-15.46-12.89-23.35-4.68-9.01-9.04-18.19-13.52-27.31-5.28-10.72-10.82-21.33-15.73-32.22-6.19-13.75-12.06-27.67-17.71-41.66-6.72-16.62-13-33.42-19.63-50.08C18.14,208.67-.83,135.65,.03,121.68c.31-5.14,1.93-10.11,4.71-14.45,3.63-5.68,8.96-13.71,11.83-18.01,1.28-1.93,3.25-3.3,5.5-3.85,5.54-1.35,16.32-3.88,22.72-4.71,9.5-1.12,19.1-1.21,28.62-.27,2.62,.22,3.92-.78,5.27-3.02,2.36-3.92,5.25-7.61,10-8.91,1.69-.46,3.57-.2,5.28-.64,2.15-.63,4.26-1.38,6.33-2.26,4.87-1.86,9.8-3.58,14.56-5.69,2.43-1.07,4.52-2.88,6.81-4.27,.97-.67,2.04-1.18,3.17-1.51,3.55-.88,7.3-.22,10.34,1.82,5.28,3.73,10.12,8.07,15.16,12.15,1.26,1.02,2.4,2.36,3.85,2.99,7.2,2.91,14.09,6.55,20.56,10.85,4.9,3.4,10.09,6.37,15.2,9.47,.95,.59,2.01,.99,3.12,1.18,3.25,.47,6.51,.82,9.78,1.13,3.46,.33,6.92,.65,10.38,.78,1.02-.06,2.01-.37,2.87-.92-.56-3.15,1.33-2.19,2.89-1.85,.28,.05,.58,0,.83-.13,3.75-2.15,8.31-2.32,12.21-.47,1.02,.18,2.07-.04,2.92-.63,2.58-1.53,4.9-3.58,7.6-4.82,2.99-1.25,6.1-2.2,9.27-2.82,.91-.21,2.09,.49,3.06,.97,1.66,.81,3.27,1.74,4.86,2.7,1.12,.5,2.14,1.22,2.98,2.12,1.46,2.09,3.76,1.64,5.68,2.1,.71,.17,1.74-1.22,2.68-1.79,.5-.21,1.04-.35,1.58-.42,.11,.44,.2,.89,.26,1.34,.05,.43,.02,.87,.02,1.3,.41-.27,.96-.46,1.19-.83,.33-.5,.48-1.09,.43-1.68-.58-3.2,.45-6.82-2.31-9.51-.12-.12,.51-1.43,.77-1.41,3.56,.14,7.11,.45,10.67,.64,.91,.05,2.2,.12,2.67-.4,1.12-1.22,2.24-.72,3.47-.7,.85,.04,1.68-.27,2.3-.87,1.64-2.43,2.25-5.81,6.16-5.96,.35-.02,.66-.9,.98-1.38-.45-.16-.89-.35-1.32-.57-.67-.42-1.28-.92-1.92-1.39,.68-.54,1.33-1.12,2.05-1.6,1.13-.75,2.54-1.23,3.41-2.2,1.1-1.23,1.93-2.4,3.87-1.97,.66,.02,1.29-.31,1.66-.86,.78-2.88,2.15-5.03,5.42-5.34,.1,0,.19-.22,.26-.35,3.14-4.71,8.73-7.34,10.9-12.89,.08-.22,.46-.36,.73-.49,1.94-.94,2.12-2.38,1.08-4.07-.77-1.26-.63-2.3,.6-3.08,1.97-1.39,4.05-2.63,6.22-3.71,2.57-1.12,5.36-1.77,8.03-2.68,.43-.21,.83-.49,1.18-.81-.45-.19-.9-.57-1.35-.57-2.91,0-5.82,.07-8.71,.08-.31-.04-.61-.13-.89-.25,.25-.11,.52-.2,.79-.26,4.69-.37,9.38-1,14.07-1.01,4.54,0,8.02-2.86,12.17-3.78,.13-.03,.23-.2,.36-.25,3.9-1.42,7.72-3.2,11.75-4.08,2.28-.5,4.42-.72,6.12-2.61,1.54-1.74,3.29-3.28,5.2-4.61,3.5-2.39,6.52-5.47,9.95-7.96,1.17-.7,2.39-1.28,3.67-1.75-1.02,1.02-1.96,2.12-3.05,3.05-3.06,2.58-6.2,5.08-9.27,7.64-.27,.33-.48,.7-.62,1.1,.42,.05,.84,.02,1.25-.09,1.95-1.05,4.19-1.85,5.74-3.35,3.56-3.45,8.05-4.21,12.52-4.56,3.41-.27,6.9,.63,10.37,.78,4.44,.19,8.9,.15,13.35,.21,.4,0,.8,.07,1.18,.19,2.09,.76,3.57-.36,5.02-1.67,.43-.4,.91-.76,1.41-1.06,.32-.11,.65-.17,.98-.18-.12,.25-.26,.5-.41,.74-1.33,1.78-1.15,2.39,1.01,2.95,.8,.15,1.62,.2,2.43,.16,6.64,.05,13.29,.1,19.93,.09,1.62,0,3.5,.23,4.81-.47,2.39-1.28,4.63-2.46,7.46-2.37,5.26,.15,10.4-2.79,15.84,.5,3.54,2.14,7.47,3.67,9.53,7.41,1.83,3.33,5.22,4.36,8.05,6,2.55,1.47,5.74,1.99,8.71,2.53,2.71,.49,5.01,2.28,6.14,4.79,.55,1.06,.44,2.33,2.16,2.22,.24-.02,.79,.97,.78,1.47-.09,2.83,.4,3.5,3.13,4.16,.71,.23,1.4,.49,2.08,.79,3.59,1.27,5.64,4.22,7.93,6.99,1.59,1.86,3.29,3.61,5.11,5.24,.48,.45,1.4,.43,2.11,.64-.43,.44-.89,.87-1.29,1.34-.12,.19-.16,.43-.09,.64,.57,1.62,.56,3.66,2.96,3.96,1.59,.2,3.16,.58,4.74,.82,.44,.01,.88-.03,1.32-.12-.33-.35-.67-.69-.99-1.05-1.14-1.27-3.42-.83-4.12-2.76-.15-.39-.33-.76-.52-1.13,.4,0,.81,.07,1.19,.21,1.44,.79,2.84,1.66,4.18,2.61,1.43,1.06,2.58,2.63,4.14,3.38,1.94,1.03,4.08,1.62,6.27,1.73,3.02,0,4.47,2.18,6.55,3.52,.5,.33,1.02,.63,1.53,.95-.35-.4-.66-.83-.92-1.29-.16-.48-.26-.98-.3-1.49,.47,.17,1.08,.22,1.36,.54,.57,.67,.79,1.73,1.46,2.21,1.99,1.47,3.42,3.59,4.05,5.98,.74,2.5,2.45,3.57,5.07,3.43,1.57-.08,3.07,.07,4.14,1.63,.88,1.29,1.51,.5,2.04-.55,1.36-2.72,3.49-4.62,6.63-4.59,3.25-.09,6.25,1.77,7.59,4.74,1.37,2.89,2.38,5.96,3.53,8.96,.12,.32,.16,.68,.09,1.02-.32,1.63-.77,3.22-1.02,4.86,0,.71,.08,1.41,.27,2.09,.7-.14,1.39-.31,2.09-.42,2.46-.37,4.91-.75,7.39-1.03,.3-.03,.67,.56,1.01,.86-.34,.23-.7,.41-1.09,.53-.34,.05-.77-.26-1.09-.16-.47,.2-.92,.45-1.33,.76,.34,.33,.73,.6,1.16,.81,.4,.12,.88-.12,1.33-.09,3.33,.22,7.17-.53,9.16,3.1,1.61,2.95,4.19,4.08,7.09,4.82,1.02,.3,2.12,.25,3.11-.15,2.01-1.05,3.72-2.69,5.76-3.66,4.33-2.06,8.83-3.77,13.2-5.76,1.95-.89,3.69-2.23,5.64-3.15,5.12-2.43,10.26-4.78,15.44-7.06,2.29-1.01,4.66-2.19,7.09-2.46,2.08-.12,3.95-1.3,4.95-3.12,.85-1.3,2.39-2.77,3.81-2.99,6.49-1.02,13.03-1.85,19.58-2.29,4.91-.33,9.79,.25,12.94,4.96,.36,.48,.83,.87,1.36,1.14,4.92,2.64,9.83,5.31,14.82,7.8,1.37,.69,2.88,1.03,4.41,1,8.58-.41,17.15-1.35,25.73-1.44,14.13-.15,28.24,.38,42.2,3,13.37,2.5,26.76,4.71,39.42,10.11,8.65,3.69,14.32,9.45,15.76,18.98,.36,2.41,.72,4.83,1.22,7.21,2.48,11.71,2.78,23.23-1.29,34.82-3.71,10.57-6.08,21.61-9.95,32.11-7.36,19.98-15.08,39.82-23.18,59.54-5.88,14.3-12.29,28.4-18.97,42.34-6.49,13.54-13.58,26.8-20.51,40.12-5.38,10.33-10.68,20.73-16.46,30.84-7.23,12.64-14.77,25.1-22.43,37.49-3.81,6.16-7.9,12.13-12.09,18.03-2.81,3.95-5.36,8.08-8.11,12.06-1.98,2.88-4.05,5.68-6.1,8.52-2.35,3.25-4.46,6.71-7.14,9.66-2.11,2.13-3.44,4.91-3.78,7.89-.21,3.38-1.43,6.61-3.52,9.28-1.49,1.77-2.26,4.04-2.16,6.35-.07,2.09-.27,4.16-.6,6.23-.34,2.74-.79,5.47-1.1,8.2-.43,3.9-.06,8.07-1.33,11.66-2.1,5.91-2.65,11.96-3.22,18.03-1.08,11.44-1.85,22.92-2.75,34.38v.04ZM334.18,146.41c.11,.75,.23,1.51,.33,2.26,.19-.04,.36-.07,.55-.11-.28-.64-.56-1.29-.83-1.93-.02-.07-.04-.14-.06-.21,.05-.59,.02-1.19-.09-1.77-.4-1.13-.95-2.21-1.43-3.31-.33,.2-.96,.44-.94,.6,.11,1.34,.35,2.67,.74,3.95,.11,.32,1.15,.33,1.74,.5h0Zm27.93-18.12c-.5-1.21-.96-2.43-1.54-3.6-.1-.2-.68-.16-1.05-.23,.2,1.3,.47,2.6,.81,3.87,.63,.02,1.26-.03,1.88-.15,0,.73-.08,1.45-.24,2.16-.86,2.67-1.69,5.29,.67,7.68,.22,.31,.31,.68,.25,1.05-.46,3.47,1.26,5.74,4.01,7.5,.36,.23,.5,.81,.75,1.23-.44,.31-.92,.56-1.43,.74-.4,.08-.85-.22-1.29-.32-4.57-1.07-5.88,.46-5.98,4.72-.04,1.5,.07,2.99,.06,4.48-.05,.35-.16,.69-.31,1.02-.3-.26-.8-.48-.88-.81-.57-2.12-1.17-4.25-1.54-6.41-.4-2.34-.4-4.78-3.48-5.44-1.08-.27-2.11-.71-3.05-1.31-1.76-1.05-2.84-.7-3.08,1.34-.43,3.74-.8,7.5-.93,11.27-.06,1.7-.43,2.64-2.23,2.46-1.37-.13-1.64,.14-.82,1.37,1.11,1.66,2.07,3.41,3.12,5.11,.05,.07,.54,.02,.58-.09,.57-1.37,.84-.59,.98,.16,.25,1.17,.41,2.35,.5,3.54,.26,4.89-1.2,9.44-2.85,13.96-.6,1.61-1.11,3.25-1.52,4.91-.11,.44,.33,1.01,.5,1.52,.3-.36,.56-.75,.77-1.18,.71-2.04,1.36-4.11,2.07-6.16,.16-.31,.37-.6,.62-.85,.19,.29,.34,.6,.45,.92,.41,1.91-.6,4.03,.86,5.8,.08,.09,0,.29,.02,.44,1.19,7.21,2.16,14.47,3.73,21.59,.43,1.95,2.63,3.53,4.02,5.26,.22,.27,.67,.46,.72,.73,.6,3.47,1.15,6.94,1.74,10.41,.15,.93,.37,1.85,.57,2.78-.69-.69-1.33-1.43-1.91-2.23-.76-1.22-1.22-2.53-2.59-.38-.32,.5-1.85,.35-2.79,.26-.33-.03-.57-.83-.91-1.22-.39-.41-.81-.8-1.24-1.17-.29,.55-.54,1.12-.74,1.7-.12,.41,.06,.92-.08,1.32-.3,.73-.64,1.44-1.04,2.12-.31,.56-1.07,1.35-.92,1.59,.4,.63,1.03,1.08,1.76,1.25,1.62,.19,3.33-.19,4.88,.19,1,.25,2.6,1.64,2.47,2.17-.29,1.21-1.29,2.87-2.33,3.17-3.63,1.06-7.09,2.05-10.24,4.45-1.89,1.43-3.56,1.92-1.41,4.31,.2,.23-.02,.81-.03,1.23-.37-.13-.86-.15-1.09-.41-.55-.6-.96-1.33-1.46-1.98-1.08-1.41-1.92-3.42-3.36-4.05-1.94-.85-4.34-.69-6.55-.87-1.09-.08-2.2-.04-3.28,.13-.36,.05-.62,.69-.92,1.05,.43,.09,.85,.21,1.26,.36,1.03,.39,2.04,.84,3.02,1.33,.23,.12,.45,.82,.35,.93-.3,.3-.7,.47-1.12,.5-.52-.04-1.03-.16-1.51-.36-2.27-.79-3.77-.09-4.5,2.09-.14,.4-.27,.81-.41,1.22-.21-.45-.36-.92-.47-1.4-.15-1.26,.04-2.63-.4-3.75-.61-1.54-2.07-1.42-3.44-.92-.07,.02-.15,0-.21-.05-1.69-1.97-3.98-2.81-6.36-3.59-.94-.37-1.68-1.14-2.01-2.09-.46-2.17-.73-4.37-.81-6.59,.08-.66,.47-1.24,1.05-1.56,2.43-1.02,2.22-2.66,1.67-4.79-.75-2.91-1.06-5.92-1.61-8.88-.12-.65-.38-1.74-.74-1.81-2.1-.43-1.71-1.49-.85-2.72,.98-1.41,.5-2.31-.88-3.05-1.77-.96-4.41-.49-6.5,1.09-.66,.35-1.38,.58-2.12,.69,.09-.7,.28-1.37,.57-2.02,.95-1.49,2.03-2.91,3.11-4.32,.87-1.13,.4-1.82-.54-2.61-1.41-1.18-.96,.19-1.32,.74-.25,.4-1,.53-1.56,.68-.47,.08-.94,.12-1.42,.11,.18-.38,.41-.74,.67-1.08,1.01-.97,1.03-2.58,.06-3.58-.01-.01-.03-.03-.04-.04-.12-.15-.73-.07-1.03,.08-.49,.28-.95,.59-1.39,.94-.26-.38-.53-.75-.77-1.14-.26-.4-.5-.82-.75-1.24-.23,.51-.81,1.23-.64,1.51,1.36,2.4-1.26,3.57-1.58,5.43-.02,.09-.61,.09-.94,.13-.08-1.3-.19-2.6-.21-3.91,.07-.45,.2-.9,.4-1.31-.47,.11-.91,.31-1.3,.59-2.23,2.39-4.43,4.8-6.59,7.25-2.05,2.35-4.02,4.78-6.08,7.13-.44,.37-.92,.68-1.45,.91,.19-.49,.42-.96,.7-1.41,1.68-2.17,3.57-4.19,5.07-6.48,2.67-4.1,5.13-8.34,7.61-12.55,.23-.66,.36-1.35,.36-2.05-.56,.29-1.11,.61-1.68,.85-.29,.08-.59,.11-.88,.11l.03,.05c.55-.59,1-1.25,1.36-1.98,.15-.45-.33-1.1-.52-1.66-.48,.23-1.18,.33-1.41,.71-.92,1.5-1.67,3.12-2.54,4.66-.41,.63-.85,1.23-1.33,1.8-.54-.68-1.08-1.37-1.61-2.04l-.06,.06c1.36-.7,4.4-5.97,4.27-7.42-.07-.29-.16-.57-.26-.85-.37-1.85-.81-3.7-1.06-5.57-.08-1.21-.09-2.42,0-3.62-.95,.67-1.91,1.35-2.87,2.03l-.93-.65c-.08,.33-.16,.65-.24,.98,.4-.13,.81-.27,1.22-.4-.92,1.47-1.85,2.95-2.78,4.42-.03,.05-.21,.02-.33,.02,0-.23-.02-.45-.02-.67,.02-2.01-1.03-2.61-2.85-1.62-1.51,.83-2.69,.19-2.93-1.63-.11-.81,.15-1.8-.23-2.42-.63-.76-1.38-1.42-2.22-1.95-.55,.58-1.02,1.24-1.4,1.95-1.01,2.68-1.55,5.6-2.93,8.06-1.27,2.26-.65,5.85-4.24,6.64-.09,.02-.15,.25-.22,.38-.75,1.29-1.35,2.66-1.78,4.09-.32,1.64-.74,3.86,.07,4.97,.96,1.32,.33,2.37-.12,2.62-1.18,.66-1.03,1.47-1.02,2.48-.04,.59-.23,1.17-.57,1.66-2.73,4.45-5.26,9.04-8.34,13.23-1.43,1.94-.93,5.43-4.42,5.8-.58,.1-1.16,.25-1.72,.43,.08-.68,.2-1.36,.37-2.02,.2-.4,.46-.77,.78-1.08,2.09-2.39,4.04-4.9,5.85-7.51,3.63-5.84,5.55-12.36,6.78-19.08-.01-.68-.24-1.34-.64-1.89-.17-.3-.64-.43-.99-.64,.4-.29,.78-.77,1.22-.84,1.89-.29,2.49-1.36,2.28-3.16-.04-.67,.05-1.34,.26-1.98,.4-1.37,1.67-2.05,1.06-4.22-.8-2.88,.26-6.27,.44-9.44,.16-2.81-1.15-3.71-3.91-2.89-1.46,.43-3.03,.54-4.46,1.05-.68,.36-1.21,.96-1.48,1.68-.16,.73-.22,1.47-.17,2.22-.07,.28-.18,.54-.33,.78-.19-.24-.36-.5-.49-.78-.81-2.29-2.33-2.92-4.33-1.77-1.62,.92-3.19,1.94-4.84,2.8-1.13,.55-2.31,1.01-3.51,1.38-.33,.11-.77-.12-1.15-.19,.29-.3,.53-.75,.88-.89,1-.24,1.99-.56,2.95-.95,2.19-1.25,4.31-2.62,6.35-4.12,.5-.36,.46-1.44,.68-2.19-.64-.07-1.42-.4-1.91-.15-1.82,.85-3.57,1.84-5.23,2.97-1.06,.74-1.63,.93-2.13-.45-.12-.32-.57-.5-.88-.75-.15,.37-.33,.73-.54,1.07-.33,.57-.77,1.06-1.29,1.45-1.38,.71-2.93,1.11-4.28,1.88-3.18,1.81-3.68,5.33-4.69,8.35-1.33,3.96-1.09,4.04,3.14,4.33,.52,.04,1.05,.05,1.57,.14,4.45,.73,9.02,.04,13.06-1.98,.32-.08,.65-.11,.99-.08-.17,.29-.28,.75-.51,.83-4.5,1.46-8.83,3.78-13.85,2.46-1.37-.4-2.8-.51-4.21-.32-1.08,.25-2.01,.92-2.58,1.88-.81,1.9-1.51,3.85-2.1,5.82-.09,.23-.73,.53-.86,.43-1.32-.95-1.26-.95-2.13,.5-.39,.45-.85,.83-1.36,1.12,.03-.54,.15-1.06,.36-1.56,1.17-1.98,2.49-3.86,3.6-5.88,.29-.52,.17-1.88-.06-1.96-2.1-.71-.89-1.5-.18-2.33,.13-.18,.22-.39,.27-.61,.94-2.77,1.91-5.52,2.77-8.31,.06-.55-.17-1.09-.61-1.43-1.76-.68-3.59-1.18-5.4-1.74-.71-.16-1.42-.37-2.1-.63-2.33-1.09-4.57-2.38-6.95-3.37-3.06-1.26-6.56-1.64-8.75-4.61-.46-.36-1.04-.51-1.61-.43-2.83,.26-4.3,2.09-3.97,4.9,.15,1.26,.46,2.5,.6,3.76,.23,.86,.23,1.77,.02,2.64-.45,.94-1.5,2.33-2.15,2.26-.99-.11-2-1.19-2.71-2.09-.44-.57-.1-1.74-.54-2.34-.87-1.02-1.83-1.97-2.86-2.83-.65,.9-1.29,1.81-1.95,2.71v-.04c-.53-.4-1-.99-1.59-1.15-3.59-.91-7.2-1.77-10.82-2.52-.68-.08-1.36,.19-1.81,.71-3.09,5.85-8.05,9.06-14.3,10.61-.54,.21-1.04,.49-1.5,.83,.33,.54,.71,1.06,1.12,1.54,2.86,2.93,6.05,5.6,8.57,8.8,5.34,6.82,10.35,13.9,15.46,20.9,.75,1.24,2.2,1.87,3.61,1.57,4.47-.77,9.06,.04,13,2.29,2.19,1.29,3.44,.92,4.48-1.29,.43-.9,1.88-2.02,1.68-2.39-1.14-2.06,.95-3.59,.67-5.46-.04-.26,.93-.97,1.4-.95,.59,.14,1.07,.56,1.27,1.13,.12,.96,.06,1.93-.19,2.87-.55,2.26-.26,2.67,2,2.59,.53,.07,1.05,.22,1.54,.45-.2,.48-.48,.93-.83,1.33-1.08,.86-3.21,1.62-3.2,2.4,.02,2.56-1.45,2.02-2.88,2.03-.48,.07-.95,.22-1.39,.43l.51,1.37c.58,1.62,1.62,3.25,1.62,4.87-.12,1.4,.61,2.73,1.86,3.37,6.02,3.95,11.34,8.65,14.18,15.44,1.27,3.04,2.74,4.54,6.36,4.15,4.28-.47,8.68,.12,12.97-.29,6.26-.6,8.74,.88,10.15,6.94,.83,3.57,4.91,5.11,8.33,3.45,2.21-1.01,4.54-1.74,6.93-2.19,2.3-.48,4.71-.37,7.02-.84,2.55-.57,5.08-1.28,7.56-2.11,4.26-1.37,8.9-.94,12.83,1.19,3.06,1.59,6.08,3.92,6.61,7.22,.88,5.41,.68,11,.9,16.51,.05,1.34-.13,2.7,.03,4.02,.08,.72,.49,1.37,1.1,1.77,2.05,.88,4.2,1.49,6.4,1.83,7.09,.66,12.42,3.43,14.77,10.64,1.08,3.34,1.24,3.26,4.72,2.93,1.26-.15,2.54-.16,3.81-.03,5.36,.63,10.78,.23,15.99-1.19,1.89-.45,3.5-1.67,4.45-3.36,1.86-2.86,4.03-5.52,6.04-8.29,1.87-2.58,3.77-5.14,5.54-7.8,2.3-3.47,4.4-7.07,6.78-10.48,.94-1.35,2.4-2.33,1.44-4.28-.08-.18,.26-.57,.4-.85,.21,.19,.54,.33,.61,.56,.12,.43,.17,.87,.15,1.32-.06,3.66-.24,7.31-.2,10.96,.04,3.61-.16,7.32,.56,10.82,1.62,7.85,6.43,14.3,11.4,20.12,7,8.16,15.07,15.44,22.95,22.81,3.22,3.01,7.12,5.3,10.71,7.9,.23,.19,.48,.36,.74,.5,2.29,1.3,4.82,2.11,7.44,2.36,1.51,.08,3.67,.61,4.33,1.68,1.15,1.89,2.05,.59,2.77,.18,.88-.5,2.05-1.42,.7-2.65-1.31-1.2-.93-2.3,.21-3.19,1.75-1.38,3.68-2.54,5.42-3.93,2.61-2.1,5.12-4.3,7.6-6.57,.21-.55,.13-1.17-.23-1.64-1.81-1.15-1.85-1.61,.04-2.95,3.23-2.29,6.47-4.57,9.67-6.89,.74-.61,1.45-1.27,2.11-1.97,1.54-1.46,3.08-2.92,4.59-4.4,1.31-1.3,2.56-2.64,3.85-3.94,.64-.81,1.39-1.53,2.24-2.12,2.26-1.18,2.68-2.94,1.82-5.07-1.18-2.65-.31-5.76,2.07-7.41,2.65-2.12,5.76-3.65,8.63-5.5,.86-.56,1.64-1.23,2.31-2.01,.32-.55,.54-1.14,.66-1.77-.6-.1-1.22-.2-1.82-.32-.4-.07-.8-.16-1.19-.24,.12-.4,.27-.79,.46-1.16,.57-1,1.24-1.94,1.74-2.97,.15-.31-.1-.82-.16-1.24-.42,.08-.83,.21-1.22,.38-.86,.47-1.68,1.01-2.53,1.52,.78-.79,1.56-1.58,2.36-2.36,.32-.31,.78-.51,1.02-.87,.19-.31,.3-1.05,.19-1.12-1.94-1.05-1.36-3.05-1.66-4.62-.43-2.31-1.44-3.27-3.66-2.54-.88,.38-1.61,1.03-2.09,1.86-.68,1.35-2.09,2.19-3.6,2.13-1.16,.11-2.26,.59-3.13,1.37-1.11,.93-1.96,1.5-3.32,.46-.57-.18-1.19-.06-1.65,.31-.64,.62-1.18,1.34-1.61,2.12-.56,.91-.94,1.6-1.81,.19-.41-.57-1.07-.9-1.77-.88-.54,.14-.98,.98-1.26,1.6-.39,.88-.52,1.88-.88,2.77-.28,.52-.62,1.01-1.01,1.46-.24-.51-.39-1.06-.43-1.63,.32-2.9-.77-3.08-3.19-2.37-1.32,.39-2.06,.74-2.11-1.14,0-.36-1.23-.88-1.93-.98-2.91-.37-5.74-2.1-8.77-.57-.05,.03-.15-.02-.23-.02-3.77-.26-7.54-.62-11.31-.74-8.53-.28-16.97-1.07-25.14-3.78-5.63-1.87-11.3-3.61-16.89-5.61-2.3-.82-4.54-1.97-5.46-4.62-.44-1.57-1.12-3.05-2.02-4.41-2.76-3.63-4.54-8.22-9.31-10-.32-.12-.46-.72-.64-1.12-.03-.07,.27-.4,.39-.39,1.74,.26,3.78,.07,5.13,.94,2.67,1.71,4.91,4.1,7.45,6.05,2.57,2.13,5.31,4.04,8.2,5.71,4.11,2.1,8.33,3.96,12.64,5.57,2.53,.98,5.37,1.15,7.85,2.22,4.24,1.82,8.7,2.46,13.18,3.08,2.09,.29,4.19,.25,5.64-1.84,.41-.55,1.03-.9,1.71-.97,3,.03,5.65-2.63,8.85-1.13,.29,.13,.88-.15,1.22-.4,3.05-2.33,6.22-4.57,9.09-7.12,2.72-2.43,5.26-5.05,7.62-7.83,1.64-1.91,3.03-4.02,4.12-6.28,1.81-3.78,2.98-7.9,4.96-11.59,2.96-5.51,6.42-10.75,9.61-16.14,.44-.68,.64-1.48,.58-2.28-.43-2.33,.58-3.69,2.54-4.68,2.95-1.5,3.22-2.49,1.57-5.43-.79-1.42-.74-2.24,1.02-3.09,3.62-1.73,5.82-6.16,5.62-10.29-.16-3.3,.46-6.63,.68-9.95,.16-.91,.09-1.85-.19-2.73-.74-1.55-.13-4.72,1.28-5.64,1.18-.73,2.29-1.54,3.34-2.44,.34-.47,.42-1.09,.22-1.64-.64-1.2-4.24-3.4-5.59-3.66-.16-.07-.28-.2-.34-.36,.96-1.42,1.95-2.82,2.92-4.23,.34-.49,.67-.99,1.02-1.49l-.05,.05c.7,.12,1.42,.16,2.13,.14,.5-.06,1.32-.39,1.4-.72,1.32-6.11,3.12-12.16,2.07-18.54-.46-2.79-.69-5.62-1.06-8.43-.12-.56-.29-1.11-.5-1.64,0,.6-.03,1.2-.1,1.8-.14,.81-.38,1.61-.58,2.41-.17,.47-.29,.96-.36,1.46-.26,5.39-.45,10.78-.75,16.16-.03,.56-.68,1.09-1.04,1.62-.1-.67-.54-1.6-.25-1.99,1.38-1.86,1.1-3.92,1.09-6,0-2.17-2.11-5.85-4.05-6.64-.61-.14-1.24-.14-1.85,0-.32,.07-.63,.17-.92,.3,0-.35,.02-.7,.08-1.05,.46-1.72,.94-3.44,1.41-5.16,.17-.56,.17-1.16-.02-1.71l.02,1.72c-.45,.62-.92,1.23-1.33,1.87-.32,.48-.45,1.19-.88,1.49-3.35,2.38-7.28,3.83-11.37,4.19-4.07,.27-8.2-.26-12.29-.52-.51-.03-1-.5-1.5-.77,.52-.17,1.06-.29,1.6-.36,1.04-.02,2.09,.2,3.11,.12,2.27-.1,4.53-.38,6.76-.85,1.6-.4,3.73-1.33,2.84-3.44-.38-.9-2.57-1.11-3.97-1.5-3.16-.88-6.47,.72-9.66-.54-1.53-.6-3.18-.79-3.71-2.78-.39-.51-1.02-.79-1.66-.72-.97,.45-1.89,1.01-2.74,1.65,.19,.28,.32,.67,.58,.82,.54,.27,1.09,.49,1.66,.68-.61,.26-1.24,.46-1.89,.6-1.22,.25-2.48,.31-3.72,.2-1.03-.35-2-.85-2.88-1.48,.83-1.05,1.5-2.81,2.53-3.06,4.68-1.1,9.45-1.92,14.23-2.57,2.9-.4,2.61-.15,2.46-2.75-.16-2.81-1.33-4.44-3.88-5.31-.3-.1-.5-.5-.74-.76,.37-.15,.76-.23,1.16-.22,1.45,.3,2.88,.72,4.27,1.24,4.92,2.06,7.47,.46,7.34-4.68,0-.37,0-.74-.02-1.12-.19-3.47-1.72-4.5-5.12-3.68-1.22,.31-2.48,.39-3.73,.22-2.32-.41-4.62-.95-6.88-1.63-.63-.3-1.18-.76-1.57-1.34-.37-.43-.46-1.25-.89-1.47-1.8-.95-2.07-1.92-1.46-4.05,1.12-3.87,2.84-5.02,6.43-3.33,.73,.37,1.54,.57,2.36,.59,1.15-.02,2.94,.02,3.31-.62,.58-1.01,.19-2.36-1.02-3.5-1.71-1.85-3.29-3.82-4.74-5.89-2.09-2.59-4.18-5.18-6.36-7.7-.65-.75-1.45-.91-1.61,.53-.02,.16-.63,.43-.88,.36-.95-.26-1.87-.62-2.74-1.09-.79-.48-1.5-1.08-2.09-1.79-.5-.61-.67-1.51-1.17-2.12-.72-.79-1.5-1.53-2.32-2.22,.52,.83,1.05,1.66,1.57,2.5,.13,.24,.23,.48,.33,.74-.26-.1-.6-.13-.76-.32-.81-.95-1.97-1.82-2.3-2.94-1.38-4.62-2.46-9.33-3.77-13.99-.43-1.54-.79-3.58-1.91-4.36-2.46-1.64-5.14-2.92-7.96-3.79-1.83-.42-3.73-.45-5.57-.09-1.08,.12-2.05,.97-3.11,1.39-.89,.36-1.81,.63-2.75,.82-.77,.15-1.64-.05-2.39,.17-4.82,1.47-9.51,3.22-14.73,3.37-2.4,.07-5.55,1.06-6.31,4.48-.08,.38-.81,.98-1.07,.89-1.93-.6-2.67,.54-3.43,1.96-.2,.36-1.12,.34-1.72,.49-.15-2.21-.81-.68-1.49-.26-.72,.44-1.6,.61-2.38,.99-.78,.27-1.49,.71-2.07,1.3-1.6,2.23-2,5.4-5.13,6.44-.15,.05-.21,.38-.33,.56-.81,1.2-1.67,2.36-2.41,3.61-.48,.64-.77,1.4-.85,2.2,.09,1.61-.69,2.19-2.04,2.74-.6,.24-1.38,1.57-1.19,1.93,.92,1.72-.08,1.3-1.08,1.24-.71-.04-1.83-.04-2.07,.36-1.03,1.73-1.93,3.54-2.67,5.41-.2,.48-.02,1.53,.32,1.71,.44,.25,1.26,0,1.84-.22,.38-.14,.59-.69,.97-.88,.88-.46,1.81-.81,2.72-1.21-.04,.95-.17,1.89-.38,2.81-.89,2.76-1.92,5.47-2.82,8.22-.13,.41,.12,.95,.2,1.43,.47-.14,.93-.34,1.35-.59,2.04-1.62,4.05-3.28,6.06-4.93,3.43-2.79,7.48-3.79,11.76-4.23,1.24-.08,2.46-.37,3.6-.87,3.95-1.9,8.74,.21,10.99,2.92,.19,.23-.05,.83-.08,1.26-1.98-.29-2.11,1.39-2.81,2.54-.51,.85-1.07,1.95-2.5,1.08-.23-.14-.84,.37-1.29,.52-.64,.21-1.31,.37-1.97,.52-.96,.22-2.42-2.03-2.95,.57,0,.04-.67-.06-1.03-.08-3.55-.12-7.11-.26-10.67-.33-.48,.05-.93,.25-1.3,.57,.6,2.54-1.73,2.74-2.98,3.51-2.15,1.33-4.82,1.9-5.65,4.78-.12,.4-.74,.64-1.05,1.02-1,1.19-2.82,2.46-2.76,3.62,.09,1.71-.75,2.22-1.67,3.04-.38,.34-.98,.85-.93,1.19,.42,2.56-.45,5.36,1.71,7.64,.6,.64,.27,2.13,.37,3.23v.09Zm259.31,84.49l.19,.02c.04,.67,.03,1.35-.03,2.02-.06,.36-.43,.66-.66,.99-.24-.25-.66-.47-.71-.76-.34-2.07-1.25-1.03-2.07-.4-.99,.76-1.98,2.19-2.95,2.19-2.68-.04-4.19,1.64-5.98,3.08-2.68,2.16-4.89,5.04-8.69,5.58-.93,.13-1.75,1.07-2.59,1.68-.2,.15-.44,.62-.37,.71,.21,.25,.57,.56,.85,.54,3.04-.21,6.08-.47,9.11-.72,.29-.02,.57-.09,.84-.13-.19,.19-.37,.38-.57,.55-.6,.54-1.43,.95-1.78,1.61-1.09,2.02-2.97,2.33-4.92,2.55-.74,.09-1.51-.05-2.23,.11-1.81,.54-2.85,2.44-2.31,4.26,0,.03,.02,.06,.03,.09,.8,2.04,1.26,4.2,1.91,6.3,.42,1.31,.57,3.25,1.48,3.75,3.36,1.86,7.01,3.16,10.49,4.82,2.04,.95,4,2.07,5.87,3.33,1.05,.72,.69,1.5-.58,1.8-2.01,.46-2.12,1.6-1.01,3.11,.19,.23,.35,.47,.49,.74,1.32,2.83,1.99,3.01,4.35,1,2.72-2.32,5.4-4.69,8.13-7.01,.42-.25,.87-.42,1.35-.52-.3,.31-.57,.66-.8,1.03-.26,.61-.49,1.23-.68,1.87,.61-.34,1.23-.67,1.82-1.04,.17-.11,.25-.37,.38-.55,3.34-4.75,7.68-8.73,12.7-11.65,.84-.66,1.38-1.62,1.5-2.68,.43-3.02,1.13-5.89,3.29-8.18,3.53-3.74,6.96-7.61,10.71-11.13,4.73-4.44,9.75-8.58,14.61-12.89,1.31-1.16,2.89-2.15-.09-3.66-1.4-.71-2.33-1.88-4.05-1.12-.36,.1-.75,.07-1.09-.09-2.24-.9-4.53-1.72-6.68-2.81-1.67-1.04-3.86-.56-4.95,1.08-1.6,2.04-3.44,3.9-5.22,5.8-.18,.19-.63,.15-.95,.21,.06-.27,.14-.53,.26-.77,1.74-2.91,3.52-5.8,5.2-8.74,.12-.53-.06-1.08-.45-1.46-2.13-1.26-4.33-2.42-6.58-3.46-2.05-.91-3.91-3.09-6.54-1.27-.14,.1-.56-.13-.81-.26-2.09-1.1-3.33-.22-4.31,1.66-.21,.4-1.03,.88-1.36,.77-2.12-.98-4.63-.28-5.93,1.66-.78,.74-1.59,1.45-2.43,2.11-1.35,1.34-3.33,2.55-3.78,4.17-.92,3.26-.99,6.74-1.42,10.13v.02Zm41.68-107.05c-1.3,.45-2.53,1.09-3.65,1.88-1.71,1.53-2.99,3.54-4.64,5.15-1.93,1.89-3.18,3.76-1.41,6.43,.23,.35,.07,.95,.09,1.43-.48-.07-.95-.18-1.41-.32-1.09-.4-2.17-1.18-3.26-1.18-1.27,0-4.08,4.72-3.44,5.93,1.36,2.61-.57,6.06,2.22,8.23,.14,.11,.16,.42,.16,.64,.08,3.81,2.61,5.6,6.25,4.47,.79-.22,1.6-.34,2.41-.36,2.39,.1,4.54-1.47,5.17-3.78,.34-.3,.81-.42,1.26-.32,3.05,3.16,6.41,2.03,9.79,.8,13.19-4.81,26.35-9.68,39.59-14.38,4.71-1.68,9.61-2.8,14.35-4.42,1.02-.35,2.47-1.82,2.36-2.61-.18-1.45-1.57-1.78-3.3-1.71-2.58,.17-5.17-.16-7.62-.98-4.22-1.57-8.23-3.72-12.3-5.68-2.79-1.34-5.34-3.19-8.75-2.88-4.12,.39-8.28,.43-12.42,.66-1.99,.11-4.22-.75-5.72,1.48-.2,.3-.97,.27-1.49,.3-2,.12-4.35-.42-5.92,.45-2.52,1.49-5.57,1.78-8.32,.79h0Zm-473.12,23.51c.04,.52,.05,1.05,.14,1.56,.05,.2,.19,.37,.39,.44,.21-.03,.38-.17,.46-.36,.48-1.73,.87-3.48,1.15-5.26,.13-1.34,.06-2.69-.21-4.02-.79-4.34,.17-8.81,2.68-12.44,.92-1.58,1.61-3.28,2.04-5.05,.27-.95-.22-1.42-1.46-.96-1.2,.44-3.52,.88-3.75,.46-1.54-2.87-4.85-2.64-6.95-4.4-.42-.42-.93-.73-1.49-.91-5.57-1.01-11.13-2.08-16.74-2.85-2.92-.4-5.94-.12-8.89-.42s-5.87-.92-8.79-1.41-5.82-1.07-8.75-1.4c-.6-.07-1.53,.68-1.87,1.29-.2,.37,.36,1.26,.72,1.82,.51,.82,1.08,1.6,1.71,2.33,1.25,1.46,2.27,3.47,3.87,4.21,4.59,2.11,9.01,5.09,14.51,4.22,.9-.11,1.81,.06,2.61,.48,2.83,1.5,5.66,3,8.34,4.74,6.19,4.02,12.22,8.29,18.46,12.22,1.77,1.12,2.43,2.23,2.05,4.16-.1,.51-.15,1.03-.21,1.56h-.01Zm131.91,68.26s-.07,0-.11,0c.11,1.04,.25,2.07,.31,3.11-.02,.35-.1,.69-.22,1.02-.29-.15-.59-.28-.87-.44-.35-.21-.68-.44-1.02-.67-.23,.44-.41,.89-.54,1.37-.46,2.06-.81,4.14-1.03,6.23,.06,1.31,.26,2.6,.59,3.87,.17,1.12,.67,2.37,.38,3.36-1.02,3.4,1.46,7.99,4.95,8.75,.35,.08,.85,.22,.98,.47,1.19,2.49,2.76,2.34,4.88,1.1,.68-.4,1.95,.21,2.95,.36-.28,.68-.51,1.39-.85,2.05-.35,.66-.75,1.29-1.18,1.91-.97,1.44-.56,2.29,1.04,2.87,.75,.41,1.47,.87,2.14,1.4,1.13,.66,2.3,1.26,3.45,1.88,.05-1.21-.08-2.43-.39-3.6-.63-1.46-.79-2.72,.42-3.79,.69-.4,1.42-.72,2.19-.94,1.21-.58,1.15-1.23,.56-2.33-.59-1.39-2.07-2.18-3.55-1.88-1.47,.11-1.36-1.12-.75-2.05,.3-.46,.99-.64,1.45-1.02,.45-.41,.88-.84,1.29-1.3-.63-.33-1.27-.99-1.87-.94-2.11,.15-2.4-.87-2.17-2.61-.06-.67-.25-1.33-.57-1.92-.31,.6-.65,1.19-.92,1.81-1.13,2.55-2.18,5.14-3.43,7.62-.23,.46-1.29,.5-1.96,.73,.22-.5,.43-1,.67-1.5,.19-.4,.59-.81,.57-1.2-.15-2.52,3.16-3.91,2.14-6.71-.05-.12,.31-.5,.54-.6,2.31-1,2.29-2.98,1.95-4.94-.44-2.57-1.03-5.12-1.7-7.63-.3-.75-.75-1.43-1.33-2-.32-.28-.69-.5-1.08-.66-.19,.37-.31,.78-.34,1.2,.5,3.71,1.09,7.42,1.59,11.14,0,.59-.1,1.18-.28,1.74-.53-.41-1.03-.86-1.48-1.36-.19-.24-.06-.72-.14-1.09-.67-3.34-1.23-6.71-2.05-10.01-.65-2.39-1.47-4.73-2.45-7.01-.39-.6-1.01-1.02-1.71-1.18-.19-.06-.94,.83-.99,1.33-.09,1.34-.11,2.69-.05,4.03h.01Zm-110.95-76.62c.13-.35,.3-.81,.47-1.26,.34,.34,.7,.67,1.02,1.02,.38,.43,.71,1.24,1.09,1.26,1.73,.1,1.93,1.19,2.21,2.55,.31,.83,.84,1.56,1.52,2.13,.11,.12,1.05-.2,1.12-.46,1.31-4.84-.4-9.54-.82-14.29-.29-1.22-.71-2.41-1.25-3.54-.1-.47-.16-.95-.16-1.43-.51,.2-1,.44-1.46,.73-.35,.26-.51,.76-.86,1.02-1.62,1.26-2.42,4.45-5.54,2.31-.4-.27-1.37,.02-1.93,.32-2.33,1.13-4.58,2.42-6.73,3.87-2.51,1.84-4.26,4.33-4.08,7.65,.03,.58,.81,1.12,1.26,1.68,1.57-2.1,1.23,.2,1.47,.71,.33,.65,.35,1.46,.65,2.13,.81,1.96,1.75,3.87,2.8,5.71,.68,1.1,3.54,.52,3.24-.36-.93-2.74,1.32-1.49,2.01-1.6,3.24-.55,3.78-1.37,2.65-4.41-.19-.53-.22-1.57,.06-1.74,1.58-.95,1.84-2.24,1.25-4.02h.01Zm312.35,165.3c-.14,.05-.32,.06-.4,.16-2.22,2.54-6.43,3.47-5.64,8.43,.4,2.47-.48,4.43,2.48,6.42,2.3,1.55,2.95,.62,4.05-.44,3.01-2.89,5.97-5.84,8.78-8.93,.67-.73,1.19-2.42,.8-3.1-1.09-1.62-2.36-3.1-3.81-4.41-.12-.12-.8,.23-1.19,.43-1.6,.81-2.84,2.86-5.08,1.45h0ZM217.6,154.98c.27-1.91-.54-2.67-1.92-1.85-1.29,.75-2.48,1.65-3.56,2.68-3.06,2.95-5.97,6.08-9.61,8.38-.61,.55-1.13,1.19-1.54,1.91,.76,.54,1.6,.94,2.5,1.19,1.15,.09,2.33-.44,3.5-.44,3.32-.02,6.64,.12,9.96,.12,.43-.08,.81-.34,1.03-.72,.64-1.18,1.19-2.41,1.63-3.68,.43-1.32-.01-2.04-1.57-1.67-.22,.05-.8-.41-.78-.61,.08-1.77,.25-3.54,.39-5.3h0Zm379.9,66.05c1.26,.34,2.64,1.19,3.74,.92,2.51-.61,4.94-1.54,7.22-2.76,.98-.71,1.54-1.86,1.48-3.07-.56-1.8,.36-2.24,1.53-2.88,1.13-.53,2.19-1.21,3.14-2.02,.34-.66,.32-1.44-.03-2.09-.45-.52-1.14-.76-1.81-.64-2.47,1.19-4.78,2.74-7.29,3.85-2.74,1.22-5.7,1.96-8.43,3.19-1.02,.46-2.36,1.74-2.33,2.6-.07,1.54,1.13,2.84,2.66,2.9,.04,0,.08,0,.11,0h0Zm-168.67,141.71c0-2.71,.03-5.99-.03-9.28-.11-.58-.32-1.14-.61-1.65-.27,.64-.83,1.29-.77,1.9,.26,3.41,.5,6.8-.57,10.12-.08,.26-.21,.5-.31,.75-.18-.21-.33-.43-.53-.62-.71-.66-1.61-1.98-2.12-1.85-2.4,.61-1.35-.98-1.36-1.85-.04-2.5,0-5.02-.12-7.52-.02-.49-.71-.95-1.08-1.42-.31,.49-.52,1.03-.64,1.6,0,5.36,0,10.73,.11,16.1,.03,1.66,1.07,3.74,.39,4.88-1.29,2.16,.69,1.92,1.3,2.26,3.13,1.73,5.62,.29,5.81-3.23,.17-3.2,.35-6.41,.55-10.19v-.02ZM579.44,71.26c.09,.57,.22,1.61,.44,2.63,.36,1.61,1.09,2.11,2.68,1.08,1.47-.9,3.03-1.63,4.65-2.19,.43-.15,1.25,.32,1.68,.73,.86,.81,1.55,1.81,2.38,2.66,.34,.23,.72,.4,1.12,.5,.06-.35,.27-.75,.16-1.05-.89-2.57-1.5-5.31-2.86-7.61-1.23-2.19-3.87-3.16-6.23-2.27-2.42,.74-4.07,2.99-4.04,5.52h0Zm-96.93,222.36c-.81-1.45-1.23-3.12-1.88-3.22-3.81-.55-9.58,4.66-9.57,8.47,.04,.77,.45,1.48,1.08,1.91,2.09,.96,4.15,.77,5.71-1.12,1.6-1.95,3.09-4,4.66-6.04Zm152.86-170.45c.1,1.48,.15,2.68,.27,3.85,.08,.35,.22,.68,.4,.99,1.47-.64,1.31,.89,1.93,1.4,1.71,1.41,2.23,4.47,5.57,3.68,1.07-.25,1.51-.23,1.06-1.32-.26-.61-.6-1.19-.88-1.8-1.84-3.95-3.64-7.93-5.54-11.85-.26-.54-1.04-.82-1.58-1.22-.29,.38-.51,.8-.67,1.26-.25,1.77-.41,3.55-.56,5.01h0Zm-311.7,45.71c-.2,.5-.43,.98-.71,1.43-.05,.07-.61-.13-.88-.29-.38-.25-.74-.53-1.08-.84-.22,.52-.38,1.07-.46,1.64-.08,2.05-.08,4.1-.09,6.16,0,.26,.09,.7,.24,.74,2.11,.71,1.59,2.29,1.35,3.81-.01,.39,.02,.78,.11,1.16,.33-.23,.9-.41,.97-.71,.34-1.51,2.18-2.39,1.67-4.28-.15-.9-.17-1.82-.07-2.72,0-.5,.11-.99,.16-1.49,2.25,.56,1.17-1.27,1.31-2.01,.19-1.34,.26-2.69,.21-4.05,0-.11-.6-.36-.85-.29-.4,.11-.92,.71-1.09,.61-1.84-1.11-1.43-.15-.79,1.12h0Zm272.99,39.72c1.32-.14,2.63-.38,3.91-.74,.77-.28,1.33-1.12,1.98-1.72-.7-.75-1.3-2.01-2.12-2.17-2.74-.57-5.57-.73-8.37-1.08-1.36-.17-1.78,.29-1.33,1.64,.66,1.94,3.71,4.07,5.94,4.09h0Zm-43.82,60.8c1.29-.83,2.86-1.27,3.12-2.11,.49-1.61-.74-2.66-2.33-3.23-.77-.21-1.45-.66-1.93-1.3-1.05-1.95-2.08-1.67-3.48-.42-.66,.45-1.41,.75-2.2,.88-.38,.03-.76-.02-1.13-.12,.18,.5,.22,1.13,.55,1.46,.8,.76,1.67,1.44,2.6,2.02,1.5,.95,3.05,1.8,4.81,2.81h0ZM353.91,79.2c2.09-1.81,4.61-3.45,6.39-5.68,2.22-3.02,4.24-6.19,6.02-9.49,.91-1.62,1.7-3.31,2.38-5.04,.14-.34-.26-.92-.42-1.38-.29,.14-.72,.2-.85,.43-1.2,2.18-2.34,4.39-3.52,6.58-.33,.66-.72,1.29-1.16,1.89-3.05,4-6.12,7.98-9.18,11.97-.11,.18-.21,.37-.29,.57,.13,.03,.26,.06,.63,.15h0Zm241.61,176.66c.51,.84,1.12,2.89,2.47,3.64,.94,.52,2.98-.54,4.32-1.29,.75-.42,1.1-1.61,1.5-2.52,.05-.12-.67-.68-1.1-.88-1.28-.6-2.63-1.04-3.88-1.68-2.63-1.37-3.19-1.09-3.31,2.72h0ZM475.84,3.5c.05,.18,.09,.36,.13,.53,.41-.25,.81-.5,1.23-.74-.37-.57-.68-1.59-1.12-1.65-2.23-.45-4.5-.59-6.77-.41-2.41,.36-4.7,1.49-7.04,2.29-.52,.18-1.02,.38-1.54,.57,.53,.33,1.11,.58,1.71,.75,.74,.07,1.48,.04,2.22-.09,3.73-.4,7.45-.83,11.18-1.26h0Zm-56.25,512.68c-.38,.15-.77,.29-1.18,.45,.32,.22,.65,.42,.95,.66,.35,.28,.67,.59,1,.89-.43,.2-.85,.39-1.27,.6-.38,.19-.74,.41-1.11,.62,.35,.22,.7,.47,1.06,.67,.41,.24,.84,.45,1.26,.67-.39,.23-.79,.45-1.17,.69s-.77,.52-1.15,.78c.35,.23,.68,.49,1.05,.7,.46,.27,.93,.52,1.4,.78-.5,.22-1.02,.42-1.5,.67-.3,.17-.58,.37-.85,.59,.18,.22,.33,.57,.54,.61,1.52,.31,3.05,.58,4.58,.8,.35-.02,.69-.11,1.01-.26-.35-.18-.71-.33-1.04-.53-.5-.29-.98-.62-1.47-.93,.45-.21,.91-.42,1.36-.63,.37-.17,.74-.33,1.12-.5-.33-.2-.67-.4-1-.6-.44-.28-.88-.56-1.31-.84,.36-.26,.71-.53,1.08-.8,.32-.23,.65-.45,.97-.67-.33-.13-.67-.22-.98-.39-.46-.24-.89-.53-1.33-.8,.34-.31,.68-.61,1.03-.91,.19-.17,.4-.33,.6-.5-1.19-.59-2.38-1.18-3.64-1.81h0Zm121.43-236.34c-.21-.12-.5-.39-.63-.33-1.27,.58-2.88,.92-3.67,1.92-.97,1.23-1.5,2.06-3.08,.98-.36-.25-1.1,.05-1.67,.09-.01,.48,.06,.96,.22,1.42,.8,1.33,1.69,2.6,2.6,3.85,.12,.16,.85,.12,.86,.08,.16-.72,.24-1.45,.33-2.18,.53,.12,1.43,.47,1.52,.33,1.21-1.96,2.3-3.99,3.5-6.16h0Zm-118.16,160.72c-1.41,.46-2.67,.85-3.91,1.3-.36,.19-.7,.43-1,.71,.37,.27,.77,.51,1.17,.73,.52,.24,1.08,.4,1.63,.6-.54,.22-1.08,.42-1.63,.64-.38,.15-.76,.34-1.14,.5,.3,.36,.65,.68,1.05,.93,.38,.17,.92-.02,1.31,.13,.29,.18,.49,.47,.55,.8,.04,.18-.24,.55-.45,.62-.7,.23-1.43,.37-2.15,.54,.75,.22,1.51,.43,2.26,.66,.13,.04,.34,.16,.34,.25-.06,2.74,1.79,.63,2.65,1.02,.1,.05,.35-.21,.54-.33-.18-.17-.37-.33-.57-.47-.5-.34-1.02-.67-1.54-1.01,.51-.27,1.03-.53,1.53-.81,.41-.23,.8-.5,1.19-.74-.38-.17-.76-.34-1.13-.53-.5-.26-1-.53-1.5-.79,.49-.23,.98-.46,1.46-.7,.43-.22,.85-.45,1.27-.67-.36-.27-.75-.5-1.15-.7-.26-.11-.68,.08-.87-.06-.35-.28-.62-.66-.77-1.08-.04-.12,.51-.51,.85-.66,.42-.15,.85-.26,1.29-.33-.44-.2-.88-.4-1.26-.57v.02Zm161.07-205.44c.16-.1,.81-.3,1.03-.73,.14-.49,0-1.01-.33-1.38-1.28-.92-2.61-1.76-4-2.5-.8-.38-1.64-.67-2.5-.87-.53-.11-1.06-.19-1.6-.23-.04,.56,0,1.13,.14,1.68,.98,2.38,3.93,4.08,7.26,4.03Zm-273.16-50.36c-.19,.05-.39,.11-.57,.17,.32,.41,.64,.82,.95,1.24,.21-.41,.39-.84,.54-1.28,.41-1.81,.87-3.63,1.15-5.46,.37-2.43,.61-4.87,.88-7.31-.03-.29-.12-.57-.26-.82-.2,.26-.54,.5-.57,.77-.19,1.3-.03,2.73-1.71,3.31-.25,.09-.37,.79-.38,1.22-.03,2.72-.02,5.44-.02,8.16h0Zm322.11-65.58c-.22-.86-.5-1.71-.81-2.54-.22-.43-.61-.74-1.09-.84-.26-.03-.73,.51-.87,.89-1.06,2.5-.77,5.37,.77,7.61,.21,.32,.71,.45,1.08,.66,.22-.35,.4-.73,.51-1.12,.16-1.33,.24-2.67,.41-4.65h0Zm-328.07,24.87s-.09,0-.13,.02c-.15,1.71-.33,3.41-.46,5.12,.02,.27,.08,.53,.18,.78,.16-.22,.29-.46,.39-.71,1.23-4.85,1.49-9.9,.76-14.85-.19-.49-.46-.95-.81-1.35-.19,.45-.32,.93-.37,1.41,.12,3.19,.29,6.4,.44,9.59Zm-85.07-28.4l.19,.02c-.05,.44-.04,.89,.01,1.33,.28,1,.66,1.96,1,2.95,.35-1.03,.59-2.09,.71-3.16,.05-2.85-.09-5.71-.17-8.56-.02-.18-.07-.36-.15-.54-.17,.22-.31,.47-.4,.74-.42,2.4-.8,4.82-1.19,7.23v-.02Zm202.27,273c1.04-.5,2.05-.99,3.08-1.48,.27-.13,.56-.24,.84-.36-.27-.09-.53-.21-.78-.35-.51-.34-.99-.72-1.49-1.09,.51-.26,1.01-.54,1.54-.76,.26-.09,.53-.15,.81-.18-.27-.18-.59-.56-.8-.5-1.15,.29-2.27,.67-3.4,1.03-.45,.14-.91,.29-1.36,.43,.87,.26,1.67,.7,2.36,1.3-.33,.31-.68,.6-1.06,.85-.46,.21-.93,.4-1.42,.54,.52,.18,1.05,.35,1.7,.57h0ZM586.06,83.47c-.62-.47-1.31-1.29-1.63-1.17-.82,.45-1.58,1-2.26,1.65,.73,.81,1.46,1.62,2.18,2.43,.51-.88,1.02-1.76,1.7-2.92h0Zm1.22,129.3c1.91,.17,2.61-.68,2.39-2.15-.11-.71-.82-1.32-1.26-1.97-.64,1.1-1.29,2.19-1.86,3.32-.06,.12,.47,.54,.73,.81h0Zm-346.63-42.02c.77-.29,1.81-.64,2.8-1.1,.32-.15,.52-.56,.77-.85-.38-.14-.78-.45-1.13-.4-1.53,.22-3.05,.53-4.55,.91-.6,.26-1.17,.61-1.68,1.03,.59,0,1.18-.04,1.76,.02s1.15,.21,2.02,.38h0Zm254.18-78.12c.11,.47,.2,.87,.3,1.27,.3-.3,.78-.57,.88-.92,.44-1.77,.81-3.57,1.12-5.36,.05-.31-.35-.7-.54-1.05-.23,.27-.41,.57-.55,.9-.43,1.72-.81,3.46-1.2,5.16h0Zm-188.17,109.03c1.05,2.06,2.29,4.49,3.53,6.92,.06,.12,.2,.19,.3,.29,.04-.19,.16-.4,.11-.54-.92-2.5-1.83-5.02-2.81-7.5-.1-.26-.53-.38-.8-.57-.06,.28-.13,.55-.33,1.4h0Zm-5.28-63.14c-.62-2.23-1.24-4.51-1.9-6.79-.08-.29-.39-.52-.59-.78-.04,.35-.04,.7,0,1.05,.49,2.25,1.01,4.49,1.54,6.73,.11,.45,.3,.88,.44,1.31,.15-.46,.32-.92,.53-1.53h-.02Zm235.17,138.12l1.07-.46c.67-.51,1.26-1.11,1.75-1.78,.11-.19-1.12-1.46-1.22-1.39-.85,.47-1.59,1.1-2.17,1.88-.21,.32,.36,1.15,.57,1.76h0ZM360.98,66.5c.39-.29,.62-.38,.72-.55,1.44-2.43,2.87-4.86,4.27-7.3,.07-.12-.09-.36-.14-.54-.12,.08-.28,.12-.35,.22-1.53,2.37-3.05,4.72-4.54,7.11-.13,.21,.02,.58,.04,1.05h0Zm249.21,134.18c-.66-.95-1.05-1.5-1.43-2.05l-1.98,2.98c.39,.23,.91,.73,1.14,.62,.8-.45,1.55-.97,2.26-1.55h0Zm-255.49-55.94l-3.76-3.07c-.2,.33-.6,.95-.58,.96,1.24,.88,2.51,1.71,3.8,2.52,.05,.04,.29-.22,.54-.41Zm-89.45,38.02c.69-.74,1.29-1.56,1.77-2.44,.15-.76,.15-1.55,.02-2.31-.42,.09-1.14,.06-1.2,.26-.41,1.26-.68,2.57-.97,3.86-.03,.12,.17,.29,.39,.63h0Zm304.47,11.93c-.05,.71-.16,.99-.06,1.15,.33,.49,.68,.95,1.06,1.4,.15-.49,.25-1,.3-1.51,.02-.82-.06-1.64-.24-2.44-.11-.43-.55-.77-.84-1.15-.18,.41-.3,.83-.36,1.27,0,.43,.06,.86,.16,1.29h0Zm-78.78-92.72c-.58-3.06-1.11-5.84-1.66-8.61-.05-.23-.29-.43-.44-.64-.1,.26-.15,.54-.15,.82,.52,2.78,1.06,5.55,1.63,8.31,.12,.31,.28,.61,.49,.87,.07-.35,.13-.7,.14-.76h0ZM405.6,27.46c-.57-.96-.92-1.57-1.26-2.17l-2.36,2.78c.25,.17,.55,.54,.73,.49,.99-.31,1.95-.72,2.89-1.09Zm-61.95,207.01c-.66-.25-1.29-.57-1.87-.97-.27-.23-.23-.82-.33-1.26-.45,.49-.81,1.05-1.06,1.67-.1,.57,.09,1.16,.5,1.57,.58,.29,1.25,.37,1.88,.23,.28-.04,.47-.64,.89-1.25h-.01Zm19.34-160.19c.2-.09,.4-.19,.57-.33,1.19-1.52,2.38-3.04,3.56-4.57,.08-.1,.05-.28,.08-.42-.19,.02-.46-.04-.56,.06-1.2,1.38-2.4,2.78-3.55,4.2-.16,.2-.07,.61-.1,1.06h0Zm-101.33,112.93c.41,.58,.67,.95,.93,1.33,.47-.9,.88-1.82,1.23-2.78,.11-.34-.31-.85-.49-1.28-.54,.88-1.08,1.76-1.68,2.73h0Zm160.1,196.52c1.28-.57,2.39-1.08,3.5-1.57,.25-.1,.51-.18,.77-.24-.26-.18-.55-.55-.75-.5-1.22,.27-2.42,.63-3.62,.98-.45,.13-.88,.33-1.32,.5,.45,.27,.9,.54,1.41,.85v-.02Zm-156.06-217.25c-.24,.34-.44,.7-.6,1.09,.99,.85,2.03,1.67,3.09,2.45,.2,.08,.42,.04,.58-.09,.1-.18,.1-.4,0-.57-.95-.92-1.92-1.81-3.07-2.88h0Zm62.17-22.92c.47,.63,.87,1.15,1.26,1.68,.31-.53,.92-1.09,.87-1.57-.07-.57-.72-1.08-1.12-1.61-.3,.45-.58,.88-1.01,1.51Zm91.84,383.31c-.54,.21-1.05,.4-1.57,.64-.02,0,.08,.49,.17,.5,1.64,.24,3.29,.45,4.93,.64,.08,0,.19-.25,.29-.38-1.25-.46-2.5-.91-3.83-1.4h0Zm185.97-322.95c-.81,.54-1.53,1.02-2.24,1.49,.46,.29,1.05,.92,1.34,.81,.69-.38,1.33-.85,1.89-1.4-.26-.24-.53-.48-1-.91h0Zm-106.73-74.22c-.04,.35-.03,.71,0,1.06,.25,.78,.55,1.54,.9,2.27,.39,.68,.81,1.33,1.27,1.97-.11-.7-.26-1.39-.45-2.08-.26-.77-.57-1.52-.93-2.26-.24-.35-.51-.68-.81-.98h0Zm24.1,72.66c.07-.03,.14-.06,.21-.1,1.05-.93,2.09-1.87,3.11-2.83-.08-.16-.18-.32-.3-.46-1.09,.85-2.21,1.68-3.27,2.55-.16,.13-.09,.52-.13,.79,.13,.02,.27,.03,.4,.05h-.01Zm-223.82-18.36c-.97-1.21-1.18-1.46-1.39-1.73-.58,.88-1.17,1.75-1.71,2.65-.05,.09,.29,.55,.3,.54,.94-.47,1.87-.97,2.8-1.47Zm125.04,195.51c.42,.02,.85,.01,1.27-.02,.17-.02,.32-.21,.48-.32-.09-.1-.17-.26-.29-.3-1.45-.5-2.9-1.01-4.36-1.46-.24-.08-.55,.1-.83,.16,.05,.19,.04,.5,.15,.54,1.16,.49,2.35,.93,3.58,1.4h0Zm-3.88-33.47c-.95-1.04-1.95-2.17-3.01-3.26-.09-.09-.51,.12-.78,.19,.07,.26,.17,.51,.31,.74,.76,.98,1.54,1.95,2.33,2.9,.18,.16,.38,.3,.6,.4,.11-.19,.21-.36,.56-.98h0Zm-106.31-116.43c-.39,.57-.69,.81-.65,.98,.2,.92,.46,1.83,.78,2.72,.03,.09,.6-.01,.92-.03-.31-1.09-.62-2.19-1.05-3.67Zm-122.17-55.45c-.61-.71-1.09-1.25-1.56-1.79-.32,.33-.97,.86-.91,.97,.4,.62,.88,1.19,1.42,1.69,.02,.02,.51-.42,1.05-.86h0Zm123.27,28.21c.31,.51,.57,.94,.82,1.37,.28-.56,.48-1.16,.61-1.77-.04-.53-.18-1.05-.4-1.54-.32,.59-.64,1.19-1.04,1.94h0Zm3.53,24.09c-.36,.71-.68,1.06-.6,1.23,.32,.6,.68,1.18,1.08,1.73,.21-.25,.64-.57,.59-.74-.3-.76-.66-1.51-1.06-2.23h0Zm-29.67-44.3l-.76-.92-.58-1.05c-.39,.57-.74,1.17-1.05,1.78-.06,.15,.37,.74,.51,.72,.64-.13,1.26-.31,1.88-.54h0Zm279.56,82.1c.35-.39,.51-.57,.67-.75-.79-.62-1.57-1.25-2.38-1.85-.05-.04-.3,.18-.47,.28l2.17,2.32h0Zm-64.99-112.27c-.12-.5-.19-.85-.27-1.19-.22,.32-.39,.66-.52,1.02-.18,.93-.26,1.88-.4,2.81,.12,0,.33,.02,.34-.02,.3-.9,.59-1.81,.85-2.63h0Zm83.34,65.44c-.33,.7-.63,1.05-.54,1.2,.35,.59,.73,1.17,1.16,1.71,.21-.29,.66-.68,.59-.86-.34-.72-.74-1.41-1.2-2.06h0Zm-290.18-86.07c-.18-.5-.46-1.3-.77-2.1-.02-.03-.24,.02-.36,.03,.08,.77,.16,1.55,.25,2.32,0,.07,.02,.14,.05,.21,.2,.4,.42,.79,.63,1.19,.05-.43,.11-.85,.21-1.65h0Zm203.43,30.96c-.2-.57-.34-.95-.47-1.32-.2,.43-.42,.86-.6,1.29-.16,.33-.27,.69-.33,1.05,0,.46,.02,.92,.08,1.38,.44-.82,.88-1.64,1.31-2.42h0Zm-152.54,60.25c-.91-.83-1.2-1.1-1.5-1.37-.35,.37-.64,.8-.85,1.26-.05,.16,.51,.76,.77,.74,.56-.13,1.09-.34,1.58-.64Zm-132.89-50.79l1.27,.14c.2-.46,.32-.96,.35-1.46-.03-.26-.6-.64-.93-.64-.43,0-1.14,.29-1.19,.57-.08,.42,.3,.92,.49,1.39h0Zm-12.61-64.2c.46-.57,.87-1.18,1.23-1.81,.07-.14-.29-.5-.45-.74-.44,.48-.85,.98-1.23,1.5-.07,.11,.17,.43,.45,1.06h0Zm221.99,243.53v-2.78c-.12,.75-.28,1.5-.36,2.26-.09,.81-.13,1.64-.19,2.46,.23-.77,.45-1.54,.56-1.93h0Zm-99.46-240.78c-.83,.12-1.46,.22-2.1,.32,.93,.19,1.85,.46,2.79,.56,.32,.03,.67-.33,1.02-.5-.62-.13-1.24-.27-1.71-.37h0Zm18.05,100.87c-.3,.66-.6,1.06-.51,1.22,.36,.5,.76,.96,1.19,1.39,.2-.26,.63-.64,.57-.77-.37-.64-.78-1.26-1.25-1.84h0Zm-4.3-4.36c-.35,.58-.75,.96-.7,1.24,.07,.37,.5,.68,.78,1.02,.2-.34,.56-.67,.57-1.03,.02-.32-.33-.66-.66-1.23h0Zm196.16-98.63c.5-.92,.95-1.72,1.35-2.54,.04-.08-.18-.29-.27-.43-.58,.81-1.17,1.63-1.73,2.45,0,0,.26,.21,.66,.51h0Zm-33.18,47.59c-.29-.46-.5-.8-.71-1.14-.19,.33-.54,.66-.51,.98,.1,.48,.27,.95,.5,1.39,.23-.4,.47-.78,.74-1.22h-.01Zm-79.9,225.29c.71-.23,1.22-.39,1.73-.55-.46-.26-.96-.45-1.47-.57-.45,.06-.89,.2-1.29,.43,.36,.24,.73,.48,1.03,.69h0Zm.02,10.11c.73-.1,1.19-.16,1.64-.23-.61-.31-1.25-.57-1.91-.77-.33-.07-.75,.23-1.13,.36,.52,.23,1.04,.46,1.4,.62h0Zm-82.27-173.52c.4-.54,.84-.86,.82-1.16-.02-.29-.49-.55-.76-.82-.23,.24-.66,.47-.66,.71,0,.34,.3,.68,.6,1.27h0Zm79.83,313.1c.59-.27,1.07-.5,1.56-.72-.39-.14-.8-.23-1.21-.26-.39,.09-.77,.23-1.12,.43,.26,.19,.5,.36,.77,.56h0Zm128.6-272.7c-.32,.37-.6,.78-.84,1.21-.05,.15,.25,.43,.39,.66,.35-.2,.65-.46,.91-.77,.09-.16-.22-.55-.47-1.11h0Zm-57.53-96.45c.34-.49,.65-1.01,.92-1.55,.05-.14-.21-.41-.33-.63-.35,.36-.68,.75-.97,1.16-.08,.12,.15,.44,.38,1.02Zm-65.81,228.27c.56-.08,1.03-.16,1.5-.24-.47-.21-.97-.35-1.48-.43-.46,.07-.9,.21-1.32,.41,.45,.09,.9,.18,1.3,.26h0ZM634.04,127.86c.3-1.27,.47-1.88,.58-2.49,.03-.18-.12-.39-.2-.58-.32,.56-.62,1.14-.88,1.73-.07,.17,.16,.45,.5,1.35h0Zm-215.33,299.41c.08,.4,.13,.7,.19,.99,.25-.59,.46-1.19,.63-1.8,.05-.26-.18-.6-.28-.9-.19,.59-.36,1.18-.53,1.71h0Zm2.7-31.06c.4-.15,.77-.29,1.14-.42-.42-.21-.88-.36-1.34-.45-.32-.02-.66,.28-.99,.44,.39,.14,.77,.28,1.19,.43h0Zm-130.84-209.71c.2-.75,.38-1.29,.47-1.85,.02-.09-.3-.24-.46-.36-.16,.54-.35,1.07-.46,1.62-.02,.11,.2,.28,.46,.6h0Zm10.42-40.9c.24-.52,.45-.77,.42-.98-.03-.23-.28-.44-.43-.66-.15,.21-.42,.41-.44,.63s.2,.47,.46,1h0Zm72.03-84.6l-.32-.23c-.31,.55-.6,1.12-.85,1.7-.05,.12,.29,.4,.44,.6,.23-.64,.46-1.29,.73-2.07h0ZM484.35,8.57c-.5-.46-.79-.74-1.09-1.02-.16,.18-.5,.45-.46,.53,.16,.32,.39,.59,.68,.79,.11,.08,.42-.14,.87-.3Zm-59.54,337.52c-.26,.08-.61,.19-.98,.31,.42,.25,.86,.71,1.26,.69,.47-.03,.92-.5,1.36-.77-.49-.06-.98-.13-1.66-.23h0Zm87.49-49.44l.72,1.07c.1-.24,.16-.5,.16-.77-.13-.51-.28-1.02-.47-1.51-.12,.34-.23,.68-.42,1.21h0Zm3.32-4.4c-.67-.71-.88-.93-1.08-1.15-.25,.33-.45,.7-.61,1.08-.05,.15,.3,.59,.4,.57,.44-.12,.88-.29,1.29-.5h0Zm-94.02,101.39c.45-.18,.81-.33,1.16-.46-.44-.21-.9-.36-1.38-.45-.35-.02-.71,.26-1.07,.4,.43,.17,.86,.34,1.29,.51h0Zm-102.57-220.93c.26,.56,.5,1.11,.75,1.66,.07-.17,.11-.35,.11-.54-.12-.63-.3-1.24-.44-1.86-.12,.21-.24,.42-.42,.74Zm-99.71-1.45c.14-.31,.22-.64,.24-.98-.04-.22-.4-.57-.54-.54-.28,.05-.52,.34-.77,.54,.2,.18,.4,.36,1.08,.99h0Zm204.73,221.16c.75-.16,1.26-.28,1.77-.39-.51-.17-1.03-.28-1.57-.33-.45,.08-.89,.24-1.3,.46,.42,.1,.83,.19,1.08,.26h0Zm-108.85-224.8c-.25-.26-.53-.47-.85-.64-.09-.03-.5,.41-.46,.55,.1,.28,.31,.52,.58,.66,.08,.05,.38-.29,.72-.57h0Zm25,46.65c-.3-.34-.5-.72-.63-.7-.3,.07-.56,.26-.74,.51-.06,.1,.24,.62,.36,.61,.36-.09,.7-.23,1.01-.43h0ZM429.57,17.88c-.16-.31-.29-.55-.42-.79-.21,.14-.58,.28-.58,.42,.05,.27,.19,.52,.4,.7,.21-.08,.41-.19,.6-.32h0Zm154.04,199.48c.26-.29,.49-.6,.7-.92-.23-.26-.49-.49-.78-.68-.04-.02-.44,.32-.42,.43,.12,.4,.29,.79,.49,1.15h0Zm-163.12,222.24c-.48-.1-.97-.15-1.46-.14-.23,.05-.41,.31-.61,.48,.31,.12,.63,.19,.95,.23,.23,0,.46-.22,1.12-.57h0Zm-73.82-211.42c.12-.67,.25-.95,.19-1.18s-.32-.37-.49-.56c-.12,.24-.2,.49-.23,.76,0,.22,.22,.42,.54,.98h0Zm280.01-36.45c-.26-.18-.48-.4-.53-.36-.33,.25-.66,.52-.96,.81,.12,.13,.33,.39,.36,.36,.35-.22,.67-.47,1.13-.81h0Zm-309.49,16.45l.04-.71c-.26-.07-.57-.26-.75-.18s-.32,.43-.36,.68c-.02,.14,.19,.45,.3,.45,.27-.04,.53-.12,.77-.24h0Zm13.1,19.52c-.25-.17-.52-.3-.81-.38-.13,0-.29,.27-.43,.42,.19,.19,.4,.35,.63,.47,.1,.03,.3-.24,.61-.51h0Zm-57.09-149.98c-.49-.29-.72-.54-.95-.54-.21,0-.42,.28-.62,.43,.21,.18,.4,.46,.64,.51,.2,.05,.46-.18,.95-.4h0Zm-20.5,92.1c-.37-.26-.63-.57-.77-.52-.3,.15-.57,.35-.8,.58,.17,.19,.37,.54,.5,.51,.38-.14,.74-.33,1.07-.57h0Zm54.5,34.13c-1-.48-1.26-.71-1.44-.66-.23,.11-.38,.34-.4,.59,.02,.17,.36,.4,.57,.43,.44-.06,.86-.18,1.27-.35h0Zm38.63-30.4c.08-.34,.11-.68,.11-1.02-.03-.15-.26-.28-.4-.41-.11,.24-.18,.5-.22,.76,.01,.15,.23,.3,.51,.67h0Zm132.14-38.73c-.16-.22-.27-.36-.38-.5-.12,.14-.22,.3-.3,.47-.03,.09,.1,.24,.15,.36,.15-.09,.3-.19,.52-.33h0Zm-257.9,20.52c-.16,.25-.27,.52-.34,.8,0,.12,.27,.26,.43,.39,.18-.26,.34-.52,.48-.8-.18-.14-.37-.27-.57-.39ZM391.2,27.96c-.21,.26-.4,.53-.57,.82-.02,.05,.3,.34,.34,.32,.19-.09,.34-.24,.43-.43,.04-.13-.09-.33-.21-.71ZM242.4,126.27c-.19-.15-.33-.26-.47-.36-.1,.16-.28,.33-.27,.5,0,.13,.23,.26,.36,.4,.12-.16,.22-.32,.39-.54Zm16.1,18.34c.06-.29,.17-.51,.11-.64-.08-.15-.3-.23-.46-.34-.06,.17-.22,.37-.17,.51,.05,.15,.27,.26,.53,.47h0Zm96.21-3.62c-.17-.25-.27-.41-.38-.57-.16,.11-.29,.25-.41,.4,0,.14,.04,.27,.14,.36,.22-.04,.44-.1,.64-.19h0Zm-51.16-13.35c.14,.07,.33,.17,.51,.26,.06-.12,.2-.27,.17-.36-.09-.17-.21-.33-.35-.46-.07,.12-.14,.23-.33,.55h0Zm-60.76-3.99c-.05-.26-.1-.45-.14-.65-.11,.14-.27,.27-.31,.43,0,.2,.01,.39,.06,.58,.12-.12,.26-.24,.39-.36h0Zm-9.31,11.29c-.11,.16-.22,.34-.31,.51,0,.02,.27,.22,.3,.19,.15-.14,.28-.29,.4-.46l-.39-.25h0Zm-26.96-27.57c.26-.29,.46-.43,.5-.61,.02-.11-.2-.27-.31-.41-.1,.1-.26,.19-.29,.31,0,.24,.03,.48,.09,.71h0Zm268.79-29.47c-.06-.41-.1-.69-.14-.96-.12,.19-.21,.4-.26,.62,0,.28,.03,.55,.08,.82,.12-.18,.24-.36,.32-.47h0Zm-52.9,320.22c-.53-.09-1.06-.15-1.59-.19-.17,0-.33,.15-.5,.23,.33,.05,.65,.12,.98,.15,.37-.03,.74-.09,1.1-.18h0Zm169.4-199.34c-.22-.08-.44-.13-.67-.15-.09,0-.26,.28-.24,.31,.11,.15,.29,.36,.43,.35,.15-.01,.26-.26,.5-.51h-.01Zm-172.42,252.57c.23-.11,.4-.2,.57-.29-.2-.15-.42-.28-.65-.36-.2,0-.4,.04-.58,.12,.21,.17,.43,.33,.67,.53h0Zm1.98,5.36c.1-.46,.17-.93,.21-1.4,0-.22-.18-.43-.27-.64-.18,.45-.34,.91-.47,1.38-.02,.11,.22,.29,.54,.67h0Zm.49,7.39l-.73-.61c-.17,.22-.42,.42-.46,.66-.02,.12,.33,.43,.53,.43,.18,.02,.38-.25,.67-.48h0Zm-116.39-266.47c.15-.15,.27-.32,.37-.51,.02-.07-.15-.29-.22-.29-.17,.05-.33,.12-.48,.22,.08,.16,.17,.32,.32,.59h0Zm264.49,1.68c-.05,.36-.15,.59-.09,.73,.09,.19,.31,.33,.47,.49,.04-.2,.05-.4,.03-.6-.11-.22-.25-.43-.42-.62h0Zm-120.13,127.65c-.1-.09-.2-.26-.29-.26s-.19,.16-.29,.26c.09,.09,.19,.26,.27,.26s.19-.16,.3-.26Zm24.89-213.91c.07-.11,.13-.22,.2-.32-.1-.05-.24-.19-.3-.15-.09,.04-.14,.19-.21,.3,.1,.06,.21,.12,.31,.18h0Zm-129.79,102c-.12,.07-.29,.12-.33,.22s.03,.26,.05,.39c.16-.06,.31-.15,.45-.25,.02-.02-.11-.22-.16-.36Zm-82.93-32.32c-.09-.09-.19-.16-.28-.25-.07,.12-.23,.29-.19,.36,.06,.13,.24,.21,.37,.31,.04-.14,.07-.28,.1-.42h0Zm73.18-36.62c.11-.08,.29-.13,.3-.22,.02-.11-.1-.23-.16-.35-.1,.07-.28,.13-.29,.21-.02,.11,.09,.23,.15,.36h0Zm172.8,323.21c.3-.23,.54-.43,.8-.62-.19-.03-.39-.13-.54-.08-.25,.1-.49,.22-.72,.36,.13,.1,.27,.2,.46,.34Zm-47.68-342.57c.2-.43,.42-.68,.38-.87s-.33-.33-.52-.5c-.15,.21-.41,.41-.43,.64-.02,.17,.27,.37,.57,.74h0Zm32.6,3.19c-.08-.11-.15-.23-.23-.33-.04,.12-.12,.26-.09,.36s.15,.21,.23,.31c.03-.12,.07-.23,.11-.35h0Zm-165.87,4.19l-.23-.31-.3,.35c.1,.08,.19,.19,.31,.22,.05,0,.14-.15,.22-.25h0Zm216.68,137.04c.12-.15,.22-.31,.29-.48,.02-.05-.16-.17-.25-.26-.13,.13-.24,.27-.34,.42-.02,.03,.16,.17,.29,.33h0Zm68.65-69.44c-.16-.06-.33-.17-.36-.14-.13,.15-.25,.31-.36,.48,.11,.05,.27,.16,.32,.12,.15-.14,.28-.3,.4-.46h0ZM279.94,118.33c-.12,.19-.24,.29-.24,.4,.02,.2,.07,.39,.14,.57,.07-.11,.19-.22,.2-.33-.01-.22-.05-.44-.1-.65h0Zm186.27,7.69c-.18,.26-.39,.43-.38,.58s.24,.29,.37,.43c.14-.15,.36-.29,.38-.45,.01-.15-.2-.32-.37-.57Zm-171.93,1.55c-.03-.13-.08-.26-.16-.36-.05-.04-.21,.05-.32,.08,.03,.13,.08,.25,.15,.36,.04,.04,.21-.05,.33-.08Zm23.49,38.92c-.02-.06-.03-.18-.04-.18-.11,0-.23,.02-.34,.05,.02,.06,.03,.18,.04,.18,.11,0,.22-.02,.33-.05h0Zm103.62,287.4c.09-.43,.15-.86,.18-1.3-.03-.19-.1-.36-.19-.53-.11,.23-.19,.48-.25,.73,.04,.37,.13,.74,.26,1.08h0Zm-.35,4.42c-.15,.19-.4,.36-.36,.49,.03,.15,.33,.4,.41,.36,.19-.08,.32-.31,.47-.48-.15-.11-.31-.23-.52-.36h0Zm-50.9-394.11c-.14,.15-.26,.31-.36,.48-.02,.03,.15,.16,.23,.25,.15-.14,.28-.28,.4-.44,.01-.02-.15-.17-.27-.29Zm51.44,451.04c-.23,.03-.36,.05-.51,.07,.14,.11,.29,.2,.46,.26,.14,0,.28-.02,.42-.07-.14-.09-.28-.19-.36-.26h0ZM643.31,126.31c.02-.13,.04-.26,.05-.38-.12,0-.24-.02-.36,0-.02,0-.05,.17-.02,.19,.1,.08,.21,.14,.32,.19Zm-220.75,301.35c-.11,.09-.27,.17-.3,.27s.1,.23,.15,.36l.41-.32c-.09-.1-.18-.2-.27-.31Z"/>
      <path id="Path_2" data-name="Path 2" class="cls-1" d="M636.44,83.89c-.41,1.06-.78,2.02-1.18,2.95-.03,.07-.56,.02-.56,0-.09-1.01-.09-2.03,0-3.04,.08-.53,.63-.98,.97-1.46,.26,.5,.5,1.02,.77,1.54h0Z"/>
      <path id="Path_3" data-name="Path 3" class="cls-52" d="M306.6,42.68c.67,1.02,1.04,1.58,1.41,2.15-.6,.42-1.25,.78-1.94,1.05-.26,.08-1.06-.64-1.03-.7,.48-.86,1-1.69,1.56-2.5h0Z"/>
      <path id="Path_4" data-name="Path 4" class="cls-61" d="M641.65,80.52c.32,.54,.58,.81,.53,.93-.27,.58-.59,1.14-.95,1.68-.2-.09-.39-.2-.57-.33,.26-.66,.55-1.29,1-2.28h0Z"/>
      <path id="Path_5" data-name="Path 5" class="cls-39" d="M316.89,35.74c-.23-.19-.43-.34-.63-.5,.41-.26,.84-.48,1.3-.65,.21-.05,.51,.27,.77,.43-.45,.22-.9,.45-1.44,.71h0Z"/>
      <path id="Path_6" data-name="Path 6" class="cls-16" d="M263.52,85.32l-.69,.64c-.16-.21-.44-.42-.45-.64s.28-.42,.44-.63c.19,.18,.4,.36,.7,.63Z"/>
      <path id="Path_7" data-name="Path 7" class="cls-46" d="M634.64,77.62c-.05,.12-.09,.25-.12,.37-.1-.09-.28-.19-.28-.28,.03-.17,.09-.32,.18-.46,.08,.12,.16,.25,.22,.37h0Z"/>
      <path id="Path_8" data-name="Path 8" class="cls-62" d="M632.54,73.17c-.15,.09-.28,.22-.34,.2-.13-.06-.23-.17-.29-.31-.03-.08,.09-.2,.14-.3,.16,.13,.31,.27,.49,.42h0Z"/>
      <path id="Path_9" data-name="Path 9" class="cls-49" d="M442.7,123.32c-2.83,3.44,1.28,4.54,2.12,6.74,.91,2.37,3.19,3.76,5.79,4.4,2,.49,3.95,1.15,5.92,1.74,.2,.09,.38,.19,.56,.31-.13,.23-.22,.59-.4,.64-1.56,.46-1.26,.98-.12,1.63,.24,.13,.33,.51,.5,.77-.28,.03-.57,0-.84-.06-2.53-1.09-5.09-2.12-7.54-3.37-2.72-1.38-3.02-1.17-4.71,1.34-1.23,1.83-1.86,3.26-.15,5.02,.27,.36,.35,.82,.22,1.25-1.88,2.89,.59,4.22,2.13,5.71,3.19,3.12,6.58,6.03,9.8,9.12,5.03,4.79,2.41,8.96-3.12,10.75-1.88,.6-4.06,.23-6.1,.4-1.4,.02-2.8,.25-4.13,.69-1.72,.79-3.73,.64-5.31-.41-2.46-1.64-5.62-1.84-8.27-.51-3.19,1.49-6.47,.16-9.7-.18-.4-.04-.72-.64-1.09-.99,.39-.22,.8-.4,1.16-.65,.56-.38,1.09-.8,1.64-1.2-.68-.73-1.41-1.43-2.17-2.08-.09-.07-.74,.6-1.16,.88-.51,.35-1.07,.64-1.64,.88-1.36,.5-3.05,.57-3.02,2.68,0,.15-.96,.57-1.19,.42-1.58-.97-3.1-2.03-4.55-3.19-.22-.5-.16-1.07,.14-1.52,2.61-2.14,5.72-3.57,9.05-4.14,.21-.08,.44-.08,.66,0,3.49,2.15,6.8,.19,10.07-.6,1.58-.41,2.94-1.41,3.81-2.8,.65-1.44,2.13-2.32,3.71-2.2,2.39-.1,2.73-.73,1.29-2.68-1.6-2.14-3.32-4.19-5.16-6.12-1.04-1.11-1.47-2.01-.35-3.26,.28-.31,.61-.85,.53-1.19-.78-2.68-.89-5.51-.33-8.25,.5-2.32,.33-4.78,.7-7.14,.23-1.18,.74-2.28,1.5-3.21,.57-.79,1.45-1.29,2.41-1.39,.74,.1,1.37,1.23,1.96,1.99,.33,.51,.61,1.04,.84,1.6,.41-.54,.84-1.08,1.23-1.64,.12-.17,.08-.45,.19-.64,.41-.71,.85-1.4,1.28-2.09,.58,.81,1.16,1.63,1.82,2.54h.02Zm-4.55,35.74c.07,.23,.08,.81,.36,1.04,.89,.71,2.06,1.99,2.81,1.79,1.57-.39,2.93-1.58,4.37-2.44-.28-.47-.45-1.13-.86-1.37-1.11-.62-2.27-1.14-3.46-1.57-1.76-.67-3.26,.44-3.23,2.55h0Z"/>
      <path id="Path_10" data-name="Path 10" class="cls-27" d="M448.73,200.93c-.39-1.82-.68-3.67-1.19-5.45-.25-1.4-1.58-2.34-2.99-2.1-.59,.1-1.12,.41-1.51,.86-.78,.75-1.18,.98-2.22,.4-.84-.21-1.73-.01-2.4,.53-1.76,1.43-2.88,1.26-4.34-.57-1.06-.97-2.44-1.53-3.88-1.57-3.46-.27-6.95-.28-10.42-.23-1.06,.14-2.1,.42-3.09,.83-.33,.1-.67,.49-.95,.43-1.78-.29-3.54-.68-5.27-1.17-3.09-.96-5.13-.29-7.4,2.03-1.66,1.7-3.76,2.95-5.54,4.55-.47,.59-.67,1.34-.58,2.09,.07,.77,.8,1.49,.83,2.24,.14,3.58,2.61,4.67,5.49,5.53,.74,.23,1.34,1.03,1.92,1.65,.95,1,1.87,2.02,2.71,3.1,.33,.53,.59,1.1,.79,1.7-.52,.18-1.12,.62-1.55,.48-2.1-.66-4.6-.96-6.13-2.33-4.78-4.24-9.22-8.85-13.7-13.42-2.16-2.2-1.85-3.56,.47-5.58,2.27-1.92,5.06-3.14,8.02-3.5,3.21-.54,6.25-1.99,9.41-2.88,4.49-1.29,8.84-.12,13.19,.94,.97,.34,2.01,.45,3.03,.33,2.44-.6,5.22,.33,7.4-1.56,.19-.16,.8,.2,1.22,.26,.63,.2,1.3,.26,1.95,.17,6.72-2.59,13.41-1.26,20.08,.13,3.7,.77,7.37,1.7,10.97,2.82,4.26,1.33,4.86,5.35,1.58,8.41-1.84,1.71-3.19,3.94-5.01,5.67-2.8,2.64-5.8,5.07-8.74,7.54-1.01,1.04-2.2,1.91-3.5,2.56-2.34,.8-4.77,1.35-7.23,1.64-.63,.08-1.64-.92-2.09-1.67-1.47-2.43-3.78-2.67-6.23-2.66-.6,0-1.2,.08-1.78,.21-4.23,.99-8.66,.8-12.78-.56-2.78-.93-5.83-.99-8.74-1.54-.61-.22-1.17-.54-1.67-.95,.78-.5,1.53-1.35,2.35-1.41,1.62-.02,3.24,.08,4.85,.3,.36,.03,.91-.13,1.08,.06,1.69,1.88,3.92,1.15,5.93,1.19,3.94,.05,7.89,.03,11.81-.23,3.27-.22,6.52-.83,9.78-1.2,.57-.02,1.14,.12,1.64,.4,2.16,1.12,2.72,.97,3.63-1.37,.45-1.16,.76-2.12,2.34-1.3,.26,.13,1.42-.67,1.48-1.13,.07-1.16,.02-2.32-.14-3.47-.64,.2-1.28,.36-1.9,.6-.31,.16-.61,.35-.88,.57l-.43-2.32c.11-.02,.22-.04,.33-.06v-.02Zm5.14,4.72c.29-.59,.5-1.22,.64-1.86,0-.3-.41-.6-.64-.9-.35,.41-.64,.86-.85,1.36-.07,.25,.36,.64,.85,1.41h0Zm-14.62,8.04c-.14-.23-.22-.51-.33-.52-.2,0-.38,.11-.47,.28-.05,.12,.12,.33,.19,.51,.18-.08,.35-.15,.61-.27h0Z"/>
      <path id="Path_11" data-name="Path 11" class="cls-22" d="M401.63,129.99c-2.71-.26-5.42-.47-8.12-.79-2.91-.34-5.84-1.25-8.71-1.05-4.26,.29-8.47,1.36-12.72,2.02-2.12,.33-4.26,.52-6.39,.74-.24,.02-.51-.19-.77-.29,.17-.21,.35-.41,.54-.6,3.71-3.31,8.38-4.97,12.66-7.3,.39-.17,.8-.31,1.21-.42-.23,.31-.41,.66-.54,1.03-.08,.37-.06,.76,.05,1.12,.61,.13,1.24,.13,1.85,0,2.49-.93,5.04-1.73,7.62-2.37,2.19-.44,4.45-.41,6.63,.08,3.85,1.08,7.64,2.37,11.35,3.88,.68,.26,1.09,1.26,1.61,1.91-.57,.52-1.21,.95-1.91,1.29-1.41,.45-2.88,.68-4.33,1.01l-.03-.26h0Zm-3.43-3.2c.72,.38,1.47,.68,2.24,.91,.23,.05,.57-.44,.86-.69-.56-.44-1.15-.83-1.78-1.15-.18-.08-.6,.4-1.32,.92h0Zm-3.04-2.3c-.23,.35-.5,.58-.47,.78s.33,.4,.5,.59c.2-.23,.48-.43,.57-.7,.04-.12-.32-.36-.6-.68h0Zm-5.19,.38c-.29-.22-.47-.43-.7-.49-.11-.02-.43,.32-.41,.37,.11,.22,.28,.41,.49,.54,.08,.04,.31-.21,.61-.43h.01Z"/>
      <path id="Path_12" data-name="Path 12" class="cls-67" d="M281.49,193.3c-.64-.2-1.25-.49-1.82-.85-.31-.25-.33-.86-.48-1.31-.26,.57-.81,1.19-.74,1.71,.2,1.38,.36,2.64-.94,3.58-.25,.19-.48,.4-.71,.62-.09-.28-.13-.56-.12-.85,.16-.88,.43-1.74,.58-2.62,.05-.25-.15-.54-.23-.81-.18,.2-.35,.41-.49,.64-.2,.39-.33,.81-.54,1.21-.14,.22-.29,.43-.46,.63-.09-.19-.27-.38-.27-.57,0-1.84-.02-3.68,.04-5.51,0-.32,.36-.88,.55-.88,1.74-.02,1.49-1.28,1.6-2.36,.08-.35,.2-.69,.36-1.02,.15,.27,.32,.53,.5,.78,.23,.3,.5,.58,.75,.88,.2-.29,.38-.6,.53-.92,.43-1.17,.81-2.35,1.21-3.52,.1,1.18,.18,2.36,.31,3.54,.06,.54,.23,1.05,.35,1.59,.26-.43,.48-.88,.76-1.3,.31-.45,.67-.87,1.02-1.29,.11,.56,.16,1.13,.15,1.7,0,.75-.23,1.47-.65,2.09-1.45,1.43-1.4,3.16-1.33,4.93l.06-.06,.02-.02Z"/>
      <path id="Path_13" data-name="Path 13" class="cls-68" d="M444.95,111.05c.26,.31,.57,.69,.88,1.06,1.5,1.8,3.04,3.57,4.48,5.42,.34,.51,.55,1.11,.59,1.72-1.07,.57-2.33,1.5-3.33,1.29-1.49-.32-2.8-1.46-4.18-2.26-.31-.19-.87-.5-.84-.64,.55-2.15,1.17-4.3,1.8-6.43,.02-.07,.27-.08,.6-.16h0Z"/>
      <path id="Path_14" data-name="Path 14" class="cls-13" d="M490.13,157.08c-.51-.6-.94-1.27-1.26-1.99-.84-2.85-2.2-4.02-5.18-4.41-.7-.2-1.37-.5-1.99-.88,.71-.27,1.42-.53,2.11-.83,1.12-.48,2.25-.95,3.33-1.5,.51-.32,.99-.68,1.44-1.08,.36,.63,.98,1.23,1.03,1.88,.24,2.95,.33,5.91,.46,8.87l.05-.05h0Z"/>
      <path id="Path_15" data-name="Path 15" class="cls-5" d="M392.49,167.35c-.33-.61-.81-1.12-.7-1.36,1.05-2.58,2.26-5.09,3.64-7.51,.35-.57,1.95-.4,2.97-.57-.03,.88-.2,1.75-.5,2.58-1.08,1.79-2.24,3.52-3.5,5.19-.57,.62-1.2,1.18-1.88,1.68h-.02Z"/>
      <path id="Path_16" data-name="Path 16" class="cls-31" d="M428.06,221.85c-1.3-.11-2.59-.29-3.87-.54-.07-.02-.02-1.67,.22-1.74,1.4-.42,2.84-.67,4.3-.73,.29,0,1.03,1.35,.84,1.71-.33,.67-1.2,1.07-1.5,1.3h0Z"/>
      <path id="Path_17" data-name="Path 17" class="cls-3" d="M357.73,161.5c1.71,.29,3.29,.38,2.27,2.73-.23,.84-.34,1.71-.32,2.57-.57-.71-1.14-1.43-1.73-2.13-.29-.34-.66-.6-.91-.96-.36-.52-.65-1.09-.97-1.63,.59-.2,1.19-.41,1.66-.57h0Z"/>
      <path id="Path_18" data-name="Path 18" class="cls-8" d="M308.35,219.93c-.08,.21-.24,.6-.4,.98-.36-.22-.9-.36-1.05-.67-.85-1.81-1.63-3.64-2.36-5.5-.09-.23,.25-.63,.39-.95,.26,.26,.51,.55,.8,.79,.44,.37,.91,.71,1.35,1.08,.28,.23,.71,.45,.77,.74,.23,1.09,.33,2.2,.5,3.53h0Z"/>
      <path id="Path_19" data-name="Path 19" class="cls-60" d="M214.18,205.65c-.98,1.79-1.97,3.59-2.97,5.39-.23-.14-.66-.38-.65-.4,.88-1.74,1.77-3.48,2.72-5.2,.08-.15,.49-.15,.75-.19,.06,.13,.11,.26,.14,.4h0Z"/>
      <path id="Path_20" data-name="Path 20" class="cls-15" d="M207.89,201.71c0,1.19,.03,2.38-.02,3.57-.07,.51-.18,1.01-.33,1.5-.16-.05-.4-.06-.46-.17-.38-.58-1.12-1.3-1-1.77,.4-1.19,.94-2.33,1.59-3.41,.08-.15,.33-.22,.51-.33l.16,.58-.44,.02h0Z"/>
      <path id="Path_21" data-name="Path 21" class="cls-37" d="M309.69,223.41c.38,.54,1.15,1.17,1.05,1.59-.33,.82-.79,1.58-1.36,2.26-.26-.43-.72-.85-.74-1.29,.02-.82,.12-1.64,.29-2.45,.26-.03,.51-.07,.77-.1h0Z"/>
      <path id="Path_22" data-name="Path 22" class="cls-50" d="M474.19,142.08c-1,.6-1.54,1.2-1.98,1.13-.63-.1-1.17-.69-1.75-1.07,.52-.43,1-1.12,1.56-1.19,.52-.06,1.12,.54,2.18,1.13Z"/>
      <path id="Path_23" data-name="Path 23" class="cls-59" d="M399.42,134.82c-.45-.09-.64-.13-.84-.17,.12-.16,.21-.4,.37-.47,1.67-.71,3.36-1.4,5.06-2.06,0,0,.21,.46,.21,.47-1.64,.78-3.3,1.55-4.8,2.24h0Z"/>
      <path id="Path_24" data-name="Path 24" class="cls-48" d="M266.85,205.63c-1.3,1.08-2.25,1.87-3.2,2.67-.15-.27-.44-.54-.45-.81-.05-1.71,1.29-1.92,2.52-2.19,.14-.03,.31,.09,1.13,.33Z"/>
      <path id="Path_25" data-name="Path 25" class="cls-38" d="M273.85,207.94c-.05-.69-.18-1.02-.07-1.23,.42-.77,.91-1.51,1.4-2.26,.23-.36,.51-.67,.77-1.01,.15,.46,.56,1.08,.39,1.33-.78,1.1-1.61,2.15-2.49,3.16Z"/>
      <path id="Path_26" data-name="Path 26" class="cls-69" d="M273.38,195.04c-.5,1.11-.99,2.2-1.49,3.29,.1-1.15,.16-2.29,.32-3.43,.13-.38,.31-.74,.56-1.05,.18,.36,.36,.71,.6,1.19h.01Z"/>
      <path id="Path_27" data-name="Path 27" class="cls-54" d="M214.03,198.83c-1.02,1.3-1.63,2.05-2.23,2.81-.18-.28-.58-.67-.5-.81,.46-.84,.99-1.63,1.57-2.39,.06-.08,.57,.19,1.15,.4h0Z"/>
      <path id="Path_28" data-name="Path 28" class="cls-12" d="M250.06,183.2c-.95,.9-1.95,1.85-2.96,2.79-.07,.06-.25,.02-.38,.02,.03-.21,.09-.41,.19-.6,.68-.96,1.38-1.91,2.12-2.84,.2-.16,.46-.24,.72-.21,.08,0,.15,.36,.33,.85h0Z"/>
      <path id="Path_29" data-name="Path 29" class="cls-57" d="M269.39,200.84c-.11,.5-.28,1.3-.44,2.08-.19-.84-.32-1.7-.37-2.56,.07-.78,.21-1.55,.43-2.3,.12,.81,.23,1.63,.39,2.78Z"/>
      <path id="Path_30" data-name="Path 30" class="cls-58" d="M442.84,197.9c.23,.82,.41,1.66,.53,2.51,.02,.25-.35,.52-.54,.78-.37-.59-.69-1.22-.95-1.87-.07-.23,.39-.62,.95-1.43h0Z"/>
      <path id="Path_31" data-name="Path 31" class="cls-32" d="M209.81,191c-.42-.33-.59-.46-.75-.59,.85-.57,1.68-1.15,2.56-1.68,.08-.05,.43,.39,.65,.6-.81,.54-1.61,1.09-2.46,1.67h0Z"/>
      <path id="Path_32" data-name="Path 32" class="cls-21" d="M185.12,176.3c.16-.15,.29-.4,.49-.45,.64-.18,1.29-.29,1.94-.43,.05,.42,.11,.83,.16,1.25-.65-.09-1.3-.15-1.95-.26-.21-.03-.41-.12-.63-.17v.05h0Z"/>
      <path id="Path_33" data-name="Path 33" class="cls-55" d="M262.58,211.25c-.56,.85-1.02,1.55-1.49,2.26-.15-.19-.47-.46-.43-.55,.4-.76,.87-1.5,1.32-2.23,.16,.14,.33,.29,.6,.52h0Z"/>
      <path id="Path_34" data-name="Path 34" class="cls-44" d="M212.16,220.87c-1.01,.3-2.01,.61-3.02,.87-.41,.06-.83,.09-1.24,.07,.4-.19,.78-.41,1.19-.57,.73-.3,1.46-.58,2.21-.84,.25-.05,.51-.08,.77-.08,.03,.19,.07,.37,.1,.56h0Z"/>
      <path id="Path_35" data-name="Path 35" class="cls-19" d="M454.2,86.77c-.58-1-1.06-1.81-1.53-2.64-.02-.02,.16-.15,.24-.23,.58,.74,1.18,1.48,1.74,2.25,.03,.04-.19,.27-.45,.62Z"/>
      <path id="Path_36" data-name="Path 36" class="cls-14" d="M305.88,230.19c.26,.54,.45,1.1,.57,1.68,0,.26-.3,.54-.46,.81-.2-.3-.35-.62-.45-.96,.04-.52,.16-1.03,.33-1.53Z"/>
      <path id="Path_37" data-name="Path 37" class="cls-30" d="M287.53,191.77c.11,.34,.16,.7,.13,1.05-.18,.44-.42,.85-.71,1.22,0,0-.33-.15-.32-.18,.11-.46,.25-.91,.43-1.35,.15-.25,.32-.48,.51-.7-.01-.02-.02-.04-.04-.05h0Z"/>
      <path id="Path_38" data-name="Path 38" class="cls-56" d="M494.57,147.28c-.17,.4-.39,.9-.6,1.41-.06-.21-.09-.42-.08-.64,.14-.54,.33-1.05,.51-1.57,.05,.21,.09,.42,.18,.79h-.01Z"/>
      <path id="Path_39" data-name="Path 39" class="cls-26" d="M473.41,144.73c.29,.4,.54,.6,.53,.81,0,.15-.33,.36-.54,.41-.1,.02-.39-.26-.39-.4,0-.21,.18-.41,.4-.82Z"/>
      <path id="Path_40" data-name="Path 40" class="cls-10" d="M396.45,89.61c-.4,.26-.67,.57-.82,.51-.25-.13-.42-.36-.46-.64-.02-.13,.36-.43,.56-.43s.39,.28,.72,.55h0Z"/>
      <path id="Path_41" data-name="Path 41" class="cls-36" d="M305.7,224.73c.12,.38,.3,.65,.26,.88-.03,.15-.36,.25-.57,.37-.11-.25-.19-.51-.23-.78,0-.12,.26-.24,.53-.46h0Z"/>
      <path id="Path_42" data-name="Path 42" class="cls-51" d="M278.24,200.92c-.3,.33-.48,.53-.67,.73-.11-.14-.33-.3-.31-.43,.04-.21,.17-.4,.35-.51,.09-.05,.31,.1,.63,.22h0Z"/>
      <path id="Path_43" data-name="Path 43" class="cls-4" d="M345.67,251.49c-.26,.22-.48,.46-.53,.43-.29-.19-.56-.41-.82-.64,.12-.13,.29-.4,.33-.38,.35,.18,.69,.37,1.02,.59Z"/>
      <path id="Path_44" data-name="Path 44" class="cls-63" d="M400.59,91.18c-.18-.31-.31-.65-.41-.99-.02-.14,.22-.3,.33-.46,.15,.22,.28,.46,.36,.71,.03,.15-.12,.34-.29,.74h0Z"/>
      <path id="Path_45" data-name="Path 45" class="cls-42" d="M400.17,202.68c-.18,.14-.36,.34-.42,.31-.18-.1-.33-.24-.43-.43-.03-.05,.25-.35,.29-.33,.21,.13,.39,.28,.57,.45Z"/>
      <path id="Path_46" data-name="Path 46" class="cls-66" d="M289.06,211.87c-.25-.3-.46-.44-.44-.57,.03-.21,.13-.41,.29-.55,.06-.05,.46,.13,.45,.16-.07,.32-.17,.64-.3,.95h0Z"/>
      <path id="Path_47" data-name="Path 47" class="cls-65" d="M216.04,196.9c-.6,.31-.77,.4-.95,.49-.09-.17-.15-.36-.19-.55,0-.09,.21-.26,.31-.24,.28,.07,.55,.17,.81,.3h0Z"/>
      <path id="Path_48" data-name="Path 48" class="cls-20" d="M306.67,208.39c-.07,.11-.12,.28-.21,.31-.08,.02-.21-.11-.33-.17,.07-.11,.12-.28,.22-.31,.08-.03,.22,.11,.32,.17Z"/>
      <path id="Path_49" data-name="Path 49" class="cls-29" d="M454.91,81.34c-.06,.11-.12,.19-.17,.27-.15-.13-.29-.27-.43-.42-.02-.03,.09-.16,.14-.25,.16,.13,.3,.26,.46,.4h0Z"/>
      <path id="Path_50" data-name="Path 50" class="cls-23" d="M462.7,119.36c-.1,.09-.19,.23-.29,.24s-.2-.15-.3-.23c.1-.09,.19-.24,.29-.24s.2,.15,.3,.23h0Z"/>
      <path id="Path_51" data-name="Path 51" class="cls-2" d="M453.56,121.25c-.22,.03-.42,.06-.62,.09,0-.12-.03-.29,.02-.33,.11-.09,.26-.13,.4-.11,.07,.02,.12,.19,.19,.36h0Z"/>
      <path id="Path_52" data-name="Path 52" class="cls-11" d="M348.34,253.8c-.12,.05-.25,.17-.32,.14-.1-.04-.15-.19-.22-.3,.11-.05,.24-.17,.31-.14,.1,.04,.15,.19,.23,.3Z"/>
      <path id="Path_53" data-name="Path 53" class="cls-17" d="M216.63,188.76c.07,.11,.14,.21,.21,.32-.1,.06-.23,.19-.3,.17-.09-.03-.15-.19-.22-.29,.1-.06,.2-.13,.31-.2h0Z"/>
      <path id="Path_54" data-name="Path 54" class="cls-41" d="M261.51,198.86c-.12,.07-.23,.14-.34,.21-.05-.12-.15-.27-.12-.36,.04-.1,.21-.15,.32-.23,.05,.12,.09,.25,.14,.38Z"/>
      <path id="Path_55" data-name="Path 55" class="cls-43" d="M485.73,138.86c-.08,.09-.16,.18-.26,.26-.02,.01-.16-.07-.16-.11,.02-.12,.06-.24,.09-.36,.11,.07,.22,.13,.32,.2h0Z"/>
      <path id="Path_56" data-name="Path 56" class="cls-9" d="M279.74,206.15c-.1,.06-.21,.12-.31,.18-.05-.1-.17-.23-.15-.3,.03-.08,.19-.13,.29-.19,.05,.1,.11,.2,.16,.31h0Z"/>
      <path id="Path_57" data-name="Path 57" class="cls-64" d="M217.21,206.12c.09,.07,.26,.14,.26,.2,0,.11-.11,.21-.17,.32-.09-.07-.26-.13-.26-.2,0-.11,.11-.22,.16-.33h0Z"/>
      <path id="Path_58" data-name="Path 58" class="cls-6" d="M451.18,80.41c.13,.09,.29,.15,.35,.26,.05,.08-.03,.22-.05,.34-.12-.08-.27-.14-.33-.25-.05-.08,.02-.22,.04-.36h0Z"/>
      <path id="Path_59" data-name="Path 59" class="cls-28" d="M442.21,330.87c-.11-.04-.21-.08-.32-.12,.08-.09,.17-.17,.26-.25,.03-.02,.12,.03,.17,.05-.04,.11-.08,.21-.11,.32Z"/>
      <path id="Path_60" data-name="Path 60" class="cls-18" d="M259.74,215.33l-.26,.29c-.07-.09-.21-.21-.19-.28,.03-.11,.17-.18,.26-.27,.07,.09,.13,.19,.19,.26Z"/>
      <path id="Path_61" data-name="Path 61" class="cls-33" d="M457.7,88.56l-.23,.26c-.1-.1-.19-.21-.26-.34-.02-.05,.14-.16,.21-.25,.09,.12,.19,.22,.27,.34h0Z"/>
      <path id="Path_62" data-name="Path 62" class="cls-35" d="M423.07,264.92c.1,.07,.2,.15,.3,.22-.08,.1-.14,.26-.23,.28s-.2-.12-.3-.2c.08-.1,.15-.2,.22-.3h0Z"/>
      <path id="Path_63" data-name="Path 63" class="cls-24" d="M611.82,227.33c-.14-.04-.35-.08-.55-.14,.08-.24,.08-.57,.25-.72,2.23-1.89,3.33-4.44,4.24-7.12,.09-.27,.45-.46,.68-.68,.17,.22,.44,.42,.5,.67,.37,1.46-3.12,7.39-4.61,7.88-.14,.05-.29,.07-.5,.12h0Z"/>
      <path id="Path_64" data-name="Path 64" class="cls-40" d="M323.71,207.77c-.39-.6-.76-.95-.69-1.11,.25-.47,.54-.91,.88-1.31,.17,.3,.5,.6,.47,.88-.15,.54-.37,1.05-.66,1.54h0Z"/>
      <path id="Path_65" data-name="Path 65" class="cls-45" d="M216.59,163.94c-.19,.23-.31,.38-.43,.52-.15-.11-.28-.24-.39-.38-.03-.05,.12-.3,.2-.31,.21,.03,.42,.09,.61,.17Z"/>
      <path id="Path_66" data-name="Path 66" class="cls-47" d="M607.83,212.88c.26,.3,.43,.5,.6,.68-.41,.26-.84,.48-1.29,.67-.13,.05-.4-.27-.6-.43,.4-.28,.78-.57,1.29-.92h0Z"/>
      <path id="Path_67" data-name="Path 67" class="cls-25" d="M599.58,219.57c-.27,.14-.55,.23-.85,.27-.22,0-.45-.26-.67-.4,.16-.23,.28-.56,.49-.64,.19-.07,.47,.15,.72,.24,.1,.17,.21,.34,.31,.52h0Z"/>
      <path id="Path_68" data-name="Path 68" class="cls-34" d="M426.88,372.16c.05,.89-.02,1.79-.22,2.66-.22,.5-.94,1.19-1.3,1.12-.81-.19-1.54-.6-2.13-1.19-.26-.24-.05-.98-.02-1.5,.06-.36,.08-.72,.07-1.08-.1-.64-.29-1.27-.44-1.91,.9-.2,1.82-.33,2.74-.36,.51,.11,.93,.46,1.15,.94,.14,.42,.19,.87,.16,1.31h0Zm-1.84,1.28c-.07,.16-.12,.32-.16,.49,.09,.1,.22,.15,.36,.15,.16-.06,.3-.16,.43-.27l-.62-.37Z"/>
      <path id="Path_69" data-name="Path 69" class="cls-7" d="M422.89,364.66c-.16-.11-.34-.2-.33-.25,.05-.17,.12-.34,.21-.5,.11,.07,.3,.15,.29,.2-.04,.18-.1,.36-.18,.54h0Z"/>
    </g>
  </g>
</svg>