<svg id="e14hDEwvOFR1" xmlns="http://www.w3.org/2000/svg" xmlns:xlink="http://www.w3.org/1999/xlink" viewBox="0 0 864.1 746.4" shape-rendering="geometricPrecision" text-rendering="geometricPrecision"><g id="e14hDEwvOFR2" transform="matrix(0 0 0 0 432.05 535.25948)" opacity="0"><g transform="translate(100.537 60.01)"><path d="M697.6,546.4h-543.1c-.2-10.1-.7-20.1-3.6-29.9-2.3-7.7-4.1-15.6-6.1-23.4-2.4-9.6-2.3-19.4-2.8-29.2-.2-3.6-.7-6.8-3.8-9.1-1-.9-1.7-2.1-2.2-3.3-1.2-3.1-1.8-6.5-3.2-9.4-2-4-4.2-7.9-6.8-11.6-3.2-4.8-7-9.2-10-14-5.5-8.8-10.7-17.8-15.9-26.8-4.4-7.7-8.8-15.5-12.9-23.4-4.7-9-9-18.2-13.5-27.3-5.3-10.7-10.8-21.3-15.7-32.2-6.2-13.8-12.1-27.7-17.7-41.7-6.7-16.6-13-33.4-19.6-50.1-2.5-6.3-21.5-79.3-20.6-93.3.3-5.1,1.9-10.1,4.7-14.5c3.6-5.7,9-13.7,11.8-18c1.3-1.9,3.2-3.3,5.5-3.8c5.5-1.3,16.3-3.9,22.7-4.7c9.5-1.1,19.1-1.2,28.6-.3c2.6.2,3.9-.8,5.3-3c2.4-3.9,5.2-7.6,10-8.9c1.7-.5,3.6-.2,5.3-.6c2.2-.6,4.3-1.4,6.3-2.3c4.9-1.9,9.8-3.6,14.6-5.7c2.4-1.1,4.5-2.9,6.8-4.3c1-.7,2-1.2,3.2-1.5c3.5-.9,7.3-.2,10.3,1.8c5.3,3.7,10.1,8.1,15.2,12.1c1.3,1,2.4,2.4,3.8,3c7.2,2.9,14.1,6.5,20.6,10.9c4.9,3.4,10.1,6.4,15.2,9.5c1,.6,2,1,3.1,1.2c3.2.5,6.5.8,9.8,1.1c3.5.3,6.9.7,10.4.8c1-.1,2-.4,2.9-.9-.6-3.1,1.3-2.2,2.9-1.9.3.1.6,0,.8-.1c3.7-2.1,8.3-2.3,12.2-.5c1,.2,2.1,0,2.9-.6c2.6-1.5,4.9-3.6,7.6-4.8c3-1.2,6.1-2.2,9.3-2.8.9-.2,2.1.5,3.1,1c1.7.8,3.3,1.7,4.9,2.7c1.1.5,2.1,1.2,3,2.1c1.5,2.1,3.8,1.6,5.7,2.1.7.2,1.7-1.2,2.7-1.8.5-.2,1-.4,1.6-.4.1.4.2.9.3,1.3c0,.4,0,.9,0,1.3.4-.3,1-.5,1.2-.8.3-.5.5-1.1.4-1.7-.6-3.2.5-6.8-2.3-9.5-.1-.1.5-1.4.8-1.4c3.6.1,7.1.4,10.7.6.9,0,2.2.1,2.7-.4c1.1-1.2,2.2-.7,3.5-.7.9,0,1.7-.3,2.3-.9c1.6-2.4,2.2-5.8,6.2-6c.3,0,.7-.9,1-1.4-.5-.2-.9-.3-1.3-.6-.7-.4-1.3-.9-1.9-1.4.7-.5,1.3-1.1,2.1-1.6c1.1-.8,2.5-1.2,3.4-2.2c1.1-1.2,1.9-2.4,3.9-2c.7,0,1.3-.3,1.7-.9.8-2.9,2.2-5,5.4-5.3.1,0,.2-.2.3-.3c3.1-4.7,8.7-7.3,10.9-12.9.1-.2.5-.4.7-.5c1.9-.9,2.1-2.4,1.1-4.1-.8-1.3-.6-2.3.6-3.1c2-1.4,4.1-2.6,6.2-3.7c2.6-1.1,5.4-1.8,8-2.7.4-.2.8-.5,1.2-.8-.5-.2-.9-.6-1.3-.6-2.9,0-5.8.1-8.7.1-.3,0-.6-.1-.9-.2.3-.1.5-.2.8-.3c4.7-.4,9.4-1,14.1-1c4.5,0,8-2.9,12.2-3.8.1,0,.2-.2.4-.2c3.9-1.4,7.7-3.2,11.7-4.1c2.3-.5,4.4-.7,6.1-2.6c1.5-1.7,3.3-3.3,5.2-4.6c3.5-2.4,6.5-5.5,10-8c1.2-.7,2.4-1.3,3.7-1.7-1,1-2,2.1-3.1,3-3.1,2.6-6.2,5.1-9.3,7.6-.3.3-.5.7-.6,1.1.4.1.8,0,1.2-.1c2-1.1,4.2-1.8,5.7-3.3c3.6-3.4,8-4.2,12.5-4.6c3.4-.3,6.9.6,10.4.8c4.4.2,8.9.1,13.4.2.4,0,.8.1,1.2.2c2.1.8,3.6-.4,5-1.7.4-.4.9-.8,1.4-1.1.3-.1.6-.2,1-.2-.1.3-.3.5-.4.7-1.3,1.8-1.1,2.4,1,3c.8.1,1.6.2,2.4.2c6.6,0,13.3.1,19.9.1c1.6,0,3.5.2,4.8-.5c2.4-1.3,4.6-2.5,7.5-2.4c5.3.2,10.4-2.8,15.8.5c3.5,2.1,7.5,3.7,9.5,7.4c1.8,3.3,5.2,4.4,8.1,6c2.6,1.5,5.7,2,8.7,2.5c2.7.5,5,2.3,6.1,4.8.5,1.1.4,2.3,2.2,2.2.2,0,.8,1,.8,1.5-.1,2.8.4,3.5,3.1,4.2.7.2,1.4.5,2.1.8c3.6,1.3,5.6,4.2,7.9,7c1.6,1.9,3.3,3.6,5.1,5.2.5.5,1.4.4,2.1.6-.4.4-.9.9-1.3,1.3-.1.2-.2.4-.1.6.6,1.6.6,3.7,3,4c1.6.2,3.2.6,4.7.8.4,0,.9,0,1.3-.1-.3-.3-.7-.7-1-1-1.1-1.3-3.4-.8-4.1-2.8-.2-.4-.3-.8-.5-1.1.4,0,.8.1,1.2.2c1.4.8,2.8,1.7,4.2,2.6c1.4,1.1,2.6,2.6,4.1,3.4c1.9,1,4.1,1.6,6.3,1.7c3,0,4.5,2.2,6.6,3.5.5.3,1,.6,1.5.9-.4-.4-.7-.8-.9-1.3s-.3-1-.3-1.5c.5.2,1.1.2,1.4.5.6.7.8,1.7,1.5,2.2c2,1.5,3.4,3.6,4,6c.7,2.5,2.5,3.6,5.1,3.4c1.6-.1,3.1.1,4.1,1.6.9,1.3,1.5.5,2-.6c1.4-2.7,3.5-4.6,6.6-4.6c3.3-.1,6.2,1.8,7.6,4.7s2.4,6,3.5,9c.1.3.2.7.1,1-.3,1.6-.8,3.2-1,4.9c0,.7.1,1.4.3,2.1.7-.1,1.4-.3,2.1-.4c2.5-.4,4.9-.8,7.4-1c.3,0,.7.6,1,.9-.3.2-.7.4-1.1.5-.3.1-.8-.3-1.1-.2-.5.2-.9.5-1.3.8.3.3.7.6,1.2.8.4.1.9-.1,1.3-.1c3.3.2,7.2-.5,9.2,3.1c1.6,2.9,4.2,4.1,7.1,4.8c1,.3,2.1.2,3.1-.1c2-1.1,3.7-2.7,5.8-3.7c4.3-2.1,8.8-3.8,13.2-5.8c2-.9,3.7-2.2,5.6-3.2c5.1-2.4,10.3-4.8,15.4-7.1c2.3-1,4.7-2.2,7.1-2.5c2.1-.1,3.9-1.3,5-3.1.9-1.3,2.4-2.8,3.8-3c6.5-1,13-1.9,19.6-2.3c4.9-.3,9.8.2,12.9,5c.4.5.8.9,1.4,1.1c4.9,2.6,9.8,5.3,14.8,7.8c1.4.7,2.9,1,4.4,1c8.6-.4,17.2-1.3,25.7-1.4c14.1-.2,28.2.4,42.2,3c13.4,2.5,26.8,4.7,39.4,10.1c8.6,3.7,14.3,9.5,15.8,19c.4,2.4.7,4.8,1.2,7.2c2.5,11.7,2.8,23.2-1.3,34.8-3.7,10.6-6.1,21.6-9.9,32.1-7.4,20-15.1,39.8-23.2,59.5-5.9,14.3-12.3,28.4-19,42.3-6.5,13.5-13.6,26.8-20.5,40.1-5.4,10.3-10.7,20.7-16.5,30.8-7.2,12.6-14.8,25.1-22.4,37.5-3.8,6.2-7.9,12.1-12.1,18-2.8,4-5.4,8.1-8.1,12.1-2,2.9-4.1,5.7-6.1,8.5-2.3,3.2-4.5,6.7-7.1,9.7-2.1,2.1-3.4,4.9-3.8,7.9-.2,3.4-1.4,6.6-3.5,9.3-1.5,1.8-2.3,4-2.2,6.4-.1,2.1-.3,4.2-.6,6.2-.3,2.7-.8,5.5-1.1,8.2-.4,3.9-.1,8.1-1.3,11.7-2.1,5.9-2.7,12-3.2,18-1.7,12.2-2.5,23.6-3.4,35.1v0Zm-363.4-400c.1.8.2,1.5.3,2.3.2,0,.4-.1.5-.1-.3-.6-.6-1.3-.8-1.9c0-.1,0-.2,0-.3c0-.6,0-1.2-.1-1.8-.4-1.1-.9-2.2-1.4-3.3-.3.2-1,.4-.9.6.1,1.3.4,2.7.7,4c.1.3,1.1.3,1.7.5v0Zm27.9-18.1c-.5-1.2-1-2.4-1.5-3.6-.1-.2-.7-.2-1-.2.2,1.3.5,2.6.8,3.9.6,0,1.3,0,1.9-.1c0,.7-.1,1.5-.2,2.2-.9,2.7-1.7,5.3.7,7.7.2.3.3.7.2,1.1-.5,3.5,1.3,5.7,4,7.5.4.2.5.8.8,1.2-.4.3-.9.6-1.4.7-.4.1-.9-.2-1.3-.3-4.6-1.1-5.9.5-6,4.7c0,1.5.1,3,.1,4.5-.1.4-.2.7-.3,1-.3-.3-.8-.5-.9-.8-.6-2.1-1.2-4.2-1.5-6.4-.4-2.3-.4-4.8-3.5-5.4-1.1-.3-2.1-.7-3-1.3-1.8-1-2.8-.7-3.1,1.3-.4,3.7-.8,7.5-.9,11.3-.1,1.7-.4,2.6-2.2,2.5-1.4-.1-1.6.1-.8,1.4c1.1,1.7,2.1,3.4,3.1,5.1c0,.1.5,0,.6-.1.6-1.4.8-.6,1,.2.2,1.2.4,2.4.5,3.5.3,4.9-1.2,9.4-2.8,14-.6,1.6-1.1,3.2-1.5,4.9-.1.4.3,1,.5,1.5.3-.4.6-.8.8-1.2.7-2,1.4-4.1,2.1-6.2.2-.3.4-.6.6-.9.2.3.3.6.5.9.4,1.9-.6,4,.9,5.8.1.1,0,.3,0,.4c1.2,7.2,2.2,14.5,3.7,21.6.4,2,2.6,3.5,4,5.3.2.3.7.5.7.7.6,3.5,1.2,6.9,1.7,10.4.2.9.4,1.9.6,2.8-.7-.7-1.3-1.4-1.9-2.2-.8-1.2-1.2-2.5-2.6-.4-.3.5-1.8.3-2.8.3-.3,0-.6-.8-.9-1.2-.4-.4-.8-.8-1.2-1.2-.3.5-.5,1.1-.7,1.7-.1.4.1.9-.1,1.3-.3.7-.6,1.4-1,2.1-.3.6-1.1,1.3-.9,1.6.4.6,1,1.1,1.8,1.2c1.6.2,3.3-.2,4.9.2c1,.2,2.6,1.6,2.5,2.2-.3,1.2-1.3,2.9-2.3,3.2-3.6,1.1-7.1,2-10.2,4.4-1.9,1.4-3.6,1.9-1.4,4.3.2.2,0,.8,0,1.2-.4-.1-.9-.2-1.1-.4-.5-.6-1-1.3-1.5-2-1.1-1.4-1.9-3.4-3.4-4.1-1.9-.9-4.3-.7-6.6-.9-1.1-.1-2.2,0-3.3.1-.4.1-.6.7-.9,1.1.4.1.8.2,1.3.4c1,.4,2,.8,3,1.3.2.1.5.8.3.9-.3.3-.7.5-1.1.5-.5,0-1-.2-1.5-.4-2.3-.8-3.8-.1-4.5,2.1-.1.4-.3.8-.4,1.2-.2-.4-.4-.9-.5-1.4-.2-1.3,0-2.6-.4-3.8-.6-1.5-2.1-1.4-3.4-.9-.1,0-.2,0-.2-.1-1.7-2-4-2.8-6.4-3.6-.9-.4-1.7-1.1-2-2.1-.5-2.2-.7-4.4-.8-6.6.1-.7.5-1.2,1.1-1.6c2.4-1,2.2-2.7,1.7-4.8-.8-2.9-1.1-5.9-1.6-8.9-.1-.7-.4-1.7-.7-1.8-2.1-.4-1.7-1.5-.9-2.7c1-1.4.5-2.3-.9-3.1-1.8-1-4.4-.5-6.5,1.1-.7.3-1.4.6-2.1.7.1-.7.3-1.4.6-2c1-1.5,2-2.9,3.1-4.3.9-1.1.4-1.8-.5-2.6-1.4-1.2-1,.2-1.3.7-.2.4-1,.5-1.6.7-.5.1-.9.1-1.4.1.2-.4.4-.7.7-1.1c1-1,1-2.6.1-3.6c0,0,0,0,0,0-.1-.2-.7-.1-1,.1-.5.3-1,.6-1.4.9-.3-.4-.5-.8-.8-1.1-.3-.4-.5-.8-.8-1.2-.2.5-.8,1.2-.6,1.5c1.4,2.4-1.3,3.6-1.6,5.4c0,.1-.6.1-.9.1-.1-1.3-.2-2.6-.2-3.9.1-.5.2-.9.4-1.3-.5.1-.9.3-1.3.6-2.2,2.4-4.4,4.8-6.6,7.2-2.1,2.3-4,4.8-6.1,7.1-.4.4-.9.7-1.5.9.2-.5.4-1,.7-1.4c1.7-2.2,3.6-4.2,5.1-6.5c2.7-4.1,5.1-8.3,7.6-12.6.2-.7.4-1.4.4-2.1-.6.3-1.1.6-1.7.9-.3.1-.6.1-.9.1v0c.5-.6,1-1.3,1.4-2c.1-.4-.3-1.1-.5-1.7-.5.2-1.2.3-1.4.7-.9,1.5-1.7,3.1-2.5,4.7-.4.6-.9,1.2-1.3,1.8-.5-.7-1.1-1.4-1.6-2l-.1.1c1.4-.7,4.4-6,4.3-7.4-.1-.3-.2-.6-.3-.8-.4-1.9-.8-3.7-1.1-5.6-.1-1.2-.1-2.4,0-3.6-1,.7-1.9,1.4-2.9,2l-.9-.7c-.1.3-.2.7-.2,1c.4-.1.8-.3,1.2-.4-.9,1.5-1.8,3-2.8,4.4c0,.1-.2,0-.3,0c0-.2,0-.4,0-.7c0-2-1-2.6-2.8-1.6-1.5.8-2.7.2-2.9-1.6-.1-.8.1-1.8-.2-2.4-.6-.8-1.4-1.4-2.2-2-.5.6-1,1.2-1.4,1.9-1,2.7-1.6,5.6-2.9,8.1-1.3,2.3-.7,5.8-4.2,6.6-.1,0-.2.2-.2.4-.8,1.3-1.4,2.7-1.8,4.1-.3,1.6-.7,3.9.1,5c1,1.3.3,2.4-.1,2.6-1.2.7-1,1.5-1,2.5c0,.6-.2,1.2-.6,1.7-2.7,4.4-5.3,9-8.3,13.2-1.4,1.9-.9,5.4-4.4,5.8-.6.1-1.2.2-1.7.4.1-.7.2-1.4.4-2c.2-.4.5-.8.8-1.1c2.1-2.4,4-4.9,5.9-7.5c3.6-5.8,5.6-12.4,6.8-19.1c0-.7-.2-1.3-.6-1.9-.2-.3-.6-.4-1-.6.4-.3.8-.8,1.2-.8c1.9-.3,2.5-1.4,2.3-3.2c0-.7.1-1.3.3-2c.4-1.4,1.7-2,1.1-4.2-.8-2.9.3-6.3.4-9.4.2-2.8-1.2-3.7-3.9-2.9-1.5.4-3,.5-4.5,1-.7.4-1.2,1-1.5,1.7-.2.7-.2,1.5-.2,2.2-.1.3-.2.5-.3.8-.2-.2-.4-.5-.5-.8-.8-2.3-2.3-2.9-4.3-1.8-1.6.9-3.2,1.9-4.8,2.8-1.1.6-2.3,1-3.5,1.4-.3.1-.8-.1-1.2-.2.3-.3.5-.8.9-.9c1-.2,2-.6,2.9-1c2.2-1.2,4.3-2.6,6.4-4.1.5-.4.5-1.4.7-2.2-.6-.1-1.4-.4-1.9-.2-1.8.8-3.6,1.8-5.2,3-1.1.7-1.6.9-2.1-.4-.1-.3-.6-.5-.9-.8-.1.4-.3.7-.5,1.1-.3.6-.8,1.1-1.3,1.4-1.4.7-2.9,1.1-4.3,1.9-3.2,1.8-3.7,5.3-4.7,8.4-1.3,4-1.1,4,3.1,4.3.5,0,1,.1,1.6.1c4.5.7,9,0,13.1-2c.3-.1.7-.1,1-.1-.2.3-.3.8-.5.8-4.5,1.5-8.8,3.8-13.9,2.5-1.4-.4-2.8-.5-4.2-.3-1.1.2-2,.9-2.6,1.9-.8,1.9-1.5,3.8-2.1,5.8-.1.2-.7.5-.9.4-1.3-1-1.3-.9-2.1.5-.4.4-.8.8-1.4,1.1c0-.5.2-1.1.4-1.6c1.2-2,2.5-3.9,3.6-5.9.3-.5.2-1.9-.1-2-2.1-.7-.9-1.5-.2-2.3.1-.2.2-.4.3-.6.9-2.8,1.9-5.5,2.8-8.3.1-.5-.2-1.1-.6-1.4-1.8-.7-3.6-1.2-5.4-1.7-.7-.2-1.4-.4-2.1-.6-2.3-1.1-4.6-2.4-7-3.4-3.1-1.3-6.6-1.6-8.8-4.6-.5-.4-1-.5-1.6-.4-2.8.3-4.3,2.1-4,4.9.1,1.3.5,2.5.6,3.8.2.9.2,1.8,0,2.6-.4.9-1.5,2.3-2.1,2.3-1-.1-2-1.2-2.7-2.1-.4-.6-.1-1.7-.5-2.3-.9-1-1.8-2-2.9-2.8-.7.9-1.3,1.8-1.9,2.7v0c-.5-.4-1-1-1.6-1.1-3.6-.9-7.2-1.8-10.8-2.5-.7-.1-1.4.2-1.8.7-3.1,5.8-8.1,9.1-14.3,10.6-.5.2-1,.5-1.5.8.3.5.7,1.1,1.1,1.5c2.9,2.9,6.1,5.6,8.6,8.8c5.3,6.8,10.4,13.9,15.5,20.9.7,1.2,2.2,1.9,3.6,1.6c4.5-.8,9.1,0,13,2.3c2.2,1.3,3.4.9,4.5-1.3.4-.9,1.9-2,1.7-2.4-1.1-2.1,1-3.6.7-5.5c0-.3.9-1,1.4-1c.6.1,1.1.6,1.3,1.1.1,1,.1,1.9-.2,2.9-.6,2.3-.3,2.7,2,2.6.5.1,1.1.2,1.5.4-.2.5-.5.9-.8,1.3-1.1.9-3.2,1.6-3.2,2.4c0,2.6-1.4,2-2.9,2-.5.1-1,.2-1.4.4l.5,1.4c.6,1.6,1.6,3.2,1.6,4.9-.1,1.4.6,2.7,1.9,3.4c6,3.9,11.3,8.7,14.2,15.4c1.3,3,2.7,4.5,6.4,4.1c4.3-.5,8.7.1,13-.3c6.3-.6,8.7.9,10.1,6.9.8,3.6,4.9,5.1,8.3,3.5c2.2-1,4.5-1.7,6.9-2.2c2.3-.5,4.7-.4,7-.8c2.6-.6,5.1-1.3,7.6-2.1c4.3-1.4,8.9-.9,12.8,1.2c3.1,1.6,6.1,3.9,6.6,7.2.9,5.4.7,11,.9,16.5.1,1.3-.1,2.7,0,4c.1.7.5,1.4,1.1,1.8c2,.9,4.2,1.5,6.4,1.8c7.1.7,12.4,3.4,14.8,10.6c1.1,3.3,1.2,3.3,4.7,2.9c1.3-.2,2.5-.2,3.8,0c5.4.6,10.8.2,16-1.2c1.9-.5,3.5-1.7,4.5-3.4c1.9-2.9,4-5.5,6-8.3c1.9-2.6,3.8-5.1,5.5-7.8c2.3-3.5,4.4-7.1,6.8-10.5.9-1.3,2.4-2.3,1.4-4.3-.1-.2.3-.6.4-.9.2.2.5.3.6.6.1.4.2.9.1,1.3-.1,3.7-.2,7.3-.2,11c0,3.6-.2,7.3.6,10.8c1.6,7.8,6.4,14.3,11.4,20.1c7,8.2,15.1,15.4,22.9,22.8c3.2,3,7.1,5.3,10.7,7.9.2.2.5.4.7.5c2.3,1.3,4.8,2.1,7.4,2.4c1.5.1,3.7.6,4.3,1.7c1.2,1.9,2,.6,2.8.2.9-.5,2-1.4.7-2.7-1.3-1.2-.9-2.3.2-3.2c1.8-1.4,3.7-2.5,5.4-3.9c2.6-2.1,5.1-4.3,7.6-6.6.2-.6.1-1.2-.2-1.6-1.8-1.1-1.8-1.6,0-2.9c3.2-2.3,6.5-4.6,9.7-6.9.7-.6,1.4-1.3,2.1-2c1.5-1.5,3.1-2.9,4.6-4.4c1.3-1.3,2.6-2.6,3.9-3.9.6-.8,1.4-1.5,2.2-2.1c2.3-1.2,2.7-2.9,1.8-5.1-1.2-2.6-.3-5.8,2.1-7.4c2.7-2.1,5.8-3.7,8.6-5.5.9-.6,1.6-1.2,2.3-2c.3-.5.5-1.1.7-1.8-.6-.1-1.2-.2-1.8-.3-.4-.1-.8-.2-1.2-.2.1-.4.3-.8.5-1.2.6-1,1.2-1.9,1.7-3c.2-.3-.1-.8-.2-1.2-.4.1-.8.2-1.2.4-.9.5-1.7,1-2.5,1.5.8-.8,1.6-1.6,2.4-2.4.3-.3.8-.5,1-.9.2-.3.3-1.1.2-1.1-1.9-1.1-1.4-3-1.7-4.6-.4-2.3-1.4-3.3-3.7-2.5-.9.4-1.6,1-2.1,1.9-.7,1.4-2.1,2.2-3.6,2.1-1.2.1-2.3.6-3.1,1.4-1.1.9-2,1.5-3.3.5-.6-.2-1.2-.1-1.7.3-.6.6-1.2,1.3-1.6,2.1-.6.9-.9,1.6-1.8.2-.4-.6-1.1-.9-1.8-.9-.5.1-1,1-1.3,1.6-.4.9-.5,1.9-.9,2.8-.3.5-.6,1-1,1.5-.2-.5-.4-1.1-.4-1.6.3-2.9-.8-3.1-3.2-2.4-1.3.4-2.1.7-2.1-1.1c0-.4-1.2-.9-1.9-1-2.9-.4-5.7-2.1-8.8-.6-.1,0-.1,0-.2,0-3.8-.3-7.5-.6-11.3-.7-8.5-.3-17-1.1-25.1-3.8-5.6-1.9-11.3-3.6-16.9-5.6-2.3-.8-4.5-2-5.5-4.6-.4-1.6-1.1-3.1-2-4.4-2.8-3.6-4.5-8.2-9.3-10-.3-.1-.5-.7-.6-1.1c0-.1.3-.4.4-.4c1.7.3,3.8.1,5.1.9c2.7,1.7,4.9,4.1,7.5,6.1c2.6,2.1,5.3,4,8.2,5.7c4.1,2.1,8.3,4,12.6,5.6c2.5,1,5.4,1.2,7.9,2.2c4.2,1.8,8.7,2.5,13.2,3.1c2.1.3,4.2.2,5.6-1.8.4-.5,1-.9,1.7-1c3,0,5.7-2.6,8.8-1.1.3.1.9-.2,1.2-.4c3.1-2.3,6.2-4.6,9.1-7.1c2.7-2.4,5.3-5,7.6-7.8c1.6-1.9,3-4,4.1-6.3c1.8-3.8,3-7.9,5-11.6c3-5.5,6.4-10.8,9.6-16.1.4-.7.6-1.5.6-2.3-.4-2.3.6-3.7,2.5-4.7c3-1.5,3.2-2.5,1.6-5.4-.8-1.4-.7-2.2,1-3.1c3.6-1.7,5.8-6.2,5.6-10.3-.2-3.3.5-6.6.7-9.9.2-.9.1-1.8-.2-2.7-.7-1.6-.1-4.7,1.3-5.6c1.2-.7,2.3-1.5,3.3-2.4.3-.5.4-1.1.2-1.6-.6-1.2-4.2-3.4-5.6-3.7-.2-.1-.3-.2-.3-.4c1-1.4,1.9-2.8,2.9-4.2.3-.5.7-1,1-1.5l-.1.1c.7.1,1.4.2,2.1.1.5-.1,1.3-.4,1.4-.7c1.3-6.1,3.1-12.2,2.1-18.5-.5-2.8-.7-5.6-1.1-8.4-.1-.6-.3-1.1-.5-1.6c0,.6,0,1.2-.1,1.8-.1.8-.4,1.6-.6,2.4-.2.5-.3,1-.4,1.5-.3,5.4-.5,10.8-.8,16.2c0,.6-.7,1.1-1,1.6-.1-.7-.5-1.6-.2-2c1.4-1.9,1.1-3.9,1.1-6c0-2.2-2.1-5.8-4.1-6.6-.6-.1-1.2-.1-1.8,0-.3.1-.6.2-.9.3c0-.4,0-.7.1-1c.5-1.7.9-3.4,1.4-5.2.2-.6.2-1.2,0-1.7v1.7c-.5.6-.9,1.2-1.3,1.9-.3.5-.5,1.2-.9,1.5-3.4,2.4-7.3,3.8-11.4,4.2-4.1.3-8.2-.3-12.3-.5-.5,0-1-.5-1.5-.8.5-.2,1.1-.3,1.6-.4c1,0,2.1.2,3.1.1c2.3-.1,4.5-.4,6.8-.8c1.6-.4,3.7-1.3,2.8-3.4-.4-.9-2.6-1.1-4-1.5-3.2-.9-6.5.7-9.7-.5-1.5-.6-3.2-.8-3.7-2.8-.4-.5-1-.8-1.7-.7-1,.5-1.9,1-2.7,1.7.2.3.3.7.6.8.5.3,1.1.5,1.7.7-.6.3-1.2.5-1.9.6-1.2.2-2.5.3-3.7.2-1-.4-2-.9-2.9-1.5.8-1.1,1.5-2.8,2.5-3.1c4.7-1.1,9.5-1.9,14.2-2.6c2.9-.4,2.6-.2,2.5-2.7-.2-2.8-1.3-4.4-3.9-5.3-.3-.1-.5-.5-.7-.8.4-.2.8-.2,1.2-.2c1.5.3,2.9.7,4.3,1.2c4.9,2.1,7.5.5,7.3-4.7c0-.4,0-.7,0-1.1-.2-3.5-1.7-4.5-5.1-3.7-1.2.3-2.5.4-3.7.2-2.3-.4-4.6-1-6.9-1.6-.6-.3-1.2-.8-1.6-1.3-.4-.4-.5-1.2-.9-1.5-1.8-.9-2.1-1.9-1.5-4c1.1-3.9,2.8-5,6.4-3.3.7.4,1.5.6,2.4.6c1.2,0,2.9,0,3.3-.6.6-1,.2-2.4-1-3.5-1.7-1.9-3.3-3.8-4.7-5.9-2.1-2.6-4.2-5.2-6.4-7.7-.7-.8-1.5-.9-1.6.5c0,.2-.6.4-.9.4-1-.3-1.9-.6-2.7-1.1s-1.5-1.1-2.1-1.8c-.5-.6-.7-1.5-1.2-2.1-.7-.8-1.5-1.5-2.3-2.2.5.8,1.1,1.7,1.6,2.5.1.2.2.5.3.7-.3-.1-.6-.1-.8-.3-.8-.9-2-1.8-2.3-2.9-1.4-4.6-2.5-9.3-3.8-14-.4-1.5-.8-3.6-1.9-4.4-2.5-1.6-5.1-2.9-8-3.8-1.8-.4-3.7-.5-5.6-.1-1.1.1-2.1,1-3.1,1.4-.9.4-1.8.6-2.8.8-.8.1-1.6-.1-2.4.2-4.8,1.5-9.5,3.2-14.7,3.4-2.4.1-5.6,1.1-6.3,4.5-.1.4-.8,1-1.1.9-1.9-.6-2.7.5-3.4,2-.2.4-1.1.3-1.7.5-.1-2.2-.8-.7-1.5-.3s-1.6.6-2.4,1c-.8.3-1.5.7-2.1,1.3-1.6,2.2-2,5.4-5.1,6.4-.2.1-.2.4-.3.6-.8,1.2-1.7,2.4-2.4,3.6-.5.6-.8,1.4-.8,2.2.1,1.6-.7,2.2-2,2.7-.6.2-1.4,1.6-1.2,1.9.9,1.7-.1,1.3-1.1,1.2-.7,0-1.8,0-2.1.4-1,1.7-1.9,3.5-2.7,5.4-.2.5,0,1.5.3,1.7.4.2,1.3,0,1.8-.2.4-.1.6-.7,1-.9.9-.5,1.8-.8,2.7-1.2c0,.9-.2,1.9-.4,2.8-.9,2.8-1.9,5.5-2.8,8.2-.1.4.1.9.2,1.4.5-.1.9-.3,1.3-.6c2-1.6,4-3.3,6.1-4.9c3.4-2.8,7.5-3.8,11.8-4.2c1.2-.1,2.5-.4,3.6-.9c4-1.9,8.7.2,11,2.9.2.2,0,.8-.1,1.3-2-.3-2.1,1.4-2.8,2.5-.5.8-1.1,2-2.5,1.1-.2-.1-.8.4-1.3.5-.6.2-1.3.4-2,.5-1,.2-2.4-2-3,.6c0,0-.7-.1-1-.1-3.6-.1-7.1-.3-10.7-.3-.5.1-.9.3-1.3.6.6,2.5-1.7,2.7-3,3.5-2.1,1.3-4.8,1.9-5.7,4.8-.1.4-.7.6-1,1-1,1.2-2.8,2.5-2.8,3.6.1,1.7-.8,2.2-1.7,3-.4.3-1,.9-.9,1.2.4,2.6-.5,5.4,1.7,7.6-.3.7-.6,2.2-.5,3.4v0Zm259.3,84.5h.2c0,.7,0,1.3,0,2-.1.4-.4.7-.7,1-.2-.2-.7-.5-.7-.8-.3-2.1-1.2-1-2.1-.4-1,.8-2,2.2-2.9,2.2-2.7,0-4.2,1.6-6,3.1-2.7,2.2-4.9,5-8.7,5.6-.9.1-1.8,1.1-2.6,1.7-.2.1-.4.6-.4.7.2.2.6.6.9.5c3-.2,6.1-.5,9.1-.7.3,0,.6-.1.8-.1-.2.2-.4.4-.6.6-.6.5-1.4,1-1.8,1.6-1.1,2-3,2.3-4.9,2.6-.7.1-1.5,0-2.2.1-1.8.5-2.8,2.4-2.3,4.3c0,0,0,.1,0,.1.8,2,1.3,4.2,1.9,6.3.4,1.3.6,3.2,1.5,3.8c3.4,1.9,7,3.2,10.5,4.8c2,1,4,2.1,5.9,3.3c1,.7.7,1.5-.6,1.8-2,.5-2.1,1.6-1,3.1.2.2.4.5.5.7c1.3,2.8,2,3,4.3,1c2.7-2.3,5.4-4.7,8.1-7c.4-.2.9-.4,1.3-.5-.3.3-.6.7-.8,1-.3.6-.5,1.2-.7,1.9.6-.3,1.2-.7,1.8-1c.2-.1.2-.4.4-.6c3.3-4.8,7.7-8.7,12.7-11.6.8-.7,1.4-1.6,1.5-2.7.4-3,1.1-5.9,3.3-8.2c3.5-3.7,7-7.6,10.7-11.1c4.7-4.4,9.7-8.6,14.6-12.9c1.3-1.2,2.9-2.1-.1-3.7-1.4-.7-2.3-1.9-4.1-1.1-.4.1-.8.1-1.1-.1-2.2-.9-4.5-1.7-6.7-2.8-1.7-1-3.9-.6-4.9,1.1-1.6,2-3.4,3.9-5.2,5.8-.2.2-.6.1-.9.2.1-.3.1-.5.3-.8c1.7-2.9,3.5-5.8,5.2-8.7.1-.5-.1-1.1-.5-1.5-2.1-1.3-4.3-2.4-6.6-3.5-2-.9-3.9-3.1-6.5-1.3-.1.1-.6-.1-.8-.3-2.1-1.1-3.3-.2-4.3,1.7-.2.4-1,.9-1.4.8-2.1-1-4.6-.3-5.9,1.7-.8.7-1.6,1.4-2.4,2.1-1.3,1.3-3.3,2.6-3.8,4.2-.8,3.1-.9,6.6-1.3,10v0Zm41.7-107.1c-1.3.5-2.5,1.1-3.7,1.9-1.7,1.5-3,3.5-4.6,5.1-1.9,1.9-3.2,3.8-1.4,6.4.2.3.1,1,.1,1.4-.5-.1-.9-.2-1.4-.3-1.1-.4-2.2-1.2-3.3-1.2-1.3,0-4.1,4.7-3.4,5.9c1.4,2.6-.6,6.1,2.2,8.2.1.1.2.4.2.6.1,3.8,2.6,5.6,6.2,4.5.8-.2,1.6-.3,2.4-.4c2.4.1,4.5-1.5,5.2-3.8.3-.3.8-.4,1.3-.3c3.1,3.2,6.4,2,9.8.8c13.2-4.8,26.4-9.7,39.6-14.4c4.7-1.7,9.6-2.8,14.4-4.4c1-.3,2.5-1.8,2.4-2.6-.2-1.4-1.6-1.8-3.3-1.7-2.6.2-5.2-.2-7.6-1-4.2-1.6-8.2-3.7-12.3-5.7-2.8-1.3-5.3-3.2-8.8-2.9-4.1.4-8.3.4-12.4.7-2,.1-4.2-.8-5.7,1.5-.2.3-1,.3-1.5.3-2,.1-4.3-.4-5.9.4-2.7,1.7-5.8,2-8.5,1v0ZM190,129.2c0,.5.1,1,.1,1.6c0,.2.2.4.4.4s.4-.2.5-.4c.5-1.7.9-3.5,1.1-5.3.1-1.3.1-2.7-.2-4-.8-4.3.2-8.8,2.7-12.4.9-1.6,1.6-3.3,2-5c.3-1-.2-1.4-1.5-1-1.2.4-3.5.9-3.8.5-1.5-2.9-4.9-2.6-7-4.4-.4-.4-.9-.7-1.5-.9-5.6-1-11.1-2.1-16.7-2.9-2.9-.4-5.9-.1-8.9-.4s-5.9-.9-8.8-1.4-5.8-1.1-8.8-1.4c-.6-.1-1.5.7-1.9,1.3-.2.4.4,1.3.7,1.8.5.8,1.1,1.6,1.7,2.3c1.2,1.5,2.3,3.5,3.9,4.2c4.6,2.1,9,5.1,14.5,4.2.9-.1,1.8.1,2.6.5c2.8,1.5,5.7,3,8.3,4.7c6.2,4,12.2,8.3,18.5,12.2c1.8,1.1,2.4,2.2,2,4.2.2.6.1,1.1.1,1.6v0Zm131.9,68.3c0,0-.1,0-.1,0c.1,1,.2,2.1.3,3.1c0,.3-.1.7-.2,1-.3-.1-.6-.3-.9-.4-.3-.2-.7-.4-1-.7-.2.4-.4.9-.5,1.4-.5,2.1-.8,4.1-1,6.2.1,1.3.3,2.6.6,3.9.2,1.1.7,2.4.4,3.4-1,3.4,1.5,8,5,8.8.3.1.9.2,1,.5c1.2,2.5,2.8,2.3,4.9,1.1.7-.4,1.9.2,2.9.4-.3.7-.5,1.4-.8,2-.4.7-.7,1.3-1.2,1.9-1,1.4-.6,2.3,1,2.9.8.4,1.5.9,2.1,1.4c1.1.7,2.3,1.3,3.5,1.9.1-1.2-.1-2.4-.4-3.6-.6-1.5-.8-2.7.4-3.8.7-.4,1.4-.7,2.2-.9c1.2-.6,1.1-1.2.6-2.3-.6-1.4-2.1-2.2-3.6-1.9-1.5.1-1.4-1.1-.8-2c.3-.5,1-.6,1.5-1s.9-.8,1.3-1.3c-.6-.3-1.3-1-1.9-.9-2.1.2-2.4-.9-2.2-2.6-.1-.7-.3-1.3-.6-1.9-.3.6-.7,1.2-.9,1.8-1.1,2.6-2.2,5.1-3.4,7.6-.2.5-1.3.5-2,.7.2-.5.4-1,.7-1.5.2-.4.6-.8.6-1.2-.2-2.5,3.2-3.9,2.1-6.7c0-.1.3-.5.5-.6c2.3-1,2.3-3,1.9-4.9-.4-2.6-1-5.1-1.7-7.6-.3-.8-.7-1.4-1.3-2-.3-.3-.7-.5-1.1-.7-.2.4-.3.8-.3,1.2.5,3.7,1.1,7.4,1.6,11.1c0,.6-.1,1.2-.3,1.7-.5-.4-1-.9-1.5-1.4-.2-.2-.1-.7-.1-1.1-.7-3.3-1.2-6.7-2.1-10-.7-2.4-1.5-4.7-2.5-7-.4-.6-1-1-1.7-1.2-.2-.1-.9.8-1,1.3-.1,1.2-.1,2.6,0,3.9v0Zm-111-76.6c.1-.3.3-.8.5-1.3.3.3.7.7,1,1c.4.4.7,1.2,1.1,1.3c1.7.1,1.9,1.2,2.2,2.6.3.8.8,1.6,1.5,2.1.1.1,1.1-.2,1.1-.5c1.3-4.8-.4-9.5-.8-14.3-.3-1.2-.7-2.4-1.2-3.5-.1-.5-.2-.9-.2-1.4-.5.2-1,.4-1.5.7-.3.3-.5.8-.9,1-1.6,1.3-2.4,4.4-5.5,2.3-.4-.3-1.4,0-1.9.3-2.3,1.1-4.6,2.4-6.7,3.9-2.5,1.8-4.3,4.3-4.1,7.7c0,.6.8,1.1,1.3,1.7c1.6-2.1,1.2.2,1.5.7.3.7.3,1.5.7,2.1.8,2,1.7,3.9,2.8,5.7.7,1.1,3.5.5,3.2-.4-.9-2.7,1.3-1.5,2-1.6c3.2-.6,3.8-1.4,2.7-4.4-.2-.5-.2-1.6.1-1.7c1.4-1,1.7-2.3,1.1-4v0ZM523.3,286.2c-.1.1-.3.1-.4.2-2.2,2.5-6.4,3.5-5.6,8.4.4,2.5-.5,4.4,2.5,6.4c2.3,1.6,2.9.6,4.1-.4c3-2.9,6-5.8,8.8-8.9.7-.7,1.2-2.4.8-3.1-1.1-1.6-2.4-3.1-3.8-4.4-.1-.1-.8.2-1.2.4-1.8.7-3,2.8-5.2,1.4v0ZM217.6,155c.3-1.9-.5-2.7-1.9-1.8-1.3.7-2.5,1.6-3.6,2.7-3.1,3-6,6.1-9.6,8.4-.6.5-1.1,1.2-1.5,1.9.8.5,1.6.9,2.5,1.2c1.1.1,2.3-.4,3.5-.4c3.3,0,6.6.1,10,.1.4-.1.8-.3,1-.7.6-1.2,1.2-2.4,1.6-3.7s0-2-1.6-1.7c-.2.1-.8-.4-.8-.6.1-1.9.3-3.6.4-5.4v0Zm379.9,66c1.3.3,2.6,1.2,3.7.9c2.5-.6,4.9-1.5,7.2-2.8c1-.7,1.5-1.9,1.5-3.1-.6-1.8.4-2.2,1.5-2.9c1.1-.5,2.2-1.2,3.1-2c.3-.7.3-1.4,0-2.1-.5-.5-1.1-.8-1.8-.6-2.5,1.2-4.8,2.7-7.3,3.8-2.7,1.2-5.7,2-8.4,3.2-1,.5-2.4,1.7-2.3,2.6-.1,1.5,1.1,2.8,2.7,2.9c0,.1.1.1.1.1v0ZM428.8,362.7c0-2.7,0-6,0-9.3-.1-.6-.3-1.1-.6-1.7-.3.6-.8,1.3-.8,1.9.3,3.4.5,6.8-.6,10.1-.1.3-.2.5-.3.8-.2-.2-.3-.4-.5-.6-.7-.7-1.6-2-2.1-1.8-2.4.6-1.3-1-1.4-1.9c0-2.5,0-5-.1-7.5c0-.5-.7-.9-1.1-1.4-.3.5-.5,1-.6,1.6c0,5.4,0,10.7.1,16.1c0,1.7,1.1,3.7.4,4.9-1.3,2.2.7,1.9,1.3,2.3c3.1,1.7,5.6.3,5.8-3.2.1-3.2.3-6.5.5-10.3v0ZM579.4,71.3c.1.6.2,1.6.4,2.6.4,1.6,1.1,2.1,2.7,1.1c1.5-.9,3-1.6,4.7-2.2.4-.2,1.2.3,1.7.7.9.8,1.6,1.8,2.4,2.7.3.2.7.4,1.1.5.1-.3.3-.8.2-1-.9-2.6-1.5-5.3-2.9-7.6-1.2-2.2-3.9-3.2-6.2-2.3-2.4.7-4.1,2.9-4.1,5.5v0ZM482.5,293.6c-.8-1.5-1.2-3.1-1.9-3.2-3.8-.5-9.6,4.7-9.6,8.5c0,.8.4,1.5,1.1,1.9c2.1,1,4.1.8,5.7-1.1c1.7-2,3.1-4,4.7-6.1ZM635.4,123.2c.1,1.5.1,2.7.3,3.9.1.3.2.7.4,1c1.5-.6,1.3.9,1.9,1.4c1.7,1.4,2.2,4.5,5.6,3.7c1.1-.2,1.5-.2,1.1-1.3-.3-.6-.6-1.2-.9-1.8-1.8-4-3.6-7.9-5.5-11.9-.3-.5-1-.8-1.6-1.2-.3.4-.5.8-.7,1.3-.3,1.6-.5,3.4-.6,4.9v0ZM323.7,168.9c-.2.5-.4,1-.7,1.4c0,.1-.6-.1-.9-.3-.4-.3-.7-.5-1.1-.8-.2.5-.4,1.1-.5,1.6-.1,2-.1,4.1-.1,6.2c0,.3.1.7.2.7c2.1.7,1.6,2.3,1.3,3.8c0,.4,0,.8.1,1.2.3-.2.9-.4,1-.7.3-1.5,2.2-2.4,1.7-4.3-.1-.9-.2-1.8-.1-2.7c0-.5.1-1,.2-1.5c2.2.6,1.2-1.3,1.3-2c.2-1.3.3-2.7.2-4c0-.1-.6-.4-.8-.3-.4.1-.9.7-1.1.6-1.8-1.2-1.4-.2-.7,1.1v0Zm273,39.7c1.3-.1,2.6-.4,3.9-.7.8-.3,1.3-1.1,2-1.7-.7-.8-1.3-2-2.1-2.2-2.7-.6-5.6-.7-8.4-1.1-1.4-.2-1.8.3-1.3,1.6.6,2,3.6,4.1,5.9,4.1v0Zm-43.8,60.8c1.3-.8,2.9-1.3,3.1-2.1.5-1.6-.7-2.7-2.3-3.2-.8-.2-1.4-.7-1.9-1.3-1-2-2.1-1.7-3.5-.4-.7.4-1.4.7-2.2.9-.4,0-.8,0-1.1-.1.2.5.2,1.1.5,1.5.8.8,1.7,1.4,2.6,2c1.5.8,3,1.7,4.8,2.7v0ZM353.9,79.2c2.1-1.8,4.6-3.4,6.4-5.7c2.2-3,4.2-6.2,6-9.5.9-1.6,1.7-3.3,2.4-5c.1-.3-.3-.9-.4-1.4-.3.1-.7.2-.8.4-1.2,2.2-2.3,4.4-3.5,6.6-.3.7-.7,1.3-1.2,1.9-3,4-6.1,8-9.2,12-.1.2-.2.4-.3.6.1,0,.2,0,.6.1v0ZM595.5,255.9c.5.8,1.1,2.9,2.5,3.6.9.5,3-.5,4.3-1.3.8-.4,1.1-1.6,1.5-2.5c0-.1-.7-.7-1.1-.9-1.3-.6-2.6-1-3.9-1.7-2.6-1.3-3.2-1-3.3,2.8v0ZM475.8,3.5c0,.2.1.4.1.5.4-.2.8-.5,1.2-.7-.4-.6-.7-1.6-1.1-1.7-2.2-.4-4.5-.6-6.8-.4-2.4.4-4.7,1.5-7,2.3-.5.2-1,.4-1.5.6.5.3,1.1.6,1.7.8.7.1,1.5,0,2.2-.1c3.8-.5,7.5-.9,11.2-1.3v0ZM419.6,516.2c-.4.1-.8.3-1.2.5.3.2.7.4,1,.7s.7.6,1,.9c-.4.2-.9.4-1.3.6s-.7.4-1.1.6c.3.2.7.5,1.1.7s.8.5,1.3.7c-.4.2-.8.5-1.2.7s-.8.5-1.1.8c.3.2.7.5,1,.7.5.3.9.5,1.4.8-.5.2-1,.4-1.5.7-.3.2-.6.4-.8.6.2.2.3.6.5.6c1.5.3,3,.6,4.6.8.3,0,.7-.1,1-.3-.3-.2-.7-.3-1-.5-.5-.3-1-.6-1.5-.9.5-.2.9-.4,1.4-.6.4-.2.7-.3,1.1-.5-.3-.2-.7-.4-1-.6-.4-.3-.9-.6-1.3-.8.4-.3.7-.5,1.1-.8.3-.2.7-.5,1-.7-.3-.1-.7-.2-1-.4-.5-.2-.9-.5-1.3-.8.3-.3.7-.6,1-.9.2-.2.4-.3.6-.5-1.4-.9-2.5-1.5-3.8-2.1v0ZM541,279.8c-.2-.1-.5-.4-.6-.3-1.3.6-2.9.9-3.7,1.9-1,1.2-1.5,2.1-3.1,1-.4-.2-1.1,0-1.7.1c0,.5.1,1,.2,1.4.8,1.3,1.7,2.6,2.6,3.8.1.2.9.1.9.1.2-.7.2-1.5.3-2.2.5.1,1.4.5,1.5.3c1.3-1.9,2.4-3.9,3.6-6.1v0ZM422.9,440.5c-1.4.5-2.7.8-3.9,1.3-.4.2-.7.4-1,.7.4.3.8.5,1.2.7.5.2,1.1.4,1.6.6-.5.2-1.1.4-1.6.6-.4.2-.8.3-1.1.5.3.4.7.7,1,.9.4.2.9,0,1.3.1.3.2.5.5.5.8c0,.2-.2.5-.5.6-.7.2-1.4.4-2.1.5.8.2,1.5.4,2.3.7.1,0,.3.2.3.2-.1,2.7,1.8.6,2.7,1c.1,0,.3-.2.5-.3-.2-.2-.4-.3-.6-.5-.5-.3-1-.7-1.5-1c.5-.3,1-.5,1.5-.8.4-.2.8-.5,1.2-.7-.4-.2-.8-.3-1.1-.5-.5-.3-1-.5-1.5-.8.5-.2,1-.5,1.5-.7.4-.2.8-.5,1.3-.7-.4-.3-.8-.5-1.2-.7-.3-.1-.7.1-.9-.1-.4-.3-.6-.7-.8-1.1c0-.1.5-.5.9-.7.4-.1.8-.3,1.3-.3-.5.1-1-.1-1.3-.3v0Zm161-205.4c.2-.1.8-.3,1-.7.1-.5,0-1-.3-1.4-1.3-.9-2.6-1.8-4-2.5-.8-.4-1.6-.7-2.5-.9-.5-.1-1.1-.2-1.6-.2c0,.6,0,1.1.1,1.7c1,2.4,4,4.1,7.3,4ZM310.8,184.7c-.2.1-.4.1-.6.2.3.4.6.8,1,1.2.2-.4.4-.8.5-1.3.4-1.8.9-3.6,1.1-5.5.4-2.4.6-4.9.9-7.3c0-.3-.1-.6-.3-.8-.2.3-.5.5-.6.8-.2,1.3,0,2.7-1.7,3.3-.2.1-.4.8-.4,1.2.1,2.8.1,5.5.1,8.2v0Zm322.1-65.5c-.2-.9-.5-1.7-.8-2.5-.2-.4-.6-.7-1.1-.8-.3,0-.7.5-.9.9-1.1,2.5-.8,5.4.8,7.6.2.3.7.4,1.1.7.2-.3.4-.7.5-1.1.1-1.5.2-2.8.4-4.8v0ZM304.8,144.1c0,0-.1,0-.1,0-.2,1.7-.3,3.4-.5,5.1c0,.3.1.5.2.8.2-.2.3-.5.4-.7c1.2-4.9,1.5-9.9.8-14.9-.2-.5-.5-.9-.8-1.3-.2.4-.3.9-.4,1.4.1,3.2.2,6.4.4,9.6Zm-85.1-28.4h.2c0,.4,0,.9,0,1.3.3,1,.7,2,1,2.9.3-1,.6-2.1.7-3.2c0-2.9-.1-5.7-.2-8.6c0-.2-.1-.4-.1-.5-.2.2-.3.5-.4.7-.4,2.5-.8,5-1.2,7.4v0ZM422,388.7c1-.5,2.1-1,3.1-1.5.3-.1.6-.2.8-.4-.3-.1-.5-.2-.8-.3-.5-.3-1-.7-1.5-1.1.5-.3,1-.5,1.5-.8.3-.1.5-.1.8-.2-.3-.2-.6-.6-.8-.5-1.1.3-2.3.7-3.4,1-.5.1-.9.3-1.4.4.9.3,1.7.7,2.4,1.3-.3.3-.7.6-1.1.9-.5.2-.9.4-1.4.5.6.3,1.1.4,1.8.7v0ZM586.1,83.5c-.6-.5-1.3-1.3-1.6-1.2-.8.4-1.6,1-2.3,1.7.7.8,1.5,1.6,2.2,2.4.5-.9,1-1.8,1.7-2.9v0Zm1.2,129.3c1.9.2,2.6-.7,2.4-2.2-.1-.7-.8-1.3-1.3-2-.6,1.1-1.3,2.2-1.9,3.3c0,.2.5.6.8.9v0ZM240.7,170.7c.8-.3,1.8-.6,2.8-1.1.3-.1.5-.6.8-.9-.4-.1-.8-.4-1.1-.4-1.5.2-3.1.5-4.6.9-.6.3-1.2.6-1.7,1c.6,0,1.2,0,1.8,0s1.1.4,2,.5v0ZM494.8,92.6c.1.5.2.9.3,1.3.3-.3.8-.6.9-.9.4-1.8.8-3.6,1.1-5.4.1-.3-.3-.7-.5-1.1-.2.3-.4.6-.5.9-.5,1.8-.9,3.5-1.3,5.2v0Zm-188.1,109c1.1,2.1,2.3,4.5,3.5,6.9.1.1.2.2.3.3c0-.2.2-.4.1-.5-.9-2.5-1.8-5-2.8-7.5-.1-.3-.5-.4-.8-.6-.1.3-.1.6-.3,1.4v0Zm-5.3-63.1c-.6-2.2-1.2-4.5-1.9-6.8-.1-.3-.4-.5-.6-.8c0,.4,0,.7,0,1.1.5,2.2,1,4.5,1.5,6.7.1.4.3.9.4,1.3.2-.5.4-.9.6-1.5v0ZM536.5,276.6l1.1-.5c.7-.5,1.3-1.1,1.8-1.8.1-.2-1.1-1.5-1.2-1.4-.8.5-1.6,1.1-2.2,1.9-.2.4.3,1.2.5,1.8v0ZM361,66.5c.4-.3.6-.4.7-.6c1.4-2.4,2.9-4.9,4.3-7.3.1-.1-.1-.4-.1-.5-.1.1-.3.1-.3.2-1.5,2.4-3.1,4.7-4.5,7.1-.3.2-.1.6-.1,1.1v0ZM610.2,200.7c-.7-.9-1-1.5-1.4-2l-2,3c.4.2.9.7,1.1.6.8-.5,1.6-1,2.3-1.6v0Zm-255.5-56l-3.8-3.1c-.2.3-.6.9-.6,1c1.2.9,2.5,1.7,3.8,2.5.1.1.3-.2.6-.4Zm-89.5,38.1c.7-.7,1.3-1.6,1.8-2.4.1-.8.2-1.5,0-2.3-.4.1-1.1.1-1.2.3-.4,1.3-.7,2.6-1,3.9c0,0,.2.1.4.5v0Zm304.5,11.9c0,.7-.2,1-.1,1.1.3.5.7,1,1.1,1.4.2-.5.3-1,.3-1.5c0-.8-.1-1.6-.2-2.4-.1-.4-.5-.8-.8-1.2-.2.4-.3.8-.4,1.3c0,.4,0,.9.1,1.3v0ZM490.9,102c-.6-3.1-1.1-5.8-1.7-8.6c0-.2-.3-.4-.4-.6-.1.3-.2.5-.2.8.5,2.8,1.1,5.5,1.6,8.3.1.3.3.6.5.9.2-.4.2-.8.2-.8v0ZM405.6,27.5c-.6-1-.9-1.6-1.3-2.2l-2.4,2.8c.2.2.5.5.7.5c1.1-.4,2.1-.8,3-1.1Zm-62,207c-.7-.2-1.3-.6-1.9-1-.3-.2-.2-.8-.3-1.3-.4.5-.8,1.1-1.1,1.7-.1.6.1,1.2.5,1.6.6.3,1.2.4,1.9.2.3,0,.5-.6.9-1.2v0ZM363,74.3c.2-.1.4-.2.6-.3c1.2-1.5,2.4-3,3.6-4.6.1-.1.1-.3.1-.4-.2,0-.5,0-.6.1-1.2,1.4-2.4,2.8-3.6,4.2-.2.1-.1.5-.1,1v0ZM261.7,187.2c.4.6.7,1,.9,1.3.5-.9.9-1.8,1.2-2.8.1-.3-.3-.8-.5-1.3-.5.9-1.1,1.8-1.6,2.8v0ZM421.8,383.7c1.3-.6,2.4-1.1,3.5-1.6.3-.1.5-.2.8-.2-.3-.2-.5-.5-.8-.5-1.2.3-2.4.6-3.6,1-.5.1-.9.3-1.3.5.4.3.8.5,1.4.8v0ZM265.7,166.5c-.2.3-.4.7-.6,1.1c1,.9,2,1.7,3.1,2.4.2.1.4,0,.6-.1.1-.2.1-.4,0-.6-1-.9-2-1.8-3.1-2.8v0Zm62.2-22.9c.5.6.9,1.1,1.3,1.7.3-.5.9-1.1.9-1.6-.1-.6-.7-1.1-1.1-1.6-.4.4-.7.8-1.1,1.5Zm91.8,383.3c-.5.2-1.1.4-1.6.6c0,0,.1.5.2.5c1.6.2,3.3.5,4.9.6.1,0,.2-.2.3-.4-1.2-.4-2.5-.9-3.8-1.3v0Zm186-323c-.8.5-1.5,1-2.2,1.5.5.3,1,.9,1.3.8.7-.4,1.3-.8,1.9-1.4-.3-.2-.6-.5-1-.9v0ZM498.9,129.7c0,.4,0,.7,0,1.1.2.8.5,1.5.9,2.3.4.7.8,1.3,1.3,2-.1-.7-.3-1.4-.5-2.1-.3-.8-.6-1.5-.9-2.3-.2-.4-.5-.7-.8-1v0ZM523,202.3c.1,0,.1-.1.2-.1c1-.9,2.1-1.9,3.1-2.8-.1-.2-.2-.3-.3-.5-1.1.8-2.2,1.7-3.3,2.6-.2.1-.1.5-.1.8.2,0,.3,0,.4,0v0ZM299.2,184c-1-1.2-1.2-1.5-1.4-1.7-.6.9-1.2,1.8-1.7,2.7-.1.1.3.6.3.5c1-.5,1.9-1,2.8-1.5ZM424.3,379.5c.4,0,.8,0,1.3,0c.2,0,.3-.2.5-.3-.1-.1-.2-.3-.3-.3-1.5-.5-2.9-1-4.4-1.5-.2-.1-.5.1-.8.2c0,.2,0,.5.1.5c1.1.5,2.3.9,3.6,1.4v0ZM420.4,346c-.9-1-2-2.2-3-3.3-.1-.1-.5.1-.8.2.1.3.2.5.3.7.8,1,1.5,1.9,2.3,2.9.2.2.4.3.6.4.1-.1.2-.3.6-.9v0ZM314.1,229.6c-.4.6-.7.8-.7,1c.2.9.5,1.8.8,2.7c0,.1.6,0,.9,0-.3-1.1-.6-2.2-1-3.7ZM191.9,174.1c-.6-.7-1.1-1.2-1.6-1.8-.3.3-1,.9-.9,1c.4.6.9,1.2,1.4,1.7.1,0,.6-.4,1.1-.9v0Zm123.3,28.2c.3.5.6.9.8,1.4.3-.6.5-1.2.6-1.8c0-.5-.2-1.1-.4-1.5-.3.6-.6,1.2-1,1.9v0Zm3.5,24.1c-.4.7-.7,1.1-.6,1.2.3.6.7,1.2,1.1,1.7.2-.2.6-.6.6-.7-.3-.7-.7-1.5-1.1-2.2v0ZM289,182.1l-.8-.9-.6-1c-.4.6-.7,1.2-1.1,1.8-.1.1.4.7.5.7.8-.2,1.4-.4,2-.6v0Zm279.6,82.1c.3-.4.5-.6.7-.8-.8-.6-1.6-1.2-2.4-1.8-.1,0-.3.2-.5.3l2.2,2.3v0ZM503.6,152c-.1-.5-.2-.8-.3-1.2-.2.3-.4.7-.5,1-.2.9-.3,1.9-.4,2.8.1,0,.3,0,.3,0c.3-.9.6-1.8.9-2.6v0Zm83.3,65.4c-.3.7-.6,1.1-.5,1.2.3.6.7,1.2,1.2,1.7.2-.3.7-.7.6-.9-.4-.7-.8-1.4-1.3-2v0ZM296.8,131.3c-.2-.5-.5-1.3-.8-2.1c0,0-.2,0-.4,0c.1.8.2,1.6.2,2.3c0,.1,0,.1,0,.2.2.4.4.8.6,1.2.2-.4.3-.8.4-1.6v0Zm203.4,31c-.2-.6-.3-.9-.5-1.3-.2.4-.4.9-.6,1.3-.2.3-.3.7-.3,1.1c0,.5,0,.9.1,1.4.4-.9.9-1.8,1.3-2.5v0ZM347.6,222.5c-.9-.8-1.2-1.1-1.5-1.4-.3.4-.6.8-.9,1.3-.1.2.5.8.8.7.6-.1,1.2-.3,1.6-.6ZM214.8,171.7l1.3.1c.2-.5.3-1,.3-1.5c0-.3-.6-.6-.9-.6-.4,0-1.1.3-1.2.6-.1.4.3.9.5,1.4v0Zm-12.6-64.2c.5-.6.9-1.2,1.2-1.8.1-.1-.3-.5-.4-.7-.4.5-.8,1-1.2,1.5-.2.1.1.4.4,1v0ZM424.1,351v-2.8c-.1.8-.3,1.5-.4,2.3s-.1,1.6-.2,2.5c.3-.8.5-1.6.6-2v0ZM324.7,110.3c-.8.1-1.5.2-2.1.3.9.2,1.9.5,2.8.6.3,0,.7-.3,1-.5-.6-.2-1.2-.3-1.7-.4v0Zm18,100.9c-.3.7-.6,1.1-.5,1.2.4.5.8,1,1.2,1.4.2-.3.6-.6.6-.8-.4-.7-.8-1.3-1.3-1.8v0Zm-4.3-4.4c-.3.6-.8,1-.7,1.2.1.4.5.7.8,1c.2-.3.6-.7.6-1s-.3-.6-.7-1.2v0Zm196.2-98.7c.5-.9.9-1.7,1.3-2.5c0-.1-.2-.3-.3-.4-.6.8-1.2,1.6-1.7,2.4c0,0,.3.2.7.5v0Zm-33.2,47.6c-.3-.5-.5-.8-.7-1.1-.2.3-.5.7-.5,1c.1.5.3,1,.5,1.4.2-.4.5-.8.7-1.3v0ZM421.5,381c.7-.2,1.2-.4,1.7-.5-.5-.3-1-.5-1.5-.6-.5.1-.9.2-1.3.4.4.3.8.5,1.1.7v0Zm0,10.1c.7-.1,1.2-.2,1.6-.2-.6-.3-1.3-.6-1.9-.8-.3-.1-.8.2-1.1.4.6.2,1.1.5,1.4.6v0ZM339.3,217.6c.4-.5.8-.9.8-1.2s-.5-.6-.8-.8c-.2.2-.7.5-.7.7.1.4.4.7.7,1.3v0Zm79.8,313.1c.6-.3,1.1-.5,1.6-.7-.4-.1-.8-.2-1.2-.3-.4.1-.8.2-1.1.4.2.2.4.4.7.6v0ZM547.7,258c-.3.4-.6.8-.8,1.2-.1.2.2.4.4.7.3-.2.7-.5.9-.8c0-.2-.3-.5-.5-1.1v0Zm-57.5-96.5c.3-.5.6-1,.9-1.6.1-.1-.2-.4-.3-.6-.4.4-.7.7-1,1.2-.1.2.1.5.4,1ZM424.4,389.8c.6-.1,1-.2,1.5-.2-.5-.2-1-.4-1.5-.4-.5.1-.9.2-1.3.4.4,0,.9.1,1.3.2v0ZM634,127.9c.3-1.3.5-1.9.6-2.5c0-.2-.1-.4-.2-.6-.3.6-.6,1.1-.9,1.7c0,.2.2.5.5,1.4v0ZM418.7,427.3c.1.4.1.7.2,1c.2-.6.5-1.2.6-1.8.1-.3-.2-.6-.3-.9-.1.6-.3,1.1-.5,1.7v0Zm2.7-31.1c.4-.1.8-.3,1.1-.4-.4-.2-.9-.4-1.3-.5-.3,0-.7.3-1,.4.4.2.8.4,1.2.5v0ZM290.6,186.5c.2-.8.4-1.3.5-1.9c0-.1-.3-.2-.5-.4-.2.5-.3,1.1-.5,1.6c0,.2.2.4.5.7v0ZM301,145.6c.2-.5.5-.8.4-1c0-.2-.3-.4-.4-.7-.2.2-.4.4-.4.6s.1.6.4,1.1v0ZM373,61l-.3-.2c-.3.6-.6,1.1-.9,1.7c0,.1.3.4.4.6.3-.7.5-1.3.8-2.1v0ZM484.4,8.6c-.5-.5-.8-.7-1.1-1-.2.2-.5.4-.5.5.2.3.4.6.7.8.1,0,.4-.2.9-.3ZM424.8,346.1c-.3.1-.6.2-1,.3.4.2.9.7,1.3.7.5,0,.9-.5,1.4-.8-.5,0-1-.1-1.7-.2v0Zm87.5-49.4l.7,1.1c.1-.2.2-.5.2-.8-.1-.5-.3-1-.5-1.5-.1.3-.2.6-.4,1.2v0Zm3.3-4.4c-.7-.7-.9-.9-1.1-1.1-.2.3-.5.7-.6,1.1c0,.1.3.6.4.6.5-.3.9-.4,1.3-.6v0Zm-94,101.3c.5-.2.8-.3,1.2-.5-.4-.2-.9-.4-1.4-.5-.3,0-.7.3-1.1.4.4.3.9.5,1.3.6v0ZM319,172.7c.3.6.5,1.1.8,1.7.1-.2.1-.4.1-.5-.1-.6-.3-1.2-.4-1.9-.2.2-.3.4-.5.7Zm-99.7-1.4c.1-.3.2-.6.2-1c0-.2-.4-.6-.5-.5-.3.1-.5.3-.8.5.2.2.4.3,1.1,1v0ZM424,392.4c.8-.2,1.3-.3,1.8-.4-.5-.2-1-.3-1.6-.3-.5.1-.9.2-1.3.5.5.1.9.2,1.1.2v0ZM315.2,167.6c-.2-.3-.5-.5-.8-.6-.1,0-.5.4-.5.6.1.3.3.5.6.7.1-.1.3-.4.7-.7v0Zm25,46.7c-.3-.3-.5-.7-.6-.7-.3.1-.6.3-.7.5-.1.1.2.6.4.6.2-.1.6-.2.9-.4v0ZM429.6,17.9c-.2-.3-.3-.5-.4-.8-.2.1-.6.3-.6.4.1.3.2.5.4.7.2-.1.4-.2.6-.3v0Zm154,199.5c.3-.3.5-.6.7-.9-.2-.3-.5-.5-.8-.7c0,0-.4.3-.4.4.1.4.3.8.5,1.2v0ZM420.5,439.6c-.5-.1-1-.1-1.5-.1-.2,0-.4.3-.6.5.3.1.6.2,1,.2.2,0,.4-.2,1.1-.6v0ZM346.7,228.2c.1-.7.2-1,.2-1.2s-.3-.4-.5-.6c-.1.2-.2.5-.2.8-.1.2.2.4.5,1v0Zm280-36.5c-.3-.2-.5-.4-.5-.4-.3.3-.7.5-1,.8.1.1.3.4.4.4.3-.2.6-.4,1.1-.8v0ZM317.2,208.2v-.7c-.3-.1-.6-.3-.8-.2s-.3.4-.4.7c0,.1.2.4.3.4.4,0,.7-.1.9-.2v0Zm13.1,19.5c-.2-.2-.5-.3-.8-.4-.1,0-.3.3-.4.4.2.2.4.3.6.5.1,0,.3-.2.6-.5v0Zm-57.1-150c-.5-.3-.7-.5-1-.5-.2,0-.4.3-.6.4.2.2.4.5.6.5.3.1.5-.2,1-.4v0Zm-20.5,92.1c-.4-.3-.6-.6-.8-.5-.3.1-.6.3-.8.6.2.2.4.5.5.5.4-.1.8-.3,1.1-.6v0Zm54.5,34.1c-1-.5-1.3-.7-1.4-.7-.2.1-.4.3-.4.6c0,.2.4.4.6.4.4,0,.8-.1,1.2-.3v0Zm38.6-30.3c.1-.3.1-.7.1-1c0-.2-.3-.3-.4-.4-.1.2-.2.5-.2.8c0,0,.3.2.5.6v0ZM478,134.8c-.2-.2-.3-.4-.4-.5-.1.1-.2.3-.3.5c0,.1.1.2.2.4.1-.1.3-.2.5-.4v0ZM220.1,155.3c-.2.2-.3.5-.3.8c0,.1.3.3.4.4.2-.3.3-.5.5-.8-.2-.1-.4-.2-.6-.4ZM391.2,28c-.2.3-.4.5-.6.8c0,0,.3.3.3.3.2-.1.3-.2.4-.4s0-.4-.1-.7ZM242.4,126.3c-.2-.1-.3-.3-.5-.4-.1.2-.3.3-.3.5c0,.1.2.3.4.4.1-.2.2-.3.4-.5Zm16.1,18.3c.1-.3.2-.5.1-.6-.1-.2-.3-.2-.5-.3-.1.2-.2.4-.2.5.1.1.3.2.6.4v0Zm96.2-3.6c-.2-.2-.3-.4-.4-.6-.2.1-.3.2-.4.4c0,.1,0,.3.1.4.3,0,.5-.1.7-.2v0Zm-51.1-13.3c.1.1.3.2.5.3.1-.1.2-.3.2-.4-.1-.2-.2-.3-.3-.5-.2.1-.3.2-.4.6v0Zm-60.8-4c-.1-.3-.1-.4-.1-.7-.1.1-.3.3-.3.4c0,.2,0,.4.1.6c0-.1.2-.2.3-.3v0Zm-9.3,11.2c-.1.2-.2.3-.3.5c0,0,.3.2.3.2.1-.1.3-.3.4-.5l-.4-.2v0Zm-27-27.5c.3-.3.5-.4.5-.6c0-.1-.2-.3-.3-.4-.1.1-.3.2-.3.3c0,.2.1.4.1.7v0ZM475.3,77.9c-.1-.4-.1-.7-.1-1-.1.2-.2.4-.3.6c0,.3,0,.6.1.8.1-.1.2-.3.3-.4v0ZM422.4,398.1c-.5-.1-1.1-.2-1.6-.2-.2,0-.3.1-.5.2.3.1.7.1,1,.1.4.1.8,0,1.1-.1v0ZM591.8,198.8c-.2-.1-.4-.1-.7-.2-.1,0-.3.3-.2.3.1.1.3.4.4.3.2.1.3-.2.5-.4v0ZM419.4,451.3c.2-.1.4-.2.6-.3-.2-.2-.4-.3-.7-.4-.2,0-.4,0-.6.1.2.3.5.4.7.6v0Zm2,5.4c.1-.5.2-.9.2-1.4c0-.2-.2-.4-.3-.6-.2.5-.3.9-.5,1.4c0,0,.3.2.6.6v0Zm.5,7.4l-.7-.6c-.2.2-.4.4-.5.7c0,.1.3.4.5.4s.4-.3.7-.5v0ZM305.5,197.6c.1-.2.3-.3.4-.5c0-.1-.2-.3-.2-.3-.2,0-.3.1-.5.2c0,.2.1.4.3.6v0ZM570,199.3c0,.4-.1.6-.1.7.1.2.3.3.5.5c0-.2.1-.4,0-.6s-.3-.4-.4-.6v0ZM449.8,327c-.1-.1-.2-.3-.3-.3s-.2.2-.3.3c.1.1.2.3.3.3s.2-.2.3-.3Zm24.9-213.9c.1-.1.1-.2.2-.3-.1-.1-.2-.2-.3-.2s-.1.2-.2.3c.1.1.2.1.3.2v0Zm-129.8,102c-.1.1-.3.1-.3.2s0,.3,0,.4c.2-.1.3-.1.5-.2c0-.1-.1-.3-.2-.4ZM262,182.8c-.1-.1-.2-.2-.3-.2-.1.1-.2.3-.2.4.1.1.2.2.4.3.1-.3.1-.4.1-.5v0Zm73.2-36.7c.1-.1.3-.1.3-.2s-.1-.2-.2-.3c-.1.1-.3.1-.3.2s.1.2.2.3v0ZM508,469.3c.3-.2.5-.4.8-.6-.2,0-.4-.1-.5-.1-.3.1-.5.2-.7.4.1.1.2.2.4.3ZM460.3,126.8c.2-.4.4-.7.4-.9s-.3-.3-.5-.5c-.2.2-.4.4-.4.6-.1.2.2.4.5.8v0Zm32.6,3.2c-.1-.1-.2-.2-.2-.3c0,.1-.1.3-.1.4s.1.2.2.3c0-.2.1-.3.1-.4v0Zm-165.8,4.2l-.2-.3-.3.3c.1.1.2.2.3.2c0,0,.1-.1.2-.2v0Zm216.6,137c.1-.1.2-.3.3-.5c0-.1-.2-.2-.2-.3-.1.1-.2.3-.3.4s.1.3.2.4v0Zm68.7-69.4c-.2-.1-.3-.2-.4-.1-.1.2-.3.3-.4.5.1,0,.3.2.3.1.2-.2.4-.4.5-.5v0ZM279.9,118.3c-.1.2-.2.3-.2.4c0,.2.1.4.1.6.1-.1.2-.2.2-.3c0-.2,0-.5-.1-.7v0ZM466.2,126c-.2.3-.4.4-.4.6s.2.3.4.4c.1-.1.4-.3.4-.4c0-.2-.2-.3-.4-.6Zm-171.9,1.6c0-.1-.1-.3-.2-.4c0,0-.2,0-.3.1c0,.1.1.3.2.4c0,0,.2-.1.3-.1Zm23.5,38.9c0-.1,0-.2,0-.2-.1,0-.2,0-.3,0c0,.1,0,.2,0,.2s.2,0,.3,0v0ZM421.4,453.9c.1-.4.2-.9.2-1.3c0-.2-.1-.4-.2-.5-.1.2-.2.5-.2.7c0,.4.1.7.2,1.1v0Zm-.4,4.4c-.2.2-.4.4-.4.5s.3.4.4.4c.2-.1.3-.3.5-.5-.1-.1-.2-.3-.5-.4v0ZM370.1,64.2c-.1.1-.3.3-.4.5c0,0,.1.2.2.2.1-.1.3-.3.4-.4.1,0,0-.2-.2-.3Zm51.5,451c-.2,0-.4,0-.5.1.1.1.3.2.5.3.1,0,.3,0,.4-.1-.2-.1-.3-.2-.4-.3v0ZM643.3,126.3c0-.1,0-.3.1-.4-.1,0-.2,0-.4,0c0,0,0,.2,0,.2.1.1.2.2.3.2ZM422.6,427.7c-.1.1-.3.2-.3.3s.1.2.2.4l.4-.3c-.2-.2-.2-.3-.3-.4Z" fill="#3f497f"/><path d="M636.4,83.9c-.4,1.1-.8,2-1.2,3c0,.1-.6,0-.6,0-.1-1-.1-2,0-3c.1-.5.6-1,1-1.5.3.4.6,1,.8,1.5v0Z" fill="#3f497f"/><path d="M306.6,42.7c.7,1,1,1.6,1.4,2.2-.6.4-1.3.8-1.9,1.1-.3.1-1.1-.6-1-.7.4-1,.9-1.8,1.5-2.6v0Z" fill="#3f497f"/><path d="M641.6,80.5c.3.5.6.8.5.9-.3.6-.6,1.1-.9,1.7-.2-.1-.4-.2-.6-.3.3-.7.6-1.3,1-2.3v0Z" fill="#3f497f"/><path d="M316.9,35.7c-.2-.2-.4-.3-.6-.5.4-.3.8-.5,1.3-.7.2-.1.5.3.8.4-.5.3-1,.6-1.5.8v0Z" fill="#3f497f"/><path d="M263.5,85.3l-.7.6c-.2-.2-.4-.4-.5-.6s.3-.4.4-.6c.3.2.5.4.8.6Z" fill="#3f497f"/><path d="M634.6,77.6c0,.1-.1.2-.1.4-.1-.1-.3-.2-.3-.3c0-.2.1-.3.2-.5.1.2.2.3.2.4v0Z" fill="#3f497f"/><path d="M632.5,73.2c-.1.1-.3.2-.3.2-.1-.1-.2-.2-.3-.3c0-.1.1-.2.1-.3.2.1.4.2.5.4v0Z" fill="#3f497f"/><path d="M442.7,123.3c-2.8,3.4,1.3,4.5,2.1,6.7.9,2.4,3.2,3.8,5.8,4.4c2,.5,4,1.1,5.9,1.7.2.1.4.2.6.3-.1.2-.2.6-.4.6-1.6.5-1.3,1-.1,1.6.2.1.3.5.5.8-.3,0-.6,0-.8-.1-2.5-1.1-5.1-2.1-7.5-3.4-2.7-1.4-3-1.2-4.7,1.3-1.2,1.8-1.9,3.3-.1,5c.3.4.4.8.2,1.2-1.9,2.9.6,4.2,2.1,5.7c3.2,3.1,6.6,6,9.8,9.1c5,4.8,2.4,9-3.1,10.8-1.9.6-4.1.2-6.1.4-1.4,0-2.8.3-4.1.7-1.7.8-3.7.6-5.3-.4-2.5-1.6-5.6-1.8-8.3-.5-3.2,1.5-6.5.2-9.7-.2-.4,0-.7-.6-1.1-1c.4-.2.8-.4,1.2-.7.6-.4,1.1-.8,1.6-1.2-.7-.7-1.4-1.4-2.2-2.1-.1-.1-.7.6-1.2.9-.5.4-1.1.6-1.6.9-1.4.5-3,.6-3,2.7c0,.1-1,.6-1.2.4-1.6-1-3.1-2-4.6-3.2-.2-.5-.2-1.1.1-1.5c2.6-2.1,5.7-3.6,9-4.1.2-.1.4-.1.7,0c3.5,2.2,6.8.2,10.1-.6c1.6-.4,2.9-1.4,3.8-2.8.6-1.4,2.1-2.3,3.7-2.2c2.4-.1,2.7-.7,1.3-2.7-1.6-2.1-3.3-4.2-5.2-6.1-1-1.1-1.5-2-.3-3.3.3-.3.6-.9.5-1.2-.8-2.7-.9-5.5-.3-8.2.5-2.3.3-4.8.7-7.1.2-1.2.7-2.3,1.5-3.2.6-.8,1.4-1.3,2.4-1.4.7.1,1.4,1.2,2,2c.3.5.6,1,.8,1.6.4-.5.8-1.1,1.2-1.6.1-.2.1-.4.2-.6.4-.7.9-1.4,1.3-2.1.5,1,1.1,1.8,1.8,2.7v0Zm-4.6,35.8c.1.2.1.8.4,1c.9.7,2.1,2,2.8,1.8c1.6-.4,2.9-1.6,4.4-2.4-.3-.5-.5-1.1-.9-1.4-1.1-.6-2.3-1.1-3.5-1.6-1.7-.7-3.2.4-3.2,2.6v0Z" fill="#3f497f"/><path d="M448.7,200.9c-.4-1.8-.7-3.7-1.2-5.4-.2-1.4-1.6-2.3-3-2.1-.6.1-1.1.4-1.5.9-.8.8-1.2,1-2.2.4-.8-.2-1.7,0-2.4.5-1.8,1.4-2.9,1.3-4.3-.6-1.1-1-2.4-1.5-3.9-1.6-3.5-.3-6.9-.3-10.4-.2-1.1.1-2.1.4-3.1.8-.3.1-.7.5-1,.4-1.8-.3-3.5-.7-5.3-1.2-3.1-1-5.1-.3-7.4,2-1.7,1.7-3.8,3-5.5,4.6-.5.6-.7,1.3-.6,2.1s.8,1.5.8,2.2c.1,3.6,2.6,4.7,5.5,5.5.7.2,1.3,1,1.9,1.7.9,1,1.9,2,2.7,3.1.3.5.6,1.1.8,1.7-.5.2-1.1.6-1.6.5-2.1-.7-4.6-1-6.1-2.3-4.8-4.2-9.2-8.9-13.7-13.4-2.2-2.2-1.8-3.6.5-5.6c2.3-1.9,5.1-3.1,8-3.5c3.2-.5,6.2-2,9.4-2.9c4.5-1.3,8.8-.1,13.2.9c1,.3,2,.4,3,.3c2.4-.6,5.2.3,7.4-1.6.2-.2.8.2,1.2.3.6.2,1.3.3,2,.2c6.7-2.6,13.4-1.3,20.1.1c3.7.8,7.4,1.7,11,2.8c4.3,1.3,4.9,5.4,1.6,8.4-1.8,1.7-3.2,3.9-5,5.7-2.8,2.6-5.8,5.1-8.7,7.5-1,1-2.2,1.9-3.5,2.6-2.3.8-4.8,1.4-7.2,1.6-.6.1-1.6-.9-2.1-1.7-1.5-2.4-3.8-2.7-6.2-2.7-.6,0-1.2.1-1.8.2-4.2,1-8.7.8-12.8-.6-2.8-.9-5.8-1-8.7-1.5-.6-.2-1.2-.5-1.7-.9.8-.5,1.5-1.3,2.3-1.4c1.6,0,3.2.1,4.8.3.4,0,.9-.1,1.1.1c1.7,1.9,3.9,1.2,5.9,1.2c3.9.1,7.9,0,11.8-.2c3.3-.2,6.5-.8,9.8-1.2.6,0,1.1.1,1.6.4c2.2,1.1,2.7,1,3.6-1.4.5-1.2.8-2.1,2.3-1.3.3.1,1.4-.7,1.5-1.1.1-1.2,0-2.3-.1-3.5-.6.2-1.3.4-1.9.6-.3.2-.6.3-.9.6l-.4-2.3c.2.1.3.1.4,0v0Zm5.2,4.8c.3-.6.5-1.2.6-1.9c0-.3-.4-.6-.6-.9-.4.4-.6.9-.9,1.4-.1.2.4.6.9,1.4v0Zm-14.7,8c-.1-.2-.2-.5-.3-.5-.2,0-.4.1-.5.3c0,.1.1.3.2.5.2-.1.4-.2.6-.3v0Z" fill="#3f497f"/><path d="M401.6,130c-2.7-.3-5.4-.5-8.1-.8-2.9-.3-5.8-1.2-8.7-1.1-4.3.3-8.5,1.4-12.7,2-2.1.3-4.3.5-6.4.7-.2,0-.5-.2-.8-.3.2-.2.3-.4.5-.6c3.7-3.3,8.4-5,12.7-7.3.4-.2.8-.3,1.2-.4-.2.3-.4.7-.5,1-.1.4-.1.8.1,1.1.6.1,1.2.1,1.8,0c2.5-.9,5-1.7,7.6-2.4c2.2-.4,4.4-.4,6.6.1c3.9,1.1,7.6,2.4,11.3,3.9.7.3,1.1,1.3,1.6,1.9-.6.5-1.2,1-1.9,1.3-1.4.4-2.9.7-4.3,1v-.1v0Zm-3.4-3.2c.7.4,1.5.7,2.2.9.2,0,.6-.4.9-.7-.6-.4-1.2-.8-1.8-1.2-.2,0-.6.5-1.3,1v0Zm-3-2.3c-.2.3-.5.6-.5.8s.3.4.5.6c.2-.2.5-.4.6-.7c0-.2-.4-.4-.6-.7v0Zm-5.2.4c-.3-.2-.5-.4-.7-.5-.1,0-.4.3-.4.4.1.2.3.4.5.5c0,0,.3-.2.6-.4v0Z" fill="#3f497f"/><path d="M281.5,193.3c-.6-.2-1.3-.5-1.8-.9-.3-.2-.3-.9-.5-1.3-.3.6-.8,1.2-.7,1.7.2,1.4.4,2.6-.9,3.6-.2.2-.5.4-.7.6-.1-.3-.1-.6-.1-.9.2-.9.4-1.7.6-2.6c0-.2-.1-.5-.2-.8-.2.2-.3.4-.5.6-.2.4-.3.8-.5,1.2-.1.2-.3.4-.5.6-.1-.2-.3-.4-.3-.6c0-1.8,0-3.7,0-5.5c0-.3.4-.9.5-.9c1.7,0,1.5-1.3,1.6-2.4.1-.4.2-.7.4-1c.2.3.3.5.5.8s.5.6.8.9c.2-.3.4-.6.5-.9.4-1.2.8-2.3,1.2-3.5.1,1.2.2,2.4.3,3.5.1.5.2,1.1.3,1.6.3-.4.5-.9.8-1.3s.7-.9,1-1.3c.1.6.2,1.1.1,1.7c0,.7-.2,1.5-.7,2.1-1.4,1.6-1.4,3.3-1.2,5v0v0Z" fill="#3f497f"/><path d="M445,111c.3.3.6.7.9,1.1c1.5,1.8,3,3.6,4.5,5.4.3.5.5,1.1.6,1.7-1.1.6-2.3,1.5-3.3,1.3-1.5-.3-2.8-1.5-4.2-2.3-.3-.2-.9-.5-.8-.6.5-2.2,1.2-4.3,1.8-6.4-.1-.1.1-.1.5-.2v0Z" fill="#3f497f"/><path d="M490.1,157.1c-.5-.6-.9-1.3-1.3-2-.8-2.9-2.2-4-5.2-4.4-.7-.2-1.4-.5-2-.9.7-.3,1.4-.5,2.1-.8c1.1-.5,2.2-1,3.3-1.5.5-.3,1-.7,1.4-1.1.4.6,1,1.2,1,1.9.4,2.9.5,5.9.7,8.8v0v0Z" fill="#3f497f"/><path d="M392.5,167.3c-.3-.6-.8-1.1-.7-1.4c1.1-2.6,2.3-5.1,3.6-7.5.3-.6,1.9-.4,3-.6c0,.9-.2,1.8-.5,2.6-1.1,1.8-2.2,3.5-3.5,5.2-.6.7-1.2,1.3-1.9,1.7v0Z" fill="#3f497f"/><path d="M428.1,221.8c-1.3-.1-2.6-.3-3.9-.5-.1,0,0-1.7.2-1.7c1.4-.4,2.8-.7,4.3-.7.3,0,1,1.3.8,1.7-.3.6-1.1,1-1.4,1.2v0Z" fill="#3f497f"/><path d="M357.7,161.5c1.7.3,3.3.4,2.3,2.7-.2.8-.3,1.7-.3,2.6-.6-.7-1.1-1.4-1.7-2.1-.3-.3-.7-.6-.9-1-.4-.5-.7-1.1-1-1.6.6-.2,1.2-.4,1.6-.6v0Z" fill="#3f497f"/><path d="M308.4,219.9c-.1.2-.2.6-.4,1-.4-.2-.9-.4-1-.7-.8-1.8-1.6-3.6-2.4-5.5-.1-.2.2-.6.4-.9.3.3.5.5.8.8.4.4.9.7,1.3,1.1.3.2.7.5.8.7.2,1.1.3,2.2.5,3.5v0Z" fill="#3f497f"/><path d="M214.2,205.6c-1,1.8-2,3.6-3,5.4-.2-.1-.7-.4-.7-.4.9-1.7,1.8-3.5,2.7-5.2.1-.2.5-.2.8-.2.1.2.1.3.2.4v0Z" fill="#3f497f"/><path d="M207.9,201.7c0,1.2,0,2.4,0,3.6-.1.5-.2,1-.3,1.5-.2-.1-.4-.1-.5-.2-.4-.6-1.1-1.3-1-1.8.4-1.2.9-2.3,1.6-3.4.1-.2.3-.2.5-.3l.2.6h-.5v0Z" fill="#3f497f"/><path d="M309.7,223.4c.4.5,1.2,1.2,1.1,1.6-.3.8-.8,1.6-1.4,2.3-.3-.4-.7-.8-.7-1.3c0-.8.1-1.6.3-2.5.2,0,.4-.1.7-.1v0Z" fill="#3f497f"/><path d="M474.2,142.1c-1,.6-1.5,1.2-2,1.1-.6-.1-1.2-.7-1.8-1.1.5-.4,1-1.1,1.6-1.2.5,0,1.1.6,2.2,1.2Z" fill="#3f497f"/><path d="M399.4,134.8c-.5-.1-.6-.1-.8-.2.1-.2.2-.4.4-.5c1.7-.7,3.4-1.4,5.1-2.1c0,0,.2.5.2.5-1.7.9-3.4,1.6-4.9,2.3v0Z" fill="#3f497f"/><path d="M266.8,205.6c-1.3,1.1-2.2,1.9-3.2,2.7-.2-.3-.4-.5-.5-.8c0-1.7,1.3-1.9,2.5-2.2.3,0,.4.1,1.2.3Z" fill="#3f497f"/><path d="M273.8,207.9c0-.7-.2-1-.1-1.2.4-.8.9-1.5,1.4-2.3.2-.4.5-.7.8-1c.1.5.6,1.1.4,1.3-.7,1.2-1.6,2.2-2.5,3.2Z" fill="#3f497f"/><path d="M273.4,195c-.5,1.1-1,2.2-1.5,3.3.1-1.1.2-2.3.3-3.4.1-.4.3-.7.6-1.1.2.4.3.8.6,1.2v0Z" fill="#3f497f"/><path d="M214,198.8c-1,1.3-1.6,2.1-2.2,2.8-.2-.3-.6-.7-.5-.8.5-.8,1-1.6,1.6-2.4c0,0,.5.2,1.1.4v0Z" fill="#3f497f"/><path d="M250.1,183.2c-.9.9-1.9,1.9-3,2.8-.1.1-.2,0-.4,0c0-.2.1-.4.2-.6.7-1,1.4-1.9,2.1-2.8.2-.2.5-.2.7-.2.1,0,.2.3.4.8v0Z" fill="#3f497f"/><path d="M269.4,200.8c-.1.5-.3,1.3-.4,2.1-.2-.8-.3-1.7-.4-2.6.1-.8.2-1.5.4-2.3.1.9.2,1.7.4,2.8Z" fill="#3f497f"/><path d="M442.8,197.9c.2.8.4,1.7.5,2.5c0,.2-.3.5-.5.8-.4-.6-.7-1.2-.9-1.9-.1-.2.4-.6.9-1.4v0Z" fill="#3f497f"/><path d="M209.8,191c-.4-.3-.6-.5-.8-.6.8-.6,1.7-1.2,2.6-1.7.1,0,.4.4.7.6-.8.6-1.6,1.1-2.5,1.7v0Z" fill="#3f497f"/><path d="M185.1,176.3c.2-.2.3-.4.5-.4.6-.2,1.3-.3,1.9-.4.1.4.1.8.2,1.2-.7-.1-1.3-.2-2-.3-.2,0-.4-.1-.6-.1v0v0Z" fill="#3f497f"/><path d="M262.6,211.2c-.6.8-1,1.6-1.5,2.3-.2-.2-.5-.5-.4-.5.4-.8.9-1.5,1.3-2.2.2.1.3.2.6.4v0Z" fill="#3f497f"/><path d="M212.2,220.9c-1,.3-2,.6-3,.9-.4.1-.8.1-1.2.1.4-.2.8-.4,1.2-.6.7-.3,1.5-.6,2.2-.8.3-.1.5-.1.8-.1-.1.1-.1.3,0,.5v0Z" fill="#3f497f"/><path d="M454.2,86.8c-.6-1-1.1-1.8-1.5-2.6c0,0,.2-.2.2-.2.6.7,1.2,1.5,1.7,2.2.1,0-.1.2-.4.6Z" fill="#3f497f"/><path d="M305.9,230.2c.3.5.5,1.1.6,1.7c0,.3-.3.5-.5.8-.2-.3-.3-.6-.5-1c.1-.5.2-1,.4-1.5Z" fill="#3f497f"/><path d="M287.5,191.8c.1.3.2.7.1,1.1-.2.4-.4.8-.7,1.2c0,0-.3-.1-.3-.2.1-.5.3-.9.4-1.3.2-.3.4-.6.5-.8.1,0,.1,0,0,0v0Z" fill="#3f497f"/><path d="M494.6,147.3c-.2.4-.4.9-.6,1.4-.1-.2-.1-.4-.1-.6.1-.5.3-1,.5-1.6.1.2.1.4.2.8v0Z" fill="#3f497f"/><path d="M473.4,144.7c.3.4.5.6.5.8c0,.1-.3.4-.5.4-.1,0-.4-.3-.4-.4c0-.2.2-.4.4-.8Z" fill="#3f497f"/><path d="M396.4,89.6c-.4.3-.7.6-.8.5-.2-.1-.4-.4-.5-.6c0-.1.4-.4.6-.4s.4.2.7.5v0Z" fill="#3f497f"/><path d="M305.7,224.7c.1.4.3.7.3.9s-.4.2-.6.4c-.1-.2-.2-.5-.2-.8c0-.1.2-.2.5-.5v0Z" fill="#3f497f"/><path d="M278.2,200.9c-.3.3-.5.5-.7.7-.1-.1-.3-.3-.3-.4c0-.2.2-.4.3-.5.2,0,.4.1.7.2v0Z" fill="#3f497f"/><path d="M345.7,251.5c-.3.2-.5.5-.5.4-.3-.2-.6-.4-.8-.6.1-.1.3-.4.3-.4.3.2.6.4,1,.6Z" fill="#3f497f"/><path d="M400.6,91.2c-.2-.3-.3-.6-.4-1c0-.1.2-.3.3-.5.2.2.3.5.4.7c0,.2-.1.4-.3.8v0Z" fill="#3f497f"/><path d="M400.2,202.7c-.2.1-.4.3-.4.3-.2-.1-.3-.2-.4-.4c0,0,.2-.3.3-.3.1.1.3.2.5.4Z" fill="#3f497f"/><path d="M289.1,211.9c-.2-.3-.5-.4-.4-.6c0-.2.1-.4.3-.5.1-.1.5.1.5.2-.2.2-.3.6-.4.9v0Z" fill="#3f497f"/><path d="M216,196.9c-.6.3-.8.4-.9.5-.1-.2-.2-.4-.2-.6c0-.1.2-.3.3-.2.3.1.6.2.8.3v0Z" fill="#3f497f"/><path d="M306.7,208.4c-.1.1-.1.3-.2.3s-.2-.1-.3-.2c.1-.1.1-.3.2-.3c0,0,.2.1.3.2Z" fill="#3f497f"/><path d="M454.9,81.3c-.1.1-.1.2-.2.3-.2-.1-.3-.3-.4-.4c0,0,.1-.2.1-.2.2.1.3.2.5.3v0Z" fill="#3f497f"/><path d="M462.7,119.4c-.1.1-.2.2-.3.2s-.2-.1-.3-.2c.1-.1.2-.2.3-.2s.2.1.3.2v0Z" fill="#3f497f"/><path d="M453.6,121.3c-.2,0-.4.1-.6.1c0-.1,0-.3,0-.3.1-.1.3-.1.4-.1c0-.1.1.1.2.3v0Z" fill="#3f497f"/><path d="M348.3,253.8c-.1.1-.2.2-.3.1-.1,0-.1-.2-.2-.3.1-.1.2-.2.3-.1.1,0,.2.2.2.3Z" fill="#3f497f"/><path d="M216.6,188.8c.1.1.1.2.2.3-.1.1-.2.2-.3.2s-.1-.2-.2-.3c.1-.1.2-.2.3-.2v0Z" fill="#3f497f"/><path d="M261.5,198.9c-.1.1-.2.1-.3.2c0-.1-.2-.3-.1-.4c0-.1.2-.2.3-.2c0,.1.1.2.1.4Z" fill="#3f497f"/><path d="M485.7,138.9c-.1.1-.2.2-.3.3c0,0-.2-.1-.2-.1c0-.1.1-.2.1-.4.2,0,.3.1.4.2v0Z" fill="#3f497f"/><path d="M279.7,206.1c-.1.1-.2.1-.3.2-.1-.1-.2-.2-.1-.3c0-.1.2-.1.3-.2c0,.1.1.2.1.3v0Z" fill="#3f497f"/><path d="M217.2,206.1c.1.1.3.1.3.2s-.1.2-.2.3c-.1-.1-.3-.1-.3-.2s.2-.2.2-.3v0Z" fill="#3f497f"/><path d="M451.2,80.4c.1.1.3.2.3.3s0,.2,0,.3c-.1-.1-.3-.1-.3-.2-.1-.1,0-.3,0-.4v0Z" fill="#3f497f"/><path d="M442.2,330.9c-.1,0-.2-.1-.3-.1.1-.1.2-.2.3-.2c0,0,.1,0,.2.1-.1,0-.2.1-.2.2Z" fill="#3f497f"/><path d="M259.7,215.3l-.3.3c-.1-.1-.2-.2-.2-.3s.2-.2.3-.3c.1.2.2.3.2.3Z" fill="#3f497f"/><path d="M457.7,88.6l-.2.3c-.1-.1-.2-.2-.3-.3c0-.1.1-.2.2-.2.1-.1.2,0,.3.2v0Z" fill="#3f497f"/><path d="M423.1,264.9c.1.1.2.1.3.2-.1.1-.1.3-.2.3s-.2-.1-.3-.2c0-.1.1-.2.2-.3v0Z" fill="#3f497f"/><path d="M611.8,227.3c-.1,0-.3-.1-.6-.1.1-.2.1-.6.2-.7c2.2-1.9,3.3-4.4,4.2-7.1.1-.3.4-.5.7-.7.2.2.4.4.5.7.4,1.5-3.1,7.4-4.6,7.9c0,0-.2,0-.4,0v0Z" fill="#3f497f"/><path d="M323.7,207.8c-.4-.6-.8-.9-.7-1.1.2-.5.5-.9.9-1.3.2.3.5.6.5.9-.2.5-.4,1-.7,1.5v0Z" fill="#3f497f"/><path d="M216.6,163.9c-.2.2-.3.4-.4.5-.1-.1-.3-.2-.4-.4c0-.1.1-.3.2-.3.2.1.4.2.6.2Z" fill="#3f497f"/><path d="M607.8,212.9c.3.3.4.5.6.7-.4.3-.8.5-1.3.7-.1,0-.4-.3-.6-.4.4-.4.8-.7,1.3-1v0Z" fill="#3f497f"/><path d="M599.6,219.6c-.3.1-.6.2-.9.3-.2,0-.5-.3-.7-.4.2-.2.3-.6.5-.6.2-.1.5.1.7.2s.3.3.4.5v0Z" fill="#3f497f"/><path d="M426.9,372.2c0,.9,0,1.8-.2,2.7-.2.5-.9,1.2-1.3,1.1-.8-.2-1.5-.6-2.1-1.2-.3-.2,0-1,0-1.5.1-.4.1-.7.1-1.1-.1-.6-.3-1.3-.4-1.9.9-.2,1.8-.3,2.7-.4.5.1.9.5,1.1.9.1.5.1.9.1,1.4v0Zm-1.9,1.2c-.1.2-.1.3-.2.5.1.1.2.2.4.2.2-.1.3-.2.4-.3l-.6-.4Z" fill="#3f497f"/><path d="M422.9,364.7c-.2-.1-.3-.2-.3-.2.1-.2.1-.3.2-.5.1.1.3.1.3.2-.1.1-.1.3-.2.5v0Z" fill="#3f497f"/></g></g><rect id="e14hDEwvOFR73" width="550.19224" height="23.995923" rx="0" ry="0" transform="matrix(0 0 0 1 427.693425 578.547193)" fill="#3f497f" stroke-width="0"/><rect id="e14hDEwvOFR74" width="550.19224" height="23.995923" rx="0" ry="0" transform="matrix(0 0 0 1 426.830959 613.146896)" fill="#3f497f" stroke-width="0"/><rect id="e14hDEwvOFR75" width="550.19224" height="23.995923" rx="0" ry="0" transform="matrix(0 0 0 1 427.693425 649.853038)" fill="#3f497f" stroke-width="0"/>
</svg>
